<svg width="447" height="41" viewBox="0 0 447 41" fill="none" xmlns="http://www.w3.org/2000/svg">
<path d="M0.445293 1.06C1.28863 1.09667 2.37029 1.13333 3.69029 1.17C5.04696 1.20666 6.38529 1.225 7.70529 1.225C9.46529 1.225 11.1336 1.20666 12.7103 1.17C14.3236 1.13333 15.4603 1.115 16.1203 1.115C20.227 1.115 23.2886 1.92167 25.3053 3.535C27.3586 5.14833 28.3853 7.22 28.3853 9.75C28.3853 11.0333 28.0736 12.3167 27.4503 13.6C26.8636 14.8467 25.892 15.9833 24.5353 17.01C23.1786 18 21.382 18.7883 19.1453 19.375V19.485C22.2253 19.815 24.6453 20.475 26.4053 21.465C28.1653 22.455 29.412 23.6467 30.1453 25.04C30.8786 26.3967 31.2453 27.8267 31.2453 29.33C31.2453 31.4933 30.6953 33.3817 29.5953 34.995C28.4953 36.5717 26.9003 37.8 24.8103 38.68C22.757 39.56 20.282 40 17.3853 40C16.5786 40 15.3503 39.9817 13.7003 39.945C12.087 39.8717 10.1253 39.835 7.81529 39.835C6.42196 39.835 5.04696 39.8533 3.69029 39.89C2.37029 39.89 1.28863 39.9267 0.445293 40V38.9C1.69196 38.8267 2.62696 38.68 3.25029 38.46C3.87363 38.24 4.27696 37.8 4.46029 37.14C4.68029 36.48 4.79029 35.49 4.79029 34.17V6.89C4.79029 5.53333 4.68029 4.54333 4.46029 3.92C4.27696 3.26 3.85529 2.82 3.19529 2.6C2.57196 2.34333 1.65529 2.19666 0.445293 2.16V1.06ZM14.9653 2.16C13.3886 2.16 12.3436 2.47167 11.8303 3.095C11.3536 3.71833 11.1153 4.98333 11.1153 6.89V34.17C11.1153 35.4533 11.2253 36.425 11.4453 37.085C11.6653 37.745 12.0503 38.185 12.6003 38.405C13.187 38.625 14.0303 38.735 15.1303 38.735C18.4303 38.735 20.8136 37.91 22.2803 36.26C23.7836 34.5733 24.5353 32.19 24.5353 29.11C24.5353 26.2867 23.7836 24.105 22.2803 22.565C20.8136 21.025 18.3753 20.255 14.9653 20.255H9.63029C9.63029 20.255 9.63029 20.1083 9.63029 19.815C9.63029 19.485 9.63029 19.32 9.63029 19.32H14.3603C16.377 19.32 17.9353 18.9167 19.0353 18.11C20.1353 17.2667 20.887 16.1667 21.2903 14.81C21.6936 13.4167 21.8953 11.9317 21.8953 10.355C21.8953 7.64166 21.3636 5.60666 20.3003 4.25C19.237 2.85667 17.4586 2.16 14.9653 2.16ZM52.4074 10.85C53.4707 10.85 54.3691 11.07 55.1024 11.51C55.8724 11.95 56.4407 12.5183 56.8074 13.215C57.2107 13.875 57.4124 14.6267 57.4124 15.47C57.4124 16.5333 57.0824 17.45 56.4224 18.22C55.7991 18.9533 54.9557 19.32 53.8924 19.32C52.9757 19.32 52.1874 19.045 51.5274 18.495C50.9041 17.945 50.5924 17.1933 50.5924 16.24C50.5924 15.4333 50.7941 14.755 51.1974 14.205C51.6374 13.6183 52.1324 13.16 52.6824 12.83C52.3157 12.5367 51.8757 12.4083 51.3624 12.445C50.3724 12.4817 49.4557 12.8117 48.6124 13.435C47.7691 14.0217 47.0541 14.7917 46.4674 15.745C45.8807 16.6617 45.4224 17.6517 45.0924 18.715C44.7624 19.7783 44.5974 20.7683 44.5974 21.685V34.335C44.5974 36.1317 45.0924 37.3417 46.0824 37.965C47.0724 38.5517 48.4474 38.845 50.2074 38.845V40C49.3641 39.9633 48.1541 39.9267 46.5774 39.89C45.0374 39.8167 43.4057 39.78 41.6824 39.78C40.3624 39.78 39.0424 39.8167 37.7224 39.89C36.4024 39.9267 35.3941 39.9633 34.6974 40V38.845C36.1274 38.845 37.1357 38.57 37.7224 38.02C38.3457 37.47 38.6574 36.425 38.6574 34.885V17.615C38.6574 15.965 38.3824 14.755 37.8324 13.985C37.2824 13.1783 36.2374 12.775 34.6974 12.775V11.62C35.8707 11.73 37.0074 11.785 38.1074 11.785C39.3541 11.785 40.5091 11.73 41.5724 11.62C42.6724 11.4733 43.6807 11.2717 44.5974 11.015V17.34C45.0374 16.2767 45.6241 15.25 46.3574 14.26C47.0907 13.27 47.9707 12.4633 48.9974 11.84C50.0241 11.18 51.1607 10.85 52.4074 10.85ZM72.3488 10.85C74.8054 10.85 76.9871 11.3633 78.8938 12.39C80.8004 13.4167 82.3221 15.03 83.4588 17.23C84.5954 19.43 85.1638 22.3083 85.1638 25.865C85.1638 29.4217 84.5954 32.3 83.4588 34.5C82.3221 36.6633 80.8004 38.2583 78.8938 39.285C76.9871 40.275 74.8054 40.77 72.3488 40.77C69.9288 40.77 67.7471 40.275 65.8038 39.285C63.8604 38.2583 62.3204 36.6633 61.1838 34.5C60.0838 32.3 59.5338 29.4217 59.5338 25.865C59.5338 22.3083 60.0838 19.43 61.1838 17.23C62.3204 15.03 63.8604 13.4167 65.8038 12.39C67.7471 11.3633 69.9288 10.85 72.3488 10.85ZM72.3488 11.95C70.4421 11.95 68.8838 13.05 67.6738 15.25C66.4638 17.4133 65.8588 20.9517 65.8588 25.865C65.8588 30.7783 66.4638 34.3167 67.6738 36.48C68.8838 38.6067 70.4421 39.67 72.3488 39.67C74.2188 39.67 75.7588 38.6067 76.9688 36.48C78.2154 34.3167 78.8388 30.7783 78.8388 25.865C78.8388 20.9517 78.2154 17.4133 76.9688 15.25C75.7588 13.05 74.2188 11.95 72.3488 11.95ZM99.9545 11.62V12.775C99.0745 12.775 98.2861 12.8483 97.5895 12.995C96.9295 13.105 96.4895 13.435 96.2695 13.985C96.0861 14.535 96.2328 15.5067 96.7095 16.9L102.264 33.29L101.769 33.51L109.304 11.455L110.404 11.95L100.889 40.22C100.596 40.22 100.303 40.22 100.009 40.22C99.7161 40.22 99.4045 40.22 99.0745 40.22L90.1645 15.855C89.5778 14.3883 88.9911 13.5083 88.4045 13.215C87.8545 12.9217 87.3778 12.775 86.9745 12.775V11.62C87.8545 11.73 88.7528 11.8217 89.6695 11.895C90.6228 11.9317 91.6678 11.95 92.8045 11.95C93.9411 11.95 95.1328 11.9133 96.3795 11.84C97.6628 11.7667 98.8545 11.6933 99.9545 11.62ZM129.654 11.62V12.72C128.958 12.83 128.298 13.1783 127.674 13.765C127.051 14.3517 126.501 15.3967 126.024 16.9L118.269 40.22C117.976 40.22 117.664 40.22 117.334 40.22C117.041 40.22 116.748 40.22 116.454 40.22L107.929 18.165L109.304 11.455C109.671 11.4917 110.019 11.51 110.349 11.51C110.716 11.4733 111.083 11.455 111.449 11.455L119.699 34.005L119.204 34.06L124.044 19.1C124.521 17.5967 124.704 16.405 124.594 15.525C124.484 14.645 124.099 13.985 123.439 13.545C122.779 13.105 121.789 12.83 120.469 12.72V11.62C121.129 11.6567 121.716 11.6933 122.229 11.73C122.779 11.73 123.311 11.7483 123.824 11.785C124.374 11.785 124.924 11.785 125.474 11.785C126.281 11.785 127.033 11.7667 127.729 11.73C128.463 11.6933 129.104 11.6567 129.654 11.62ZM141.016 10.85C142.483 10.85 143.748 11.0883 144.811 11.565C145.911 12.005 146.7 12.4083 147.176 12.775C148.386 13.7283 149.138 13.105 149.431 10.905H150.641C150.568 11.9317 150.513 13.1783 150.476 14.645C150.44 16.075 150.421 17.9817 150.421 20.365H149.211C148.991 19.0083 148.606 17.6883 148.056 16.405C147.543 15.1217 146.773 14.0583 145.746 13.215C144.756 12.3717 143.455 11.95 141.841 11.95C140.631 11.95 139.623 12.2983 138.816 12.995C138.01 13.655 137.606 14.645 137.606 15.965C137.606 17.065 137.936 18.0183 138.596 18.825C139.256 19.6317 140.1 20.3833 141.126 21.08C142.19 21.7767 143.326 22.5283 144.536 23.335C145.893 24.2517 147.103 25.1683 148.166 26.085C149.266 26.965 150.128 27.955 150.751 29.055C151.411 30.155 151.741 31.4383 151.741 32.905C151.741 34.5917 151.283 36.0217 150.366 37.195C149.486 38.3683 148.313 39.2667 146.846 39.89C145.38 40.4767 143.766 40.77 142.006 40.77C141.126 40.77 140.301 40.6783 139.531 40.495C138.761 40.3483 138.046 40.1467 137.386 39.89C136.983 39.67 136.58 39.45 136.176 39.23C135.81 38.9733 135.443 38.735 135.076 38.515C134.71 38.2583 134.38 38.295 134.086 38.625C133.793 38.955 133.573 39.5417 133.426 40.385H132.216C132.29 39.2117 132.345 37.7817 132.381 36.095C132.418 34.4083 132.436 32.1717 132.436 29.385H133.646C133.903 31.4017 134.288 33.18 134.801 34.72C135.315 36.26 136.066 37.47 137.056 38.35C138.083 39.1933 139.476 39.615 141.236 39.615C141.933 39.615 142.63 39.4683 143.326 39.175C144.023 38.845 144.591 38.3317 145.031 37.635C145.508 36.9383 145.746 36.0033 145.746 34.83C145.746 33.2167 145.178 31.8967 144.041 30.87C142.941 29.8067 141.511 28.6883 139.751 27.515C138.505 26.635 137.313 25.7733 136.176 24.93C135.076 24.05 134.178 23.0783 133.481 22.015C132.785 20.915 132.436 19.6133 132.436 18.11C132.436 16.46 132.821 15.1033 133.591 14.04C134.398 12.9767 135.461 12.1883 136.781 11.675C138.101 11.125 139.513 10.85 141.016 10.85ZM169.294 10.85C172.521 10.85 175.051 11.8217 176.884 13.765C178.718 15.7083 179.634 18.7883 179.634 23.005H160.659L160.549 21.96H173.804C173.841 20.1633 173.694 18.5133 173.364 17.01C173.034 15.47 172.521 14.2417 171.824 13.325C171.128 12.4083 170.211 11.95 169.074 11.95C167.498 11.95 166.123 12.7933 164.949 14.48C163.813 16.13 163.116 18.7883 162.859 22.455L163.024 22.73C162.988 23.2433 162.951 23.8117 162.914 24.435C162.878 25.0217 162.859 25.6083 162.859 26.195C162.859 28.725 163.244 30.8517 164.014 32.575C164.784 34.2983 165.793 35.6 167.039 36.48C168.286 37.3233 169.551 37.745 170.834 37.745C171.824 37.745 172.778 37.5983 173.694 37.305C174.648 36.975 175.546 36.4433 176.389 35.71C177.233 34.94 177.984 33.895 178.644 32.575L179.744 33.015C179.304 34.2617 178.626 35.49 177.709 36.7C176.793 37.91 175.619 38.9 174.189 39.67C172.759 40.4033 171.091 40.77 169.184 40.77C166.618 40.77 164.381 40.2017 162.474 39.065C160.568 37.8917 159.101 36.2233 158.074 34.06C157.048 31.8967 156.534 29.33 156.534 26.36C156.534 23.0967 157.066 20.31 158.129 18C159.193 15.69 160.678 13.93 162.584 12.72C164.528 11.4733 166.764 10.85 169.294 10.85ZM216.266 0.289997C219.859 0.289997 223.012 1.07833 225.726 2.655C228.476 4.23166 230.602 6.505 232.106 9.475C233.609 12.4083 234.361 15.9833 234.361 20.2C234.361 24.3067 233.591 27.9 232.051 30.98C230.511 34.06 228.366 36.4617 225.616 38.185C222.866 39.9083 219.731 40.77 216.211 40.77C212.581 40.77 209.409 39.9817 206.696 38.405C203.982 36.8283 201.874 34.555 200.371 31.585C198.867 28.615 198.116 25.04 198.116 20.86C198.116 16.7533 198.886 13.16 200.426 10.08C202.002 7 204.147 4.59833 206.861 2.875C209.574 1.15166 212.709 0.289997 216.266 0.289997ZM216.046 1.28C213.772 1.28 211.792 2.105 210.106 3.755C208.419 5.405 207.117 7.67833 206.201 10.575C205.284 13.4717 204.826 16.8267 204.826 20.64C204.826 24.5267 205.339 27.9183 206.366 30.815C207.392 33.675 208.786 35.8933 210.546 37.47C212.306 39.01 214.267 39.78 216.431 39.78C218.704 39.78 220.666 38.955 222.316 37.305C224.002 35.655 225.304 33.3817 226.221 30.485C227.174 27.5517 227.651 24.1967 227.651 20.42C227.651 16.4967 227.119 13.105 226.056 10.245C225.029 7.385 223.636 5.185 221.876 3.645C220.152 2.06833 218.209 1.28 216.046 1.28ZM264.325 11.015V34.06C264.325 35.71 264.6 36.9383 265.15 37.745C265.737 38.515 266.782 38.9 268.285 38.9V40.055C267.149 39.945 266.012 39.89 264.875 39.89C263.665 39.89 262.51 39.945 261.41 40.055C260.31 40.165 259.302 40.3667 258.385 40.66V34.665C257.469 36.865 256.185 38.4417 254.535 39.395C252.922 40.3117 251.217 40.77 249.42 40.77C248.064 40.77 246.909 40.5683 245.955 40.165C245.002 39.7983 244.214 39.3033 243.59 38.68C242.93 37.9467 242.472 37.0117 242.215 35.875C241.959 34.7017 241.83 33.235 241.83 31.475V17.615C241.83 15.965 241.555 14.755 241.005 13.985C240.455 13.1783 239.41 12.775 237.87 12.775V11.62C239.044 11.73 240.18 11.785 241.28 11.785C242.49 11.785 243.645 11.73 244.745 11.62C245.845 11.4733 246.854 11.2717 247.77 11.015V33.015C247.77 34.0783 247.844 35.05 247.99 35.93C248.137 36.81 248.485 37.5067 249.035 38.02C249.585 38.5333 250.465 38.79 251.675 38.79C252.959 38.79 254.095 38.405 255.085 37.635C256.112 36.865 256.919 35.82 257.505 34.5C258.092 33.18 258.385 31.695 258.385 30.045V17.615C258.385 15.965 258.11 14.755 257.56 13.985C257.01 13.1783 255.965 12.775 254.425 12.775V11.62C255.599 11.73 256.735 11.785 257.835 11.785C259.045 11.785 260.2 11.73 261.3 11.62C262.4 11.4733 263.409 11.2717 264.325 11.015ZM288.628 10.85C289.691 10.85 290.59 11.07 291.323 11.51C292.093 11.95 292.661 12.5183 293.028 13.215C293.431 13.875 293.633 14.6267 293.633 15.47C293.633 16.5333 293.303 17.45 292.643 18.22C292.02 18.9533 291.176 19.32 290.113 19.32C289.196 19.32 288.408 19.045 287.748 18.495C287.125 17.945 286.813 17.1933 286.813 16.24C286.813 15.4333 287.015 14.755 287.418 14.205C287.858 13.6183 288.353 13.16 288.903 12.83C288.536 12.5367 288.096 12.4083 287.583 12.445C286.593 12.4817 285.676 12.8117 284.833 13.435C283.99 14.0217 283.275 14.7917 282.688 15.745C282.101 16.6617 281.643 17.6517 281.313 18.715C280.983 19.7783 280.818 20.7683 280.818 21.685V34.335C280.818 36.1317 281.313 37.3417 282.303 37.965C283.293 38.5517 284.668 38.845 286.428 38.845V40C285.585 39.9633 284.375 39.9267 282.798 39.89C281.258 39.8167 279.626 39.78 277.903 39.78C276.583 39.78 275.263 39.8167 273.943 39.89C272.623 39.9267 271.615 39.9633 270.918 40V38.845C272.348 38.845 273.356 38.57 273.943 38.02C274.566 37.47 274.878 36.425 274.878 34.885V17.615C274.878 15.965 274.603 14.755 274.053 13.985C273.503 13.1783 272.458 12.775 270.918 12.775V11.62C272.091 11.73 273.228 11.785 274.328 11.785C275.575 11.785 276.73 11.73 277.793 11.62C278.893 11.4733 279.901 11.2717 280.818 11.015V17.34C281.258 16.2767 281.845 15.25 282.578 14.26C283.311 13.27 284.191 12.4633 285.218 11.84C286.245 11.18 287.381 10.85 288.628 10.85ZM353.352 1.06V2.16C352.106 2.19666 351.171 2.34333 350.547 2.6C349.924 2.82 349.502 3.26 349.282 3.92C349.099 4.54333 349.007 5.53333 349.007 6.89V34.17C349.007 35.49 349.099 36.48 349.282 37.14C349.502 37.8 349.924 38.24 350.547 38.46C351.171 38.68 352.106 38.8267 353.352 38.9V40C352.436 39.9267 351.299 39.89 349.942 39.89C348.586 39.8533 347.211 39.835 345.817 39.835C344.277 39.835 342.829 39.8533 341.472 39.89C340.116 39.89 339.034 39.9267 338.227 40V38.9C339.474 38.8267 340.409 38.68 341.032 38.46C341.692 38.24 342.132 37.8 342.352 37.14C342.572 36.48 342.682 35.49 342.682 34.17V4.085L342.957 4.195L329.427 40.22H328.547L314.357 4.58V32.74C314.357 34.28 314.467 35.49 314.687 36.37C314.907 37.2133 315.384 37.8183 316.117 38.185C316.851 38.5517 317.969 38.79 319.472 38.9V40C318.776 39.9267 317.877 39.89 316.777 39.89C315.714 39.8533 314.706 39.835 313.752 39.835C312.836 39.835 311.919 39.8533 311.002 39.89C310.086 39.89 309.334 39.9267 308.747 40V38.9C309.957 38.79 310.874 38.57 311.497 38.24C312.121 37.8733 312.542 37.2683 312.762 36.425C312.982 35.5817 313.092 34.4267 313.092 32.96V6.89C313.092 5.53333 312.982 4.54333 312.762 3.92C312.542 3.26 312.121 2.82 311.497 2.6C310.874 2.34333 309.957 2.19666 308.747 2.16V1.06C309.334 1.09667 310.086 1.13333 311.002 1.17C311.919 1.20666 312.836 1.225 313.752 1.225C314.816 1.225 315.879 1.20666 316.942 1.17C318.042 1.13333 318.977 1.09667 319.747 1.06L331.902 32.3L330.857 33.015L342.792 1.225C343.269 1.225 343.764 1.225 344.277 1.225C344.791 1.225 345.304 1.225 345.817 1.225C347.211 1.225 348.586 1.20666 349.942 1.17C351.299 1.13333 352.436 1.09667 353.352 1.06ZM369.636 10.85C372.863 10.85 375.393 11.8217 377.226 13.765C379.06 15.7083 379.976 18.7883 379.976 23.005H361.001L360.891 21.96H374.146C374.183 20.1633 374.036 18.5133 373.706 17.01C373.376 15.47 372.863 14.2417 372.166 13.325C371.47 12.4083 370.553 11.95 369.416 11.95C367.84 11.95 366.465 12.7933 365.291 14.48C364.155 16.13 363.458 18.7883 363.201 22.455L363.366 22.73C363.33 23.2433 363.293 23.8117 363.256 24.435C363.22 25.0217 363.201 25.6083 363.201 26.195C363.201 28.725 363.586 30.8517 364.356 32.575C365.126 34.2983 366.135 35.6 367.381 36.48C368.628 37.3233 369.893 37.745 371.176 37.745C372.166 37.745 373.12 37.5983 374.036 37.305C374.99 36.975 375.888 36.4433 376.731 35.71C377.575 34.94 378.326 33.895 378.986 32.575L380.086 33.015C379.646 34.2617 378.968 35.49 378.051 36.7C377.135 37.91 375.961 38.9 374.531 39.67C373.101 40.4033 371.433 40.77 369.526 40.77C366.96 40.77 364.723 40.2017 362.816 39.065C360.91 37.8917 359.443 36.2233 358.416 34.06C357.39 31.8967 356.876 29.33 356.876 26.36C356.876 23.0967 357.408 20.31 358.471 18C359.535 15.69 361.02 13.93 362.926 12.72C364.87 11.4733 367.106 10.85 369.636 10.85ZM402.797 10.85C404.264 10.85 405.456 11.0517 406.372 11.455C407.326 11.8217 408.114 12.335 408.737 12.995C409.397 13.6917 409.856 14.59 410.112 15.69C410.406 16.79 410.552 18.275 410.552 20.145V34.885C410.552 36.425 410.846 37.47 411.432 38.02C412.056 38.57 413.082 38.845 414.512 38.845V40C413.889 39.9633 412.917 39.9267 411.597 39.89C410.277 39.8167 408.976 39.78 407.692 39.78C406.446 39.78 405.199 39.8167 403.952 39.89C402.742 39.9267 401.826 39.9633 401.202 40V38.845C402.449 38.845 403.329 38.57 403.842 38.02C404.356 37.47 404.612 36.425 404.612 34.885V18.605C404.612 17.5417 404.521 16.5883 404.337 15.745C404.154 14.865 403.769 14.1683 403.182 13.655C402.596 13.105 401.716 12.83 400.542 12.83C399.186 12.83 397.976 13.215 396.912 13.985C395.886 14.755 395.061 15.8183 394.437 17.175C393.851 18.495 393.557 19.98 393.557 21.63V34.885C393.557 36.425 393.814 37.47 394.327 38.02C394.877 38.57 395.757 38.845 396.967 38.845V40C396.381 39.9633 395.482 39.9267 394.272 39.89C393.099 39.8167 391.871 39.78 390.587 39.78C389.341 39.78 388.039 39.8167 386.682 39.89C385.326 39.9267 384.317 39.9633 383.657 40V38.845C385.087 38.845 386.096 38.57 386.682 38.02C387.306 37.47 387.617 36.425 387.617 34.885V17.615C387.617 15.965 387.342 14.755 386.792 13.985C386.242 13.1783 385.197 12.775 383.657 12.775V11.62C384.831 11.73 385.967 11.785 387.067 11.785C388.314 11.785 389.469 11.73 390.532 11.62C391.632 11.4733 392.641 11.2717 393.557 11.015V17.01C394.511 14.7367 395.812 13.1417 397.462 12.225C399.149 11.3083 400.927 10.85 402.797 10.85ZM442.592 11.015V34.06C442.592 35.71 442.867 36.9383 443.417 37.745C444.004 38.515 445.049 38.9 446.552 38.9V40.055C445.415 39.945 444.279 39.89 443.142 39.89C441.932 39.89 440.777 39.945 439.677 40.055C438.577 40.165 437.569 40.3667 436.652 40.66V34.665C435.735 36.865 434.452 38.4417 432.802 39.395C431.189 40.3117 429.484 40.77 427.687 40.77C426.33 40.77 425.175 40.5683 424.222 40.165C423.269 39.7983 422.48 39.3033 421.857 38.68C421.197 37.9467 420.739 37.0117 420.482 35.875C420.225 34.7017 420.097 33.235 420.097 31.475V17.615C420.097 15.965 419.822 14.755 419.272 13.985C418.722 13.1783 417.677 12.775 416.137 12.775V11.62C417.31 11.73 418.447 11.785 419.547 11.785C420.757 11.785 421.912 11.73 423.012 11.62C424.112 11.4733 425.12 11.2717 426.037 11.015V33.015C426.037 34.0783 426.11 35.05 426.257 35.93C426.404 36.81 426.752 37.5067 427.302 38.02C427.852 38.5333 428.732 38.79 429.942 38.79C431.225 38.79 432.362 38.405 433.352 37.635C434.379 36.865 435.185 35.82 435.772 34.5C436.359 33.18 436.652 31.695 436.652 30.045V17.615C436.652 15.965 436.377 14.755 435.827 13.985C435.277 13.1783 434.232 12.775 432.692 12.775V11.62C433.865 11.73 435.002 11.785 436.102 11.785C437.312 11.785 438.467 11.73 439.567 11.62C440.667 11.4733 441.675 11.2717 442.592 11.015Z" fill="#2C2F24"/>
</svg>
