<svg width="558" height="172" viewBox="0 0 558 172" fill="none" xmlns="http://www.w3.org/2000/svg">
<path d="M89.4492 17.7832C95.7969 17.7832 101.347 19.2155 106.1 22.0801C110.885 24.9447 114.579 29.1113 117.184 34.5801C119.82 40.0163 121.139 46.4941 121.139 54.0137C121.139 61.3704 119.788 67.8809 117.086 73.5449C114.384 79.209 110.624 83.6035 105.807 86.7285C100.989 89.8535 95.5039 91.416 89.3516 91.416C83.0039 91.416 77.4375 89.9837 72.6523 87.1191C67.8997 84.2546 64.2051 80.1042 61.5684 74.668C58.9642 69.1992 57.6621 62.7051 57.6621 55.1855C57.6621 47.8288 59.013 41.3184 61.7148 35.6543C64.4167 29.9902 68.1764 25.5957 72.9941 22.4707C77.8118 19.3457 83.2969 17.7832 89.4492 17.7832ZM89.0586 19.5898C84.7943 19.5898 81.0345 21.0872 77.7793 24.082C74.5241 27.0443 72.0176 31.1947 70.2598 36.5332C68.502 41.8392 67.623 47.9264 67.623 54.7949C67.623 61.7285 68.5996 67.832 70.5527 73.1055C72.5059 78.3789 75.1589 82.4479 78.5117 85.3125C81.8971 88.1771 85.6406 89.6094 89.7422 89.6094C94.0065 89.6094 97.75 88.1283 100.973 85.166C104.228 82.1712 106.734 78.0208 108.492 72.7148C110.25 67.3763 111.129 61.2728 111.129 54.4043C111.129 47.4707 110.152 41.3672 108.199 36.0938C106.246 30.8203 103.593 26.7513 100.24 23.8867C96.8874 21.0221 93.1602 19.5898 89.0586 19.5898ZM174.752 79.209C174.752 82.3014 175.305 84.5475 176.412 85.9473C177.551 87.3145 179.537 87.998 182.369 87.998V90.0977C180.286 89.9023 178.219 89.8047 176.168 89.8047C171.871 89.8047 168.404 90.2767 165.768 91.2207V79.4043C164.14 83.5059 161.861 86.5332 158.932 88.4863C156.035 90.4395 152.844 91.416 149.361 91.416C144.869 91.416 141.402 90.1465 138.961 87.6074C137.757 86.3053 136.894 84.6126 136.373 82.5293C135.885 80.446 135.641 77.7767 135.641 74.5215V49.4238C135.641 46.3314 135.087 44.0853 133.98 42.6855C132.874 41.2858 130.904 40.5859 128.072 40.5859V38.4863C130.156 38.6816 132.223 38.7793 134.273 38.7793C138.473 38.7793 141.939 38.3236 144.674 37.4121V76.7188C144.674 79.2578 144.82 81.3086 145.113 82.8711C145.406 84.4336 146.106 85.7194 147.213 86.7285C148.32 87.7051 149.996 88.1934 152.242 88.1934C154.814 88.1934 157.125 87.3958 159.176 85.8008C161.227 84.2057 162.838 82.0247 164.01 79.2578C165.182 76.4909 165.768 73.431 165.768 70.0781V49.4238C165.768 46.3314 165.198 44.0853 164.059 42.6855C162.952 41.2858 160.982 40.5859 158.15 40.5859V38.4863C160.234 38.6816 162.301 38.7793 164.352 38.7793C168.583 38.7793 172.05 38.3236 174.752 37.4121V79.209ZM204.049 49.9121C204.798 47.8288 205.872 45.8105 207.271 43.8574C208.704 41.9043 210.396 40.293 212.35 39.0234C214.303 37.7539 216.37 37.1191 218.551 37.1191C220.309 37.1191 221.871 37.4772 223.238 38.1934C224.638 38.877 225.729 39.821 226.51 41.0254C227.291 42.2298 227.682 43.5482 227.682 44.9805C227.682 46.7383 227.161 48.2357 226.119 49.4727C225.077 50.6771 223.694 51.2793 221.969 51.2793C220.504 51.2793 219.251 50.8236 218.209 49.9121C217.167 48.9681 216.646 47.6986 216.646 46.1035C216.646 43.9225 217.786 42.1159 220.064 40.6836C219.609 40.0326 218.909 39.707 217.965 39.707C215.328 39.707 212.952 40.7161 210.836 42.7344C208.72 44.7526 207.06 47.2428 205.855 50.2051C204.651 53.1673 204.049 55.9342 204.049 58.5059V79.6973C204.049 82.7897 204.928 84.9382 206.686 86.1426C208.443 87.3145 211.096 87.9004 214.645 87.9004V90C206.441 89.7396 201.314 89.6094 199.264 89.6094C197.506 89.6094 193.567 89.7396 187.447 90V87.9004C189.335 87.9004 190.816 87.6888 191.891 87.2656C192.997 86.8424 193.795 86.11 194.283 85.0684C194.804 84.0267 195.064 82.5781 195.064 80.7227V49.4238C195.064 46.3314 194.495 44.0853 193.355 42.6855C192.249 41.2858 190.279 40.5859 187.447 40.5859V38.4863C189.531 38.6816 191.598 38.7793 193.648 38.7793C197.88 38.7793 201.347 38.3236 204.049 37.4121V49.9121ZM334.762 21.2012C332.353 21.2988 330.595 21.5592 329.488 21.9824C328.414 22.4056 327.665 23.1868 327.242 24.3262C326.852 25.4655 326.656 27.2884 326.656 29.7949V79.4043C326.656 81.9108 326.852 83.7337 327.242 84.873C327.665 86.0124 328.414 86.7936 329.488 87.2168C330.595 87.64 332.353 87.9004 334.762 87.998V90C331.637 89.8047 327.405 89.707 322.066 89.707C316.337 89.707 312.073 89.8047 309.273 90V87.998C311.682 87.9004 313.424 87.64 314.498 87.2168C315.572 86.7936 316.305 86.0124 316.695 84.873C317.118 83.7337 317.33 81.9108 317.33 79.4043V25.8887L293.258 90.4883H291.646L266.451 25.5957V78.3789C266.451 80.9505 266.679 82.8874 267.135 84.1895C267.59 85.4915 268.437 86.4355 269.674 87.0215C270.943 87.5749 272.896 87.9004 275.533 87.998V90C273.157 89.8047 269.755 89.707 265.328 89.707C261.357 89.707 258.264 89.8047 256.051 90V87.998C258.362 87.9004 260.071 87.5749 261.178 87.0215C262.317 86.4355 263.098 85.4915 263.521 84.1895C263.945 82.8874 264.156 80.9505 264.156 78.3789V29.7949C264.156 27.2884 263.945 25.4655 263.521 24.3262C263.131 23.1868 262.382 22.4056 261.275 21.9824C260.201 21.5592 258.46 21.2988 256.051 21.2012V19.1992C258.232 19.3945 261.324 19.4922 265.328 19.4922C268.844 19.4922 271.692 19.3945 273.873 19.1992L295.846 77.207L317.33 19.4922H322.066C327.405 19.4922 331.637 19.3945 334.762 19.1992V21.2012ZM383.395 77.9883C382.613 80.332 381.36 82.5293 379.635 84.5801C377.942 86.5983 375.81 88.2422 373.238 89.5117C370.699 90.7812 367.851 91.416 364.693 91.416C359.941 91.416 355.823 90.3418 352.34 88.1934C348.889 86.0124 346.253 82.9688 344.43 79.0625C342.607 75.1237 341.695 70.599 341.695 65.4883C341.695 59.694 342.623 54.6647 344.479 50.4004C346.334 46.1361 348.954 42.8646 352.34 40.5859C355.758 38.2747 359.745 37.1191 364.303 37.1191C370.292 37.1191 374.898 38.9421 378.121 42.5879C381.376 46.2012 383.004 51.7025 383.004 59.0918H351.754C351.526 60.8171 351.412 62.9492 351.412 65.4883C351.412 69.8828 352.128 73.724 353.561 77.0117C355.025 80.2995 356.93 82.8223 359.273 84.5801C361.617 86.3379 364.091 87.2168 366.695 87.2168C373.401 87.2168 378.3 83.8802 381.393 77.207L383.395 77.9883ZM373.385 57.1875C373.515 53.8672 373.238 50.8236 372.555 48.0566C371.871 45.2897 370.797 43.0924 369.332 41.4648C367.867 39.8372 366.061 39.0234 363.912 39.0234C361.861 39.0234 359.973 39.6908 358.248 41.0254C356.523 42.3275 355.058 44.3457 353.854 47.0801C352.682 49.7819 351.933 53.151 351.607 57.1875H373.385ZM407.174 49.1797C408.834 44.9479 411.145 41.888 414.107 40C417.102 38.0794 420.471 37.1191 424.215 37.1191C428.87 37.1191 432.402 38.3724 434.811 40.8789C436.048 42.2461 436.926 43.9388 437.447 45.957C438.001 47.9427 438.277 50.6283 438.277 54.0137V80.7227C438.277 82.5781 438.521 84.0267 439.01 85.0684C439.531 86.11 440.328 86.8424 441.402 87.2656C442.509 87.6888 444.007 87.9004 445.895 87.9004V90C439.775 89.7396 435.771 89.6094 433.883 89.6094C432.027 89.6094 428.3 89.7396 422.701 90V87.9004C424.361 87.9004 425.647 87.6888 426.559 87.2656C427.503 86.8424 428.186 86.11 428.609 85.0684C429.065 84.0267 429.293 82.5781 429.293 80.7227V51.8164C429.293 49.4076 429.098 47.3893 428.707 45.7617C428.349 44.1341 427.568 42.8158 426.363 41.8066C425.191 40.7975 423.466 40.293 421.188 40.293C418.453 40.293 416.012 41.0905 413.863 42.6855C411.747 44.2806 410.104 46.4779 408.932 49.2773C407.76 52.0443 407.174 55.1204 407.174 58.5059V80.7227C407.174 82.5781 407.385 84.0267 407.809 85.0684C408.264 86.11 408.964 86.8424 409.908 87.2656C410.852 87.6888 412.154 87.9004 413.814 87.9004V90C408.215 89.7396 404.472 89.6094 402.584 89.6094C400.696 89.6094 396.692 89.7396 390.572 90V87.9004C392.46 87.9004 393.941 87.6888 395.016 87.2656C396.122 86.8424 396.92 86.11 397.408 85.0684C397.929 84.0267 398.189 82.5781 398.189 80.7227V49.4238C398.189 46.3314 397.62 44.0853 396.48 42.6855C395.374 41.2858 393.404 40.5859 390.572 40.5859V38.4863C392.656 38.6816 394.723 38.7793 396.773 38.7793C401.005 38.7793 404.472 38.3236 407.174 37.4121V49.1797ZM495.748 79.209C495.748 82.3014 496.301 84.5475 497.408 85.9473C498.548 87.3145 500.533 87.998 503.365 87.998V90.0977C501.282 89.9023 499.215 89.8047 497.164 89.8047C492.867 89.8047 489.4 90.2767 486.764 91.2207V79.4043C485.136 83.5059 482.857 86.5332 479.928 88.4863C477.031 90.4395 473.84 91.416 470.357 91.416C465.865 91.416 462.398 90.1465 459.957 87.6074C458.753 86.3053 457.89 84.6126 457.369 82.5293C456.881 80.446 456.637 77.7767 456.637 74.5215V49.4238C456.637 46.3314 456.083 44.0853 454.977 42.6855C453.87 41.2858 451.9 40.5859 449.068 40.5859V38.4863C451.152 38.6816 453.219 38.7793 455.27 38.7793C459.469 38.7793 462.936 38.3236 465.67 37.4121V76.7188C465.67 79.2578 465.816 81.3086 466.109 82.8711C466.402 84.4336 467.102 85.7194 468.209 86.7285C469.316 87.7051 470.992 88.1934 473.238 88.1934C475.81 88.1934 478.121 87.3958 480.172 85.8008C482.223 84.2057 483.834 82.0247 485.006 79.2578C486.178 76.4909 486.764 73.431 486.764 70.0781V49.4238C486.764 46.3314 486.194 44.0853 485.055 42.6855C483.948 41.2858 481.979 40.5859 479.146 40.5859V38.4863C481.23 38.6816 483.297 38.7793 485.348 38.7793C489.579 38.7793 493.046 38.3236 495.748 37.4121V79.209Z" fill="#2C2F24"/>
<path d="M16.9318 136.018L13.4758 123.4H15.0958L17.8138 134.218L20.9098 123.4H22.5838L25.5898 134.218L28.3438 123.4H29.9638L26.4358 136H24.7078L21.7018 125.596L18.6238 136L16.9318 136.018ZM34.7521 136.216C33.9001 136.216 33.1441 136.024 32.4841 135.64C31.8241 135.244 31.3021 134.698 30.9181 134.002C30.5461 133.306 30.3601 132.484 30.3601 131.536C30.3601 130.6 30.5461 129.784 30.9181 129.088C31.2901 128.38 31.8061 127.834 32.4661 127.45C33.1381 127.054 33.9121 126.856 34.7881 126.856C35.6521 126.856 36.3961 127.054 37.0201 127.45C37.6561 127.834 38.1421 128.344 38.4781 128.98C38.8141 129.616 38.9821 130.3 38.9821 131.032C38.9821 131.164 38.9761 131.296 38.9641 131.428C38.9641 131.56 38.9641 131.71 38.9641 131.878H31.8541C31.8901 132.562 32.0461 133.132 32.3221 133.588C32.6101 134.032 32.9641 134.368 33.3841 134.596C33.8161 134.824 34.2721 134.938 34.7521 134.938C35.3761 134.938 35.8981 134.794 36.3181 134.506C36.7381 134.218 37.0441 133.828 37.2361 133.336H38.7301C38.4901 134.164 38.0281 134.854 37.3441 135.406C36.6721 135.946 35.8081 136.216 34.7521 136.216ZM34.7521 128.134C34.0321 128.134 33.3901 128.356 32.8261 128.8C32.2741 129.232 31.9561 129.868 31.8721 130.708H37.4881C37.4521 129.904 37.1761 129.274 36.6601 128.818C36.1441 128.362 35.5081 128.134 34.7521 128.134ZM49.8538 136.216C49.0018 136.216 48.2338 136.024 47.5498 135.64C46.8778 135.244 46.3438 134.698 45.9478 134.002C45.5638 133.294 45.3718 132.472 45.3718 131.536C45.3718 130.6 45.5638 129.784 45.9478 129.088C46.3438 128.38 46.8778 127.834 47.5498 127.45C48.2338 127.054 49.0018 126.856 49.8538 126.856C50.9098 126.856 51.7978 127.132 52.5178 127.684C53.2498 128.236 53.7118 128.974 53.9038 129.898H52.3558C52.2358 129.346 51.9418 128.92 51.4738 128.62C51.0058 128.308 50.4598 128.152 49.8358 128.152C49.3318 128.152 48.8578 128.278 48.4138 128.53C47.9698 128.782 47.6098 129.16 47.3338 129.664C47.0578 130.168 46.9198 130.792 46.9198 131.536C46.9198 132.28 47.0578 132.904 47.3338 133.408C47.6098 133.912 47.9698 134.296 48.4138 134.56C48.8578 134.812 49.3318 134.938 49.8358 134.938C50.4598 134.938 51.0058 134.788 51.4738 134.488C51.9418 134.176 52.2358 133.738 52.3558 133.174H53.9038C53.7238 134.074 53.2678 134.806 52.5358 135.37C51.8038 135.934 50.9098 136.216 49.8538 136.216ZM60.0834 136.216C59.2434 136.216 58.4874 136.024 57.8154 135.64C57.1434 135.256 56.6094 134.716 56.2134 134.02C55.8294 133.312 55.6374 132.484 55.6374 131.536C55.6374 130.588 55.8354 129.766 56.2314 129.07C56.6274 128.362 57.1614 127.816 57.8334 127.432C58.5174 127.048 59.2794 126.856 60.1194 126.856C60.9594 126.856 61.7154 127.048 62.3874 127.432C63.0594 127.816 63.5874 128.362 63.9714 129.07C64.3674 129.766 64.5654 130.588 64.5654 131.536C64.5654 132.484 64.3674 133.312 63.9714 134.02C63.5754 134.716 63.0354 135.256 62.3514 135.64C61.6794 136.024 60.9234 136.216 60.0834 136.216ZM60.0834 134.92C60.5994 134.92 61.0794 134.794 61.5234 134.542C61.9674 134.29 62.3274 133.912 62.6034 133.408C62.8794 132.904 63.0174 132.28 63.0174 131.536C63.0174 130.792 62.8794 130.168 62.6034 129.664C62.3394 129.16 61.9854 128.782 61.5414 128.53C61.0974 128.278 60.6234 128.152 60.1194 128.152C59.6034 128.152 59.1234 128.278 58.6794 128.53C58.2354 128.782 57.8754 129.16 57.5994 129.664C57.3234 130.168 57.1854 130.792 57.1854 131.536C57.1854 132.28 57.3234 132.904 57.5994 133.408C57.8754 133.912 58.2294 134.29 58.6614 134.542C59.1054 134.794 59.5794 134.92 60.0834 134.92ZM66.6678 136V127.072H68.0358L68.1258 128.674C68.4138 128.11 68.8278 127.666 69.3678 127.342C69.9078 127.018 70.5198 126.856 71.2038 126.856C72.2598 126.856 73.0998 127.18 73.7238 127.828C74.3598 128.464 74.6778 129.448 74.6778 130.78V136H73.1658V130.942C73.1658 129.082 72.3978 128.152 70.8618 128.152C70.0938 128.152 69.4518 128.434 68.9358 128.998C68.4318 129.55 68.1798 130.342 68.1798 131.374V136H66.6678ZM80.3886 136.216C79.3206 136.216 78.4326 135.946 77.7246 135.406C77.0166 134.866 76.6026 134.134 76.4826 133.21H78.0306C78.1266 133.678 78.3726 134.086 78.7686 134.434C79.1766 134.77 79.7226 134.938 80.4066 134.938C81.0426 134.938 81.5106 134.806 81.8106 134.542C82.1106 134.266 82.2606 133.942 82.2606 133.57C82.2606 133.03 82.0626 132.67 81.6666 132.49C81.2826 132.31 80.7366 132.148 80.0286 132.004C79.5486 131.908 79.0686 131.77 78.5886 131.59C78.1086 131.41 77.7066 131.158 77.3826 130.834C77.0586 130.498 76.8966 130.06 76.8966 129.52C76.8966 128.74 77.1846 128.104 77.7606 127.612C78.3486 127.108 79.1406 126.856 80.1366 126.856C81.0846 126.856 81.8586 127.096 82.4586 127.576C83.0706 128.044 83.4246 128.716 83.5206 129.592H82.0266C81.9666 129.136 81.7686 128.782 81.4326 128.53C81.1086 128.266 80.6706 128.134 80.1186 128.134C79.5786 128.134 79.1586 128.248 78.8586 128.476C78.5706 128.704 78.4266 129.004 78.4266 129.376C78.4266 129.736 78.6126 130.018 78.9846 130.222C79.3686 130.426 79.8846 130.6 80.5326 130.744C81.0846 130.864 81.6066 131.014 82.0986 131.194C82.6026 131.362 83.0106 131.62 83.3226 131.968C83.6466 132.304 83.8086 132.796 83.8086 133.444C83.8206 134.248 83.5146 134.914 82.8906 135.442C82.2786 135.958 81.4446 136.216 80.3886 136.216ZM86.8866 125.092C86.5866 125.092 86.3346 124.996 86.1306 124.804C85.9386 124.6 85.8426 124.348 85.8426 124.048C85.8426 123.76 85.9386 123.52 86.1306 123.328C86.3346 123.136 86.5866 123.04 86.8866 123.04C87.1746 123.04 87.4206 123.136 87.6246 123.328C87.8286 123.52 87.9306 123.76 87.9306 124.048C87.9306 124.348 87.8286 124.6 87.6246 124.804C87.4206 124.996 87.1746 125.092 86.8866 125.092ZM86.1306 136V127.072H87.6426V136H86.1306ZM94.3252 136.216C93.4372 136.216 92.6572 136.012 91.9852 135.604C91.3252 135.196 90.8092 134.638 90.4372 133.93C90.0772 133.222 89.8972 132.418 89.8972 131.518C89.8972 130.618 90.0832 129.82 90.4552 129.124C90.8272 128.416 91.3432 127.864 92.0032 127.468C92.6632 127.06 93.4432 126.856 94.3432 126.856C95.0752 126.856 95.7232 127.006 96.2872 127.306C96.8512 127.606 97.2892 128.026 97.6012 128.566V123.04H99.1132V136H97.7452L97.6012 134.524C97.3132 134.956 96.8992 135.346 96.3592 135.694C95.8192 136.042 95.1412 136.216 94.3252 136.216ZM94.4872 134.902C95.0872 134.902 95.6152 134.764 96.0712 134.488C96.5392 134.2 96.8992 133.804 97.1512 133.3C97.4152 132.796 97.5472 132.208 97.5472 131.536C97.5472 130.864 97.4152 130.276 97.1512 129.772C96.8992 129.268 96.5392 128.878 96.0712 128.602C95.6152 128.314 95.0872 128.17 94.4872 128.17C93.8992 128.17 93.3712 128.314 92.9032 128.602C92.4472 128.878 92.0872 129.268 91.8232 129.772C91.5712 130.276 91.4452 130.864 91.4452 131.536C91.4452 132.208 91.5712 132.796 91.8232 133.3C92.0872 133.804 92.4472 134.2 92.9032 134.488C93.3712 134.764 93.8992 134.902 94.4872 134.902ZM105.592 136.216C104.74 136.216 103.984 136.024 103.324 135.64C102.664 135.244 102.142 134.698 101.758 134.002C101.386 133.306 101.2 132.484 101.2 131.536C101.2 130.6 101.386 129.784 101.758 129.088C102.13 128.38 102.646 127.834 103.306 127.45C103.978 127.054 104.752 126.856 105.628 126.856C106.492 126.856 107.236 127.054 107.86 127.45C108.496 127.834 108.982 128.344 109.318 128.98C109.654 129.616 109.822 130.3 109.822 131.032C109.822 131.164 109.816 131.296 109.804 131.428C109.804 131.56 109.804 131.71 109.804 131.878H102.694C102.73 132.562 102.886 133.132 103.162 133.588C103.45 134.032 103.804 134.368 104.224 134.596C104.656 134.824 105.112 134.938 105.592 134.938C106.216 134.938 106.738 134.794 107.158 134.506C107.578 134.218 107.884 133.828 108.076 133.336H109.57C109.33 134.164 108.868 134.854 108.184 135.406C107.512 135.946 106.648 136.216 105.592 136.216ZM105.592 128.134C104.872 128.134 104.23 128.356 103.666 128.8C103.114 129.232 102.796 129.868 102.712 130.708H108.328C108.292 129.904 108.016 129.274 107.5 128.818C106.984 128.362 106.348 128.134 105.592 128.134ZM111.826 136V127.072H113.194L113.32 128.782C113.596 128.194 114.016 127.726 114.58 127.378C115.144 127.03 115.84 126.856 116.668 126.856V128.44H116.254C115.726 128.44 115.24 128.536 114.796 128.728C114.352 128.908 113.998 129.22 113.734 129.664C113.47 130.108 113.338 130.72 113.338 131.5V136H111.826ZM126.099 136.216C125.355 136.216 124.737 136.09 124.245 135.838C123.753 135.586 123.387 135.25 123.147 134.83C122.907 134.41 122.787 133.954 122.787 133.462C122.787 132.55 123.135 131.848 123.831 131.356C124.527 130.864 125.475 130.618 126.675 130.618H129.087V130.51C129.087 129.73 128.883 129.142 128.475 128.746C128.067 128.338 127.521 128.134 126.837 128.134C126.249 128.134 125.739 128.284 125.307 128.584C124.887 128.872 124.623 129.298 124.515 129.862H122.967C123.027 129.214 123.243 128.668 123.615 128.224C123.999 127.78 124.473 127.444 125.037 127.216C125.601 126.976 126.201 126.856 126.837 126.856C128.085 126.856 129.021 127.192 129.645 127.864C130.281 128.524 130.599 129.406 130.599 130.51V136H129.249L129.159 134.398C128.907 134.902 128.535 135.334 128.043 135.694C127.563 136.042 126.915 136.216 126.099 136.216ZM126.333 134.938C126.909 134.938 127.401 134.788 127.809 134.488C128.229 134.188 128.547 133.798 128.763 133.318C128.979 132.838 129.087 132.334 129.087 131.806V131.788H126.801C125.913 131.788 125.283 131.944 124.911 132.256C124.551 132.556 124.371 132.934 124.371 133.39C124.371 133.858 124.539 134.236 124.875 134.524C125.223 134.8 125.709 134.938 126.333 134.938ZM132.867 136V123.04H134.379V136H132.867ZM136.857 136V123.04H138.369V136H136.857ZM149.139 136C148.323 136 147.681 135.802 147.213 135.406C146.745 135.01 146.511 134.296 146.511 133.264V128.35H144.963V127.072H146.511L146.709 124.93H148.023V127.072H150.651V128.35H148.023V133.264C148.023 133.828 148.137 134.212 148.365 134.416C148.593 134.608 148.995 134.704 149.571 134.704H150.507V136H149.139ZM152.572 136V123.04H154.084V128.602C154.384 128.05 154.81 127.624 155.362 127.324C155.914 127.012 156.514 126.856 157.162 126.856C158.194 126.856 159.022 127.18 159.646 127.828C160.27 128.464 160.582 129.448 160.582 130.78V136H159.088V130.942C159.088 129.082 158.338 128.152 156.838 128.152C156.058 128.152 155.404 128.434 154.876 128.998C154.348 129.55 154.084 130.342 154.084 131.374V136H152.572ZM166.887 136.216C166.035 136.216 165.279 136.024 164.619 135.64C163.959 135.244 163.437 134.698 163.053 134.002C162.681 133.306 162.495 132.484 162.495 131.536C162.495 130.6 162.681 129.784 163.053 129.088C163.425 128.38 163.941 127.834 164.601 127.45C165.273 127.054 166.047 126.856 166.923 126.856C167.787 126.856 168.531 127.054 169.155 127.45C169.791 127.834 170.277 128.344 170.613 128.98C170.949 129.616 171.117 130.3 171.117 131.032C171.117 131.164 171.111 131.296 171.099 131.428C171.099 131.56 171.099 131.71 171.099 131.878H163.989C164.025 132.562 164.181 133.132 164.457 133.588C164.745 134.032 165.099 134.368 165.519 134.596C165.951 134.824 166.407 134.938 166.887 134.938C167.511 134.938 168.033 134.794 168.453 134.506C168.873 134.218 169.179 133.828 169.371 133.336H170.865C170.625 134.164 170.163 134.854 169.479 135.406C168.807 135.946 167.943 136.216 166.887 136.216ZM166.887 128.134C166.167 128.134 165.525 128.356 164.961 128.8C164.409 129.232 164.091 129.868 164.007 130.708H169.623C169.587 129.904 169.311 129.274 168.795 128.818C168.279 128.362 167.643 128.134 166.887 128.134ZM181.935 136.216C181.047 136.216 180.267 136.012 179.595 135.604C178.935 135.196 178.419 134.638 178.047 133.93C177.687 133.222 177.507 132.418 177.507 131.518C177.507 130.618 177.693 129.82 178.065 129.124C178.437 128.416 178.953 127.864 179.613 127.468C180.273 127.06 181.053 126.856 181.953 126.856C182.685 126.856 183.333 127.006 183.897 127.306C184.461 127.606 184.899 128.026 185.211 128.566V123.04H186.723V136H185.355L185.211 134.524C184.923 134.956 184.509 135.346 183.969 135.694C183.429 136.042 182.751 136.216 181.935 136.216ZM182.097 134.902C182.697 134.902 183.225 134.764 183.681 134.488C184.149 134.2 184.509 133.804 184.761 133.3C185.025 132.796 185.157 132.208 185.157 131.536C185.157 130.864 185.025 130.276 184.761 129.772C184.509 129.268 184.149 128.878 183.681 128.602C183.225 128.314 182.697 128.17 182.097 128.17C181.509 128.17 180.981 128.314 180.513 128.602C180.057 128.878 179.697 129.268 179.433 129.772C179.181 130.276 179.055 130.864 179.055 131.536C179.055 132.208 179.181 132.796 179.433 133.3C179.697 133.804 180.057 134.2 180.513 134.488C180.981 134.764 181.509 134.902 182.097 134.902ZM189.187 136V127.072H190.555L190.681 128.782C190.957 128.194 191.377 127.726 191.941 127.378C192.505 127.03 193.201 126.856 194.029 126.856V128.44H193.615C193.087 128.44 192.601 128.536 192.157 128.728C191.713 128.908 191.359 129.22 191.095 129.664C190.831 130.108 190.699 130.72 190.699 131.5V136H189.187ZM196.644 125.092C196.344 125.092 196.092 124.996 195.888 124.804C195.696 124.6 195.6 124.348 195.6 124.048C195.6 123.76 195.696 123.52 195.888 123.328C196.092 123.136 196.344 123.04 196.644 123.04C196.932 123.04 197.178 123.136 197.382 123.328C197.586 123.52 197.688 123.76 197.688 124.048C197.688 124.348 197.586 124.6 197.382 124.804C197.178 124.996 196.932 125.092 196.644 125.092ZM195.888 136V127.072H197.4V136H195.888ZM202.607 136L199.223 127.072H200.807L203.489 134.542L206.189 127.072H207.737L204.353 136H202.607ZM212.977 136.216C212.125 136.216 211.369 136.024 210.709 135.64C210.049 135.244 209.527 134.698 209.143 134.002C208.771 133.306 208.585 132.484 208.585 131.536C208.585 130.6 208.771 129.784 209.143 129.088C209.515 128.38 210.031 127.834 210.691 127.45C211.363 127.054 212.137 126.856 213.013 126.856C213.877 126.856 214.621 127.054 215.245 127.45C215.881 127.834 216.367 128.344 216.703 128.98C217.039 129.616 217.207 130.3 217.207 131.032C217.207 131.164 217.201 131.296 217.189 131.428C217.189 131.56 217.189 131.71 217.189 131.878H210.079C210.115 132.562 210.271 133.132 210.547 133.588C210.835 134.032 211.189 134.368 211.609 134.596C212.041 134.824 212.497 134.938 212.977 134.938C213.601 134.938 214.123 134.794 214.543 134.506C214.963 134.218 215.269 133.828 215.461 133.336H216.955C216.715 134.164 216.253 134.854 215.569 135.406C214.897 135.946 214.033 136.216 212.977 136.216ZM212.977 128.134C212.257 128.134 211.615 128.356 211.051 128.8C210.499 129.232 210.181 129.868 210.097 130.708H215.713C215.677 129.904 215.401 129.274 214.885 128.818C214.369 128.362 213.733 128.134 212.977 128.134ZM219.211 136V127.072H220.579L220.705 128.782C220.981 128.194 221.401 127.726 221.965 127.378C222.529 127.03 223.225 126.856 224.053 126.856V128.44H223.639C223.111 128.44 222.625 128.536 222.181 128.728C221.737 128.908 221.383 129.22 221.119 129.664C220.855 130.108 220.723 130.72 220.723 131.5V136H219.211ZM229.17 136.216C228.102 136.216 227.214 135.946 226.506 135.406C225.798 134.866 225.384 134.134 225.264 133.21H226.812C226.908 133.678 227.154 134.086 227.55 134.434C227.958 134.77 228.504 134.938 229.188 134.938C229.824 134.938 230.292 134.806 230.592 134.542C230.892 134.266 231.042 133.942 231.042 133.57C231.042 133.03 230.844 132.67 230.448 132.49C230.064 132.31 229.518 132.148 228.81 132.004C228.33 131.908 227.85 131.77 227.37 131.59C226.89 131.41 226.488 131.158 226.164 130.834C225.84 130.498 225.678 130.06 225.678 129.52C225.678 128.74 225.966 128.104 226.542 127.612C227.13 127.108 227.922 126.856 228.918 126.856C229.866 126.856 230.64 127.096 231.24 127.576C231.852 128.044 232.206 128.716 232.302 129.592H230.808C230.748 129.136 230.55 128.782 230.214 128.53C229.89 128.266 229.452 128.134 228.9 128.134C228.36 128.134 227.94 128.248 227.64 128.476C227.352 128.704 227.208 129.004 227.208 129.376C227.208 129.736 227.394 130.018 227.766 130.222C228.15 130.426 228.666 130.6 229.314 130.744C229.866 130.864 230.388 131.014 230.88 131.194C231.384 131.362 231.792 131.62 232.104 131.968C232.428 132.304 232.59 132.796 232.59 133.444C232.602 134.248 232.296 134.914 231.672 135.442C231.06 135.958 230.226 136.216 229.17 136.216ZM243.581 136.216C242.741 136.216 241.985 136.024 241.313 135.64C240.641 135.256 240.107 134.716 239.711 134.02C239.327 133.312 239.135 132.484 239.135 131.536C239.135 130.588 239.333 129.766 239.729 129.07C240.125 128.362 240.659 127.816 241.331 127.432C242.015 127.048 242.777 126.856 243.617 126.856C244.457 126.856 245.213 127.048 245.885 127.432C246.557 127.816 247.085 128.362 247.469 129.07C247.865 129.766 248.063 130.588 248.063 131.536C248.063 132.484 247.865 133.312 247.469 134.02C247.073 134.716 246.533 135.256 245.849 135.64C245.177 136.024 244.421 136.216 243.581 136.216ZM243.581 134.92C244.097 134.92 244.577 134.794 245.021 134.542C245.465 134.29 245.825 133.912 246.101 133.408C246.377 132.904 246.515 132.28 246.515 131.536C246.515 130.792 246.377 130.168 246.101 129.664C245.837 129.16 245.483 128.782 245.039 128.53C244.595 128.278 244.121 128.152 243.617 128.152C243.101 128.152 242.621 128.278 242.177 128.53C241.733 128.782 241.373 129.16 241.097 129.664C240.821 130.168 240.683 130.792 240.683 131.536C240.683 132.28 240.821 132.904 241.097 133.408C241.373 133.912 241.727 134.29 242.159 134.542C242.603 134.794 243.077 134.92 243.581 134.92ZM250.652 136V128.35H249.302V127.072H250.652V125.524C250.652 124.66 250.868 124.03 251.3 123.634C251.732 123.238 252.362 123.04 253.19 123.04H254.09V124.336H253.424C252.968 124.336 252.644 124.432 252.452 124.624C252.26 124.804 252.164 125.116 252.164 125.56V127.072H254.36V128.35H252.164V136H250.652ZM265.028 136.216C264.176 136.216 263.408 136.024 262.724 135.64C262.052 135.244 261.518 134.698 261.122 134.002C260.738 133.294 260.546 132.472 260.546 131.536C260.546 130.6 260.738 129.784 261.122 129.088C261.518 128.38 262.052 127.834 262.724 127.45C263.408 127.054 264.176 126.856 265.028 126.856C266.084 126.856 266.972 127.132 267.692 127.684C268.424 128.236 268.886 128.974 269.078 129.898H267.53C267.41 129.346 267.116 128.92 266.648 128.62C266.18 128.308 265.634 128.152 265.01 128.152C264.506 128.152 264.032 128.278 263.588 128.53C263.144 128.782 262.784 129.16 262.508 129.664C262.232 130.168 262.094 130.792 262.094 131.536C262.094 132.28 262.232 132.904 262.508 133.408C262.784 133.912 263.144 134.296 263.588 134.56C264.032 134.812 264.506 134.938 265.01 134.938C265.634 134.938 266.18 134.788 266.648 134.488C267.116 134.176 267.41 133.738 267.53 133.174H269.078C268.898 134.074 268.442 134.806 267.71 135.37C266.978 135.934 266.084 136.216 265.028 136.216ZM271.189 136V123.04H272.701V128.602C273.001 128.05 273.427 127.624 273.979 127.324C274.531 127.012 275.131 126.856 275.779 126.856C276.811 126.856 277.639 127.18 278.263 127.828C278.887 128.464 279.199 129.448 279.199 130.78V136H277.705V130.942C277.705 129.082 276.955 128.152 275.455 128.152C274.675 128.152 274.021 128.434 273.493 128.998C272.965 129.55 272.701 130.342 272.701 131.374V136H271.189ZM284.46 136.216C283.716 136.216 283.098 136.09 282.606 135.838C282.114 135.586 281.748 135.25 281.508 134.83C281.268 134.41 281.148 133.954 281.148 133.462C281.148 132.55 281.496 131.848 282.192 131.356C282.888 130.864 283.836 130.618 285.036 130.618H287.448V130.51C287.448 129.73 287.244 129.142 286.836 128.746C286.428 128.338 285.882 128.134 285.198 128.134C284.61 128.134 284.1 128.284 283.668 128.584C283.248 128.872 282.984 129.298 282.876 129.862H281.328C281.388 129.214 281.604 128.668 281.976 128.224C282.36 127.78 282.834 127.444 283.398 127.216C283.962 126.976 284.562 126.856 285.198 126.856C286.446 126.856 287.382 127.192 288.006 127.864C288.642 128.524 288.96 129.406 288.96 130.51V136H287.61L287.52 134.398C287.268 134.902 286.896 135.334 286.404 135.694C285.924 136.042 285.276 136.216 284.46 136.216ZM284.694 134.938C285.27 134.938 285.762 134.788 286.17 134.488C286.59 134.188 286.908 133.798 287.124 133.318C287.34 132.838 287.448 132.334 287.448 131.806V131.788H285.162C284.274 131.788 283.644 131.944 283.272 132.256C282.912 132.556 282.732 132.934 282.732 133.39C282.732 133.858 282.9 134.236 283.236 134.524C283.584 134.8 284.07 134.938 284.694 134.938ZM291.228 136V127.072H292.596L292.686 128.674C292.974 128.11 293.388 127.666 293.928 127.342C294.468 127.018 295.08 126.856 295.764 126.856C296.82 126.856 297.66 127.18 298.284 127.828C298.92 128.464 299.238 129.448 299.238 130.78V136H297.726V130.942C297.726 129.082 296.958 128.152 295.422 128.152C294.654 128.152 294.012 128.434 293.496 128.998C292.992 129.55 292.74 130.342 292.74 131.374V136H291.228ZM305.057 133.192C304.553 133.192 304.091 133.126 303.671 132.994L302.771 133.84C302.903 133.936 303.065 134.02 303.257 134.092C303.461 134.152 303.749 134.212 304.121 134.272C304.493 134.32 305.015 134.374 305.687 134.434C306.887 134.518 307.745 134.794 308.261 135.262C308.777 135.73 309.035 136.342 309.035 137.098C309.035 137.614 308.891 138.106 308.603 138.574C308.327 139.042 307.895 139.426 307.307 139.726C306.731 140.026 305.987 140.176 305.075 140.176C304.271 140.176 303.557 140.068 302.933 139.852C302.309 139.648 301.823 139.33 301.475 138.898C301.127 138.478 300.953 137.944 300.953 137.296C300.953 136.96 301.043 136.594 301.223 136.198C301.403 135.814 301.739 135.448 302.231 135.1C301.967 134.992 301.739 134.878 301.547 134.758C301.367 134.626 301.199 134.482 301.043 134.326V133.912L302.573 132.4C301.865 131.8 301.511 131.008 301.511 130.024C301.511 129.436 301.649 128.902 301.925 128.422C302.201 127.942 302.603 127.564 303.131 127.288C303.659 127 304.301 126.856 305.057 126.856C305.573 126.856 306.041 126.928 306.461 127.072H309.755V128.206L308.081 128.278C308.429 128.782 308.603 129.364 308.603 130.024C308.603 130.612 308.459 131.146 308.171 131.626C307.895 132.106 307.493 132.49 306.965 132.778C306.449 133.054 305.813 133.192 305.057 133.192ZM305.057 131.95C305.693 131.95 306.197 131.788 306.569 131.464C306.953 131.128 307.145 130.648 307.145 130.024C307.145 129.412 306.953 128.944 306.569 128.62C306.197 128.284 305.693 128.116 305.057 128.116C304.409 128.116 303.893 128.284 303.509 128.62C303.137 128.944 302.951 129.412 302.951 130.024C302.951 130.648 303.137 131.128 303.509 131.464C303.893 131.788 304.409 131.95 305.057 131.95ZM302.429 137.152C302.429 137.752 302.681 138.196 303.185 138.484C303.689 138.784 304.319 138.934 305.075 138.934C305.819 138.934 306.413 138.772 306.857 138.448C307.313 138.124 307.541 137.692 307.541 137.152C307.541 136.768 307.385 136.432 307.073 136.144C306.761 135.868 306.185 135.706 305.345 135.658C304.685 135.61 304.115 135.55 303.635 135.478C303.143 135.742 302.819 136.024 302.663 136.324C302.507 136.636 302.429 136.912 302.429 137.152ZM315.123 136.216C314.271 136.216 313.515 136.024 312.855 135.64C312.195 135.244 311.673 134.698 311.289 134.002C310.917 133.306 310.731 132.484 310.731 131.536C310.731 130.6 310.917 129.784 311.289 129.088C311.661 128.38 312.177 127.834 312.837 127.45C313.509 127.054 314.283 126.856 315.159 126.856C316.023 126.856 316.767 127.054 317.391 127.45C318.027 127.834 318.513 128.344 318.849 128.98C319.185 129.616 319.353 130.3 319.353 131.032C319.353 131.164 319.347 131.296 319.335 131.428C319.335 131.56 319.335 131.71 319.335 131.878H312.225C312.261 132.562 312.417 133.132 312.693 133.588C312.981 134.032 313.335 134.368 313.755 134.596C314.187 134.824 314.643 134.938 315.123 134.938C315.747 134.938 316.269 134.794 316.689 134.506C317.109 134.218 317.415 133.828 317.607 133.336H319.101C318.861 134.164 318.399 134.854 317.715 135.406C317.043 135.946 316.179 136.216 315.123 136.216ZM315.123 128.134C314.403 128.134 313.761 128.356 313.197 128.8C312.645 129.232 312.327 129.868 312.243 130.708H317.859C317.823 129.904 317.547 129.274 317.031 128.818C316.515 128.362 315.879 128.134 315.123 128.134ZM329.649 133.192C329.145 133.192 328.683 133.126 328.263 132.994L327.363 133.84C327.495 133.936 327.657 134.02 327.849 134.092C328.053 134.152 328.341 134.212 328.713 134.272C329.085 134.32 329.607 134.374 330.279 134.434C331.479 134.518 332.337 134.794 332.853 135.262C333.369 135.73 333.627 136.342 333.627 137.098C333.627 137.614 333.483 138.106 333.195 138.574C332.919 139.042 332.487 139.426 331.899 139.726C331.323 140.026 330.579 140.176 329.667 140.176C328.863 140.176 328.149 140.068 327.525 139.852C326.901 139.648 326.415 139.33 326.067 138.898C325.719 138.478 325.545 137.944 325.545 137.296C325.545 136.96 325.635 136.594 325.815 136.198C325.995 135.814 326.331 135.448 326.823 135.1C326.559 134.992 326.331 134.878 326.139 134.758C325.959 134.626 325.791 134.482 325.635 134.326V133.912L327.165 132.4C326.457 131.8 326.103 131.008 326.103 130.024C326.103 129.436 326.241 128.902 326.517 128.422C326.793 127.942 327.195 127.564 327.723 127.288C328.251 127 328.893 126.856 329.649 126.856C330.165 126.856 330.633 126.928 331.053 127.072H334.347V128.206L332.673 128.278C333.021 128.782 333.195 129.364 333.195 130.024C333.195 130.612 333.051 131.146 332.763 131.626C332.487 132.106 332.085 132.49 331.557 132.778C331.041 133.054 330.405 133.192 329.649 133.192ZM329.649 131.95C330.285 131.95 330.789 131.788 331.161 131.464C331.545 131.128 331.737 130.648 331.737 130.024C331.737 129.412 331.545 128.944 331.161 128.62C330.789 128.284 330.285 128.116 329.649 128.116C329.001 128.116 328.485 128.284 328.101 128.62C327.729 128.944 327.543 129.412 327.543 130.024C327.543 130.648 327.729 131.128 328.101 131.464C328.485 131.788 329.001 131.95 329.649 131.95ZM327.021 137.152C327.021 137.752 327.273 138.196 327.777 138.484C328.281 138.784 328.911 138.934 329.667 138.934C330.411 138.934 331.005 138.772 331.449 138.448C331.905 138.124 332.133 137.692 332.133 137.152C332.133 136.768 331.977 136.432 331.665 136.144C331.353 135.868 330.777 135.706 329.937 135.658C329.277 135.61 328.707 135.55 328.227 135.478C327.735 135.742 327.411 136.024 327.255 136.324C327.099 136.636 327.021 136.912 327.021 137.152ZM336.971 125.092C336.671 125.092 336.419 124.996 336.215 124.804C336.023 124.6 335.927 124.348 335.927 124.048C335.927 123.76 336.023 123.52 336.215 123.328C336.419 123.136 336.671 123.04 336.971 123.04C337.259 123.04 337.505 123.136 337.709 123.328C337.913 123.52 338.015 123.76 338.015 124.048C338.015 124.348 337.913 124.6 337.709 124.804C337.505 124.996 337.259 125.092 336.971 125.092ZM336.215 136V127.072H337.727V136H336.215ZM342.933 136L339.549 127.072H341.133L343.815 134.542L346.515 127.072H348.063L344.679 136H342.933ZM353.303 136.216C352.451 136.216 351.695 136.024 351.035 135.64C350.375 135.244 349.853 134.698 349.469 134.002C349.097 133.306 348.911 132.484 348.911 131.536C348.911 130.6 349.097 129.784 349.469 129.088C349.841 128.38 350.357 127.834 351.017 127.45C351.689 127.054 352.463 126.856 353.339 126.856C354.203 126.856 354.947 127.054 355.571 127.45C356.207 127.834 356.693 128.344 357.029 128.98C357.365 129.616 357.533 130.3 357.533 131.032C357.533 131.164 357.527 131.296 357.515 131.428C357.515 131.56 357.515 131.71 357.515 131.878H350.405C350.441 132.562 350.597 133.132 350.873 133.588C351.161 134.032 351.515 134.368 351.935 134.596C352.367 134.824 352.823 134.938 353.303 134.938C353.927 134.938 354.449 134.794 354.869 134.506C355.289 134.218 355.595 133.828 355.787 133.336H357.281C357.041 134.164 356.579 134.854 355.895 135.406C355.223 135.946 354.359 136.216 353.303 136.216ZM353.303 128.134C352.583 128.134 351.941 128.356 351.377 128.8C350.825 129.232 350.507 129.868 350.423 130.708H356.039C356.003 129.904 355.727 129.274 355.211 128.818C354.695 128.362 354.059 128.134 353.303 128.134ZM362.957 136.216C361.889 136.216 361.001 135.946 360.293 135.406C359.585 134.866 359.171 134.134 359.051 133.21H360.599C360.695 133.678 360.941 134.086 361.337 134.434C361.745 134.77 362.291 134.938 362.975 134.938C363.611 134.938 364.079 134.806 364.379 134.542C364.679 134.266 364.829 133.942 364.829 133.57C364.829 133.03 364.631 132.67 364.235 132.49C363.851 132.31 363.305 132.148 362.597 132.004C362.117 131.908 361.637 131.77 361.157 131.59C360.677 131.41 360.275 131.158 359.951 130.834C359.627 130.498 359.465 130.06 359.465 129.52C359.465 128.74 359.753 128.104 360.329 127.612C360.917 127.108 361.709 126.856 362.705 126.856C363.653 126.856 364.427 127.096 365.027 127.576C365.639 128.044 365.993 128.716 366.089 129.592H364.595C364.535 129.136 364.337 128.782 364.001 128.53C363.677 128.266 363.239 128.134 362.687 128.134C362.147 128.134 361.727 128.248 361.427 128.476C361.139 128.704 360.995 129.004 360.995 129.376C360.995 129.736 361.181 130.018 361.553 130.222C361.937 130.426 362.453 130.6 363.101 130.744C363.653 130.864 364.175 131.014 364.667 131.194C365.171 131.362 365.579 131.62 365.891 131.968C366.215 132.304 366.377 132.796 366.377 133.444C366.389 134.248 366.083 134.914 365.459 135.442C364.847 135.958 364.013 136.216 362.957 136.216ZM374.273 139.96L376.487 135.136H375.965L372.419 127.072H374.057L377.009 134.02L380.141 127.072H381.707L375.857 139.96H374.273ZM386.527 136.216C385.687 136.216 384.931 136.024 384.259 135.64C383.587 135.256 383.053 134.716 382.657 134.02C382.273 133.312 382.081 132.484 382.081 131.536C382.081 130.588 382.279 129.766 382.675 129.07C383.071 128.362 383.605 127.816 384.277 127.432C384.961 127.048 385.723 126.856 386.563 126.856C387.403 126.856 388.159 127.048 388.831 127.432C389.503 127.816 390.031 128.362 390.415 129.07C390.811 129.766 391.009 130.588 391.009 131.536C391.009 132.484 390.811 133.312 390.415 134.02C390.019 134.716 389.479 135.256 388.795 135.64C388.123 136.024 387.367 136.216 386.527 136.216ZM386.527 134.92C387.043 134.92 387.523 134.794 387.967 134.542C388.411 134.29 388.771 133.912 389.047 133.408C389.323 132.904 389.461 132.28 389.461 131.536C389.461 130.792 389.323 130.168 389.047 129.664C388.783 129.16 388.429 128.782 387.985 128.53C387.541 128.278 387.067 128.152 386.563 128.152C386.047 128.152 385.567 128.278 385.123 128.53C384.679 128.782 384.319 129.16 384.043 129.664C383.767 130.168 383.629 130.792 383.629 131.536C383.629 132.28 383.767 132.904 384.043 133.408C384.319 133.912 384.673 134.29 385.105 134.542C385.549 134.794 386.023 134.92 386.527 134.92ZM396.369 136.216C395.313 136.216 394.473 135.898 393.849 135.262C393.225 134.614 392.913 133.624 392.913 132.292V127.072H394.425V132.13C394.425 133.99 395.187 134.92 396.711 134.92C397.491 134.92 398.133 134.644 398.637 134.092C399.153 133.528 399.411 132.73 399.411 131.698V127.072H400.923V136H399.555L399.447 134.398C399.171 134.962 398.757 135.406 398.205 135.73C397.665 136.054 397.053 136.216 396.369 136.216ZM411.704 136C410.888 136 410.246 135.802 409.778 135.406C409.31 135.01 409.076 134.296 409.076 133.264V128.35H407.528V127.072H409.076L409.274 124.93H410.588V127.072H413.216V128.35H410.588V133.264C410.588 133.828 410.702 134.212 410.93 134.416C411.158 134.608 411.56 134.704 412.136 134.704H413.072V136H411.704ZM415.137 136V123.04H416.649V128.602C416.949 128.05 417.375 127.624 417.927 127.324C418.479 127.012 419.079 126.856 419.727 126.856C420.759 126.856 421.587 127.18 422.211 127.828C422.835 128.464 423.147 129.448 423.147 130.78V136H421.653V130.942C421.653 129.082 420.903 128.152 419.403 128.152C418.623 128.152 417.969 128.434 417.441 128.998C416.913 129.55 416.649 130.342 416.649 131.374V136H415.137ZM429.451 136.216C428.599 136.216 427.843 136.024 427.183 135.64C426.523 135.244 426.001 134.698 425.617 134.002C425.245 133.306 425.059 132.484 425.059 131.536C425.059 130.6 425.245 129.784 425.617 129.088C425.989 128.38 426.505 127.834 427.165 127.45C427.837 127.054 428.611 126.856 429.487 126.856C430.351 126.856 431.095 127.054 431.719 127.45C432.355 127.834 432.841 128.344 433.177 128.98C433.513 129.616 433.681 130.3 433.681 131.032C433.681 131.164 433.675 131.296 433.663 131.428C433.663 131.56 433.663 131.71 433.663 131.878H426.553C426.589 132.562 426.745 133.132 427.021 133.588C427.309 134.032 427.663 134.368 428.083 134.596C428.515 134.824 428.971 134.938 429.451 134.938C430.075 134.938 430.597 134.794 431.017 134.506C431.437 134.218 431.743 133.828 431.935 133.336H433.429C433.189 134.164 432.727 134.854 432.043 135.406C431.371 135.946 430.507 136.216 429.451 136.216ZM429.451 128.134C428.731 128.134 428.089 128.356 427.525 128.8C426.973 129.232 426.655 129.868 426.571 130.708H432.187C432.151 129.904 431.875 129.274 431.359 128.818C430.843 128.362 430.207 128.134 429.451 128.134ZM444.553 136.216C443.701 136.216 442.933 136.024 442.249 135.64C441.577 135.244 441.043 134.698 440.647 134.002C440.263 133.294 440.071 132.472 440.071 131.536C440.071 130.6 440.263 129.784 440.647 129.088C441.043 128.38 441.577 127.834 442.249 127.45C442.933 127.054 443.701 126.856 444.553 126.856C445.609 126.856 446.497 127.132 447.217 127.684C447.949 128.236 448.411 128.974 448.603 129.898H447.055C446.935 129.346 446.641 128.92 446.173 128.62C445.705 128.308 445.159 128.152 444.535 128.152C444.031 128.152 443.557 128.278 443.113 128.53C442.669 128.782 442.309 129.16 442.033 129.664C441.757 130.168 441.619 130.792 441.619 131.536C441.619 132.28 441.757 132.904 442.033 133.408C442.309 133.912 442.669 134.296 443.113 134.56C443.557 134.812 444.031 134.938 444.535 134.938C445.159 134.938 445.705 134.788 446.173 134.488C446.641 134.176 446.935 133.738 447.055 133.174H448.603C448.423 134.074 447.967 134.806 447.235 135.37C446.503 135.934 445.609 136.216 444.553 136.216ZM454.783 136.216C453.943 136.216 453.187 136.024 452.515 135.64C451.843 135.256 451.309 134.716 450.913 134.02C450.529 133.312 450.337 132.484 450.337 131.536C450.337 130.588 450.535 129.766 450.931 129.07C451.327 128.362 451.861 127.816 452.533 127.432C453.217 127.048 453.979 126.856 454.819 126.856C455.659 126.856 456.415 127.048 457.087 127.432C457.759 127.816 458.287 128.362 458.671 129.07C459.067 129.766 459.265 130.588 459.265 131.536C459.265 132.484 459.067 133.312 458.671 134.02C458.275 134.716 457.735 135.256 457.051 135.64C456.379 136.024 455.623 136.216 454.783 136.216ZM454.783 134.92C455.299 134.92 455.779 134.794 456.223 134.542C456.667 134.29 457.027 133.912 457.303 133.408C457.579 132.904 457.717 132.28 457.717 131.536C457.717 130.792 457.579 130.168 457.303 129.664C457.039 129.16 456.685 128.782 456.241 128.53C455.797 128.278 455.323 128.152 454.819 128.152C454.303 128.152 453.823 128.278 453.379 128.53C452.935 128.782 452.575 129.16 452.299 129.664C452.023 130.168 451.885 130.792 451.885 131.536C451.885 132.28 452.023 132.904 452.299 133.408C452.575 133.912 452.929 134.29 453.361 134.542C453.805 134.794 454.279 134.92 454.783 134.92ZM461.367 136V127.072H462.735L462.843 128.368C463.131 127.888 463.515 127.516 463.995 127.252C464.475 126.988 465.015 126.856 465.615 126.856C466.323 126.856 466.929 127 467.433 127.288C467.949 127.576 468.345 128.014 468.621 128.602C468.933 128.062 469.359 127.636 469.899 127.324C470.451 127.012 471.045 126.856 471.681 126.856C472.749 126.856 473.601 127.18 474.237 127.828C474.873 128.464 475.191 129.448 475.191 130.78V136H473.697V130.942C473.697 130.018 473.511 129.322 473.139 128.854C472.767 128.386 472.233 128.152 471.537 128.152C470.817 128.152 470.217 128.434 469.737 128.998C469.269 129.55 469.035 130.342 469.035 131.374V136H467.523V130.942C467.523 130.018 467.337 129.322 466.965 128.854C466.593 128.386 466.059 128.152 465.363 128.152C464.655 128.152 464.061 128.434 463.581 128.998C463.113 129.55 462.879 130.342 462.879 131.374V136H461.367ZM477.469 139.96V127.072H478.837L478.981 128.548C479.269 128.116 479.677 127.726 480.205 127.378C480.745 127.03 481.429 126.856 482.257 126.856C483.145 126.856 483.919 127.06 484.579 127.468C485.239 127.876 485.749 128.434 486.109 129.142C486.481 129.85 486.667 130.654 486.667 131.554C486.667 132.454 486.481 133.258 486.109 133.966C485.749 134.662 485.233 135.214 484.561 135.622C483.901 136.018 483.127 136.216 482.239 136.216C481.507 136.216 480.853 136.066 480.277 135.766C479.713 135.466 479.281 135.046 478.981 134.506V139.96H477.469ZM482.077 134.902C482.677 134.902 483.205 134.764 483.661 134.488C484.117 134.2 484.477 133.804 484.741 133.3C485.005 132.796 485.137 132.208 485.137 131.536C485.137 130.864 485.005 130.276 484.741 129.772C484.477 129.268 484.117 128.878 483.661 128.602C483.205 128.314 482.677 128.17 482.077 128.17C481.477 128.17 480.949 128.314 480.493 128.602C480.037 128.878 479.677 129.268 479.413 129.772C479.149 130.276 479.017 130.864 479.017 131.536C479.017 132.208 479.149 132.796 479.413 133.3C479.677 133.804 480.037 134.2 480.493 134.488C480.949 134.764 481.477 134.902 482.077 134.902ZM492.839 136.216C491.999 136.216 491.243 136.024 490.571 135.64C489.899 135.256 489.365 134.716 488.969 134.02C488.585 133.312 488.393 132.484 488.393 131.536C488.393 130.588 488.591 129.766 488.987 129.07C489.383 128.362 489.917 127.816 490.589 127.432C491.273 127.048 492.035 126.856 492.875 126.856C493.715 126.856 494.471 127.048 495.143 127.432C495.815 127.816 496.343 128.362 496.727 129.07C497.123 129.766 497.321 130.588 497.321 131.536C497.321 132.484 497.123 133.312 496.727 134.02C496.331 134.716 495.791 135.256 495.107 135.64C494.435 136.024 493.679 136.216 492.839 136.216ZM492.839 134.92C493.355 134.92 493.835 134.794 494.279 134.542C494.723 134.29 495.083 133.912 495.359 133.408C495.635 132.904 495.773 132.28 495.773 131.536C495.773 130.792 495.635 130.168 495.359 129.664C495.095 129.16 494.741 128.782 494.297 128.53C493.853 128.278 493.379 128.152 492.875 128.152C492.359 128.152 491.879 128.278 491.435 128.53C490.991 128.782 490.631 129.16 490.355 129.664C490.079 130.168 489.941 130.792 489.941 131.536C489.941 132.28 490.079 132.904 490.355 133.408C490.631 133.912 490.985 134.29 491.417 134.542C491.861 134.794 492.335 134.92 492.839 134.92ZM499.424 136V127.072H500.792L500.882 128.674C501.17 128.11 501.584 127.666 502.124 127.342C502.664 127.018 503.276 126.856 503.96 126.856C505.016 126.856 505.856 127.18 506.48 127.828C507.116 128.464 507.434 129.448 507.434 130.78V136H505.922V130.942C505.922 129.082 505.154 128.152 503.618 128.152C502.85 128.152 502.208 128.434 501.692 128.998C501.188 129.55 500.936 130.342 500.936 131.374V136H499.424ZM513.738 136.216C512.886 136.216 512.13 136.024 511.47 135.64C510.81 135.244 510.288 134.698 509.904 134.002C509.532 133.306 509.346 132.484 509.346 131.536C509.346 130.6 509.532 129.784 509.904 129.088C510.276 128.38 510.792 127.834 511.452 127.45C512.124 127.054 512.898 126.856 513.774 126.856C514.638 126.856 515.382 127.054 516.006 127.45C516.642 127.834 517.128 128.344 517.464 128.98C517.8 129.616 517.968 130.3 517.968 131.032C517.968 131.164 517.962 131.296 517.95 131.428C517.95 131.56 517.95 131.71 517.95 131.878H510.84C510.876 132.562 511.032 133.132 511.308 133.588C511.596 134.032 511.95 134.368 512.37 134.596C512.802 134.824 513.258 134.938 513.738 134.938C514.362 134.938 514.884 134.794 515.304 134.506C515.724 134.218 516.03 133.828 516.222 133.336H517.716C517.476 134.164 517.014 134.854 516.33 135.406C515.658 135.946 514.794 136.216 513.738 136.216ZM513.738 128.134C513.018 128.134 512.376 128.356 511.812 128.8C511.26 129.232 510.942 129.868 510.858 130.708H516.474C516.438 129.904 516.162 129.274 515.646 128.818C515.13 128.362 514.494 128.134 513.738 128.134ZM519.972 136V127.072H521.34L521.43 128.674C521.718 128.11 522.132 127.666 522.672 127.342C523.212 127.018 523.824 126.856 524.508 126.856C525.564 126.856 526.404 127.18 527.028 127.828C527.664 128.464 527.982 129.448 527.982 130.78V136H526.47V130.942C526.47 129.082 525.702 128.152 524.166 128.152C523.398 128.152 522.756 128.434 522.24 128.998C521.736 129.55 521.484 130.342 521.484 131.374V136H519.972ZM533.801 136C532.985 136 532.343 135.802 531.875 135.406C531.407 135.01 531.173 134.296 531.173 133.264V128.35H529.625V127.072H531.173L531.371 124.93H532.685V127.072H535.313V128.35H532.685V133.264C532.685 133.828 532.799 134.212 533.027 134.416C533.255 134.608 533.657 134.704 534.233 134.704H535.169V136H533.801ZM540.654 136.216C539.586 136.216 538.698 135.946 537.99 135.406C537.282 134.866 536.868 134.134 536.748 133.21H538.296C538.392 133.678 538.638 134.086 539.034 134.434C539.442 134.77 539.988 134.938 540.672 134.938C541.308 134.938 541.776 134.806 542.076 134.542C542.376 134.266 542.526 133.942 542.526 133.57C542.526 133.03 542.328 132.67 541.932 132.49C541.548 132.31 541.002 132.148 540.294 132.004C539.814 131.908 539.334 131.77 538.854 131.59C538.374 131.41 537.972 131.158 537.648 130.834C537.324 130.498 537.162 130.06 537.162 129.52C537.162 128.74 537.45 128.104 538.026 127.612C538.614 127.108 539.406 126.856 540.402 126.856C541.35 126.856 542.124 127.096 542.724 127.576C543.336 128.044 543.69 128.716 543.786 129.592H542.292C542.232 129.136 542.034 128.782 541.698 128.53C541.374 128.266 540.936 128.134 540.384 128.134C539.844 128.134 539.424 128.248 539.124 128.476C538.836 128.704 538.692 129.004 538.692 129.376C538.692 129.736 538.878 130.018 539.25 130.222C539.634 130.426 540.15 130.6 540.798 130.744C541.35 130.864 541.872 131.014 542.364 131.194C542.868 131.362 543.276 131.62 543.588 131.968C543.912 132.304 544.074 132.796 544.074 133.444C544.086 134.248 543.78 134.914 543.156 135.442C542.544 135.958 541.71 136.216 540.654 136.216ZM90.2628 167.96L92.4768 163.136H91.9548L88.4088 155.072H90.0468L92.9988 162.02L96.1308 155.072H97.6968L91.8468 167.96H90.2628ZM102.517 164.216C101.677 164.216 100.921 164.024 100.249 163.64C99.577 163.256 99.043 162.716 98.647 162.02C98.263 161.312 98.071 160.484 98.071 159.536C98.071 158.588 98.269 157.766 98.665 157.07C99.061 156.362 99.595 155.816 100.267 155.432C100.951 155.048 101.713 154.856 102.553 154.856C103.393 154.856 104.149 155.048 104.821 155.432C105.493 155.816 106.021 156.362 106.405 157.07C106.801 157.766 106.999 158.588 106.999 159.536C106.999 160.484 106.801 161.312 106.405 162.02C106.009 162.716 105.469 163.256 104.785 163.64C104.113 164.024 103.357 164.216 102.517 164.216ZM102.517 162.92C103.033 162.92 103.513 162.794 103.957 162.542C104.401 162.29 104.761 161.912 105.037 161.408C105.313 160.904 105.451 160.28 105.451 159.536C105.451 158.792 105.313 158.168 105.037 157.664C104.773 157.16 104.419 156.782 103.975 156.53C103.531 156.278 103.057 156.152 102.553 156.152C102.037 156.152 101.557 156.278 101.113 156.53C100.669 156.782 100.309 157.16 100.033 157.664C99.757 158.168 99.619 158.792 99.619 159.536C99.619 160.28 99.757 160.904 100.033 161.408C100.309 161.912 100.663 162.29 101.095 162.542C101.539 162.794 102.013 162.92 102.517 162.92ZM112.359 164.216C111.303 164.216 110.463 163.898 109.839 163.262C109.215 162.614 108.903 161.624 108.903 160.292V155.072H110.415V160.13C110.415 161.99 111.177 162.92 112.701 162.92C113.481 162.92 114.123 162.644 114.627 162.092C115.143 161.528 115.401 160.73 115.401 159.698V155.072H116.913V164H115.545L115.437 162.398C115.161 162.962 114.747 163.406 114.195 163.73C113.655 164.054 113.043 164.216 112.359 164.216ZM124.166 164V155.072H125.534L125.624 156.674C125.912 156.11 126.326 155.666 126.866 155.342C127.406 155.018 128.018 154.856 128.702 154.856C129.758 154.856 130.598 155.18 131.222 155.828C131.858 156.464 132.176 157.448 132.176 158.78V164H130.664V158.942C130.664 157.082 129.896 156.152 128.36 156.152C127.592 156.152 126.95 156.434 126.434 156.998C125.93 157.55 125.678 158.342 125.678 159.374V164H124.166ZM138.481 164.216C137.629 164.216 136.873 164.024 136.213 163.64C135.553 163.244 135.031 162.698 134.647 162.002C134.275 161.306 134.089 160.484 134.089 159.536C134.089 158.6 134.275 157.784 134.647 157.088C135.019 156.38 135.535 155.834 136.195 155.45C136.867 155.054 137.641 154.856 138.517 154.856C139.381 154.856 140.125 155.054 140.749 155.45C141.385 155.834 141.871 156.344 142.207 156.98C142.543 157.616 142.711 158.3 142.711 159.032C142.711 159.164 142.705 159.296 142.693 159.428C142.693 159.56 142.693 159.71 142.693 159.878H135.583C135.619 160.562 135.775 161.132 136.051 161.588C136.339 162.032 136.693 162.368 137.113 162.596C137.545 162.824 138.001 162.938 138.481 162.938C139.105 162.938 139.627 162.794 140.047 162.506C140.467 162.218 140.773 161.828 140.965 161.336H142.459C142.219 162.164 141.757 162.854 141.073 163.406C140.401 163.946 139.537 164.216 138.481 164.216ZM138.481 156.134C137.761 156.134 137.119 156.356 136.555 156.8C136.003 157.232 135.685 157.868 135.601 158.708H141.217C141.181 157.904 140.905 157.274 140.389 156.818C139.873 156.362 139.237 156.134 138.481 156.134ZM148.729 164.216C147.877 164.216 147.121 164.024 146.461 163.64C145.801 163.244 145.279 162.698 144.895 162.002C144.523 161.306 144.337 160.484 144.337 159.536C144.337 158.6 144.523 157.784 144.895 157.088C145.267 156.38 145.783 155.834 146.443 155.45C147.115 155.054 147.889 154.856 148.765 154.856C149.629 154.856 150.373 155.054 150.997 155.45C151.633 155.834 152.119 156.344 152.455 156.98C152.791 157.616 152.959 158.3 152.959 159.032C152.959 159.164 152.953 159.296 152.941 159.428C152.941 159.56 152.941 159.71 152.941 159.878H145.831C145.867 160.562 146.023 161.132 146.299 161.588C146.587 162.032 146.941 162.368 147.361 162.596C147.793 162.824 148.249 162.938 148.729 162.938C149.353 162.938 149.875 162.794 150.295 162.506C150.715 162.218 151.021 161.828 151.213 161.336H152.707C152.467 162.164 152.005 162.854 151.321 163.406C150.649 163.946 149.785 164.216 148.729 164.216ZM148.729 156.134C148.009 156.134 147.367 156.356 146.803 156.8C146.251 157.232 145.933 157.868 145.849 158.708H151.465C151.429 157.904 151.153 157.274 150.637 156.818C150.121 156.362 149.485 156.134 148.729 156.134ZM159.013 164.216C158.125 164.216 157.345 164.012 156.673 163.604C156.013 163.196 155.497 162.638 155.125 161.93C154.765 161.222 154.585 160.418 154.585 159.518C154.585 158.618 154.771 157.82 155.143 157.124C155.515 156.416 156.031 155.864 156.691 155.468C157.351 155.06 158.131 154.856 159.031 154.856C159.763 154.856 160.411 155.006 160.975 155.306C161.539 155.606 161.977 156.026 162.289 156.566V151.04H163.801V164H162.433L162.289 162.524C162.001 162.956 161.587 163.346 161.047 163.694C160.507 164.042 159.829 164.216 159.013 164.216ZM159.175 162.902C159.775 162.902 160.303 162.764 160.759 162.488C161.227 162.2 161.587 161.804 161.839 161.3C162.103 160.796 162.235 160.208 162.235 159.536C162.235 158.864 162.103 158.276 161.839 157.772C161.587 157.268 161.227 156.878 160.759 156.602C160.303 156.314 159.775 156.17 159.175 156.17C158.587 156.17 158.059 156.314 157.591 156.602C157.135 156.878 156.775 157.268 156.511 157.772C156.259 158.276 156.133 158.864 156.133 159.536C156.133 160.208 156.259 160.796 156.511 161.3C156.775 161.804 157.135 162.2 157.591 162.488C158.059 162.764 158.587 162.902 159.175 162.902ZM174.557 164C173.741 164 173.099 163.802 172.631 163.406C172.163 163.01 171.929 162.296 171.929 161.264V156.35H170.381V155.072H171.929L172.127 152.93H173.441V155.072H176.069V156.35H173.441V161.264C173.441 161.828 173.555 162.212 173.783 162.416C174.011 162.608 174.413 162.704 174.989 162.704H175.925V164H174.557ZM181.812 164.216C180.972 164.216 180.216 164.024 179.544 163.64C178.872 163.256 178.338 162.716 177.942 162.02C177.558 161.312 177.366 160.484 177.366 159.536C177.366 158.588 177.564 157.766 177.96 157.07C178.356 156.362 178.89 155.816 179.562 155.432C180.246 155.048 181.008 154.856 181.848 154.856C182.688 154.856 183.444 155.048 184.116 155.432C184.788 155.816 185.316 156.362 185.7 157.07C186.096 157.766 186.294 158.588 186.294 159.536C186.294 160.484 186.096 161.312 185.7 162.02C185.304 162.716 184.764 163.256 184.08 163.64C183.408 164.024 182.652 164.216 181.812 164.216ZM181.812 162.92C182.328 162.92 182.808 162.794 183.252 162.542C183.696 162.29 184.056 161.912 184.332 161.408C184.608 160.904 184.746 160.28 184.746 159.536C184.746 158.792 184.608 158.168 184.332 157.664C184.068 157.16 183.714 156.782 183.27 156.53C182.826 156.278 182.352 156.152 181.848 156.152C181.332 156.152 180.852 156.278 180.408 156.53C179.964 156.782 179.604 157.16 179.328 157.664C179.052 158.168 178.914 158.792 178.914 159.536C178.914 160.28 179.052 160.904 179.328 161.408C179.604 161.912 179.958 162.29 180.39 162.542C180.834 162.794 181.308 162.92 181.812 162.92ZM197.264 164.216C196.412 164.216 195.644 164.024 194.96 163.64C194.288 163.244 193.754 162.698 193.358 162.002C192.974 161.294 192.782 160.472 192.782 159.536C192.782 158.6 192.974 157.784 193.358 157.088C193.754 156.38 194.288 155.834 194.96 155.45C195.644 155.054 196.412 154.856 197.264 154.856C198.32 154.856 199.208 155.132 199.928 155.684C200.66 156.236 201.122 156.974 201.314 157.898H199.766C199.646 157.346 199.352 156.92 198.884 156.62C198.416 156.308 197.87 156.152 197.246 156.152C196.742 156.152 196.268 156.278 195.824 156.53C195.38 156.782 195.02 157.16 194.744 157.664C194.468 158.168 194.33 158.792 194.33 159.536C194.33 160.28 194.468 160.904 194.744 161.408C195.02 161.912 195.38 162.296 195.824 162.56C196.268 162.812 196.742 162.938 197.246 162.938C197.87 162.938 198.416 162.788 198.884 162.488C199.352 162.176 199.646 161.738 199.766 161.174H201.314C201.134 162.074 200.678 162.806 199.946 163.37C199.214 163.934 198.32 164.216 197.264 164.216ZM203.426 164V151.04H204.938V156.602C205.238 156.05 205.664 155.624 206.216 155.324C206.768 155.012 207.368 154.856 208.016 154.856C209.048 154.856 209.876 155.18 210.5 155.828C211.124 156.464 211.436 157.448 211.436 158.78V164H209.942V158.942C209.942 157.082 209.192 156.152 207.692 156.152C206.912 156.152 206.258 156.434 205.73 156.998C205.202 157.55 204.938 158.342 204.938 159.374V164H203.426ZM216.696 164.216C215.952 164.216 215.334 164.09 214.842 163.838C214.35 163.586 213.984 163.25 213.744 162.83C213.504 162.41 213.384 161.954 213.384 161.462C213.384 160.55 213.732 159.848 214.428 159.356C215.124 158.864 216.072 158.618 217.272 158.618H219.684V158.51C219.684 157.73 219.48 157.142 219.072 156.746C218.664 156.338 218.118 156.134 217.434 156.134C216.846 156.134 216.336 156.284 215.904 156.584C215.484 156.872 215.22 157.298 215.112 157.862H213.564C213.624 157.214 213.84 156.668 214.212 156.224C214.596 155.78 215.07 155.444 215.634 155.216C216.198 154.976 216.798 154.856 217.434 154.856C218.682 154.856 219.618 155.192 220.242 155.864C220.878 156.524 221.196 157.406 221.196 158.51V164H219.846L219.756 162.398C219.504 162.902 219.132 163.334 218.64 163.694C218.16 164.042 217.512 164.216 216.696 164.216ZM216.93 162.938C217.506 162.938 217.998 162.788 218.406 162.488C218.826 162.188 219.144 161.798 219.36 161.318C219.576 160.838 219.684 160.334 219.684 159.806V159.788H217.398C216.51 159.788 215.88 159.944 215.508 160.256C215.148 160.556 214.968 160.934 214.968 161.39C214.968 161.858 215.136 162.236 215.472 162.524C215.82 162.8 216.306 162.938 216.93 162.938ZM223.465 164V155.072H224.833L224.923 156.674C225.211 156.11 225.625 155.666 226.165 155.342C226.705 155.018 227.317 154.856 228.001 154.856C229.057 154.856 229.897 155.18 230.521 155.828C231.157 156.464 231.475 157.448 231.475 158.78V164H229.963V158.942C229.963 157.082 229.195 156.152 227.659 156.152C226.891 156.152 226.249 156.434 225.733 156.998C225.229 157.55 224.977 158.342 224.977 159.374V164H223.465ZM237.293 161.192C236.789 161.192 236.327 161.126 235.907 160.994L235.007 161.84C235.139 161.936 235.301 162.02 235.493 162.092C235.697 162.152 235.985 162.212 236.357 162.272C236.729 162.32 237.251 162.374 237.923 162.434C239.123 162.518 239.981 162.794 240.497 163.262C241.013 163.73 241.271 164.342 241.271 165.098C241.271 165.614 241.127 166.106 240.839 166.574C240.563 167.042 240.131 167.426 239.543 167.726C238.967 168.026 238.223 168.176 237.311 168.176C236.507 168.176 235.793 168.068 235.169 167.852C234.545 167.648 234.059 167.33 233.711 166.898C233.363 166.478 233.189 165.944 233.189 165.296C233.189 164.96 233.279 164.594 233.459 164.198C233.639 163.814 233.975 163.448 234.467 163.1C234.203 162.992 233.975 162.878 233.783 162.758C233.603 162.626 233.435 162.482 233.279 162.326V161.912L234.809 160.4C234.101 159.8 233.747 159.008 233.747 158.024C233.747 157.436 233.885 156.902 234.161 156.422C234.437 155.942 234.839 155.564 235.367 155.288C235.895 155 236.537 154.856 237.293 154.856C237.809 154.856 238.277 154.928 238.697 155.072H241.991V156.206L240.317 156.278C240.665 156.782 240.839 157.364 240.839 158.024C240.839 158.612 240.695 159.146 240.407 159.626C240.131 160.106 239.729 160.49 239.201 160.778C238.685 161.054 238.049 161.192 237.293 161.192ZM237.293 159.95C237.929 159.95 238.433 159.788 238.805 159.464C239.189 159.128 239.381 158.648 239.381 158.024C239.381 157.412 239.189 156.944 238.805 156.62C238.433 156.284 237.929 156.116 237.293 156.116C236.645 156.116 236.129 156.284 235.745 156.62C235.373 156.944 235.187 157.412 235.187 158.024C235.187 158.648 235.373 159.128 235.745 159.464C236.129 159.788 236.645 159.95 237.293 159.95ZM234.665 165.152C234.665 165.752 234.917 166.196 235.421 166.484C235.925 166.784 236.555 166.934 237.311 166.934C238.055 166.934 238.649 166.772 239.093 166.448C239.549 166.124 239.777 165.692 239.777 165.152C239.777 164.768 239.621 164.432 239.309 164.144C238.997 163.868 238.421 163.706 237.581 163.658C236.921 163.61 236.351 163.55 235.871 163.478C235.379 163.742 235.055 164.024 234.899 164.324C234.743 164.636 234.665 164.912 234.665 165.152ZM247.36 164.216C246.508 164.216 245.752 164.024 245.092 163.64C244.432 163.244 243.91 162.698 243.526 162.002C243.154 161.306 242.968 160.484 242.968 159.536C242.968 158.6 243.154 157.784 243.526 157.088C243.898 156.38 244.414 155.834 245.074 155.45C245.746 155.054 246.52 154.856 247.396 154.856C248.26 154.856 249.004 155.054 249.628 155.45C250.264 155.834 250.75 156.344 251.086 156.98C251.422 157.616 251.59 158.3 251.59 159.032C251.59 159.164 251.584 159.296 251.572 159.428C251.572 159.56 251.572 159.71 251.572 159.878H244.462C244.498 160.562 244.654 161.132 244.93 161.588C245.218 162.032 245.572 162.368 245.992 162.596C246.424 162.824 246.88 162.938 247.36 162.938C247.984 162.938 248.506 162.794 248.926 162.506C249.346 162.218 249.652 161.828 249.844 161.336H251.338C251.098 162.164 250.636 162.854 249.952 163.406C249.28 163.946 248.416 164.216 247.36 164.216ZM247.36 156.134C246.64 156.134 245.998 156.356 245.434 156.8C244.882 157.232 244.564 157.868 244.48 158.708H250.096C250.06 157.904 249.784 157.274 249.268 156.818C248.752 156.362 248.116 156.134 247.36 156.134ZM261.885 164C261.069 164 260.427 163.802 259.959 163.406C259.491 163.01 259.257 162.296 259.257 161.264V156.35H257.709V155.072H259.257L259.455 152.93H260.769V155.072H263.397V156.35H260.769V161.264C260.769 161.828 260.883 162.212 261.111 162.416C261.339 162.608 261.741 162.704 262.317 162.704H263.253V164H261.885ZM269.14 164.216C268.3 164.216 267.544 164.024 266.872 163.64C266.2 163.256 265.666 162.716 265.27 162.02C264.886 161.312 264.694 160.484 264.694 159.536C264.694 158.588 264.892 157.766 265.288 157.07C265.684 156.362 266.218 155.816 266.89 155.432C267.574 155.048 268.336 154.856 269.176 154.856C270.016 154.856 270.772 155.048 271.444 155.432C272.116 155.816 272.644 156.362 273.028 157.07C273.424 157.766 273.622 158.588 273.622 159.536C273.622 160.484 273.424 161.312 273.028 162.02C272.632 162.716 272.092 163.256 271.408 163.64C270.736 164.024 269.98 164.216 269.14 164.216ZM269.14 162.92C269.656 162.92 270.136 162.794 270.58 162.542C271.024 162.29 271.384 161.912 271.66 161.408C271.936 160.904 272.074 160.28 272.074 159.536C272.074 158.792 271.936 158.168 271.66 157.664C271.396 157.16 271.042 156.782 270.598 156.53C270.154 156.278 269.68 156.152 269.176 156.152C268.66 156.152 268.18 156.278 267.736 156.53C267.292 156.782 266.932 157.16 266.656 157.664C266.38 158.168 266.242 158.792 266.242 159.536C266.242 160.28 266.38 160.904 266.656 161.408C266.932 161.912 267.286 162.29 267.718 162.542C268.162 162.794 268.636 162.92 269.14 162.92ZM284.592 164.216C283.74 164.216 282.972 164.024 282.288 163.64C281.616 163.244 281.082 162.698 280.686 162.002C280.302 161.294 280.11 160.472 280.11 159.536C280.11 158.6 280.302 157.784 280.686 157.088C281.082 156.38 281.616 155.834 282.288 155.45C282.972 155.054 283.74 154.856 284.592 154.856C285.648 154.856 286.536 155.132 287.256 155.684C287.988 156.236 288.45 156.974 288.642 157.898H287.094C286.974 157.346 286.68 156.92 286.212 156.62C285.744 156.308 285.198 156.152 284.574 156.152C284.07 156.152 283.596 156.278 283.152 156.53C282.708 156.782 282.348 157.16 282.072 157.664C281.796 158.168 281.658 158.792 281.658 159.536C281.658 160.28 281.796 160.904 282.072 161.408C282.348 161.912 282.708 162.296 283.152 162.56C283.596 162.812 284.07 162.938 284.574 162.938C285.198 162.938 285.744 162.788 286.212 162.488C286.68 162.176 286.974 161.738 287.094 161.174H288.642C288.462 162.074 288.006 162.806 287.274 163.37C286.542 163.934 285.648 164.216 284.592 164.216ZM290.754 164V155.072H292.122L292.248 156.782C292.524 156.194 292.944 155.726 293.508 155.378C294.072 155.03 294.768 154.856 295.596 154.856V156.44H295.182C294.654 156.44 294.168 156.536 293.724 156.728C293.28 156.908 292.926 157.22 292.662 157.664C292.398 158.108 292.266 158.72 292.266 159.5V164H290.754ZM300.973 164.216C300.121 164.216 299.365 164.024 298.705 163.64C298.045 163.244 297.523 162.698 297.139 162.002C296.767 161.306 296.581 160.484 296.581 159.536C296.581 158.6 296.767 157.784 297.139 157.088C297.511 156.38 298.027 155.834 298.687 155.45C299.359 155.054 300.133 154.856 301.009 154.856C301.873 154.856 302.617 155.054 303.241 155.45C303.877 155.834 304.363 156.344 304.699 156.98C305.035 157.616 305.203 158.3 305.203 159.032C305.203 159.164 305.197 159.296 305.185 159.428C305.185 159.56 305.185 159.71 305.185 159.878H298.075C298.111 160.562 298.267 161.132 298.543 161.588C298.831 162.032 299.185 162.368 299.605 162.596C300.037 162.824 300.493 162.938 300.973 162.938C301.597 162.938 302.119 162.794 302.539 162.506C302.959 162.218 303.265 161.828 303.457 161.336H304.951C304.711 162.164 304.249 162.854 303.565 163.406C302.893 163.946 302.029 164.216 300.973 164.216ZM300.973 156.134C300.253 156.134 299.611 156.356 299.047 156.8C298.495 157.232 298.177 157.868 298.093 158.708H303.709C303.673 157.904 303.397 157.274 302.881 156.818C302.365 156.362 301.729 156.134 300.973 156.134ZM310.177 164.216C309.433 164.216 308.815 164.09 308.323 163.838C307.831 163.586 307.465 163.25 307.225 162.83C306.985 162.41 306.865 161.954 306.865 161.462C306.865 160.55 307.213 159.848 307.909 159.356C308.605 158.864 309.553 158.618 310.753 158.618H313.165V158.51C313.165 157.73 312.961 157.142 312.553 156.746C312.145 156.338 311.599 156.134 310.915 156.134C310.327 156.134 309.817 156.284 309.385 156.584C308.965 156.872 308.701 157.298 308.593 157.862H307.045C307.105 157.214 307.321 156.668 307.693 156.224C308.077 155.78 308.551 155.444 309.115 155.216C309.679 154.976 310.279 154.856 310.915 154.856C312.163 154.856 313.099 155.192 313.723 155.864C314.359 156.524 314.677 157.406 314.677 158.51V164H313.327L313.237 162.398C312.985 162.902 312.613 163.334 312.121 163.694C311.641 164.042 310.993 164.216 310.177 164.216ZM310.411 162.938C310.987 162.938 311.479 162.788 311.887 162.488C312.307 162.188 312.625 161.798 312.841 161.318C313.057 160.838 313.165 160.334 313.165 159.806V159.788H310.879C309.991 159.788 309.361 159.944 308.989 160.256C308.629 160.556 308.449 160.934 308.449 161.39C308.449 161.858 308.617 162.236 308.953 162.524C309.301 162.8 309.787 162.938 310.411 162.938ZM320.227 164C319.411 164 318.769 163.802 318.301 163.406C317.833 163.01 317.599 162.296 317.599 161.264V156.35H316.051V155.072H317.599L317.797 152.93H319.111V155.072H321.739V156.35H319.111V161.264C319.111 161.828 319.225 162.212 319.453 162.416C319.681 162.608 320.083 162.704 320.659 162.704H321.595V164H320.227ZM327.428 164.216C326.576 164.216 325.82 164.024 325.16 163.64C324.5 163.244 323.978 162.698 323.594 162.002C323.222 161.306 323.036 160.484 323.036 159.536C323.036 158.6 323.222 157.784 323.594 157.088C323.966 156.38 324.482 155.834 325.142 155.45C325.814 155.054 326.588 154.856 327.464 154.856C328.328 154.856 329.072 155.054 329.696 155.45C330.332 155.834 330.818 156.344 331.154 156.98C331.49 157.616 331.658 158.3 331.658 159.032C331.658 159.164 331.652 159.296 331.64 159.428C331.64 159.56 331.64 159.71 331.64 159.878H324.53C324.566 160.562 324.722 161.132 324.998 161.588C325.286 162.032 325.64 162.368 326.06 162.596C326.492 162.824 326.948 162.938 327.428 162.938C328.052 162.938 328.574 162.794 328.994 162.506C329.414 162.218 329.72 161.828 329.912 161.336H331.406C331.166 162.164 330.704 162.854 330.02 163.406C329.348 163.946 328.484 164.216 327.428 164.216ZM327.428 156.134C326.708 156.134 326.066 156.356 325.502 156.8C324.95 157.232 324.632 157.868 324.548 158.708H330.164C330.128 157.904 329.852 157.274 329.336 156.818C328.82 156.362 328.184 156.134 327.428 156.134ZM341.396 164.216C340.652 164.216 340.034 164.09 339.542 163.838C339.05 163.586 338.684 163.25 338.444 162.83C338.204 162.41 338.084 161.954 338.084 161.462C338.084 160.55 338.432 159.848 339.128 159.356C339.824 158.864 340.772 158.618 341.972 158.618H344.384V158.51C344.384 157.73 344.18 157.142 343.772 156.746C343.364 156.338 342.818 156.134 342.134 156.134C341.546 156.134 341.036 156.284 340.604 156.584C340.184 156.872 339.92 157.298 339.812 157.862H338.264C338.324 157.214 338.54 156.668 338.912 156.224C339.296 155.78 339.77 155.444 340.334 155.216C340.898 154.976 341.498 154.856 342.134 154.856C343.382 154.856 344.318 155.192 344.942 155.864C345.578 156.524 345.896 157.406 345.896 158.51V164H344.546L344.456 162.398C344.204 162.902 343.832 163.334 343.34 163.694C342.86 164.042 342.212 164.216 341.396 164.216ZM341.63 162.938C342.206 162.938 342.698 162.788 343.106 162.488C343.526 162.188 343.844 161.798 344.06 161.318C344.276 160.838 344.384 160.334 344.384 159.806V159.788H342.098C341.21 159.788 340.58 159.944 340.208 160.256C339.848 160.556 339.668 160.934 339.668 161.39C339.668 161.858 339.836 162.236 340.172 162.524C340.52 162.8 341.006 162.938 341.63 162.938ZM356.456 164C355.64 164 354.998 163.802 354.53 163.406C354.062 163.01 353.828 162.296 353.828 161.264V156.35H352.28V155.072H353.828L354.026 152.93H355.34V155.072H357.968V156.35H355.34V161.264C355.34 161.828 355.454 162.212 355.682 162.416C355.91 162.608 356.312 162.704 356.888 162.704H357.824V164H356.456ZM359.888 164V155.072H361.256L361.382 156.782C361.658 156.194 362.078 155.726 362.642 155.378C363.206 155.03 363.902 154.856 364.73 154.856V156.44H364.316C363.788 156.44 363.302 156.536 362.858 156.728C362.414 156.908 362.06 157.22 361.796 157.664C361.532 158.108 361.4 158.72 361.4 159.5V164H359.888ZM369.686 164.216C368.63 164.216 367.79 163.898 367.166 163.262C366.542 162.614 366.23 161.624 366.23 160.292V155.072H367.742V160.13C367.742 161.99 368.504 162.92 370.028 162.92C370.808 162.92 371.45 162.644 371.954 162.092C372.47 161.528 372.728 160.73 372.728 159.698V155.072H374.24V164H372.872L372.764 162.398C372.488 162.962 372.074 163.406 371.522 163.73C370.982 164.054 370.37 164.216 369.686 164.216ZM376.728 164V151.04H378.24V164H376.728ZM381.691 167.96L383.905 163.136H383.383L379.837 155.072H381.475L384.427 162.02L387.559 155.072H389.125L383.275 167.96H381.691ZM395.484 164V151.04H396.996V156.602C397.296 156.05 397.722 155.624 398.274 155.324C398.826 155.012 399.426 154.856 400.074 154.856C401.106 154.856 401.934 155.18 402.558 155.828C403.182 156.464 403.494 157.448 403.494 158.78V164H402V158.942C402 157.082 401.25 156.152 399.75 156.152C398.97 156.152 398.316 156.434 397.788 156.998C397.26 157.55 396.996 158.342 396.996 159.374V164H395.484ZM408.755 164.216C408.011 164.216 407.393 164.09 406.901 163.838C406.409 163.586 406.043 163.25 405.803 162.83C405.563 162.41 405.443 161.954 405.443 161.462C405.443 160.55 405.791 159.848 406.487 159.356C407.183 158.864 408.131 158.618 409.331 158.618H411.743V158.51C411.743 157.73 411.539 157.142 411.131 156.746C410.723 156.338 410.177 156.134 409.493 156.134C408.905 156.134 408.395 156.284 407.963 156.584C407.543 156.872 407.279 157.298 407.171 157.862H405.623C405.683 157.214 405.899 156.668 406.271 156.224C406.655 155.78 407.129 155.444 407.693 155.216C408.257 154.976 408.857 154.856 409.493 154.856C410.741 154.856 411.677 155.192 412.301 155.864C412.937 156.524 413.255 157.406 413.255 158.51V164H411.905L411.815 162.398C411.563 162.902 411.191 163.334 410.699 163.694C410.219 164.042 409.571 164.216 408.755 164.216ZM408.989 162.938C409.565 162.938 410.057 162.788 410.465 162.488C410.885 162.188 411.203 161.798 411.419 161.318C411.635 160.838 411.743 160.334 411.743 159.806V159.788H409.457C408.569 159.788 407.939 159.944 407.567 160.256C407.207 160.556 407.027 160.934 407.027 161.39C407.027 161.858 407.195 162.236 407.531 162.524C407.879 162.8 408.365 162.938 408.989 162.938ZM415.523 167.96V155.072H416.891L417.035 156.548C417.323 156.116 417.731 155.726 418.259 155.378C418.799 155.03 419.483 154.856 420.311 154.856C421.199 154.856 421.973 155.06 422.633 155.468C423.293 155.876 423.803 156.434 424.163 157.142C424.535 157.85 424.721 158.654 424.721 159.554C424.721 160.454 424.535 161.258 424.163 161.966C423.803 162.662 423.287 163.214 422.615 163.622C421.955 164.018 421.181 164.216 420.293 164.216C419.561 164.216 418.907 164.066 418.331 163.766C417.767 163.466 417.335 163.046 417.035 162.506V167.96H415.523ZM420.131 162.902C420.731 162.902 421.259 162.764 421.715 162.488C422.171 162.2 422.531 161.804 422.795 161.3C423.059 160.796 423.191 160.208 423.191 159.536C423.191 158.864 423.059 158.276 422.795 157.772C422.531 157.268 422.171 156.878 421.715 156.602C421.259 156.314 420.731 156.17 420.131 156.17C419.531 156.17 419.003 156.314 418.547 156.602C418.091 156.878 417.731 157.268 417.467 157.772C417.203 158.276 417.071 158.864 417.071 159.536C417.071 160.208 417.203 160.796 417.467 161.3C417.731 161.804 418.091 162.2 418.547 162.488C419.003 162.764 419.531 162.902 420.131 162.902ZM426.826 167.96V155.072H428.194L428.338 156.548C428.626 156.116 429.034 155.726 429.562 155.378C430.102 155.03 430.786 154.856 431.614 154.856C432.502 154.856 433.276 155.06 433.936 155.468C434.596 155.876 435.106 156.434 435.466 157.142C435.838 157.85 436.024 158.654 436.024 159.554C436.024 160.454 435.838 161.258 435.466 161.966C435.106 162.662 434.59 163.214 433.918 163.622C433.258 164.018 432.484 164.216 431.596 164.216C430.864 164.216 430.21 164.066 429.634 163.766C429.07 163.466 428.638 163.046 428.338 162.506V167.96H426.826ZM431.434 162.902C432.034 162.902 432.562 162.764 433.018 162.488C433.474 162.2 433.834 161.804 434.098 161.3C434.362 160.796 434.494 160.208 434.494 159.536C434.494 158.864 434.362 158.276 434.098 157.772C433.834 157.268 433.474 156.878 433.018 156.602C432.562 156.314 432.034 156.17 431.434 156.17C430.834 156.17 430.306 156.314 429.85 156.602C429.394 156.878 429.034 157.268 428.77 157.772C428.506 158.276 428.374 158.864 428.374 159.536C428.374 160.208 428.506 160.796 428.77 161.3C429.034 161.804 429.394 162.2 429.85 162.488C430.306 162.764 430.834 162.902 431.434 162.902ZM442.143 164.216C441.291 164.216 440.535 164.024 439.875 163.64C439.215 163.244 438.693 162.698 438.309 162.002C437.937 161.306 437.751 160.484 437.751 159.536C437.751 158.6 437.937 157.784 438.309 157.088C438.681 156.38 439.197 155.834 439.857 155.45C440.529 155.054 441.303 154.856 442.179 154.856C443.043 154.856 443.787 155.054 444.411 155.45C445.047 155.834 445.533 156.344 445.869 156.98C446.205 157.616 446.373 158.3 446.373 159.032C446.373 159.164 446.367 159.296 446.355 159.428C446.355 159.56 446.355 159.71 446.355 159.878H439.245C439.281 160.562 439.437 161.132 439.713 161.588C440.001 162.032 440.355 162.368 440.775 162.596C441.207 162.824 441.663 162.938 442.143 162.938C442.767 162.938 443.289 162.794 443.709 162.506C444.129 162.218 444.435 161.828 444.627 161.336H446.121C445.881 162.164 445.419 162.854 444.735 163.406C444.063 163.946 443.199 164.216 442.143 164.216ZM442.143 156.134C441.423 156.134 440.781 156.356 440.217 156.8C439.665 157.232 439.347 157.868 439.263 158.708H444.879C444.843 157.904 444.567 157.274 444.051 156.818C443.535 156.362 442.899 156.134 442.143 156.134ZM448.377 164V155.072H449.745L449.835 156.674C450.123 156.11 450.537 155.666 451.077 155.342C451.617 155.018 452.229 154.856 452.913 154.856C453.969 154.856 454.809 155.18 455.433 155.828C456.069 156.464 456.387 157.448 456.387 158.78V164H454.875V158.942C454.875 157.082 454.107 156.152 452.571 156.152C451.803 156.152 451.161 156.434 450.645 156.998C450.141 157.55 449.889 158.342 449.889 159.374V164H448.377ZM462.098 164.216C461.03 164.216 460.142 163.946 459.434 163.406C458.726 162.866 458.312 162.134 458.192 161.21H459.74C459.836 161.678 460.082 162.086 460.478 162.434C460.886 162.77 461.432 162.938 462.116 162.938C462.752 162.938 463.22 162.806 463.52 162.542C463.82 162.266 463.97 161.942 463.97 161.57C463.97 161.03 463.772 160.67 463.376 160.49C462.992 160.31 462.446 160.148 461.738 160.004C461.258 159.908 460.778 159.77 460.298 159.59C459.818 159.41 459.416 159.158 459.092 158.834C458.768 158.498 458.606 158.06 458.606 157.52C458.606 156.74 458.894 156.104 459.47 155.612C460.058 155.108 460.85 154.856 461.846 154.856C462.794 154.856 463.568 155.096 464.168 155.576C464.78 156.044 465.134 156.716 465.23 157.592H463.736C463.676 157.136 463.478 156.782 463.142 156.53C462.818 156.266 462.38 156.134 461.828 156.134C461.288 156.134 460.868 156.248 460.568 156.476C460.28 156.704 460.136 157.004 460.136 157.376C460.136 157.736 460.322 158.018 460.694 158.222C461.078 158.426 461.594 158.6 462.242 158.744C462.794 158.864 463.316 159.014 463.808 159.194C464.312 159.362 464.72 159.62 465.032 159.968C465.356 160.304 465.518 160.796 465.518 161.444C465.53 162.248 465.224 162.914 464.6 163.442C463.988 163.958 463.154 164.216 462.098 164.216ZM468.2 164.09C467.9 164.09 467.648 163.994 467.444 163.802C467.252 163.598 467.156 163.352 467.156 163.064C467.156 162.776 467.252 162.536 467.444 162.344C467.648 162.14 467.9 162.038 468.2 162.038C468.488 162.038 468.728 162.14 468.92 162.344C469.124 162.536 469.226 162.776 469.226 163.064C469.226 163.352 469.124 163.598 468.92 163.802C468.728 163.994 468.488 164.09 468.2 164.09Z" fill="#495460"/>
</svg>
