<svg width="627" height="64" viewBox="0 0 627 64" fill="none" xmlns="http://www.w3.org/2000/svg">
<path d="M52.5511 14.06V15.16C51.8177 15.3433 51.0294 15.8383 50.1861 16.645C49.3427 17.415 48.6277 18.7167 48.0411 20.55L37.9211 53.22C37.7744 53.22 37.6094 53.22 37.4261 53.22C37.2794 53.22 37.1327 53.22 36.9861 53.22C36.8027 53.22 36.6377 53.22 36.4911 53.22C36.3444 53.22 36.1977 53.22 36.0511 53.22L24.3911 18.515C23.9511 17.1583 23.4377 16.2783 22.8511 15.875C22.3011 15.435 21.7694 15.1967 21.2561 15.16V14.06C22.0261 14.0967 22.9794 14.1333 24.1161 14.17C25.2527 14.2067 26.3527 14.225 27.4161 14.225C28.9194 14.225 30.3127 14.2067 31.5961 14.17C32.9161 14.1333 33.9611 14.0967 34.7311 14.06V15.16C33.6311 15.1967 32.7511 15.325 32.0911 15.545C31.4677 15.7283 31.1011 16.1317 30.9911 16.755C30.9177 17.3783 31.1011 18.3867 31.5411 19.78L39.6261 44.64L38.6911 45.85L45.6211 24.015C46.3544 21.7417 46.6844 19.9817 46.6111 18.735C46.5744 17.4517 46.1527 16.5533 45.3461 16.04C44.5761 15.49 43.4394 15.1967 41.9361 15.16V14.06C43.0361 14.0967 44.1361 14.1333 45.2361 14.17C46.3361 14.2067 47.3994 14.225 48.4261 14.225C49.3427 14.225 50.1127 14.2067 50.7361 14.17C51.3961 14.1333 52.0011 14.0967 52.5511 14.06ZM13.8311 14.06V15.16C12.9511 15.2333 12.3277 15.4533 11.9611 15.82C11.5944 16.15 11.4111 16.645 11.4111 17.305C11.4477 17.9283 11.6311 18.7533 11.9611 19.78L20.4861 45.245L19.0561 46.84L26.5361 23.575L27.3611 24.95L18.3961 53.22C18.2494 53.22 18.1027 53.22 17.9561 53.22C17.8094 53.22 17.6444 53.22 17.4611 53.22C17.3144 53.22 17.1494 53.22 16.9661 53.22C16.8194 53.22 16.6727 53.22 16.5261 53.22L4.64605 18.68C4.16939 17.2867 3.58272 16.37 2.88605 15.93C2.18939 15.4533 1.54772 15.1967 0.961055 15.16V14.06C1.84105 14.0967 2.88605 14.1333 4.09605 14.17C5.30605 14.2067 6.47939 14.225 7.61605 14.225C8.93605 14.225 10.1277 14.2067 11.1911 14.17C12.2911 14.1333 13.1711 14.0967 13.8311 14.06ZM62.7295 9.935V29.955C63.6462 27.6817 64.9295 26.105 66.5795 25.225C68.2662 24.3083 70.0445 23.85 71.9145 23.85C73.3812 23.85 74.5728 24.0517 75.4895 24.455C76.4428 24.8217 77.2312 25.335 77.8545 25.995C78.5145 26.6917 78.9912 27.59 79.2845 28.69C79.5778 29.79 79.7245 31.275 79.7245 33.145V47.885C79.7245 49.425 80.0178 50.47 80.6045 51.02C81.2278 51.57 82.2545 51.845 83.6845 51.845V53C83.0245 52.9633 82.0345 52.9267 80.7145 52.89C79.3945 52.8167 78.1112 52.78 76.8645 52.78C75.5812 52.78 74.3162 52.8167 73.0695 52.89C71.8595 52.9267 70.9612 52.9633 70.3745 53V51.845C71.6212 51.845 72.5012 51.57 73.0145 51.02C73.5278 50.47 73.7845 49.425 73.7845 47.885V31.605C73.7845 30.5417 73.6928 29.5883 73.5095 28.745C73.3262 27.865 72.9228 27.1683 72.2995 26.655C71.7128 26.105 70.8328 25.83 69.6595 25.83C68.3395 25.83 67.1478 26.215 66.0845 26.985C65.0578 27.7183 64.2328 28.745 63.6095 30.065C63.0228 31.385 62.7295 32.8883 62.7295 34.575V47.885C62.7295 49.425 62.9862 50.47 63.4995 51.02C64.0128 51.57 64.8928 51.845 66.1395 51.845V53C65.5162 52.9633 64.5995 52.9267 63.3895 52.89C62.2162 52.8167 61.0062 52.78 59.7595 52.78C58.4762 52.78 57.1562 52.8167 55.7995 52.89C54.4795 52.9267 53.4895 52.9633 52.8295 53V51.845C54.2595 51.845 55.2678 51.57 55.8545 51.02C56.4778 50.47 56.7895 49.425 56.7895 47.885V16.535C56.7895 14.885 56.4962 13.675 55.9095 12.905C55.3595 12.0983 54.3328 11.695 52.8295 11.695V10.54C54.0028 10.65 55.1395 10.705 56.2395 10.705C57.4495 10.705 58.6045 10.65 59.7045 10.54C60.8045 10.3933 61.8128 10.1917 62.7295 9.935ZM93.6795 53.385C92.1395 53.385 90.8195 53.0917 89.7195 52.505C88.6195 51.9183 87.7945 51.1117 87.2445 50.085C86.6945 49.0583 86.4195 47.885 86.4195 46.565C86.4195 44.9517 86.7861 43.65 87.5195 42.66C88.2528 41.6333 89.1878 40.8083 90.3245 40.185C91.4978 39.5617 92.7261 39.0483 94.0095 38.645C95.3295 38.205 96.5578 37.8017 97.6945 37.435C98.8678 37.0317 99.8211 36.5733 100.554 36.06C101.324 35.5467 101.709 34.8683 101.709 34.025V30.285C101.709 28.965 101.489 27.92 101.049 27.15C100.646 26.3433 100.078 25.775 99.3445 25.445C98.6478 25.115 97.8045 24.95 96.8145 24.95C95.9711 24.95 95.0728 25.0783 94.1195 25.335C93.1661 25.555 92.4145 26.0133 91.8645 26.71C92.6711 26.93 93.3311 27.37 93.8445 28.03C94.3945 28.6533 94.6695 29.4417 94.6695 30.395C94.6695 31.4217 94.3211 32.2283 93.6245 32.815C92.9645 33.4017 92.1211 33.695 91.0945 33.695C89.9578 33.695 89.1145 33.3467 88.5645 32.65C88.0145 31.9167 87.7395 31.0733 87.7395 30.12C87.7395 29.13 87.9778 28.3233 88.4545 27.7C88.9678 27.0767 89.6278 26.49 90.4345 25.94C91.3145 25.3533 92.4328 24.8583 93.7895 24.455C95.1828 24.0517 96.7228 23.85 98.4095 23.85C99.9861 23.85 101.343 24.0333 102.479 24.4C103.653 24.73 104.624 25.28 105.394 26.05C106.311 26.8933 106.916 27.9567 107.209 29.24C107.503 30.4867 107.649 32.0083 107.649 33.805V48.985C107.649 49.9017 107.759 50.5617 107.979 50.965C108.236 51.3317 108.639 51.515 109.189 51.515C109.556 51.515 109.904 51.4233 110.234 51.24C110.601 51.0567 111.023 50.7817 111.499 50.415L112.049 51.35C111.279 51.9733 110.491 52.4683 109.684 52.835C108.914 53.2017 107.924 53.385 106.714 53.385C105.541 53.385 104.588 53.2017 103.854 52.835C103.121 52.4683 102.571 51.9367 102.204 51.24C101.874 50.5433 101.709 49.6817 101.709 48.655C100.756 50.195 99.6195 51.3683 98.2995 52.175C96.9795 52.9817 95.4395 53.385 93.6795 53.385ZM96.3195 50.745C97.3461 50.745 98.2995 50.4517 99.1795 49.865C100.096 49.2783 100.939 48.3983 101.709 47.225V36.28C101.306 36.8667 100.719 37.38 99.9495 37.82C99.1795 38.2233 98.3545 38.645 97.4745 39.085C96.5945 39.525 95.7511 40.0383 94.9445 40.625C94.1745 41.175 93.5328 41.89 93.0195 42.77C92.5061 43.65 92.2495 44.7683 92.2495 46.125C92.2495 47.555 92.6161 48.6917 93.3495 49.535C94.0828 50.3417 95.0728 50.745 96.3195 50.745ZM123.318 15.545V24.675H130.908V25.775H123.318V47.39C123.318 48.8933 123.593 49.9567 124.143 50.58C124.693 51.2033 125.481 51.515 126.508 51.515C127.461 51.515 128.305 51.13 129.038 50.36C129.808 49.59 130.468 48.2883 131.018 46.455L132.063 46.84C131.623 48.7833 130.835 50.4333 129.698 51.79C128.598 53.11 126.966 53.77 124.803 53.77C123.556 53.77 122.511 53.605 121.668 53.275C120.825 52.9817 120.091 52.5417 119.468 51.955C118.661 51.1117 118.111 50.1033 117.818 48.93C117.525 47.7567 117.378 46.1983 117.378 44.255V25.775H112.318V24.675H117.378V16.645C118.515 16.6083 119.578 16.5167 120.568 16.37C121.558 16.1867 122.475 15.9117 123.318 15.545ZM165.173 13.29C168.767 13.29 171.92 14.0783 174.633 15.655C177.383 17.2317 179.51 19.505 181.013 22.475C182.517 25.4083 183.268 28.9833 183.268 33.2C183.268 37.3067 182.498 40.9 180.958 43.98C179.418 47.06 177.273 49.4617 174.523 51.185C171.773 52.9083 168.638 53.77 165.118 53.77C161.488 53.77 158.317 52.9817 155.603 51.405C152.89 49.8283 150.782 47.555 149.278 44.585C147.775 41.615 147.023 38.04 147.023 33.86C147.023 29.7533 147.793 26.16 149.333 23.08C150.91 20 153.055 17.5983 155.768 15.875C158.482 14.1517 161.617 13.29 165.173 13.29ZM164.953 14.28C162.68 14.28 160.7 15.105 159.013 16.755C157.327 18.405 156.025 20.6783 155.108 23.575C154.192 26.4717 153.733 29.8267 153.733 33.64C153.733 37.5267 154.247 40.9183 155.273 43.815C156.3 46.675 157.693 48.8933 159.453 50.47C161.213 52.01 163.175 52.78 165.338 52.78C167.612 52.78 169.573 51.955 171.223 50.305C172.91 48.655 174.212 46.3817 175.128 43.485C176.082 40.5517 176.558 37.1967 176.558 33.42C176.558 29.4967 176.027 26.105 174.963 23.245C173.937 20.385 172.543 18.185 170.783 16.645C169.06 15.0683 167.117 14.28 164.953 14.28ZM213.233 24.015V47.06C213.233 48.71 213.508 49.9383 214.058 50.745C214.645 51.515 215.69 51.9 217.193 51.9V53.055C216.056 52.945 214.92 52.89 213.783 52.89C212.573 52.89 211.418 52.945 210.318 53.055C209.218 53.165 208.21 53.3667 207.293 53.66V47.665C206.376 49.865 205.093 51.4417 203.443 52.395C201.83 53.3117 200.125 53.77 198.328 53.77C196.971 53.77 195.816 53.5683 194.863 53.165C193.91 52.7983 193.121 52.3033 192.498 51.68C191.838 50.9467 191.38 50.0117 191.123 48.875C190.866 47.7017 190.738 46.235 190.738 44.475V30.615C190.738 28.965 190.463 27.755 189.913 26.985C189.363 26.1783 188.318 25.775 186.778 25.775V24.62C187.951 24.73 189.088 24.785 190.188 24.785C191.398 24.785 192.553 24.73 193.653 24.62C194.753 24.4733 195.761 24.2717 196.678 24.015V46.015C196.678 47.0783 196.751 48.05 196.898 48.93C197.045 49.81 197.393 50.5067 197.943 51.02C198.493 51.5333 199.373 51.79 200.583 51.79C201.866 51.79 203.003 51.405 203.993 50.635C205.02 49.865 205.826 48.82 206.413 47.5C207 46.18 207.293 44.695 207.293 43.045V30.615C207.293 28.965 207.018 27.755 206.468 26.985C205.918 26.1783 204.873 25.775 203.333 25.775V24.62C204.506 24.73 205.643 24.785 206.743 24.785C207.953 24.785 209.108 24.73 210.208 24.62C211.308 24.4733 212.316 24.2717 213.233 24.015ZM237.536 23.85C238.599 23.85 239.497 24.07 240.231 24.51C241.001 24.95 241.569 25.5183 241.936 26.215C242.339 26.875 242.541 27.6267 242.541 28.47C242.541 29.5333 242.211 30.45 241.551 31.22C240.927 31.9533 240.084 32.32 239.021 32.32C238.104 32.32 237.316 32.045 236.656 31.495C236.032 30.945 235.721 30.1933 235.721 29.24C235.721 28.4333 235.922 27.755 236.326 27.205C236.766 26.6183 237.261 26.16 237.811 25.83C237.444 25.5367 237.004 25.4083 236.491 25.445C235.501 25.4817 234.584 25.8117 233.741 26.435C232.897 27.0217 232.182 27.7917 231.596 28.745C231.009 29.6617 230.551 30.6517 230.221 31.715C229.891 32.7783 229.726 33.7683 229.726 34.685V47.335C229.726 49.1317 230.221 50.3417 231.211 50.965C232.201 51.5517 233.576 51.845 235.336 51.845V53C234.492 52.9633 233.282 52.9267 231.706 52.89C230.166 52.8167 228.534 52.78 226.811 52.78C225.491 52.78 224.171 52.8167 222.851 52.89C221.531 52.9267 220.522 52.9633 219.826 53V51.845C221.256 51.845 222.264 51.57 222.851 51.02C223.474 50.47 223.786 49.425 223.786 47.885V30.615C223.786 28.965 223.511 27.755 222.961 26.985C222.411 26.1783 221.366 25.775 219.826 25.775V24.62C220.999 24.73 222.136 24.785 223.236 24.785C224.482 24.785 225.637 24.73 226.701 24.62C227.801 24.4733 228.809 24.2717 229.726 24.015V30.34C230.166 29.2767 230.752 28.25 231.486 27.26C232.219 26.27 233.099 25.4633 234.126 24.84C235.152 24.18 236.289 23.85 237.536 23.85ZM276.355 13.29C278.775 13.29 280.755 13.6567 282.295 14.39C283.872 15.0867 285.265 15.9117 286.475 16.865C287.208 17.415 287.758 17.4883 288.125 17.085C288.528 16.645 288.803 15.6367 288.95 14.06H290.215C290.142 15.4533 290.087 17.14 290.05 19.12C290.013 21.0633 289.995 23.6667 289.995 26.93H288.73C288.473 25.3167 288.217 23.9967 287.96 22.97C287.74 21.9433 287.428 21.0633 287.025 20.33C286.658 19.5967 286.145 18.8817 285.485 18.185C284.422 16.865 283.12 15.9117 281.58 15.325C280.04 14.7383 278.408 14.445 276.685 14.445C274.815 14.445 273.165 14.9217 271.735 15.875C270.305 16.7917 269.095 18.1117 268.105 19.835C267.152 21.5583 266.418 23.5933 265.905 25.94C265.392 28.2867 265.135 30.8533 265.135 33.64C265.135 36.5 265.41 39.1033 265.96 41.45C266.51 43.76 267.298 45.7583 268.325 47.445C269.388 49.095 270.653 50.3783 272.12 51.295C273.623 52.175 275.292 52.615 277.125 52.615C278.628 52.615 280.187 52.3217 281.8 51.735C283.413 51.1117 284.697 50.1767 285.65 48.93C286.677 47.83 287.373 46.6017 287.74 45.245C288.143 43.8517 288.473 41.9633 288.73 39.58H289.995C289.995 42.9533 290.013 45.685 290.05 47.775C290.087 49.8283 290.142 51.57 290.215 53H288.95C288.803 51.4233 288.547 50.4333 288.18 50.03C287.85 49.6267 287.282 49.6817 286.475 50.195C285.118 51.1483 283.67 51.9917 282.13 52.725C280.627 53.4217 278.683 53.77 276.3 53.77C272.67 53.77 269.498 52.9817 266.785 51.405C264.072 49.8283 261.963 47.555 260.46 44.585C258.957 41.615 258.205 38.04 258.205 33.86C258.205 29.7533 258.975 26.16 260.515 23.08C262.092 20 264.237 17.5983 266.95 15.875C269.663 14.1517 272.798 13.29 276.355 13.29ZM320.924 24.015V47.06C320.924 48.71 321.199 49.9383 321.749 50.745C322.335 51.515 323.38 51.9 324.884 51.9V53.055C323.747 52.945 322.61 52.89 321.474 52.89C320.264 52.89 319.109 52.945 318.009 53.055C316.909 53.165 315.9 53.3667 314.984 53.66V47.665C314.067 49.865 312.784 51.4417 311.134 52.395C309.52 53.3117 307.815 53.77 306.019 53.77C304.662 53.77 303.507 53.5683 302.554 53.165C301.6 52.7983 300.812 52.3033 300.189 51.68C299.529 50.9467 299.07 50.0117 298.814 48.875C298.557 47.7017 298.429 46.235 298.429 44.475V30.615C298.429 28.965 298.154 27.755 297.604 26.985C297.054 26.1783 296.009 25.775 294.469 25.775V24.62C295.642 24.73 296.779 24.785 297.879 24.785C299.089 24.785 300.244 24.73 301.344 24.62C302.444 24.4733 303.452 24.2717 304.369 24.015V46.015C304.369 47.0783 304.442 48.05 304.589 48.93C304.735 49.81 305.084 50.5067 305.634 51.02C306.184 51.5333 307.064 51.79 308.274 51.79C309.557 51.79 310.694 51.405 311.684 50.635C312.71 49.865 313.517 48.82 314.104 47.5C314.69 46.18 314.984 44.695 314.984 43.045V30.615C314.984 28.965 314.709 27.755 314.159 26.985C313.609 26.1783 312.564 25.775 311.024 25.775V24.62C312.197 24.73 313.334 24.785 314.434 24.785C315.644 24.785 316.799 24.73 317.899 24.62C318.999 24.4733 320.007 24.2717 320.924 24.015ZM337.746 23.85C339.213 23.85 340.478 24.0883 341.541 24.565C342.641 25.005 343.43 25.4083 343.906 25.775C345.116 26.7283 345.868 26.105 346.161 23.905H347.371C347.298 24.9317 347.243 26.1783 347.206 27.645C347.17 29.075 347.151 30.9817 347.151 33.365H345.941C345.721 32.0083 345.336 30.6883 344.786 29.405C344.273 28.1217 343.503 27.0583 342.476 26.215C341.486 25.3717 340.185 24.95 338.571 24.95C337.361 24.95 336.353 25.2983 335.546 25.995C334.74 26.655 334.336 27.645 334.336 28.965C334.336 30.065 334.666 31.0183 335.326 31.825C335.986 32.6317 336.83 33.3833 337.856 34.08C338.92 34.7767 340.056 35.5283 341.266 36.335C342.623 37.2517 343.833 38.1683 344.896 39.085C345.996 39.965 346.858 40.955 347.481 42.055C348.141 43.155 348.471 44.4383 348.471 45.905C348.471 47.5917 348.013 49.0217 347.096 50.195C346.216 51.3683 345.043 52.2667 343.576 52.89C342.11 53.4767 340.496 53.77 338.736 53.77C337.856 53.77 337.031 53.6783 336.261 53.495C335.491 53.3483 334.776 53.1467 334.116 52.89C333.713 52.67 333.31 52.45 332.906 52.23C332.54 51.9733 332.173 51.735 331.806 51.515C331.44 51.2583 331.11 51.295 330.816 51.625C330.523 51.955 330.303 52.5417 330.156 53.385H328.946C329.02 52.2117 329.075 50.7817 329.111 49.095C329.148 47.4083 329.166 45.1717 329.166 42.385H330.376C330.633 44.4017 331.018 46.18 331.531 47.72C332.045 49.26 332.796 50.47 333.786 51.35C334.813 52.1933 336.206 52.615 337.966 52.615C338.663 52.615 339.36 52.4683 340.056 52.175C340.753 51.845 341.321 51.3317 341.761 50.635C342.238 49.9383 342.476 49.0033 342.476 47.83C342.476 46.2167 341.908 44.8967 340.771 43.87C339.671 42.8067 338.241 41.6883 336.481 40.515C335.235 39.635 334.043 38.7733 332.906 37.93C331.806 37.05 330.908 36.0783 330.211 35.015C329.515 33.915 329.166 32.6133 329.166 31.11C329.166 29.46 329.551 28.1033 330.321 27.04C331.128 25.9767 332.191 25.1883 333.511 24.675C334.831 24.125 336.243 23.85 337.746 23.85ZM362.009 15.545V24.675H369.599V25.775H362.009V47.39C362.009 48.8933 362.284 49.9567 362.834 50.58C363.384 51.2033 364.173 51.515 365.199 51.515C366.153 51.515 366.996 51.13 367.729 50.36C368.499 49.59 369.159 48.2883 369.709 46.455L370.754 46.84C370.314 48.7833 369.526 50.4333 368.389 51.79C367.289 53.11 365.658 53.77 363.494 53.77C362.248 53.77 361.203 53.605 360.359 53.275C359.516 52.9817 358.783 52.5417 358.159 51.955C357.353 51.1117 356.803 50.1033 356.509 48.93C356.216 47.7567 356.069 46.1983 356.069 44.255V25.775H351.009V24.675H356.069V16.645C357.206 16.6083 358.269 16.5167 359.259 16.37C360.249 16.1867 361.166 15.9117 362.009 15.545ZM385.47 23.85C387.927 23.85 390.109 24.3633 392.015 25.39C393.922 26.4167 395.444 28.03 396.58 30.23C397.717 32.43 398.285 35.3083 398.285 38.865C398.285 42.4217 397.717 45.3 396.58 47.5C395.444 49.6633 393.922 51.2583 392.015 52.285C390.109 53.275 387.927 53.77 385.47 53.77C383.05 53.77 380.869 53.275 378.925 52.285C376.982 51.2583 375.442 49.6633 374.305 47.5C373.205 45.3 372.655 42.4217 372.655 38.865C372.655 35.3083 373.205 32.43 374.305 30.23C375.442 28.03 376.982 26.4167 378.925 25.39C380.869 24.3633 383.05 23.85 385.47 23.85ZM385.47 24.95C383.564 24.95 382.005 26.05 380.795 28.25C379.585 30.4133 378.98 33.9517 378.98 38.865C378.98 43.7783 379.585 47.3167 380.795 49.48C382.005 51.6067 383.564 52.67 385.47 52.67C387.34 52.67 388.88 51.6067 390.09 49.48C391.337 47.3167 391.96 43.7783 391.96 38.865C391.96 33.9517 391.337 30.4133 390.09 28.25C388.88 26.05 387.34 24.95 385.47 24.95ZM420.929 23.85C422.323 23.85 423.496 24.0517 424.449 24.455C425.403 24.8217 426.173 25.335 426.759 25.995C427.419 26.6917 427.878 27.6267 428.134 28.8C428.391 29.9367 428.519 31.385 428.519 33.145V47.885C428.519 49.425 428.813 50.47 429.399 51.02C429.986 51.57 430.976 51.845 432.369 51.845V53C431.746 52.9633 430.774 52.9267 429.454 52.89C428.171 52.8167 426.906 52.78 425.659 52.78C424.413 52.78 423.184 52.8167 421.974 52.89C420.801 52.9267 419.903 52.9633 419.279 53V51.845C420.489 51.845 421.333 51.57 421.809 51.02C422.323 50.47 422.579 49.425 422.579 47.885V31.605C422.579 30.5417 422.506 29.5883 422.359 28.745C422.213 27.865 421.864 27.1683 421.314 26.655C420.801 26.105 419.976 25.83 418.839 25.83C417.556 25.83 416.401 26.215 415.374 26.985C414.384 27.755 413.578 28.8183 412.954 30.175C412.368 31.495 412.074 32.98 412.074 34.63V47.885C412.074 49.425 412.331 50.47 412.844 51.02C413.358 51.57 414.201 51.845 415.374 51.845V53C414.788 52.9633 413.908 52.9267 412.734 52.89C411.561 52.8167 410.351 52.78 409.104 52.78C407.858 52.78 406.556 52.8167 405.199 52.89C403.843 52.9267 402.834 52.9633 402.174 53V51.845C403.604 51.845 404.613 51.57 405.199 51.02C405.823 50.47 406.134 49.425 406.134 47.885V30.615C406.134 28.965 405.859 27.755 405.309 26.985C404.759 26.1783 403.714 25.775 402.174 25.775V24.62C403.348 24.73 404.484 24.785 405.584 24.785C406.831 24.785 407.986 24.73 409.049 24.62C410.149 24.4733 411.158 24.2717 412.074 24.015V30.01C413.028 27.81 414.293 26.2333 415.869 25.28C417.483 24.3267 419.169 23.85 420.929 23.85ZM437.484 23.85C438.878 23.85 440.051 24.0517 441.004 24.455C441.958 24.8217 442.728 25.335 443.314 25.995C443.974 26.6917 444.433 27.6267 444.689 28.8C444.946 29.9367 445.074 31.385 445.074 33.145V47.885C445.074 49.425 445.368 50.47 445.954 51.02C446.578 51.57 447.604 51.845 449.034 51.845V53C448.411 52.9633 447.439 52.9267 446.119 52.89C444.799 52.8167 443.498 52.78 442.214 52.78C440.968 52.78 439.739 52.8167 438.529 52.89C437.356 52.9267 436.458 52.9633 435.834 53V51.845C437.044 51.845 437.888 51.57 438.364 51.02C438.878 50.47 439.134 49.425 439.134 47.885V31.605C439.134 30.5417 439.061 29.5883 438.914 28.745C438.768 27.865 438.419 27.1683 437.869 26.655C437.319 26.105 436.458 25.83 435.284 25.83C434.001 25.83 432.846 26.2333 431.819 27.04C430.829 27.81 430.023 28.8733 429.399 30.23C428.813 31.55 428.519 33.035 428.519 34.685L428.299 30.12C429.289 27.7 430.609 26.05 432.259 25.17C433.946 24.29 435.688 23.85 437.484 23.85ZM464.96 23.85C468.187 23.85 470.717 24.8217 472.55 26.765C474.383 28.7083 475.3 31.7883 475.3 36.005H456.325L456.215 34.96H469.47C469.507 33.1633 469.36 31.5133 469.03 30.01C468.7 28.47 468.187 27.2417 467.49 26.325C466.793 25.4083 465.877 24.95 464.74 24.95C463.163 24.95 461.788 25.7933 460.615 27.48C459.478 29.13 458.782 31.7883 458.525 35.455L458.69 35.73C458.653 36.2433 458.617 36.8117 458.58 37.435C458.543 38.0217 458.525 38.6083 458.525 39.195C458.525 41.725 458.91 43.8517 459.68 45.575C460.45 47.2983 461.458 48.6 462.705 49.48C463.952 50.3233 465.217 50.745 466.5 50.745C467.49 50.745 468.443 50.5983 469.36 50.305C470.313 49.975 471.212 49.4433 472.055 48.71C472.898 47.94 473.65 46.895 474.31 45.575L475.41 46.015C474.97 47.2617 474.292 48.49 473.375 49.7C472.458 50.91 471.285 51.9 469.855 52.67C468.425 53.4033 466.757 53.77 464.85 53.77C462.283 53.77 460.047 53.2017 458.14 52.065C456.233 50.8917 454.767 49.2233 453.74 47.06C452.713 44.8967 452.2 42.33 452.2 39.36C452.2 36.0967 452.732 33.31 453.795 31C454.858 28.69 456.343 26.93 458.25 25.72C460.193 24.4733 462.43 23.85 464.96 23.85ZM496.691 23.85C497.754 23.85 498.653 24.07 499.386 24.51C500.156 24.95 500.724 25.5183 501.091 26.215C501.494 26.875 501.696 27.6267 501.696 28.47C501.696 29.5333 501.366 30.45 500.706 31.22C500.083 31.9533 499.239 32.32 498.176 32.32C497.259 32.32 496.471 32.045 495.811 31.495C495.188 30.945 494.876 30.1933 494.876 29.24C494.876 28.4333 495.078 27.755 495.481 27.205C495.921 26.6183 496.416 26.16 496.966 25.83C496.599 25.5367 496.159 25.4083 495.646 25.445C494.656 25.4817 493.739 25.8117 492.896 26.435C492.053 27.0217 491.338 27.7917 490.751 28.745C490.164 29.6617 489.706 30.6517 489.376 31.715C489.046 32.7783 488.881 33.7683 488.881 34.685V47.335C488.881 49.1317 489.376 50.3417 490.366 50.965C491.356 51.5517 492.731 51.845 494.491 51.845V53C493.648 52.9633 492.438 52.9267 490.861 52.89C489.321 52.8167 487.689 52.78 485.966 52.78C484.646 52.78 483.326 52.8167 482.006 52.89C480.686 52.9267 479.678 52.9633 478.981 53V51.845C480.411 51.845 481.419 51.57 482.006 51.02C482.629 50.47 482.941 49.425 482.941 47.885V30.615C482.941 28.965 482.666 27.755 482.116 26.985C481.566 26.1783 480.521 25.775 478.981 25.775V24.62C480.154 24.73 481.291 24.785 482.391 24.785C483.638 24.785 484.793 24.73 485.856 24.62C486.956 24.4733 487.964 24.2717 488.881 24.015V30.34C489.321 29.2767 489.908 28.25 490.641 27.26C491.374 26.27 492.254 25.4633 493.281 24.84C494.308 24.18 495.444 23.85 496.691 23.85ZM514.079 23.85C515.546 23.85 516.811 24.0883 517.874 24.565C518.974 25.005 519.763 25.4083 520.239 25.775C521.449 26.7283 522.201 26.105 522.494 23.905H523.704C523.631 24.9317 523.576 26.1783 523.539 27.645C523.503 29.075 523.484 30.9817 523.484 33.365H522.274C522.054 32.0083 521.669 30.6883 521.119 29.405C520.606 28.1217 519.836 27.0583 518.809 26.215C517.819 25.3717 516.518 24.95 514.904 24.95C513.694 24.95 512.686 25.2983 511.879 25.995C511.073 26.655 510.669 27.645 510.669 28.965C510.669 30.065 510.999 31.0183 511.659 31.825C512.319 32.6317 513.163 33.3833 514.189 34.08C515.253 34.7767 516.389 35.5283 517.599 36.335C518.956 37.2517 520.166 38.1683 521.229 39.085C522.329 39.965 523.191 40.955 523.814 42.055C524.474 43.155 524.804 44.4383 524.804 45.905C524.804 47.5917 524.346 49.0217 523.429 50.195C522.549 51.3683 521.376 52.2667 519.909 52.89C518.443 53.4767 516.829 53.77 515.069 53.77C514.189 53.77 513.364 53.6783 512.594 53.495C511.824 53.3483 511.109 53.1467 510.449 52.89C510.046 52.67 509.643 52.45 509.239 52.23C508.873 51.9733 508.506 51.735 508.139 51.515C507.773 51.2583 507.443 51.295 507.149 51.625C506.856 51.955 506.636 52.5417 506.489 53.385H505.279C505.353 52.2117 505.408 50.7817 505.444 49.095C505.481 47.4083 505.499 45.1717 505.499 42.385H506.709C506.966 44.4017 507.351 46.18 507.864 47.72C508.378 49.26 509.129 50.47 510.119 51.35C511.146 52.1933 512.539 52.615 514.299 52.615C514.996 52.615 515.693 52.4683 516.389 52.175C517.086 51.845 517.654 51.3317 518.094 50.635C518.571 49.9383 518.809 49.0033 518.809 47.83C518.809 46.2167 518.241 44.8967 517.104 43.87C516.004 42.8067 514.574 41.6883 512.814 40.515C511.568 39.635 510.376 38.7733 509.239 37.93C508.139 37.05 507.241 36.0783 506.544 35.015C505.848 33.915 505.499 32.6133 505.499 31.11C505.499 29.46 505.884 28.1033 506.654 27.04C507.461 25.9767 508.524 25.1883 509.844 24.675C511.164 24.125 512.576 23.85 514.079 23.85ZM555.235 13.4C557.178 13.4 558.663 13.62 559.69 14.06C560.717 14.5 561.615 14.9767 562.385 15.49C562.825 15.7467 563.173 15.9483 563.43 16.095C563.723 16.205 563.998 16.26 564.255 16.26C564.622 16.26 564.878 16.0583 565.025 15.655C565.208 15.2517 565.355 14.6467 565.465 13.84H566.73C566.693 14.5 566.638 15.2883 566.565 16.205C566.528 17.085 566.492 18.2583 566.455 19.725C566.455 21.1917 566.455 23.1167 566.455 25.5H565.19C565.08 23.7033 564.677 21.9617 563.98 20.275C563.32 18.5883 562.33 17.2133 561.01 16.15C559.727 15.0867 558.077 14.555 556.06 14.555C554.19 14.555 552.632 15.1233 551.385 16.26C550.175 17.36 549.57 18.8267 549.57 20.66C549.57 22.2733 549.973 23.63 550.78 24.73C551.587 25.7933 552.687 26.8017 554.08 27.755C555.51 28.6717 557.123 29.6983 558.92 30.835C560.753 32.0083 562.403 33.1817 563.87 34.355C565.337 35.4917 566.492 36.7567 567.335 38.15C568.178 39.5433 568.6 41.23 568.6 43.21C568.6 45.5933 568.032 47.5733 566.895 49.15C565.795 50.69 564.31 51.845 562.44 52.615C560.57 53.385 558.517 53.77 556.28 53.77C554.227 53.77 552.595 53.55 551.385 53.11C550.175 52.67 549.148 52.2117 548.305 51.735C547.498 51.2217 546.875 50.965 546.435 50.965C546.068 50.965 545.793 51.1667 545.61 51.57C545.463 51.9733 545.335 52.5783 545.225 53.385H543.96C544.033 52.5783 544.07 51.6433 544.07 50.58C544.107 49.48 544.125 48.05 544.125 46.29C544.162 44.53 544.18 42.3117 544.18 39.635H545.445C545.592 41.9083 545.995 44.035 546.655 46.015C547.352 47.995 548.397 49.59 549.79 50.8C551.22 51.9733 553.108 52.56 555.455 52.56C556.702 52.56 557.857 52.3217 558.92 51.845C559.983 51.3683 560.845 50.6167 561.505 49.59C562.165 48.5633 562.495 47.2433 562.495 45.63C562.495 44.1267 562.128 42.8067 561.395 41.67C560.698 40.5333 559.708 39.4883 558.425 38.535C557.178 37.545 555.712 36.5367 554.025 35.51C552.302 34.41 550.688 33.31 549.185 32.21C547.682 31.11 546.472 29.8267 545.555 28.36C544.675 26.8933 544.235 25.1517 544.235 23.135C544.235 20.8983 544.748 19.065 545.775 17.635C546.838 16.205 548.195 15.1417 549.845 14.445C551.532 13.7483 553.328 13.4 555.235 13.4ZM580.408 53.385C578.868 53.385 577.548 53.0917 576.448 52.505C575.348 51.9183 574.523 51.1117 573.973 50.085C573.423 49.0583 573.148 47.885 573.148 46.565C573.148 44.9517 573.515 43.65 574.248 42.66C574.981 41.6333 575.916 40.8083 577.053 40.185C578.226 39.5617 579.455 39.0483 580.738 38.645C582.058 38.205 583.286 37.8017 584.423 37.435C585.596 37.0317 586.55 36.5733 587.283 36.06C588.053 35.5467 588.438 34.8683 588.438 34.025V30.285C588.438 28.965 588.218 27.92 587.778 27.15C587.375 26.3433 586.806 25.775 586.073 25.445C585.376 25.115 584.533 24.95 583.543 24.95C582.7 24.95 581.801 25.0783 580.848 25.335C579.895 25.555 579.143 26.0133 578.593 26.71C579.4 26.93 580.06 27.37 580.573 28.03C581.123 28.6533 581.398 29.4417 581.398 30.395C581.398 31.4217 581.05 32.2283 580.353 32.815C579.693 33.4017 578.85 33.695 577.823 33.695C576.686 33.695 575.843 33.3467 575.293 32.65C574.743 31.9167 574.468 31.0733 574.468 30.12C574.468 29.13 574.706 28.3233 575.183 27.7C575.696 27.0767 576.356 26.49 577.163 25.94C578.043 25.3533 579.161 24.8583 580.518 24.455C581.911 24.0517 583.451 23.85 585.138 23.85C586.715 23.85 588.071 24.0333 589.208 24.4C590.381 24.73 591.353 25.28 592.123 26.05C593.04 26.8933 593.645 27.9567 593.938 29.24C594.231 30.4867 594.378 32.0083 594.378 33.805V48.985C594.378 49.9017 594.488 50.5617 594.708 50.965C594.965 51.3317 595.368 51.515 595.918 51.515C596.285 51.515 596.633 51.4233 596.963 51.24C597.33 51.0567 597.751 50.7817 598.228 50.415L598.778 51.35C598.008 51.9733 597.22 52.4683 596.413 52.835C595.643 53.2017 594.653 53.385 593.443 53.385C592.27 53.385 591.316 53.2017 590.583 52.835C589.85 52.4683 589.3 51.9367 588.933 51.24C588.603 50.5433 588.438 49.6817 588.438 48.655C587.485 50.195 586.348 51.3683 585.028 52.175C583.708 52.9817 582.168 53.385 580.408 53.385ZM583.048 50.745C584.075 50.745 585.028 50.4517 585.908 49.865C586.825 49.2783 587.668 48.3983 588.438 47.225V36.28C588.035 36.8667 587.448 37.38 586.678 37.82C585.908 38.2233 585.083 38.645 584.203 39.085C583.323 39.525 582.48 40.0383 581.673 40.625C580.903 41.175 580.261 41.89 579.748 42.77C579.235 43.65 578.978 44.7683 578.978 46.125C578.978 47.555 579.345 48.6917 580.078 49.535C580.811 50.3417 581.801 50.745 583.048 50.745ZM626.061 24.62V25.72C625.364 25.83 624.722 26.1967 624.136 26.82C623.549 27.4067 622.981 28.4333 622.431 29.9L613.851 52.89L612.531 54.21L601.806 28.855C601.109 27.425 600.431 26.5633 599.771 26.27C599.147 25.94 598.616 25.775 598.176 25.775V24.62C599.092 24.73 600.064 24.8217 601.091 24.895C602.117 24.9317 603.181 24.95 604.281 24.95C605.527 24.95 606.774 24.9133 608.021 24.84C609.304 24.7667 610.496 24.6933 611.596 24.62V25.775C610.716 25.775 609.927 25.8483 609.231 25.995C608.571 26.105 608.131 26.4533 607.911 27.04C607.727 27.59 607.911 28.5433 608.461 29.9L615.281 46.675L614.896 46.84L620.451 32.1C621.001 30.6333 621.221 29.46 621.111 28.58C621.001 27.6633 620.616 26.985 619.956 26.545C619.296 26.0683 618.324 25.7933 617.041 25.72V24.62C617.664 24.6567 618.232 24.6933 618.746 24.73C619.296 24.73 619.827 24.7483 620.341 24.785C620.854 24.785 621.367 24.785 621.881 24.785C622.687 24.785 623.439 24.7667 624.136 24.73C624.869 24.6933 625.511 24.6567 626.061 24.62ZM613.851 52.89L611.871 58.06C611.504 58.9767 611.119 59.7467 610.716 60.37C610.349 60.9933 609.946 61.5067 609.506 61.91C608.956 62.4233 608.277 62.79 607.471 63.01C606.664 63.23 605.857 63.34 605.051 63.34C604.281 63.34 603.547 63.1933 602.851 62.9C602.191 62.6433 601.641 62.24 601.201 61.69C600.761 61.14 600.541 60.4617 600.541 59.655C600.541 58.7017 600.852 57.9317 601.476 57.345C602.099 56.7583 602.924 56.465 603.951 56.465C604.867 56.465 605.637 56.7033 606.261 57.18C606.884 57.6933 607.196 58.4267 607.196 59.38C607.196 60.04 607.012 60.6083 606.646 61.085C606.316 61.5617 605.876 61.9283 605.326 62.185C605.436 62.2217 605.546 62.24 605.656 62.24C605.766 62.24 605.857 62.24 605.931 62.24C606.957 62.24 607.874 61.8917 608.681 61.195C609.487 60.535 610.166 59.4533 610.716 57.95L612.696 52.67L613.851 52.89Z" fill="#2C2F24"/>
</svg>
