<svg width="667" height="288" viewBox="0 0 667 288" fill="none" xmlns="http://www.w3.org/2000/svg">
<path d="M52.1043 19.2C53.5043 19.2667 55.3376 19.3333 57.6043 19.4C59.871 19.4667 62.1043 19.5 64.3043 19.5C67.4376 19.5 70.4376 19.4667 73.3043 19.4C76.171 19.3333 78.2043 19.3 79.4043 19.3C86.4043 19.3 91.671 20.7667 95.2043 23.7C98.7376 26.6333 100.504 30.4 100.504 35C100.504 37.3333 100.004 39.6333 99.0043 41.9C98.071 44.1 96.471 46.1333 94.2043 48C92.0043 49.8 89.0376 51.2667 85.3043 52.4V52.6C90.571 53.2667 94.671 54.5333 97.6043 56.4C100.604 58.2 102.704 60.3333 103.904 62.8C105.104 65.2667 105.704 67.8667 105.704 70.6C105.704 74.4 104.738 77.7667 102.804 80.7C100.938 83.5667 98.2043 85.8333 94.6043 87.5C91.0043 89.1667 86.7043 90 81.7043 90C80.2376 90 78.0376 89.9667 75.1043 89.9C72.171 89.7667 68.6376 89.7 64.5043 89.7C62.171 89.7 59.871 89.7333 57.6043 89.8C55.3376 89.8 53.5043 89.8667 52.1043 90V88C54.371 87.8667 56.071 87.6 57.2043 87.2C58.4043 86.8 59.2043 86 59.6043 84.8C60.0043 83.6 60.2043 81.8 60.2043 79.4V29.8C60.2043 27.3333 60.0043 25.5333 59.6043 24.4C59.2043 23.2 58.4043 22.4 57.2043 22C56.071 21.5333 54.371 21.2667 52.1043 21.2V19.2ZM76.9043 21.2C73.8376 21.2 71.8376 21.7667 70.9043 22.9C69.971 24.0333 69.5043 26.3333 69.5043 29.8V79.4C69.5043 81.7333 69.7043 83.5 70.1043 84.7C70.5043 85.9 71.2376 86.7 72.3043 87.1C73.371 87.5 74.9376 87.7 77.0043 87.7C83.5376 87.7 88.271 86.2 91.2043 83.2C94.2043 80.1333 95.7043 75.8 95.7043 70.2C95.7043 65.0667 94.3043 61.1 91.5043 58.3C88.771 55.5 84.2376 54.1 77.9043 54.1H67.6043C67.6043 54.1 67.6043 53.8333 67.6043 53.3C67.6043 52.7 67.6043 52.4 67.6043 52.4H76.2043C80.1376 52.4 83.171 51.6667 85.3043 50.2C87.4376 48.6667 88.9043 46.6667 89.7043 44.2C90.5043 41.6667 90.9043 38.9667 90.9043 36.1C90.9043 31.1667 89.8043 27.4667 87.6043 25C85.471 22.4667 81.9043 21.2 76.9043 21.2ZM137.409 37.1C143.276 37.1 147.842 38.9 151.109 42.5C154.442 46.0333 156.109 51.5667 156.109 59.1H120.809L120.709 57.2H146.509C146.642 53.9333 146.376 50.9333 145.709 48.2C145.042 45.4 143.976 43.1667 142.509 41.5C141.109 39.8333 139.276 39 137.009 39C133.942 39 131.209 40.5333 128.809 43.6C126.476 46.6667 125.076 51.5333 124.609 58.2L124.909 58.6C124.776 59.6 124.676 60.7 124.609 61.9C124.542 63.1 124.509 64.3 124.509 65.5C124.509 70.0333 125.242 73.9333 126.709 77.2C128.176 80.4667 130.076 82.9667 132.409 84.7C134.809 86.3667 137.276 87.2 139.809 87.2C141.809 87.2 143.709 86.9 145.509 86.3C147.309 85.6333 148.976 84.5667 150.509 83.1C152.042 81.6333 153.376 79.6667 154.509 77.2L156.509 78C155.776 80.2 154.576 82.3333 152.909 84.4C151.242 86.4667 149.142 88.1667 146.609 89.5C144.076 90.7667 141.142 91.4 137.809 91.4C133.009 91.4 128.876 90.3 125.409 88.1C122.009 85.9 119.376 82.8667 117.509 79C115.709 75.0667 114.809 70.5667 114.809 65.5C114.809 59.6333 115.742 54.6 117.609 50.4C119.476 46.1333 122.109 42.8667 125.509 40.6C128.909 38.2667 132.876 37.1 137.409 37.1ZM181.595 37.1C184.262 37.1 186.528 37.5333 188.395 38.4C190.262 39.2667 191.628 40.0667 192.495 40.8C194.695 42.6 196.028 41.4 196.495 37.2H198.795C198.662 39.0667 198.562 41.3 198.495 43.9C198.428 46.4333 198.395 49.8667 198.395 54.2H196.095C195.695 51.7333 194.995 49.3333 193.995 47C193.062 44.6667 191.662 42.7667 189.795 41.3C187.928 39.7667 185.495 39 182.495 39C180.162 39 178.195 39.6667 176.595 41C175.062 42.2667 174.295 44.1667 174.295 46.7C174.295 48.7 174.895 50.4333 176.095 51.9C177.295 53.3 178.862 54.6333 180.795 55.9C182.728 57.1 184.828 58.4333 187.095 59.9C189.628 61.5 191.928 63.1333 193.995 64.8C196.062 66.4667 197.695 68.3 198.895 70.3C200.162 72.3 200.795 74.6667 200.795 77.4C200.795 80.4667 199.995 83.0333 198.395 85.1C196.795 87.1667 194.695 88.7333 192.095 89.8C189.562 90.8667 186.762 91.4 183.695 91.4C182.228 91.4 180.828 91.2667 179.495 91C178.228 90.8 176.995 90.4667 175.795 90C175.128 89.6667 174.428 89.2667 173.695 88.8C173.028 88.3333 172.362 87.8333 171.695 87.3C171.028 86.7667 170.428 86.8 169.895 87.4C169.362 87.9333 168.962 89.0333 168.695 90.7H166.395C166.528 88.5667 166.628 85.9667 166.695 82.9C166.762 79.8333 166.795 75.7667 166.795 70.7H169.095C169.562 74.4333 170.228 77.7 171.095 80.5C171.962 83.3 173.328 85.5 175.195 87.1C177.062 88.6333 179.662 89.4 182.995 89.4C184.328 89.4 185.662 89.1 186.995 88.5C188.395 87.9 189.562 86.9 190.495 85.5C191.428 84.1 191.895 82.2333 191.895 79.9C191.895 76.9667 190.828 74.5667 188.695 72.7C186.562 70.8333 183.862 68.8667 180.595 66.8C178.195 65.2667 175.928 63.7333 173.795 62.2C171.728 60.6667 170.028 58.9333 168.695 57C167.428 55.0667 166.795 52.7333 166.795 50C166.795 47 167.462 44.5667 168.795 42.7C170.195 40.7667 172.028 39.3667 174.295 38.5C176.562 37.5667 178.995 37.1 181.595 37.1ZM224.521 21.9V38.6H239.321V40.6H224.521V79.3C224.521 82.4333 225.088 84.6333 226.221 85.9C227.355 87.1667 228.921 87.8 230.921 87.8C232.921 87.8 234.655 87 236.121 85.4C237.588 83.7333 238.855 80.9667 239.921 77.1L241.921 77.6C241.255 81.4667 239.921 84.7333 237.921 87.4C235.988 90.0667 232.988 91.4 228.921 91.4C226.655 91.4 224.788 91.1 223.321 90.5C221.855 89.9667 220.555 89.1667 219.421 88.1C217.955 86.5667 216.921 84.7333 216.321 82.6C215.788 80.4667 215.521 77.6333 215.521 74.1V40.6H205.921V38.6H215.521V23.3C217.188 23.2333 218.788 23.1 220.321 22.9C221.855 22.7 223.255 22.3667 224.521 21.9ZM291.715 11.8C293.582 11.8 295.215 12.0667 296.615 12.6C298.082 13.0667 299.349 13.7 300.415 14.5C301.415 15.3 302.182 16.2333 302.715 17.3C303.249 18.3667 303.515 19.5 303.515 20.7C303.515 22.2333 303.015 23.5 302.015 24.5C301.015 25.5 299.749 26 298.215 26C296.749 26 295.449 25.5333 294.315 24.6C293.249 23.6 292.715 22.2667 292.715 20.6C292.715 19.2 293.082 18.0667 293.815 17.2C294.615 16.3333 295.649 15.7667 296.915 15.5C296.715 14.9 296.182 14.4 295.315 14C294.515 13.5333 293.415 13.3 292.015 13.3C290.482 13.3 289.149 13.6333 288.015 14.3C286.949 14.9667 286.115 15.8667 285.515 17C284.715 18.4 284.215 20.5 284.015 23.3C283.815 26.0333 283.715 30.2667 283.715 36V38.6H294.415V40.6H283.715V79.7C283.715 82.9667 284.649 85.1667 286.515 86.3C288.449 87.3667 291.049 87.9 294.315 87.9V90C292.782 89.9333 290.615 89.8667 287.815 89.8C285.015 89.6667 282.049 89.6 278.915 89.6C276.649 89.6 274.382 89.6667 272.115 89.8C269.915 89.8667 268.249 89.9333 267.115 90V87.9C269.849 87.9 271.782 87.4 272.915 86.4C274.115 85.4 274.715 83.5 274.715 80.7V40.6H266.715V38.6H274.715C274.715 34.6667 274.882 31.3667 275.215 28.7C275.549 26.0333 276.082 23.7667 276.815 21.9C277.549 19.9667 278.549 18.2667 279.815 16.8C281.149 15.2667 282.849 14.0667 284.915 13.2C286.982 12.2667 289.249 11.8 291.715 11.8ZM323.058 37.1C327.325 37.1 331.158 38.0333 334.558 39.9C337.958 41.7667 340.658 44.7 342.658 48.7C344.725 52.7 345.758 57.9 345.758 64.3C345.758 70.7 344.725 75.9 342.658 79.9C340.658 83.8333 337.958 86.7333 334.558 88.6C331.158 90.4667 327.325 91.4 323.058 91.4C318.858 91.4 315.025 90.4667 311.558 88.6C308.158 86.7333 305.425 83.8333 303.358 79.9C301.358 75.9 300.358 70.7 300.358 64.3C300.358 57.9 301.358 52.7 303.358 48.7C305.425 44.7 308.158 41.7667 311.558 39.9C315.025 38.0333 318.858 37.1 323.058 37.1ZM323.058 39.1C319.258 39.1 316.125 41.0667 313.658 45C311.258 48.9333 310.058 55.3667 310.058 64.3C310.058 73.2333 311.258 79.6667 313.658 83.6C316.125 87.4667 319.258 89.4 323.058 89.4C326.858 89.4 329.958 87.4667 332.358 83.6C334.825 79.6667 336.058 73.2333 336.058 64.3C336.058 55.3667 334.825 48.9333 332.358 45C329.958 41.0667 326.858 39.1 323.058 39.1ZM377.843 37.1C382.11 37.1 385.943 38.0333 389.343 39.9C392.743 41.7667 395.443 44.7 397.443 48.7C399.51 52.7 400.543 57.9 400.543 64.3C400.543 70.7 399.51 75.9 397.443 79.9C395.443 83.8333 392.743 86.7333 389.343 88.6C385.943 90.4667 382.11 91.4 377.843 91.4C373.643 91.4 369.81 90.4667 366.343 88.6C362.943 86.7333 360.21 83.8333 358.143 79.9C356.143 75.9 355.143 70.7 355.143 64.3C355.143 57.9 356.143 52.7 358.143 48.7C360.21 44.7 362.943 41.7667 366.343 39.9C369.81 38.0333 373.643 37.1 377.843 37.1ZM377.843 39.1C374.043 39.1 370.91 41.0667 368.443 45C366.043 48.9333 364.843 55.3667 364.843 64.3C364.843 73.2333 366.043 79.6667 368.443 83.6C370.91 87.4667 374.043 89.4 377.843 89.4C381.643 89.4 384.743 87.4667 387.143 83.6C389.61 79.6667 390.843 73.2333 390.843 64.3C390.843 55.3667 389.61 48.9333 387.143 45C384.743 41.0667 381.643 39.1 377.843 39.1ZM453.629 11.6V79.1C453.629 82.1 454.162 84.3333 455.229 85.8C456.362 87.2 458.362 87.9 461.229 87.9V90C459.162 89.8 457.095 89.7 455.029 89.7C453.095 89.7 451.229 89.8 449.429 90C447.695 90.2 446.095 90.5667 444.629 91.1V23.6C444.629 20.6 444.095 18.4 443.029 17C441.962 15.5333 439.962 14.8 437.029 14.8V12.7C439.162 12.9 441.229 13 443.229 13C445.162 13 446.995 12.9 448.729 12.7C450.529 12.4333 452.162 12.0667 453.629 11.6ZM432.629 37.1C435.562 37.1 438.295 37.8 440.829 39.2C443.429 40.6 445.162 43 446.029 46.4L444.729 47.4C443.795 44.6 442.329 42.5667 440.329 41.3C438.395 40.0333 436.095 39.4 433.429 39.4C429.495 39.4 426.195 41.4333 423.529 45.5C420.929 49.5667 419.662 55.8333 419.729 64.3C419.729 69.7 420.229 74.2 421.229 77.8C422.295 81.3333 423.829 84 425.829 85.8C427.895 87.5333 430.395 88.4 433.329 88.4C436.129 88.4 438.662 87.2 440.929 84.8C443.195 82.4 444.562 78.8667 445.029 74.2L446.229 75.6C445.695 80.6667 444.062 84.5667 441.329 87.3C438.662 90.0333 435.029 91.4 430.429 91.4C426.295 91.4 422.662 90.4 419.529 88.4C416.462 86.4 414.095 83.4 412.429 79.4C410.829 75.4 410.029 70.3667 410.029 64.3C410.029 58.2333 411.062 53.2 413.129 49.2C415.262 45.1333 418.029 42.1 421.429 40.1C424.895 38.1 428.629 37.1 432.629 37.1ZM515.836 11.8C517.703 11.8 519.336 12.0667 520.736 12.6C522.203 13.0667 523.47 13.7 524.536 14.5C525.536 15.3 526.303 16.2333 526.836 17.3C527.37 18.3667 527.636 19.5 527.636 20.7C527.636 22.2333 527.136 23.5 526.136 24.5C525.136 25.5 523.87 26 522.336 26C520.87 26 519.57 25.5333 518.436 24.6C517.37 23.6 516.836 22.2667 516.836 20.6C516.836 19.2 517.203 18.0667 517.936 17.2C518.736 16.3333 519.77 15.7667 521.036 15.5C520.836 14.9 520.303 14.4 519.436 14C518.636 13.5333 517.536 13.3 516.136 13.3C514.603 13.3 513.27 13.6333 512.136 14.3C511.07 14.9667 510.236 15.8667 509.636 17C508.836 18.4 508.336 20.5 508.136 23.3C507.936 26.0333 507.836 30.2667 507.836 36V38.6H518.536V40.6H507.836V79.7C507.836 82.9667 508.77 85.1667 510.636 86.3C512.57 87.3667 515.17 87.9 518.436 87.9V90C516.903 89.9333 514.736 89.8667 511.936 89.8C509.136 89.6667 506.17 89.6 503.036 89.6C500.77 89.6 498.503 89.6667 496.236 89.8C494.036 89.8667 492.37 89.9333 491.236 90V87.9C493.97 87.9 495.903 87.4 497.036 86.4C498.236 85.4 498.836 83.5 498.836 80.7V40.6H490.836V38.6H498.836C498.836 34.6667 499.003 31.3667 499.336 28.7C499.67 26.0333 500.203 23.7667 500.936 21.9C501.67 19.9667 502.67 18.2667 503.936 16.8C505.27 15.2667 506.97 14.0667 509.036 13.2C511.103 12.2667 513.37 11.8 515.836 11.8ZM547.179 37.1C551.446 37.1 555.279 38.0333 558.679 39.9C562.079 41.7667 564.779 44.7 566.779 48.7C568.846 52.7 569.879 57.9 569.879 64.3C569.879 70.7 568.846 75.9 566.779 79.9C564.779 83.8333 562.079 86.7333 558.679 88.6C555.279 90.4667 551.446 91.4 547.179 91.4C542.979 91.4 539.146 90.4667 535.679 88.6C532.279 86.7333 529.546 83.8333 527.479 79.9C525.479 75.9 524.479 70.7 524.479 64.3C524.479 57.9 525.479 52.7 527.479 48.7C529.546 44.7 532.279 41.7667 535.679 39.9C539.146 38.0333 542.979 37.1 547.179 37.1ZM547.179 39.1C543.379 39.1 540.246 41.0667 537.779 45C535.379 48.9333 534.179 55.3667 534.179 64.3C534.179 73.2333 535.379 79.6667 537.779 83.6C540.246 87.4667 543.379 89.4 547.179 89.4C550.979 89.4 554.079 87.4667 556.479 83.6C558.946 79.6667 560.179 73.2333 560.179 64.3C560.179 55.3667 558.946 48.9333 556.479 45C554.079 41.0667 550.979 39.1 547.179 39.1ZM608.564 37.1C610.364 37.1 611.931 37.4667 613.264 38.2C614.664 38.9333 615.731 39.9 616.464 41.1C617.264 42.2333 617.664 43.5333 617.664 45C617.664 46.6667 617.131 48.1333 616.064 49.4C615.064 50.6667 613.698 51.3 611.964 51.3C610.564 51.3 609.331 50.8667 608.264 50C607.198 49.0667 606.664 47.7667 606.664 46.1C606.664 44.8333 606.998 43.7667 607.664 42.9C608.398 41.9667 609.198 41.2333 610.064 40.7C609.598 40.0333 608.898 39.7 607.964 39.7C605.898 39.7 603.998 40.3333 602.264 41.6C600.531 42.8 599.064 44.3667 597.864 46.3C596.664 48.2333 595.731 50.3 595.064 52.5C594.398 54.6333 594.064 56.6333 594.064 58.5V79.7C594.064 82.9667 594.998 85.1667 596.864 86.3C598.798 87.3667 601.398 87.9 604.664 87.9V90C603.131 89.9333 600.964 89.8667 598.164 89.8C595.364 89.6667 592.398 89.6 589.264 89.6C586.998 89.6 584.731 89.6667 582.464 89.8C580.264 89.8667 578.598 89.9333 577.464 90V87.9C580.198 87.9 582.131 87.4 583.264 86.4C584.464 85.4 585.064 83.5 585.064 80.7V49.4C585.064 46.4 584.531 44.2 583.464 42.8C582.398 41.3333 580.398 40.6 577.464 40.6V38.5C579.598 38.7 581.664 38.8 583.664 38.8C585.598 38.8 587.431 38.7 589.164 38.5C590.964 38.2333 592.598 37.8667 594.064 37.4V49.9C594.798 47.9667 595.831 46.0333 597.164 44.1C598.564 42.1 600.231 40.4333 602.164 39.1C604.098 37.7667 606.231 37.1 608.564 37.1ZM160.781 134.5V136.5C159.514 136.633 158.348 137.2 157.281 138.2C156.214 139.2 155.214 140.967 154.281 143.5L137.881 186.5H136.181L117.781 142.2C116.514 139.6 115.248 138.033 113.981 137.5C112.781 136.9 111.781 136.6 110.981 136.6V134.5C112.448 134.7 113.981 134.867 115.581 135C117.181 135.067 118.914 135.1 120.781 135.1C122.848 135.1 125.014 135.033 127.281 134.9C129.614 134.767 131.781 134.633 133.781 134.5V136.6C132.114 136.6 130.614 136.733 129.281 137C128.014 137.2 127.214 137.9 126.881 139.1C126.548 140.233 126.948 142.2 128.081 145L140.381 175.5L139.781 175.7L151.181 145.9C152.048 143.7 152.381 141.967 152.181 140.7C152.048 139.367 151.381 138.367 150.181 137.7C148.981 137.033 147.181 136.633 144.781 136.5V134.5C145.981 134.567 147.014 134.633 147.881 134.7C148.748 134.7 149.581 134.733 150.381 134.8C151.248 134.8 152.181 134.8 153.181 134.8C154.714 134.8 156.081 134.767 157.281 134.7C158.548 134.633 159.714 134.567 160.781 134.5ZM137.881 186.5L134.481 195.2C133.814 196.867 133.114 198.267 132.381 199.4C131.714 200.533 130.981 201.467 130.181 202.2C129.114 203.2 127.848 203.867 126.381 204.2C124.914 204.6 123.581 204.8 122.381 204.8C121.114 204.8 119.948 204.567 118.881 204.1C117.881 203.633 117.081 202.933 116.481 202C115.881 201.133 115.581 200.067 115.581 198.8C115.581 197.2 116.048 195.9 116.981 194.9C117.914 193.967 119.214 193.5 120.881 193.5C122.281 193.5 123.481 193.9 124.481 194.7C125.481 195.5 125.981 196.667 125.981 198.2C125.981 199.333 125.714 200.267 125.181 201C124.648 201.733 124.014 202.3 123.281 202.7C123.414 202.767 123.514 202.8 123.581 202.8C123.714 202.8 123.814 202.8 123.881 202.8C125.681 202.8 127.281 202.167 128.681 200.9C130.081 199.7 131.314 197.733 132.381 195L135.981 185.7L137.881 186.5ZM188.293 133.1C192.559 133.1 196.393 134.033 199.793 135.9C203.193 137.767 205.893 140.7 207.893 144.7C209.959 148.7 210.993 153.9 210.993 160.3C210.993 166.7 209.959 171.9 207.893 175.9C205.893 179.833 203.193 182.733 199.793 184.6C196.393 186.467 192.559 187.4 188.293 187.4C184.093 187.4 180.259 186.467 176.793 184.6C173.393 182.733 170.659 179.833 168.593 175.9C166.593 171.9 165.593 166.7 165.593 160.3C165.593 153.9 166.593 148.7 168.593 144.7C170.659 140.7 173.393 137.767 176.793 135.9C180.259 134.033 184.093 133.1 188.293 133.1ZM188.293 135.1C184.493 135.1 181.359 137.067 178.893 141C176.493 144.933 175.293 151.367 175.293 160.3C175.293 169.233 176.493 175.667 178.893 179.6C181.359 183.467 184.493 185.4 188.293 185.4C192.093 185.4 195.193 183.467 197.593 179.6C200.059 175.667 201.293 169.233 201.293 160.3C201.293 151.367 200.059 144.933 197.593 141C195.193 137.067 192.093 135.1 188.293 135.1ZM263.978 133.4V175.2C263.978 178.2 264.511 180.433 265.578 181.9C266.711 183.3 268.711 184 271.578 184V186.1C269.511 185.9 267.444 185.8 265.378 185.8C263.444 185.8 261.578 185.9 259.778 186.1C258.044 186.3 256.444 186.667 254.978 187.2V175.4C253.311 179.733 250.944 182.833 247.878 184.7C244.878 186.5 241.778 187.4 238.578 187.4C236.244 187.4 234.211 187.067 232.478 186.4C230.744 185.733 229.311 184.8 228.178 183.6C226.911 182.267 226.044 180.533 225.578 178.4C225.111 176.267 224.878 173.633 224.878 170.5V145.4C224.878 142.4 224.344 140.2 223.278 138.8C222.211 137.333 220.211 136.6 217.278 136.6V134.5C219.411 134.7 221.478 134.8 223.478 134.8C225.411 134.8 227.244 134.7 228.978 134.5C230.778 134.233 232.411 133.867 233.878 133.4V172.7C233.878 174.767 234.011 176.667 234.278 178.4C234.544 180.133 235.211 181.533 236.278 182.6C237.344 183.667 239.078 184.2 241.478 184.2C244.078 184.2 246.378 183.4 248.378 181.8C250.444 180.2 252.044 178.033 253.178 175.3C254.378 172.567 254.978 169.5 254.978 166.1V145.4C254.978 142.4 254.444 140.2 253.378 138.8C252.311 137.333 250.311 136.6 247.378 136.6V134.5C249.511 134.7 251.578 134.8 253.578 134.8C255.511 134.8 257.344 134.7 259.078 134.5C260.878 134.233 262.511 133.867 263.978 133.4ZM307.783 133.1C309.583 133.1 311.15 133.467 312.483 134.2C313.883 134.933 314.95 135.9 315.683 137.1C316.483 138.233 316.883 139.533 316.883 141C316.883 142.667 316.35 144.133 315.283 145.4C314.283 146.667 312.917 147.3 311.183 147.3C309.783 147.3 308.55 146.867 307.483 146C306.417 145.067 305.883 143.767 305.883 142.1C305.883 140.833 306.217 139.767 306.883 138.9C307.617 137.967 308.417 137.233 309.283 136.7C308.817 136.033 308.117 135.7 307.183 135.7C305.117 135.7 303.217 136.333 301.483 137.6C299.75 138.8 298.283 140.367 297.083 142.3C295.883 144.233 294.95 146.3 294.283 148.5C293.617 150.633 293.283 152.633 293.283 154.5V175.7C293.283 178.967 294.217 181.167 296.083 182.3C298.017 183.367 300.617 183.9 303.883 183.9V186C302.35 185.933 300.183 185.867 297.383 185.8C294.583 185.667 291.617 185.6 288.483 185.6C286.217 185.6 283.95 185.667 281.683 185.8C279.483 185.867 277.817 185.933 276.683 186V183.9C279.417 183.9 281.35 183.4 282.483 182.4C283.683 181.4 284.283 179.5 284.283 176.7V145.4C284.283 142.4 283.75 140.2 282.683 138.8C281.617 137.333 279.617 136.6 276.683 136.6V134.5C278.817 134.7 280.883 134.8 282.883 134.8C284.817 134.8 286.65 134.7 288.383 134.5C290.183 134.233 291.817 133.867 293.283 133.4V145.9C294.017 143.967 295.05 142.033 296.383 140.1C297.783 138.1 299.45 136.433 301.383 135.1C303.317 133.767 305.45 133.1 307.783 133.1ZM358.799 117.9V134.6H373.599V136.6H358.799V175.3C358.799 178.433 359.365 180.633 360.499 181.9C361.632 183.167 363.199 183.8 365.199 183.8C367.199 183.8 368.932 183 370.399 181.4C371.865 179.733 373.132 176.967 374.199 173.1L376.199 173.6C375.532 177.467 374.199 180.733 372.199 183.4C370.265 186.067 367.265 187.4 363.199 187.4C360.932 187.4 359.065 187.1 357.599 186.5C356.132 185.967 354.832 185.167 353.699 184.1C352.232 182.567 351.199 180.733 350.599 178.6C350.065 176.467 349.799 173.633 349.799 170.1V136.6H340.199V134.6H349.799V119.3C351.465 119.233 353.065 119.1 354.599 118.9C356.132 118.7 357.532 118.367 358.799 117.9ZM392.25 186.7C389.517 186.7 387.15 186.2 385.15 185.2C383.15 184.133 381.617 182.667 380.55 180.8C379.55 178.933 379.05 176.767 379.05 174.3C379.05 171.367 379.717 168.967 381.05 167.1C382.45 165.233 384.217 163.733 386.35 162.6C388.484 161.467 390.717 160.533 393.05 159.8C395.45 159 397.717 158.267 399.85 157.6C401.984 156.867 403.717 156.033 405.05 155.1C406.45 154.167 407.15 152.933 407.15 151.4V145.2C407.15 142.4 406.717 140.267 405.85 138.8C405.05 137.333 403.95 136.367 402.55 135.9C401.15 135.367 399.584 135.1 397.85 135.1C396.184 135.1 394.384 135.333 392.45 135.8C390.584 136.267 389.084 137.233 387.95 138.7C389.217 138.967 390.317 139.633 391.25 140.7C392.184 141.767 392.65 143.133 392.65 144.8C392.65 146.467 392.117 147.8 391.05 148.8C389.984 149.733 388.617 150.2 386.95 150.2C385.017 150.2 383.584 149.6 382.65 148.4C381.784 147.133 381.35 145.733 381.35 144.2C381.35 142.467 381.784 141.067 382.65 140C383.517 138.933 384.617 137.933 385.95 137C387.484 135.933 389.45 135.033 391.85 134.3C394.317 133.5 397.084 133.1 400.15 133.1C402.884 133.1 405.217 133.433 407.15 134.1C409.084 134.7 410.684 135.6 411.95 136.8C413.684 138.4 414.817 140.367 415.35 142.7C415.884 144.967 416.15 147.7 416.15 150.9V178.7C416.15 180.367 416.384 181.567 416.85 182.3C417.384 183.033 418.184 183.4 419.25 183.4C419.984 183.4 420.684 183.233 421.35 182.9C422.017 182.567 422.817 182.033 423.75 181.3L424.85 183C423.45 184.067 422.117 184.967 420.85 185.7C419.584 186.367 417.884 186.7 415.75 186.7C413.817 186.7 412.217 186.367 410.95 185.7C409.684 185.033 408.717 184.067 408.05 182.8C407.45 181.467 407.15 179.8 407.15 177.8C405.35 180.8 403.184 183.033 400.65 184.5C398.184 185.967 395.384 186.7 392.25 186.7ZM395.85 182.7C398.05 182.7 400.084 182.067 401.95 180.8C403.884 179.533 405.617 177.633 407.15 175.1V155.5C406.35 156.633 405.184 157.6 403.65 158.4C402.117 159.133 400.45 159.9 398.65 160.7C396.85 161.433 395.117 162.333 393.45 163.4C391.85 164.4 390.517 165.733 389.45 167.4C388.384 169.067 387.85 171.233 387.85 173.9C387.85 176.567 388.55 178.7 389.95 180.3C391.417 181.9 393.384 182.7 395.85 182.7ZM445.755 133.1C448.422 133.1 450.688 133.533 452.555 134.4C454.422 135.267 455.788 136.067 456.655 136.8C458.855 138.6 460.188 137.4 460.655 133.2H462.955C462.822 135.067 462.722 137.3 462.655 139.9C462.588 142.433 462.555 145.867 462.555 150.2H460.255C459.855 147.733 459.155 145.333 458.155 143C457.222 140.667 455.822 138.767 453.955 137.3C452.088 135.767 449.655 135 446.655 135C444.322 135 442.355 135.667 440.755 137C439.222 138.267 438.455 140.167 438.455 142.7C438.455 144.7 439.055 146.433 440.255 147.9C441.455 149.3 443.022 150.633 444.955 151.9C446.888 153.1 448.988 154.433 451.255 155.9C453.788 157.5 456.088 159.133 458.155 160.8C460.222 162.467 461.855 164.3 463.055 166.3C464.322 168.3 464.955 170.667 464.955 173.4C464.955 176.467 464.155 179.033 462.555 181.1C460.955 183.167 458.855 184.733 456.255 185.8C453.722 186.867 450.922 187.4 447.855 187.4C446.388 187.4 444.988 187.267 443.655 187C442.388 186.8 441.155 186.467 439.955 186C439.288 185.667 438.588 185.267 437.855 184.8C437.188 184.333 436.522 183.833 435.855 183.3C435.188 182.767 434.588 182.8 434.055 183.4C433.522 183.933 433.122 185.033 432.855 186.7H430.555C430.688 184.567 430.788 181.967 430.855 178.9C430.922 175.833 430.955 171.767 430.955 166.7H433.255C433.722 170.433 434.388 173.7 435.255 176.5C436.122 179.3 437.488 181.5 439.355 183.1C441.222 184.633 443.822 185.4 447.155 185.4C448.488 185.4 449.822 185.1 451.155 184.5C452.555 183.9 453.722 182.9 454.655 181.5C455.588 180.1 456.055 178.233 456.055 175.9C456.055 172.967 454.988 170.567 452.855 168.7C450.722 166.833 448.022 164.867 444.755 162.8C442.355 161.267 440.088 159.733 437.955 158.2C435.888 156.667 434.188 154.933 432.855 153C431.588 151.067 430.955 148.733 430.955 146C430.955 143 431.622 140.567 432.955 138.7C434.355 136.767 436.188 135.367 438.455 134.5C440.722 133.567 443.155 133.1 445.755 133.1ZM488.682 117.9V134.6H503.482V136.6H488.682V175.3C488.682 178.433 489.248 180.633 490.382 181.9C491.515 183.167 493.082 183.8 495.082 183.8C497.082 183.8 498.815 183 500.282 181.4C501.748 179.733 503.015 176.967 504.082 173.1L506.082 173.6C505.415 177.467 504.082 180.733 502.082 183.4C500.148 186.067 497.148 187.4 493.082 187.4C490.815 187.4 488.948 187.1 487.482 186.5C486.015 185.967 484.715 185.167 483.582 184.1C482.115 182.567 481.082 180.733 480.482 178.6C479.948 176.467 479.682 173.633 479.682 170.1V136.6H470.082V134.6H479.682V119.3C481.348 119.233 482.948 119.1 484.482 118.9C486.015 118.7 487.415 118.367 488.682 117.9ZM532.233 133.1C538.1 133.1 542.667 134.9 545.933 138.5C549.267 142.033 550.933 147.567 550.933 155.1H515.633L515.533 153.2H541.333C541.467 149.933 541.2 146.933 540.533 144.2C539.867 141.4 538.8 139.167 537.333 137.5C535.933 135.833 534.1 135 531.833 135C528.767 135 526.033 136.533 523.633 139.6C521.3 142.667 519.9 147.533 519.433 154.2L519.733 154.6C519.6 155.6 519.5 156.7 519.433 157.9C519.367 159.1 519.333 160.3 519.333 161.5C519.333 166.033 520.067 169.933 521.533 173.2C523 176.467 524.9 178.967 527.233 180.7C529.633 182.367 532.1 183.2 534.633 183.2C536.633 183.2 538.533 182.9 540.333 182.3C542.133 181.633 543.8 180.567 545.333 179.1C546.867 177.633 548.2 175.667 549.333 173.2L551.333 174C550.6 176.2 549.4 178.333 547.733 180.4C546.067 182.467 543.967 184.167 541.433 185.5C538.9 186.767 535.967 187.4 532.633 187.4C527.833 187.4 523.7 186.3 520.233 184.1C516.833 181.9 514.2 178.867 512.333 175C510.533 171.067 509.633 166.567 509.633 161.5C509.633 155.633 510.567 150.6 512.433 146.4C514.3 142.133 516.933 138.867 520.333 136.6C523.733 134.267 527.7 133.1 532.233 133.1Z" fill="#2C2F24"/>
<path d="M76.4937 247V233H80.7937C83.2603 233 85.0737 233.627 86.2337 234.88C87.407 236.133 87.9937 237.853 87.9937 240.04C87.9937 242.187 87.407 243.887 86.2337 245.14C85.0737 246.38 83.2603 247 80.7937 247H76.4937ZM78.1737 245.6H80.7537C82.1137 245.6 83.1937 245.38 83.9937 244.94C84.807 244.487 85.387 243.847 85.7337 243.02C86.0803 242.18 86.2537 241.187 86.2537 240.04C86.2537 238.867 86.0803 237.86 85.7337 237.02C85.387 236.18 84.807 235.533 83.9937 235.08C83.1937 234.627 82.1137 234.4 80.7537 234.4H78.1737V245.6ZM91.3395 234.88C91.0061 234.88 90.7261 234.773 90.4995 234.56C90.2861 234.333 90.1795 234.053 90.1795 233.72C90.1795 233.4 90.2861 233.133 90.4995 232.92C90.7261 232.707 91.0061 232.6 91.3395 232.6C91.6595 232.6 91.9328 232.707 92.1595 232.92C92.3861 233.133 92.4995 233.4 92.4995 233.72C92.4995 234.053 92.3861 234.333 92.1595 234.56C91.9328 234.773 91.6595 234.88 91.3395 234.88ZM90.4995 247V237.08H92.1795V247H90.4995ZM98.9046 247.24C97.7179 247.24 96.7313 246.94 95.9446 246.34C95.1579 245.74 94.6979 244.927 94.5646 243.9H96.2846C96.3913 244.42 96.6646 244.873 97.1046 245.26C97.5579 245.633 98.1646 245.82 98.9246 245.82C99.6313 245.82 100.151 245.673 100.485 245.38C100.818 245.073 100.985 244.713 100.985 244.3C100.985 243.7 100.765 243.3 100.325 243.1C99.8979 242.9 99.2913 242.72 98.5046 242.56C97.9713 242.453 97.4379 242.3 96.9046 242.1C96.3713 241.9 95.9246 241.62 95.5646 241.26C95.2046 240.887 95.0246 240.4 95.0246 239.8C95.0246 238.933 95.3446 238.227 95.9846 237.68C96.6379 237.12 97.5179 236.84 98.6246 236.84C99.6779 236.84 100.538 237.107 101.205 237.64C101.885 238.16 102.278 238.907 102.385 239.88H100.725C100.658 239.373 100.438 238.98 100.065 238.7C99.7046 238.407 99.2179 238.26 98.6046 238.26C98.0046 238.26 97.5379 238.387 97.2046 238.64C96.8846 238.893 96.7246 239.227 96.7246 239.64C96.7246 240.04 96.9313 240.353 97.3446 240.58C97.7713 240.807 98.3446 241 99.0646 241.16C99.6779 241.293 100.258 241.46 100.805 241.66C101.365 241.847 101.818 242.133 102.165 242.52C102.525 242.893 102.705 243.44 102.705 244.16C102.718 245.053 102.378 245.793 101.685 246.38C101.005 246.953 100.078 247.24 98.9046 247.24ZM109.665 247.24C108.718 247.24 107.865 247.027 107.105 246.6C106.358 246.16 105.765 245.553 105.325 244.78C104.898 243.993 104.685 243.08 104.685 242.04C104.685 241 104.898 240.093 105.325 239.32C105.765 238.533 106.358 237.927 107.105 237.5C107.865 237.06 108.718 236.84 109.665 236.84C110.838 236.84 111.825 237.147 112.625 237.76C113.438 238.373 113.951 239.193 114.165 240.22H112.445C112.311 239.607 111.985 239.133 111.465 238.8C110.945 238.453 110.338 238.28 109.645 238.28C109.085 238.28 108.558 238.42 108.065 238.7C107.571 238.98 107.171 239.4 106.865 239.96C106.558 240.52 106.405 241.213 106.405 242.04C106.405 242.867 106.558 243.56 106.865 244.12C107.171 244.68 107.571 245.107 108.065 245.4C108.558 245.68 109.085 245.82 109.645 245.82C110.338 245.82 110.945 245.653 111.465 245.32C111.985 244.973 112.311 244.487 112.445 243.86H114.165C113.965 244.86 113.458 245.673 112.645 246.3C111.831 246.927 110.838 247.24 109.665 247.24ZM121.031 247.24C120.098 247.24 119.258 247.027 118.511 246.6C117.764 246.173 117.171 245.573 116.731 244.8C116.304 244.013 116.091 243.093 116.091 242.04C116.091 240.987 116.311 240.073 116.751 239.3C117.191 238.513 117.784 237.907 118.531 237.48C119.291 237.053 120.138 236.84 121.071 236.84C122.004 236.84 122.844 237.053 123.591 237.48C124.338 237.907 124.924 238.513 125.351 239.3C125.791 240.073 126.011 240.987 126.011 242.04C126.011 243.093 125.791 244.013 125.351 244.8C124.911 245.573 124.311 246.173 123.551 246.6C122.804 247.027 121.964 247.24 121.031 247.24ZM121.031 245.8C121.604 245.8 122.138 245.66 122.631 245.38C123.124 245.1 123.524 244.68 123.831 244.12C124.138 243.56 124.291 242.867 124.291 242.04C124.291 241.213 124.138 240.52 123.831 239.96C123.538 239.4 123.144 238.98 122.651 238.7C122.158 238.42 121.631 238.28 121.071 238.28C120.498 238.28 119.964 238.42 119.471 238.7C118.978 238.98 118.578 239.4 118.271 239.96C117.964 240.52 117.811 241.213 117.811 242.04C117.811 242.867 117.964 243.56 118.271 244.12C118.578 244.68 118.971 245.1 119.451 245.38C119.944 245.66 120.471 245.8 121.031 245.8ZM130.699 247L126.939 237.08H128.699L131.679 245.38L134.679 237.08H136.399L132.639 247H130.699ZM142.221 247.24C141.274 247.24 140.434 247.027 139.701 246.6C138.968 246.16 138.388 245.553 137.961 244.78C137.548 244.007 137.341 243.093 137.341 242.04C137.341 241 137.548 240.093 137.961 239.32C138.374 238.533 138.948 237.927 139.681 237.5C140.428 237.06 141.288 236.84 142.261 236.84C143.221 236.84 144.048 237.06 144.741 237.5C145.448 237.927 145.988 238.493 146.361 239.2C146.734 239.907 146.921 240.667 146.921 241.48C146.921 241.627 146.914 241.773 146.901 241.92C146.901 242.067 146.901 242.233 146.901 242.42H139.001C139.041 243.18 139.214 243.813 139.521 244.32C139.841 244.813 140.234 245.187 140.701 245.44C141.181 245.693 141.688 245.82 142.221 245.82C142.914 245.82 143.494 245.66 143.961 245.34C144.428 245.02 144.768 244.587 144.981 244.04H146.641C146.374 244.96 145.861 245.727 145.101 246.34C144.354 246.94 143.394 247.24 142.221 247.24ZM142.221 238.26C141.421 238.26 140.708 238.507 140.081 239C139.468 239.48 139.114 240.187 139.021 241.12H145.261C145.221 240.227 144.914 239.527 144.341 239.02C143.768 238.513 143.061 238.26 142.221 238.26ZM149.148 247V237.08H150.668L150.808 238.98C151.114 238.327 151.581 237.807 152.208 237.42C152.834 237.033 153.608 236.84 154.528 236.84V238.6H154.068C153.481 238.6 152.941 238.707 152.448 238.92C151.954 239.12 151.561 239.467 151.268 239.96C150.974 240.453 150.828 241.133 150.828 242V247H149.148ZM166.206 247.24C165.22 247.24 164.353 247.013 163.606 246.56C162.873 246.107 162.3 245.487 161.886 244.7C161.486 243.913 161.286 243.02 161.286 242.02C161.286 241.02 161.493 240.133 161.906 239.36C162.32 238.573 162.893 237.96 163.626 237.52C164.36 237.067 165.226 236.84 166.226 236.84C167.04 236.84 167.76 237.007 168.386 237.34C169.013 237.673 169.5 238.14 169.846 238.74V232.6H171.526V247H170.006L169.846 245.36C169.526 245.84 169.066 246.273 168.466 246.66C167.866 247.047 167.113 247.24 166.206 247.24ZM166.386 245.78C167.053 245.78 167.64 245.627 168.146 245.32C168.666 245 169.066 244.56 169.346 244C169.64 243.44 169.786 242.787 169.786 242.04C169.786 241.293 169.64 240.64 169.346 240.08C169.066 239.52 168.666 239.087 168.146 238.78C167.64 238.46 167.053 238.3 166.386 238.3C165.733 238.3 165.146 238.46 164.626 238.78C164.12 239.087 163.72 239.52 163.426 240.08C163.146 240.64 163.006 241.293 163.006 242.04C163.006 242.787 163.146 243.44 163.426 244C163.72 244.56 164.12 245 164.626 245.32C165.146 245.627 165.733 245.78 166.386 245.78ZM178.725 247.24C177.778 247.24 176.938 247.027 176.205 246.6C175.471 246.16 174.891 245.553 174.465 244.78C174.051 244.007 173.845 243.093 173.845 242.04C173.845 241 174.051 240.093 174.465 239.32C174.878 238.533 175.451 237.927 176.185 237.5C176.931 237.06 177.791 236.84 178.765 236.84C179.725 236.84 180.551 237.06 181.245 237.5C181.951 237.927 182.491 238.493 182.865 239.2C183.238 239.907 183.425 240.667 183.425 241.48C183.425 241.627 183.418 241.773 183.405 241.92C183.405 242.067 183.405 242.233 183.405 242.42H175.505C175.545 243.18 175.718 243.813 176.025 244.32C176.345 244.813 176.738 245.187 177.205 245.44C177.685 245.693 178.191 245.82 178.725 245.82C179.418 245.82 179.998 245.66 180.465 245.34C180.931 245.02 181.271 244.587 181.485 244.04H183.145C182.878 244.96 182.365 245.727 181.605 246.34C180.858 246.94 179.898 247.24 178.725 247.24ZM178.725 238.26C177.925 238.26 177.211 238.507 176.585 239C175.971 239.48 175.618 240.187 175.525 241.12H181.765C181.725 240.227 181.418 239.527 180.845 239.02C180.271 238.513 179.565 238.26 178.725 238.26ZM185.651 247V232.6H187.331V247H185.651ZM194.545 247.24C193.598 247.24 192.758 247.027 192.025 246.6C191.292 246.16 190.712 245.553 190.285 244.78C189.872 244.007 189.665 243.093 189.665 242.04C189.665 241 189.872 240.093 190.285 239.32C190.698 238.533 191.272 237.927 192.005 237.5C192.752 237.06 193.612 236.84 194.585 236.84C195.545 236.84 196.372 237.06 197.065 237.5C197.772 237.927 198.312 238.493 198.685 239.2C199.058 239.907 199.245 240.667 199.245 241.48C199.245 241.627 199.238 241.773 199.225 241.92C199.225 242.067 199.225 242.233 199.225 242.42H191.325C191.365 243.18 191.538 243.813 191.845 244.32C192.165 244.813 192.558 245.187 193.025 245.44C193.505 245.693 194.012 245.82 194.545 245.82C195.238 245.82 195.818 245.66 196.285 245.34C196.752 245.02 197.092 244.587 197.305 244.04H198.965C198.698 244.96 198.185 245.727 197.425 246.34C196.678 246.94 195.718 247.24 194.545 247.24ZM194.545 238.26C193.745 238.26 193.032 238.507 192.405 239C191.792 239.48 191.438 240.187 191.345 241.12H197.585C197.545 240.227 197.238 239.527 196.665 239.02C196.092 238.513 195.385 238.26 194.545 238.26ZM206.032 247.24C205.085 247.24 204.232 247.027 203.472 246.6C202.725 246.16 202.132 245.553 201.692 244.78C201.265 243.993 201.052 243.08 201.052 242.04C201.052 241 201.265 240.093 201.692 239.32C202.132 238.533 202.725 237.927 203.472 237.5C204.232 237.06 205.085 236.84 206.032 236.84C207.205 236.84 208.192 237.147 208.992 237.76C209.805 238.373 210.318 239.193 210.532 240.22H208.812C208.678 239.607 208.352 239.133 207.832 238.8C207.312 238.453 206.705 238.28 206.012 238.28C205.452 238.28 204.925 238.42 204.432 238.7C203.938 238.98 203.538 239.4 203.232 239.96C202.925 240.52 202.772 241.213 202.772 242.04C202.772 242.867 202.925 243.56 203.232 244.12C203.538 244.68 203.938 245.107 204.432 245.4C204.925 245.68 205.452 245.82 206.012 245.82C206.705 245.82 207.312 245.653 207.832 245.32C208.352 244.973 208.678 244.487 208.812 243.86H210.532C210.332 244.86 209.825 245.673 209.012 246.3C208.198 246.927 207.205 247.24 206.032 247.24ZM216.525 247C215.618 247 214.905 246.78 214.385 246.34C213.865 245.9 213.605 245.107 213.605 243.96V238.5H211.885V237.08H213.605L213.825 234.7H215.285V237.08H218.205V238.5H215.285V243.96C215.285 244.587 215.411 245.013 215.665 245.24C215.918 245.453 216.365 245.56 217.005 245.56H218.045V247H216.525ZM223.639 247.24C222.812 247.24 222.126 247.1 221.579 246.82C221.032 246.54 220.626 246.167 220.359 245.7C220.092 245.233 219.959 244.727 219.959 244.18C219.959 243.167 220.346 242.387 221.119 241.84C221.892 241.293 222.946 241.02 224.279 241.02H226.959V240.9C226.959 240.033 226.732 239.38 226.279 238.94C225.826 238.487 225.219 238.26 224.459 238.26C223.806 238.26 223.239 238.427 222.759 238.76C222.292 239.08 221.999 239.553 221.879 240.18H220.159C220.226 239.46 220.466 238.853 220.879 238.36C221.306 237.867 221.832 237.493 222.459 237.24C223.086 236.973 223.752 236.84 224.459 236.84C225.846 236.84 226.886 237.213 227.579 237.96C228.286 238.693 228.639 239.673 228.639 240.9V247H227.139L227.039 245.22C226.759 245.78 226.346 246.26 225.799 246.66C225.266 247.047 224.546 247.24 223.639 247.24ZM223.899 245.82C224.539 245.82 225.086 245.653 225.539 245.32C226.006 244.987 226.359 244.553 226.599 244.02C226.839 243.487 226.959 242.927 226.959 242.34V242.32H224.419C223.432 242.32 222.732 242.493 222.319 242.84C221.919 243.173 221.719 243.593 221.719 244.1C221.719 244.62 221.906 245.04 222.279 245.36C222.666 245.667 223.206 245.82 223.899 245.82ZM236.459 247.24C235.646 247.24 234.919 247.073 234.279 246.74C233.653 246.407 233.173 245.94 232.839 245.34L232.679 247H231.159V232.6H232.839V238.72C233.159 238.24 233.613 237.807 234.199 237.42C234.799 237.033 235.559 236.84 236.479 236.84C237.466 236.84 238.326 237.067 239.059 237.52C239.793 237.973 240.359 238.593 240.759 239.38C241.173 240.167 241.379 241.06 241.379 242.06C241.379 243.06 241.173 243.953 240.759 244.74C240.359 245.513 239.786 246.127 239.039 246.58C238.306 247.02 237.446 247.24 236.459 247.24ZM236.279 245.78C236.946 245.78 237.533 245.627 238.039 245.32C238.546 245 238.946 244.56 239.239 244C239.533 243.44 239.679 242.787 239.679 242.04C239.679 241.293 239.533 240.64 239.239 240.08C238.946 239.52 238.546 239.087 238.039 238.78C237.533 238.46 236.946 238.3 236.279 238.3C235.613 238.3 235.026 238.46 234.519 238.78C234.013 239.087 233.613 239.52 233.319 240.08C233.026 240.64 232.879 241.293 232.879 242.04C232.879 242.787 233.026 243.44 233.319 244C233.613 244.56 234.013 245 234.519 245.32C235.026 245.627 235.613 245.78 236.279 245.78ZM243.718 247V232.6H245.398V247H243.718ZM252.611 247.24C251.665 247.24 250.825 247.027 250.091 246.6C249.358 246.16 248.778 245.553 248.351 244.78C247.938 244.007 247.731 243.093 247.731 242.04C247.731 241 247.938 240.093 248.351 239.32C248.765 238.533 249.338 237.927 250.071 237.5C250.818 237.06 251.678 236.84 252.651 236.84C253.611 236.84 254.438 237.06 255.131 237.5C255.838 237.927 256.378 238.493 256.751 239.2C257.125 239.907 257.311 240.667 257.311 241.48C257.311 241.627 257.305 241.773 257.291 241.92C257.291 242.067 257.291 242.233 257.291 242.42H249.391C249.431 243.18 249.605 243.813 249.911 244.32C250.231 244.813 250.625 245.187 251.091 245.44C251.571 245.693 252.078 245.82 252.611 245.82C253.305 245.82 253.885 245.66 254.351 245.34C254.818 245.02 255.158 244.587 255.371 244.04H257.031C256.765 244.96 256.251 245.727 255.491 246.34C254.745 246.94 253.785 247.24 252.611 247.24ZM252.611 238.26C251.811 238.26 251.098 238.507 250.471 239C249.858 239.48 249.505 240.187 249.411 241.12H255.651C255.611 240.227 255.305 239.527 254.731 239.02C254.158 238.513 253.451 238.26 252.611 238.26ZM269.391 247.24C268.445 247.24 267.591 247.027 266.831 246.6C266.085 246.16 265.491 245.553 265.051 244.78C264.625 243.993 264.411 243.08 264.411 242.04C264.411 241 264.625 240.093 265.051 239.32C265.491 238.533 266.085 237.927 266.831 237.5C267.591 237.06 268.445 236.84 269.391 236.84C270.565 236.84 271.551 237.147 272.351 237.76C273.165 238.373 273.678 239.193 273.891 240.22H272.171C272.038 239.607 271.711 239.133 271.191 238.8C270.671 238.453 270.065 238.28 269.371 238.28C268.811 238.28 268.285 238.42 267.791 238.7C267.298 238.98 266.898 239.4 266.591 239.96C266.285 240.52 266.131 241.213 266.131 242.04C266.131 242.867 266.285 243.56 266.591 244.12C266.898 244.68 267.298 245.107 267.791 245.4C268.285 245.68 268.811 245.82 269.371 245.82C270.065 245.82 270.671 245.653 271.191 245.32C271.711 244.973 272.038 244.487 272.171 243.86H273.891C273.691 244.86 273.185 245.673 272.371 246.3C271.558 246.927 270.565 247.24 269.391 247.24ZM279.857 247.24C278.684 247.24 277.751 246.887 277.057 246.18C276.364 245.46 276.017 244.36 276.017 242.88V237.08H277.697V242.7C277.697 244.767 278.544 245.8 280.237 245.8C281.104 245.8 281.817 245.493 282.377 244.88C282.951 244.253 283.237 243.367 283.237 242.22V237.08H284.917V247H283.397L283.277 245.22C282.971 245.847 282.511 246.34 281.897 246.7C281.297 247.06 280.617 247.24 279.857 247.24ZM288.703 234.88C288.369 234.88 288.089 234.773 287.863 234.56C287.649 234.333 287.543 234.053 287.543 233.72C287.543 233.4 287.649 233.133 287.863 232.92C288.089 232.707 288.369 232.6 288.703 232.6C289.023 232.6 289.296 232.707 289.523 232.92C289.749 233.133 289.863 233.4 289.863 233.72C289.863 234.053 289.749 234.333 289.523 234.56C289.296 234.773 289.023 234.88 288.703 234.88ZM287.863 247V237.08H289.543V247H287.863ZM296.268 247.24C295.081 247.24 294.095 246.94 293.308 246.34C292.521 245.74 292.061 244.927 291.928 243.9H293.648C293.755 244.42 294.028 244.873 294.468 245.26C294.921 245.633 295.528 245.82 296.288 245.82C296.995 245.82 297.515 245.673 297.848 245.38C298.181 245.073 298.348 244.713 298.348 244.3C298.348 243.7 298.128 243.3 297.688 243.1C297.261 242.9 296.655 242.72 295.868 242.56C295.335 242.453 294.801 242.3 294.268 242.1C293.735 241.9 293.288 241.62 292.928 241.26C292.568 240.887 292.388 240.4 292.388 239.8C292.388 238.933 292.708 238.227 293.348 237.68C294.001 237.12 294.881 236.84 295.988 236.84C297.041 236.84 297.901 237.107 298.568 237.64C299.248 238.16 299.641 238.907 299.748 239.88H298.088C298.021 239.373 297.801 238.98 297.428 238.7C297.068 238.407 296.581 238.26 295.968 238.26C295.368 238.26 294.901 238.387 294.568 238.64C294.248 238.893 294.088 239.227 294.088 239.64C294.088 240.04 294.295 240.353 294.708 240.58C295.135 240.807 295.708 241 296.428 241.16C297.041 241.293 297.621 241.46 298.168 241.66C298.728 241.847 299.181 242.133 299.528 242.52C299.888 242.893 300.068 243.44 300.068 244.16C300.081 245.053 299.741 245.793 299.048 246.38C298.368 246.953 297.441 247.24 296.268 247.24ZM303.488 234.88C303.155 234.88 302.875 234.773 302.648 234.56C302.435 234.333 302.328 234.053 302.328 233.72C302.328 233.4 302.435 233.133 302.648 232.92C302.875 232.707 303.155 232.6 303.488 232.6C303.808 232.6 304.081 232.707 304.308 232.92C304.535 233.133 304.648 233.4 304.648 233.72C304.648 234.053 304.535 234.333 304.308 234.56C304.081 234.773 303.808 234.88 303.488 234.88ZM302.648 247V237.08H304.328V247H302.648ZM307.253 247V237.08H308.773L308.873 238.86C309.193 238.233 309.653 237.74 310.253 237.38C310.853 237.02 311.533 236.84 312.293 236.84C313.466 236.84 314.4 237.2 315.093 237.92C315.8 238.627 316.153 239.72 316.153 241.2V247H314.473V241.38C314.473 239.313 313.62 238.28 311.913 238.28C311.06 238.28 310.346 238.593 309.773 239.22C309.213 239.833 308.933 240.713 308.933 241.86V247H307.253ZM323.158 247.24C322.212 247.24 321.372 247.027 320.638 246.6C319.905 246.16 319.325 245.553 318.898 244.78C318.485 244.007 318.278 243.093 318.278 242.04C318.278 241 318.485 240.093 318.898 239.32C319.312 238.533 319.885 237.927 320.618 237.5C321.365 237.06 322.225 236.84 323.198 236.84C324.158 236.84 324.985 237.06 325.678 237.5C326.385 237.927 326.925 238.493 327.298 239.2C327.672 239.907 327.858 240.667 327.858 241.48C327.858 241.627 327.852 241.773 327.838 241.92C327.838 242.067 327.838 242.233 327.838 242.42H319.938C319.978 243.18 320.152 243.813 320.458 244.32C320.778 244.813 321.172 245.187 321.638 245.44C322.118 245.693 322.625 245.82 323.158 245.82C323.852 245.82 324.432 245.66 324.898 245.34C325.365 245.02 325.705 244.587 325.918 244.04H327.578C327.312 244.96 326.798 245.727 326.038 246.34C325.292 246.94 324.332 247.24 323.158 247.24ZM323.158 238.26C322.358 238.26 321.645 238.507 321.018 239C320.405 239.48 320.052 240.187 319.958 241.12H326.198C326.158 240.227 325.852 239.527 325.278 239.02C324.705 238.513 323.998 238.26 323.158 238.26ZM338.678 247.24C337.851 247.24 337.165 247.1 336.618 246.82C336.071 246.54 335.665 246.167 335.398 245.7C335.131 245.233 334.998 244.727 334.998 244.18C334.998 243.167 335.385 242.387 336.158 241.84C336.931 241.293 337.985 241.02 339.318 241.02H341.998V240.9C341.998 240.033 341.771 239.38 341.318 238.94C340.865 238.487 340.258 238.26 339.498 238.26C338.845 238.26 338.278 238.427 337.798 238.76C337.331 239.08 337.038 239.553 336.918 240.18H335.198C335.265 239.46 335.505 238.853 335.918 238.36C336.345 237.867 336.871 237.493 337.498 237.24C338.125 236.973 338.791 236.84 339.498 236.84C340.885 236.84 341.925 237.213 342.618 237.96C343.325 238.693 343.678 239.673 343.678 240.9V247H342.178L342.078 245.22C341.798 245.78 341.385 246.26 340.838 246.66C340.305 247.047 339.585 247.24 338.678 247.24ZM338.938 245.82C339.578 245.82 340.125 245.653 340.578 245.32C341.045 244.987 341.398 244.553 341.638 244.02C341.878 243.487 341.998 242.927 341.998 242.34V242.32H339.458C338.471 242.32 337.771 242.493 337.358 242.84C336.958 243.173 336.758 243.593 336.758 244.1C336.758 244.62 336.945 245.04 337.318 245.36C337.705 245.667 338.245 245.82 338.938 245.82ZM346.198 247V237.08H347.718L347.818 238.86C348.138 238.233 348.598 237.74 349.198 237.38C349.798 237.02 350.478 236.84 351.238 236.84C352.412 236.84 353.345 237.2 354.038 237.92C354.745 238.627 355.098 239.72 355.098 241.2V247H353.418V241.38C353.418 239.313 352.565 238.28 350.858 238.28C350.005 238.28 349.292 238.593 348.718 239.22C348.158 239.833 347.878 240.713 347.878 241.86V247H346.198ZM362.144 247.24C361.157 247.24 360.29 247.013 359.544 246.56C358.81 246.107 358.237 245.487 357.824 244.7C357.424 243.913 357.224 243.02 357.224 242.02C357.224 241.02 357.43 240.133 357.844 239.36C358.257 238.573 358.83 237.96 359.564 237.52C360.297 237.067 361.164 236.84 362.164 236.84C362.977 236.84 363.697 237.007 364.324 237.34C364.95 237.673 365.437 238.14 365.784 238.74V232.6H367.464V247H365.944L365.784 245.36C365.464 245.84 365.004 246.273 364.404 246.66C363.804 247.047 363.05 247.24 362.144 247.24ZM362.324 245.78C362.99 245.78 363.577 245.627 364.084 245.32C364.604 245 365.004 244.56 365.284 244C365.577 243.44 365.724 242.787 365.724 242.04C365.724 241.293 365.577 240.64 365.284 240.08C365.004 239.52 364.604 239.087 364.084 238.78C363.577 238.46 362.99 238.3 362.324 238.3C361.67 238.3 361.084 238.46 360.564 238.78C360.057 239.087 359.657 239.52 359.364 240.08C359.084 240.64 358.944 241.293 358.944 242.04C358.944 242.787 359.084 243.44 359.364 244C359.657 244.56 360.057 245 360.564 245.32C361.084 245.627 361.67 245.78 362.324 245.78ZM379.115 247.24C377.942 247.24 377.009 246.887 376.315 246.18C375.622 245.46 375.275 244.36 375.275 242.88V237.08H376.955V242.7C376.955 244.767 377.802 245.8 379.495 245.8C380.362 245.8 381.075 245.493 381.635 244.88C382.209 244.253 382.495 243.367 382.495 242.22V237.08H384.175V247H382.655L382.535 245.22C382.229 245.847 381.769 246.34 381.155 246.7C380.555 247.06 379.875 247.24 379.115 247.24ZM386.941 247V237.08H388.461L388.561 238.86C388.881 238.233 389.341 237.74 389.941 237.38C390.541 237.02 391.221 236.84 391.981 236.84C393.154 236.84 394.087 237.2 394.781 237.92C395.487 238.627 395.841 239.72 395.841 241.2V247H394.161V241.38C394.161 239.313 393.307 238.28 391.601 238.28C390.747 238.28 390.034 238.593 389.461 239.22C388.901 239.833 388.621 240.713 388.621 241.86V247H386.941ZM398.926 247V238.5H397.426V237.08H398.926V235.36C398.926 234.4 399.166 233.7 399.646 233.26C400.126 232.82 400.826 232.6 401.746 232.6H402.746V234.04H402.006C401.499 234.04 401.139 234.147 400.926 234.36C400.713 234.56 400.606 234.907 400.606 235.4V237.08H403.046V238.5H400.606V247H398.926ZM409.175 247.24C408.242 247.24 407.402 247.027 406.655 246.6C405.909 246.173 405.315 245.573 404.875 244.8C404.449 244.013 404.235 243.093 404.235 242.04C404.235 240.987 404.455 240.073 404.895 239.3C405.335 238.513 405.929 237.907 406.675 237.48C407.435 237.053 408.282 236.84 409.215 236.84C410.149 236.84 410.989 237.053 411.735 237.48C412.482 237.907 413.069 238.513 413.495 239.3C413.935 240.073 414.155 240.987 414.155 242.04C414.155 243.093 413.935 244.013 413.495 244.8C413.055 245.573 412.455 246.173 411.695 246.6C410.949 247.027 410.109 247.24 409.175 247.24ZM409.175 245.8C409.749 245.8 410.282 245.66 410.775 245.38C411.269 245.1 411.669 244.68 411.975 244.12C412.282 243.56 412.435 242.867 412.435 242.04C412.435 241.213 412.282 240.52 411.975 239.96C411.682 239.4 411.289 238.98 410.795 238.7C410.302 238.42 409.775 238.28 409.215 238.28C408.642 238.28 408.109 238.42 407.615 238.7C407.122 238.98 406.722 239.4 406.415 239.96C406.109 240.52 405.955 241.213 405.955 242.04C405.955 242.867 406.109 243.56 406.415 244.12C406.722 244.68 407.115 245.1 407.595 245.38C408.089 245.66 408.615 245.8 409.175 245.8ZM416.491 247V237.08H418.011L418.151 238.98C418.458 238.327 418.925 237.807 419.551 237.42C420.178 237.033 420.951 236.84 421.871 236.84V238.6H421.411C420.825 238.6 420.285 238.707 419.791 238.92C419.298 239.12 418.905 239.467 418.611 239.96C418.318 240.453 418.171 241.133 418.171 242V247H416.491ZM427.443 243.88C426.883 243.88 426.369 243.807 425.903 243.66L424.903 244.6C425.049 244.707 425.229 244.8 425.443 244.88C425.669 244.947 425.989 245.013 426.403 245.08C426.816 245.133 427.396 245.193 428.143 245.26C429.476 245.353 430.429 245.66 431.003 246.18C431.576 246.7 431.863 247.38 431.863 248.22C431.863 248.793 431.703 249.34 431.383 249.86C431.076 250.38 430.596 250.807 429.943 251.14C429.303 251.473 428.476 251.64 427.463 251.64C426.569 251.64 425.776 251.52 425.083 251.28C424.389 251.053 423.849 250.7 423.463 250.22C423.076 249.753 422.883 249.16 422.883 248.44C422.883 248.067 422.983 247.66 423.183 247.22C423.383 246.793 423.756 246.387 424.303 246C424.009 245.88 423.756 245.753 423.543 245.62C423.343 245.473 423.156 245.313 422.983 245.14V244.68L424.683 243C423.896 242.333 423.503 241.453 423.503 240.36C423.503 239.707 423.656 239.113 423.963 238.58C424.269 238.047 424.716 237.627 425.303 237.32C425.889 237 426.603 236.84 427.443 236.84C428.016 236.84 428.536 236.92 429.003 237.08H432.663V238.34L430.803 238.42C431.189 238.98 431.383 239.627 431.383 240.36C431.383 241.013 431.223 241.607 430.903 242.14C430.596 242.673 430.149 243.1 429.563 243.42C428.989 243.727 428.283 243.88 427.443 243.88ZM427.443 242.5C428.149 242.5 428.709 242.32 429.123 241.96C429.549 241.587 429.763 241.053 429.763 240.36C429.763 239.68 429.549 239.16 429.123 238.8C428.709 238.427 428.149 238.24 427.443 238.24C426.723 238.24 426.149 238.427 425.723 238.8C425.309 239.16 425.103 239.68 425.103 240.36C425.103 241.053 425.309 241.587 425.723 241.96C426.149 242.32 426.723 242.5 427.443 242.5ZM424.523 248.28C424.523 248.947 424.803 249.44 425.363 249.76C425.923 250.093 426.623 250.26 427.463 250.26C428.289 250.26 428.949 250.08 429.443 249.72C429.949 249.36 430.203 248.88 430.203 248.28C430.203 247.853 430.029 247.48 429.683 247.16C429.336 246.853 428.696 246.673 427.763 246.62C427.029 246.567 426.396 246.5 425.863 246.42C425.316 246.713 424.956 247.027 424.783 247.36C424.609 247.707 424.523 248.013 424.523 248.28ZM438.627 247.24C437.68 247.24 436.84 247.027 436.107 246.6C435.374 246.16 434.794 245.553 434.367 244.78C433.954 244.007 433.747 243.093 433.747 242.04C433.747 241 433.954 240.093 434.367 239.32C434.78 238.533 435.354 237.927 436.087 237.5C436.834 237.06 437.694 236.84 438.667 236.84C439.627 236.84 440.454 237.06 441.147 237.5C441.854 237.927 442.394 238.493 442.767 239.2C443.14 239.907 443.327 240.667 443.327 241.48C443.327 241.627 443.32 241.773 443.307 241.92C443.307 242.067 443.307 242.233 443.307 242.42H435.407C435.447 243.18 435.62 243.813 435.927 244.32C436.247 244.813 436.64 245.187 437.107 245.44C437.587 245.693 438.094 245.82 438.627 245.82C439.32 245.82 439.9 245.66 440.367 245.34C440.834 245.02 441.174 244.587 441.387 244.04H443.047C442.78 244.96 442.267 245.727 441.507 246.34C440.76 246.94 439.8 247.24 438.627 247.24ZM438.627 238.26C437.827 238.26 437.114 238.507 436.487 239C435.874 239.48 435.52 240.187 435.427 241.12H441.667C441.627 240.227 441.32 239.527 440.747 239.02C440.174 238.513 439.467 238.26 438.627 238.26ZM449.142 247C448.235 247 447.522 246.78 447.002 246.34C446.482 245.9 446.222 245.107 446.222 243.96V238.5H444.502V237.08H446.222L446.442 234.7H447.902V237.08H450.822V238.5H447.902V243.96C447.902 244.587 448.028 245.013 448.282 245.24C448.535 245.453 448.982 245.56 449.622 245.56H450.662V247H449.142ZM456.876 247C455.97 247 455.256 246.78 454.736 246.34C454.216 245.9 453.956 245.107 453.956 243.96V238.5H452.236V237.08H453.956L454.176 234.7H455.636V237.08H458.556V238.5H455.636V243.96C455.636 244.587 455.763 245.013 456.016 245.24C456.27 245.453 456.716 245.56 457.356 245.56H458.396V247H456.876ZM463.991 247.24C463.164 247.24 462.477 247.1 461.931 246.82C461.384 246.54 460.977 246.167 460.711 245.7C460.444 245.233 460.311 244.727 460.311 244.18C460.311 243.167 460.697 242.387 461.471 241.84C462.244 241.293 463.297 241.02 464.631 241.02H467.311V240.9C467.311 240.033 467.084 239.38 466.631 238.94C466.177 238.487 465.571 238.26 464.811 238.26C464.157 238.26 463.591 238.427 463.111 238.76C462.644 239.08 462.351 239.553 462.231 240.18H460.511C460.577 239.46 460.817 238.853 461.231 238.36C461.657 237.867 462.184 237.493 462.811 237.24C463.437 236.973 464.104 236.84 464.811 236.84C466.197 236.84 467.237 237.213 467.931 237.96C468.637 238.693 468.991 239.673 468.991 240.9V247H467.491L467.391 245.22C467.111 245.78 466.697 246.26 466.151 246.66C465.617 247.047 464.897 247.24 463.991 247.24ZM464.251 245.82C464.891 245.82 465.437 245.653 465.891 245.32C466.357 244.987 466.711 244.553 466.951 244.02C467.191 243.487 467.311 242.927 467.311 242.34V242.32H464.771C463.784 242.32 463.084 242.493 462.671 242.84C462.271 243.173 462.071 243.593 462.071 244.1C462.071 244.62 462.257 245.04 462.631 245.36C463.017 245.667 463.557 245.82 464.251 245.82ZM476.811 247.24C475.998 247.24 475.271 247.073 474.631 246.74C474.004 246.407 473.524 245.94 473.191 245.34L473.031 247H471.511V232.6H473.191V238.72C473.511 238.24 473.964 237.807 474.551 237.42C475.151 237.033 475.911 236.84 476.831 236.84C477.818 236.84 478.678 237.067 479.411 237.52C480.144 237.973 480.711 238.593 481.111 239.38C481.524 240.167 481.731 241.06 481.731 242.06C481.731 243.06 481.524 243.953 481.111 244.74C480.711 245.513 480.138 246.127 479.391 246.58C478.658 247.02 477.798 247.24 476.811 247.24ZM476.631 245.78C477.298 245.78 477.884 245.627 478.391 245.32C478.898 245 479.298 244.56 479.591 244C479.884 243.44 480.031 242.787 480.031 242.04C480.031 241.293 479.884 240.64 479.591 240.08C479.298 239.52 478.898 239.087 478.391 238.78C477.884 238.46 477.298 238.3 476.631 238.3C475.964 238.3 475.378 238.46 474.871 238.78C474.364 239.087 473.964 239.52 473.671 240.08C473.378 240.64 473.231 241.293 473.231 242.04C473.231 242.787 473.378 243.44 473.671 244C473.964 244.56 474.364 245 474.871 245.32C475.378 245.627 475.964 245.78 476.631 245.78ZM484.069 247V232.6H485.749V247H484.069ZM492.963 247.24C492.016 247.24 491.176 247.027 490.443 246.6C489.71 246.16 489.13 245.553 488.703 244.78C488.29 244.007 488.083 243.093 488.083 242.04C488.083 241 488.29 240.093 488.703 239.32C489.116 238.533 489.69 237.927 490.423 237.5C491.17 237.06 492.03 236.84 493.003 236.84C493.963 236.84 494.79 237.06 495.483 237.5C496.19 237.927 496.73 238.493 497.103 239.2C497.476 239.907 497.663 240.667 497.663 241.48C497.663 241.627 497.656 241.773 497.643 241.92C497.643 242.067 497.643 242.233 497.643 242.42H489.743C489.783 243.18 489.956 243.813 490.263 244.32C490.583 244.813 490.976 245.187 491.443 245.44C491.923 245.693 492.43 245.82 492.963 245.82C493.656 245.82 494.236 245.66 494.703 245.34C495.17 245.02 495.51 244.587 495.723 244.04H497.383C497.116 244.96 496.603 245.727 495.843 246.34C495.096 246.94 494.136 247.24 492.963 247.24ZM492.963 238.26C492.163 238.26 491.45 238.507 490.823 239C490.21 239.48 489.856 240.187 489.763 241.12H496.003C495.963 240.227 495.656 239.527 495.083 239.02C494.51 238.513 493.803 238.26 492.963 238.26ZM505.183 247V237.08H506.703L506.823 238.52C507.143 237.987 507.569 237.573 508.103 237.28C508.636 236.987 509.236 236.84 509.903 236.84C510.689 236.84 511.363 237 511.923 237.32C512.496 237.64 512.936 238.127 513.243 238.78C513.589 238.18 514.063 237.707 514.663 237.36C515.276 237.013 515.936 236.84 516.643 236.84C517.829 236.84 518.776 237.2 519.483 237.92C520.189 238.627 520.543 239.72 520.543 241.2V247H518.883V241.38C518.883 240.353 518.676 239.58 518.263 239.06C517.849 238.54 517.256 238.28 516.483 238.28C515.683 238.28 515.016 238.593 514.483 239.22C513.963 239.833 513.703 240.713 513.703 241.86V247H512.023V241.38C512.023 240.353 511.816 239.58 511.403 239.06C510.989 238.54 510.396 238.28 509.623 238.28C508.836 238.28 508.176 238.593 507.643 239.22C507.123 239.833 506.863 240.713 506.863 241.86V247H505.183ZM527.593 247.24C526.66 247.24 525.82 247.027 525.073 246.6C524.327 246.173 523.733 245.573 523.293 244.8C522.867 244.013 522.653 243.093 522.653 242.04C522.653 240.987 522.873 240.073 523.313 239.3C523.753 238.513 524.347 237.907 525.093 237.48C525.853 237.053 526.7 236.84 527.633 236.84C528.567 236.84 529.407 237.053 530.153 237.48C530.9 237.907 531.487 238.513 531.913 239.3C532.353 240.073 532.573 240.987 532.573 242.04C532.573 243.093 532.353 244.013 531.913 244.8C531.473 245.573 530.873 246.173 530.113 246.6C529.367 247.027 528.527 247.24 527.593 247.24ZM527.593 245.8C528.167 245.8 528.7 245.66 529.193 245.38C529.687 245.1 530.087 244.68 530.393 244.12C530.7 243.56 530.853 242.867 530.853 242.04C530.853 241.213 530.7 240.52 530.393 239.96C530.1 239.4 529.707 238.98 529.213 238.7C528.72 238.42 528.193 238.28 527.633 238.28C527.06 238.28 526.527 238.42 526.033 238.7C525.54 238.98 525.14 239.4 524.833 239.96C524.527 240.52 524.373 241.213 524.373 242.04C524.373 242.867 524.527 243.56 524.833 244.12C525.14 244.68 525.533 245.1 526.013 245.38C526.507 245.66 527.033 245.8 527.593 245.8ZM534.909 247V237.08H536.429L536.549 238.52C536.869 237.987 537.296 237.573 537.829 237.28C538.363 236.987 538.963 236.84 539.629 236.84C540.416 236.84 541.089 237 541.649 237.32C542.223 237.64 542.663 238.127 542.969 238.78C543.316 238.18 543.789 237.707 544.389 237.36C545.003 237.013 545.663 236.84 546.369 236.84C547.556 236.84 548.503 237.2 549.209 237.92C549.916 238.627 550.269 239.72 550.269 241.2V247H548.609V241.38C548.609 240.353 548.403 239.58 547.989 239.06C547.576 238.54 546.983 238.28 546.209 238.28C545.409 238.28 544.743 238.593 544.209 239.22C543.689 239.833 543.429 240.713 543.429 241.86V247H541.749V241.38C541.749 240.353 541.543 239.58 541.129 239.06C540.716 238.54 540.123 238.28 539.349 238.28C538.563 238.28 537.903 238.593 537.369 239.22C536.849 239.833 536.589 240.713 536.589 241.86V247H534.909ZM557.26 247.24C556.313 247.24 555.473 247.027 554.74 246.6C554.007 246.16 553.427 245.553 553 244.78C552.587 244.007 552.38 243.093 552.38 242.04C552.38 241 552.587 240.093 553 239.32C553.413 238.533 553.987 237.927 554.72 237.5C555.467 237.06 556.327 236.84 557.3 236.84C558.26 236.84 559.087 237.06 559.78 237.5C560.487 237.927 561.027 238.493 561.4 239.2C561.773 239.907 561.96 240.667 561.96 241.48C561.96 241.627 561.953 241.773 561.94 241.92C561.94 242.067 561.94 242.233 561.94 242.42H554.04C554.08 243.18 554.253 243.813 554.56 244.32C554.88 244.813 555.273 245.187 555.74 245.44C556.22 245.693 556.727 245.82 557.26 245.82C557.953 245.82 558.533 245.66 559 245.34C559.467 245.02 559.807 244.587 560.02 244.04H561.68C561.413 244.96 560.9 245.727 560.14 246.34C559.393 246.94 558.433 247.24 557.26 247.24ZM557.26 238.26C556.46 238.26 555.747 238.507 555.12 239C554.507 239.48 554.153 240.187 554.06 241.12H560.3C560.26 240.227 559.953 239.527 559.38 239.02C558.807 238.513 558.1 238.26 557.26 238.26ZM564.187 247V237.08H565.707L565.807 238.86C566.127 238.233 566.587 237.74 567.187 237.38C567.787 237.02 568.467 236.84 569.227 236.84C570.4 236.84 571.333 237.2 572.027 237.92C572.733 238.627 573.087 239.72 573.087 241.2V247H571.407V241.38C571.407 239.313 570.553 238.28 568.847 238.28C567.993 238.28 567.28 238.593 566.707 239.22C566.147 239.833 565.867 240.713 565.867 241.86V247H564.187ZM579.552 247C578.645 247 577.932 246.78 577.412 246.34C576.892 245.9 576.632 245.107 576.632 243.96V238.5H574.912V237.08H576.632L576.852 234.7H578.312V237.08H581.232V238.5H578.312V243.96C578.312 244.587 578.439 245.013 578.692 245.24C578.945 245.453 579.392 245.56 580.032 245.56H581.072V247H579.552ZM587.166 247.24C585.98 247.24 584.993 246.94 584.206 246.34C583.42 245.74 582.96 244.927 582.826 243.9H584.546C584.653 244.42 584.926 244.873 585.366 245.26C585.82 245.633 586.426 245.82 587.186 245.82C587.893 245.82 588.413 245.673 588.746 245.38C589.08 245.073 589.246 244.713 589.246 244.3C589.246 243.7 589.026 243.3 588.586 243.1C588.16 242.9 587.553 242.72 586.766 242.56C586.233 242.453 585.7 242.3 585.166 242.1C584.633 241.9 584.186 241.62 583.826 241.26C583.466 240.887 583.286 240.4 583.286 239.8C583.286 238.933 583.606 238.227 584.246 237.68C584.9 237.12 585.78 236.84 586.886 236.84C587.94 236.84 588.8 237.107 589.466 237.64C590.146 238.16 590.54 238.907 590.646 239.88H588.986C588.92 239.373 588.7 238.98 588.326 238.7C587.966 238.407 587.48 238.26 586.866 238.26C586.266 238.26 585.8 238.387 585.466 238.64C585.146 238.893 584.986 239.227 584.986 239.64C584.986 240.04 585.193 240.353 585.606 240.58C586.033 240.807 586.606 241 587.326 241.16C587.94 241.293 588.52 241.46 589.066 241.66C589.626 241.847 590.08 242.133 590.426 242.52C590.786 242.893 590.966 243.44 590.966 244.16C590.98 245.053 590.64 245.793 589.946 246.38C589.266 246.953 588.34 247.24 587.166 247.24ZM185.05 266.88C184.717 266.88 184.437 266.773 184.21 266.56C183.997 266.333 183.89 266.053 183.89 265.72C183.89 265.4 183.997 265.133 184.21 264.92C184.437 264.707 184.717 264.6 185.05 264.6C185.37 264.6 185.644 264.707 185.87 264.92C186.097 265.133 186.21 265.4 186.21 265.72C186.21 266.053 186.097 266.333 185.87 266.56C185.644 266.773 185.37 266.88 185.05 266.88ZM184.21 279V269.08H185.89V279H184.21ZM188.816 279V269.08H190.336L190.436 270.86C190.756 270.233 191.216 269.74 191.816 269.38C192.416 269.02 193.096 268.84 193.856 268.84C195.029 268.84 195.962 269.2 196.656 269.92C197.362 270.627 197.716 271.72 197.716 273.2V279H196.036V273.38C196.036 271.313 195.182 270.28 193.476 270.28C192.622 270.28 191.909 270.593 191.336 271.22C190.776 271.833 190.496 272.713 190.496 273.86V279H188.816ZM210.074 279.24C209.14 279.24 208.3 279.027 207.554 278.6C206.807 278.173 206.214 277.573 205.774 276.8C205.347 276.013 205.134 275.093 205.134 274.04C205.134 272.987 205.354 272.073 205.794 271.3C206.234 270.513 206.827 269.907 207.574 269.48C208.334 269.053 209.18 268.84 210.114 268.84C211.047 268.84 211.887 269.053 212.634 269.48C213.38 269.907 213.967 270.513 214.394 271.3C214.834 272.073 215.054 272.987 215.054 274.04C215.054 275.093 214.834 276.013 214.394 276.8C213.954 277.573 213.354 278.173 212.594 278.6C211.847 279.027 211.007 279.24 210.074 279.24ZM210.074 277.8C210.647 277.8 211.18 277.66 211.674 277.38C212.167 277.1 212.567 276.68 212.874 276.12C213.18 275.56 213.334 274.867 213.334 274.04C213.334 273.213 213.18 272.52 212.874 271.96C212.58 271.4 212.187 270.98 211.694 270.7C211.2 270.42 210.674 270.28 210.114 270.28C209.54 270.28 209.007 270.42 208.514 270.7C208.02 270.98 207.62 271.4 207.314 271.96C207.007 272.52 206.854 273.213 206.854 274.04C206.854 274.867 207.007 275.56 207.314 276.12C207.62 276.68 208.014 277.1 208.494 277.38C208.987 277.66 209.514 277.8 210.074 277.8ZM221.01 279.24C219.836 279.24 218.903 278.887 218.21 278.18C217.516 277.46 217.17 276.36 217.17 274.88V269.08H218.85V274.7C218.85 276.767 219.696 277.8 221.39 277.8C222.256 277.8 222.97 277.493 223.53 276.88C224.103 276.253 224.39 275.367 224.39 274.22V269.08H226.07V279H224.55L224.43 277.22C224.123 277.847 223.663 278.34 223.05 278.7C222.45 279.06 221.77 279.24 221.01 279.24ZM228.835 279V269.08H230.355L230.495 270.98C230.802 270.327 231.268 269.807 231.895 269.42C232.522 269.033 233.295 268.84 234.215 268.84V270.6H233.755C233.168 270.6 232.628 270.707 232.135 270.92C231.642 271.12 231.248 271.467 230.955 271.96C230.662 272.453 230.515 273.133 230.515 274V279H228.835ZM243.394 279L240.494 269.08H242.174L244.274 276.86L246.594 269.08H248.494L250.834 276.86L252.914 269.08H254.614L251.714 279H249.994L247.554 270.82L245.114 279H243.394ZM260.561 279.24C259.614 279.24 258.774 279.027 258.041 278.6C257.307 278.16 256.727 277.553 256.301 276.78C255.887 276.007 255.681 275.093 255.681 274.04C255.681 273 255.887 272.093 256.301 271.32C256.714 270.533 257.287 269.927 258.021 269.5C258.767 269.06 259.627 268.84 260.601 268.84C261.561 268.84 262.387 269.06 263.081 269.5C263.787 269.927 264.327 270.493 264.701 271.2C265.074 271.907 265.261 272.667 265.261 273.48C265.261 273.627 265.254 273.773 265.241 273.92C265.241 274.067 265.241 274.233 265.241 274.42H257.341C257.381 275.18 257.554 275.813 257.861 276.32C258.181 276.813 258.574 277.187 259.041 277.44C259.521 277.693 260.027 277.82 260.561 277.82C261.254 277.82 261.834 277.66 262.301 277.34C262.767 277.02 263.107 276.587 263.321 276.04H264.981C264.714 276.96 264.201 277.727 263.441 278.34C262.694 278.94 261.734 279.24 260.561 279.24ZM260.561 270.26C259.761 270.26 259.047 270.507 258.421 271C257.807 271.48 257.454 272.187 257.361 273.12H263.601C263.561 272.227 263.254 271.527 262.681 271.02C262.107 270.513 261.401 270.26 260.561 270.26ZM267.487 279V264.6H269.167V279H267.487ZM276.481 279.24C275.534 279.24 274.681 279.027 273.921 278.6C273.174 278.16 272.581 277.553 272.141 276.78C271.714 275.993 271.501 275.08 271.501 274.04C271.501 273 271.714 272.093 272.141 271.32C272.581 270.533 273.174 269.927 273.921 269.5C274.681 269.06 275.534 268.84 276.481 268.84C277.654 268.84 278.641 269.147 279.441 269.76C280.254 270.373 280.768 271.193 280.981 272.22H279.261C279.128 271.607 278.801 271.133 278.281 270.8C277.761 270.453 277.154 270.28 276.461 270.28C275.901 270.28 275.374 270.42 274.881 270.7C274.388 270.98 273.988 271.4 273.681 271.96C273.374 272.52 273.221 273.213 273.221 274.04C273.221 274.867 273.374 275.56 273.681 276.12C273.988 276.68 274.388 277.107 274.881 277.4C275.374 277.68 275.901 277.82 276.461 277.82C277.154 277.82 277.761 277.653 278.281 277.32C278.801 276.973 279.128 276.487 279.261 275.86H280.981C280.781 276.86 280.274 277.673 279.461 278.3C278.648 278.927 277.654 279.24 276.481 279.24ZM287.847 279.24C286.914 279.24 286.074 279.027 285.327 278.6C284.581 278.173 283.987 277.573 283.547 276.8C283.121 276.013 282.907 275.093 282.907 274.04C282.907 272.987 283.127 272.073 283.567 271.3C284.007 270.513 284.601 269.907 285.347 269.48C286.107 269.053 286.954 268.84 287.887 268.84C288.821 268.84 289.661 269.053 290.407 269.48C291.154 269.907 291.741 270.513 292.167 271.3C292.607 272.073 292.827 272.987 292.827 274.04C292.827 275.093 292.607 276.013 292.167 276.8C291.727 277.573 291.127 278.173 290.367 278.6C289.621 279.027 288.781 279.24 287.847 279.24ZM287.847 277.8C288.421 277.8 288.954 277.66 289.447 277.38C289.941 277.1 290.341 276.68 290.647 276.12C290.954 275.56 291.107 274.867 291.107 274.04C291.107 273.213 290.954 272.52 290.647 271.96C290.354 271.4 289.961 270.98 289.467 270.7C288.974 270.42 288.447 270.28 287.887 270.28C287.314 270.28 286.781 270.42 286.287 270.7C285.794 270.98 285.394 271.4 285.087 271.96C284.781 272.52 284.627 273.213 284.627 274.04C284.627 274.867 284.781 275.56 285.087 276.12C285.394 276.68 285.787 277.1 286.267 277.38C286.761 277.66 287.287 277.8 287.847 277.8ZM295.163 279V269.08H296.683L296.803 270.52C297.123 269.987 297.55 269.573 298.083 269.28C298.617 268.987 299.217 268.84 299.883 268.84C300.67 268.84 301.343 269 301.903 269.32C302.477 269.64 302.917 270.127 303.223 270.78C303.57 270.18 304.043 269.707 304.643 269.36C305.257 269.013 305.917 268.84 306.623 268.84C307.81 268.84 308.757 269.2 309.463 269.92C310.17 270.627 310.523 271.72 310.523 273.2V279H308.863V273.38C308.863 272.353 308.657 271.58 308.243 271.06C307.83 270.54 307.237 270.28 306.463 270.28C305.663 270.28 304.997 270.593 304.463 271.22C303.943 271.833 303.683 272.713 303.683 273.86V279H302.003V273.38C302.003 272.353 301.797 271.58 301.383 271.06C300.97 270.54 300.377 270.28 299.603 270.28C298.817 270.28 298.157 270.593 297.623 271.22C297.103 271.833 296.843 272.713 296.843 273.86V279H295.163ZM314.074 266.88C313.74 266.88 313.46 266.773 313.234 266.56C313.02 266.333 312.914 266.053 312.914 265.72C312.914 265.4 313.02 265.133 313.234 264.92C313.46 264.707 313.74 264.6 314.074 264.6C314.394 264.6 314.667 264.707 314.894 264.92C315.12 265.133 315.234 265.4 315.234 265.72C315.234 266.053 315.12 266.333 314.894 266.56C314.667 266.773 314.394 266.88 314.074 266.88ZM313.234 279V269.08H314.914V279H313.234ZM317.839 279V269.08H319.359L319.459 270.86C319.779 270.233 320.239 269.74 320.839 269.38C321.439 269.02 322.119 268.84 322.879 268.84C324.052 268.84 324.986 269.2 325.679 269.92C326.386 270.627 326.739 271.72 326.739 273.2V279H325.059V273.38C325.059 271.313 324.206 270.28 322.499 270.28C321.646 270.28 320.932 270.593 320.359 271.22C319.799 271.833 319.519 272.713 319.519 273.86V279H317.839ZM333.204 275.88C332.644 275.88 332.131 275.807 331.664 275.66L330.664 276.6C330.811 276.707 330.991 276.8 331.204 276.88C331.431 276.947 331.751 277.013 332.164 277.08C332.578 277.133 333.158 277.193 333.904 277.26C335.238 277.353 336.191 277.66 336.764 278.18C337.338 278.7 337.624 279.38 337.624 280.22C337.624 280.793 337.464 281.34 337.144 281.86C336.838 282.38 336.358 282.807 335.704 283.14C335.064 283.473 334.238 283.64 333.224 283.64C332.331 283.64 331.538 283.52 330.844 283.28C330.151 283.053 329.611 282.7 329.224 282.22C328.838 281.753 328.644 281.16 328.644 280.44C328.644 280.067 328.744 279.66 328.944 279.22C329.144 278.793 329.518 278.387 330.064 278C329.771 277.88 329.518 277.753 329.304 277.62C329.104 277.473 328.918 277.313 328.744 277.14V276.68L330.444 275C329.658 274.333 329.264 273.453 329.264 272.36C329.264 271.707 329.418 271.113 329.724 270.58C330.031 270.047 330.478 269.627 331.064 269.32C331.651 269 332.364 268.84 333.204 268.84C333.778 268.84 334.298 268.92 334.764 269.08H338.424V270.34L336.564 270.42C336.951 270.98 337.144 271.627 337.144 272.36C337.144 273.013 336.984 273.607 336.664 274.14C336.358 274.673 335.911 275.1 335.324 275.42C334.751 275.727 334.044 275.88 333.204 275.88ZM333.204 274.5C333.911 274.5 334.471 274.32 334.884 273.96C335.311 273.587 335.524 273.053 335.524 272.36C335.524 271.68 335.311 271.16 334.884 270.8C334.471 270.427 333.911 270.24 333.204 270.24C332.484 270.24 331.911 270.427 331.484 270.8C331.071 271.16 330.864 271.68 330.864 272.36C330.864 273.053 331.071 273.587 331.484 273.96C331.911 274.32 332.484 274.5 333.204 274.5ZM330.284 280.28C330.284 280.947 330.564 281.44 331.124 281.76C331.684 282.093 332.384 282.26 333.224 282.26C334.051 282.26 334.711 282.08 335.204 281.72C335.711 281.36 335.964 280.88 335.964 280.28C335.964 279.853 335.791 279.48 335.444 279.16C335.098 278.853 334.458 278.673 333.524 278.62C332.791 278.567 332.158 278.5 331.624 278.42C331.078 278.713 330.718 279.027 330.544 279.36C330.371 279.707 330.284 280.013 330.284 280.28ZM338.979 281.38L340.139 276.96H341.879L340.139 281.38H338.979ZM353.727 279.24C352.78 279.24 351.927 279.027 351.167 278.6C350.42 278.16 349.827 277.553 349.387 276.78C348.96 275.993 348.747 275.08 348.747 274.04C348.747 273 348.96 272.093 349.387 271.32C349.827 270.533 350.42 269.927 351.167 269.5C351.927 269.06 352.78 268.84 353.727 268.84C354.9 268.84 355.887 269.147 356.687 269.76C357.5 270.373 358.014 271.193 358.227 272.22H356.507C356.374 271.607 356.047 271.133 355.527 270.8C355.007 270.453 354.4 270.28 353.707 270.28C353.147 270.28 352.62 270.42 352.127 270.7C351.634 270.98 351.234 271.4 350.927 271.96C350.62 272.52 350.467 273.213 350.467 274.04C350.467 274.867 350.62 275.56 350.927 276.12C351.234 276.68 351.634 277.107 352.127 277.4C352.62 277.68 353.147 277.82 353.707 277.82C354.4 277.82 355.007 277.653 355.527 277.32C356.047 276.973 356.374 276.487 356.507 275.86H358.227C358.027 276.86 357.52 277.673 356.707 278.3C355.894 278.927 354.9 279.24 353.727 279.24ZM364.193 279.24C363.02 279.24 362.087 278.887 361.393 278.18C360.7 277.46 360.353 276.36 360.353 274.88V269.08H362.033V274.7C362.033 276.767 362.88 277.8 364.573 277.8C365.44 277.8 366.153 277.493 366.713 276.88C367.287 276.253 367.573 275.367 367.573 274.22V269.08H369.253V279H367.733L367.613 277.22C367.307 277.847 366.847 278.34 366.233 278.7C365.633 279.06 364.953 279.24 364.193 279.24ZM372.019 279V264.6H373.699V279H372.019ZM377.472 266.88C377.139 266.88 376.859 266.773 376.632 266.56C376.419 266.333 376.312 266.053 376.312 265.72C376.312 265.4 376.419 265.133 376.632 264.92C376.859 264.707 377.139 264.6 377.472 264.6C377.792 264.6 378.066 264.707 378.292 264.92C378.519 265.133 378.632 265.4 378.632 265.72C378.632 266.053 378.519 266.333 378.292 266.56C378.066 266.773 377.792 266.88 377.472 266.88ZM376.632 279V269.08H378.312V279H376.632ZM381.237 279V269.08H382.757L382.857 270.86C383.177 270.233 383.637 269.74 384.237 269.38C384.837 269.02 385.517 268.84 386.277 268.84C387.451 268.84 388.384 269.2 389.077 269.92C389.784 270.627 390.137 271.72 390.137 273.2V279H388.457V273.38C388.457 271.313 387.604 270.28 385.897 270.28C385.044 270.28 384.331 270.593 383.757 271.22C383.197 271.833 382.917 272.713 382.917 273.86V279H381.237ZM395.983 279.24C395.156 279.24 394.469 279.1 393.923 278.82C393.376 278.54 392.969 278.167 392.703 277.7C392.436 277.233 392.303 276.727 392.303 276.18C392.303 275.167 392.689 274.387 393.463 273.84C394.236 273.293 395.289 273.02 396.623 273.02H399.303V272.9C399.303 272.033 399.076 271.38 398.623 270.94C398.169 270.487 397.563 270.26 396.803 270.26C396.149 270.26 395.583 270.427 395.103 270.76C394.636 271.08 394.343 271.553 394.223 272.18H392.503C392.569 271.46 392.809 270.853 393.223 270.36C393.649 269.867 394.176 269.493 394.803 269.24C395.429 268.973 396.096 268.84 396.803 268.84C398.189 268.84 399.229 269.213 399.923 269.96C400.629 270.693 400.983 271.673 400.983 272.9V279H399.483L399.383 277.22C399.103 277.78 398.689 278.26 398.143 278.66C397.609 279.047 396.889 279.24 395.983 279.24ZM396.243 277.82C396.883 277.82 397.429 277.653 397.883 277.32C398.349 276.987 398.703 276.553 398.943 276.02C399.183 275.487 399.303 274.927 399.303 274.34V274.32H396.763C395.776 274.32 395.076 274.493 394.663 274.84C394.263 275.173 394.063 275.593 394.063 276.1C394.063 276.62 394.249 277.04 394.623 277.36C395.009 277.667 395.549 277.82 396.243 277.82ZM403.503 279V269.08H405.023L405.163 270.98C405.47 270.327 405.936 269.807 406.563 269.42C407.19 269.033 407.963 268.84 408.883 268.84V270.6H408.423C407.836 270.6 407.296 270.707 406.803 270.92C406.31 271.12 405.916 271.467 405.623 271.96C405.33 272.453 405.183 273.133 405.183 274V279H403.503ZM411.849 283.4L414.309 278.04H413.729L409.789 269.08H411.609L414.889 276.8L418.369 269.08H420.109L413.609 283.4H411.849ZM427.175 279V264.6H428.855V270.78C429.188 270.167 429.662 269.693 430.275 269.36C430.888 269.013 431.555 268.84 432.275 268.84C433.422 268.84 434.342 269.2 435.035 269.92C435.728 270.627 436.075 271.72 436.075 273.2V279H434.415V273.38C434.415 271.313 433.582 270.28 431.915 270.28C431.048 270.28 430.322 270.593 429.735 271.22C429.148 271.833 428.855 272.713 428.855 273.86V279H427.175ZM441.92 279.24C441.094 279.24 440.407 279.1 439.86 278.82C439.314 278.54 438.907 278.167 438.64 277.7C438.374 277.233 438.24 276.727 438.24 276.18C438.24 275.167 438.627 274.387 439.4 273.84C440.174 273.293 441.227 273.02 442.56 273.02H445.24V272.9C445.24 272.033 445.014 271.38 444.56 270.94C444.107 270.487 443.5 270.26 442.74 270.26C442.087 270.26 441.52 270.427 441.04 270.76C440.574 271.08 440.28 271.553 440.16 272.18H438.44C438.507 271.46 438.747 270.853 439.16 270.36C439.587 269.867 440.114 269.493 440.74 269.24C441.367 268.973 442.034 268.84 442.74 268.84C444.127 268.84 445.167 269.213 445.86 269.96C446.567 270.693 446.92 271.673 446.92 272.9V279H445.42L445.32 277.22C445.04 277.78 444.627 278.26 444.08 278.66C443.547 279.047 442.827 279.24 441.92 279.24ZM442.18 277.82C442.82 277.82 443.367 277.653 443.82 277.32C444.287 276.987 444.64 276.553 444.88 276.02C445.12 275.487 445.24 274.927 445.24 274.34V274.32H442.7C441.714 274.32 441.014 274.493 440.6 274.84C440.2 275.173 440 275.593 440 276.1C440 276.62 440.187 277.04 440.56 277.36C440.947 277.667 441.487 277.82 442.18 277.82ZM451.929 279L448.169 269.08H449.929L452.909 277.38L455.909 269.08H457.629L453.869 279H451.929ZM463.451 279.24C462.505 279.24 461.665 279.027 460.931 278.6C460.198 278.16 459.618 277.553 459.191 276.78C458.778 276.007 458.571 275.093 458.571 274.04C458.571 273 458.778 272.093 459.191 271.32C459.605 270.533 460.178 269.927 460.911 269.5C461.658 269.06 462.518 268.84 463.491 268.84C464.451 268.84 465.278 269.06 465.971 269.5C466.678 269.927 467.218 270.493 467.591 271.2C467.965 271.907 468.151 272.667 468.151 273.48C468.151 273.627 468.145 273.773 468.131 273.92C468.131 274.067 468.131 274.233 468.131 274.42H460.231C460.271 275.18 460.445 275.813 460.751 276.32C461.071 276.813 461.465 277.187 461.931 277.44C462.411 277.693 462.918 277.82 463.451 277.82C464.145 277.82 464.725 277.66 465.191 277.34C465.658 277.02 465.998 276.587 466.211 276.04H467.871C467.605 276.96 467.091 277.727 466.331 278.34C465.585 278.94 464.625 279.24 463.451 279.24ZM463.451 270.26C462.651 270.26 461.938 270.507 461.311 271C460.698 271.48 460.345 272.187 460.251 273.12H466.491C466.451 272.227 466.145 271.527 465.571 271.02C464.998 270.513 464.291 270.26 463.451 270.26ZM470.378 279V269.08H471.898L471.998 270.86C472.318 270.233 472.778 269.74 473.378 269.38C473.978 269.02 474.658 268.84 475.418 268.84C476.591 268.84 477.525 269.2 478.218 269.92C478.925 270.627 479.278 271.72 479.278 273.2V279H477.598V273.38C477.598 271.313 476.745 270.28 475.038 270.28C474.185 270.28 473.471 270.593 472.898 271.22C472.338 271.833 472.058 272.713 472.058 273.86V279H470.378ZM482.403 279.1C482.07 279.1 481.79 278.993 481.563 278.78C481.35 278.553 481.243 278.28 481.243 277.96C481.243 277.64 481.35 277.373 481.563 277.16C481.79 276.933 482.07 276.82 482.403 276.82C482.723 276.82 482.99 276.933 483.203 277.16C483.43 277.373 483.543 277.64 483.543 277.96C483.543 278.28 483.43 278.553 483.203 278.78C482.99 278.993 482.723 279.1 482.403 279.1Z" fill="#2C2F24"/>
</svg>
