<svg width="545" height="176" viewBox="0 0 545 176" fill="none" xmlns="http://www.w3.org/2000/svg">
<path d="M174.514 19.2V21.2C172.248 21.2667 170.514 21.5333 169.314 22C168.181 22.4 167.414 23.2 167.014 24.4C166.614 25.5333 166.414 27.3333 166.414 29.8V79.4C166.414 81.8 166.614 83.6 167.014 84.8C167.414 86 168.181 86.8 169.314 87.2C170.514 87.5333 172.248 87.7 174.514 87.7H181.814C184.948 87.7 187.481 87.3667 189.414 86.7C191.414 86.0333 192.981 85 194.114 83.6C195.314 82.1333 196.214 80.2 196.814 77.8C197.414 75.4 197.881 72.4667 198.214 69H200.514C200.314 71.0667 200.214 73.8 200.214 77.2C200.214 78.4667 200.248 80.3 200.314 82.7C200.448 85.0333 200.648 87.4667 200.914 90C197.514 89.8667 193.681 89.8 189.414 89.8C185.148 89.7333 181.348 89.7 178.014 89.7C176.548 89.7 174.648 89.7 172.314 89.7C170.048 89.7 167.581 89.7333 164.914 89.8C162.248 89.8 159.548 89.8333 156.814 89.9C154.081 89.9 151.481 89.9333 149.014 90V88C151.281 87.8667 152.981 87.6 154.114 87.2C155.314 86.8 156.114 86 156.514 84.8C156.914 83.6 157.114 81.8 157.114 79.4V29.8C157.114 27.3333 156.914 25.5333 156.514 24.4C156.114 23.2 155.314 22.4 154.114 22C152.981 21.5333 151.281 21.2667 149.014 21.2V19.2C150.414 19.2667 152.248 19.3333 154.514 19.4C156.781 19.4667 159.214 19.5 161.814 19.5C164.148 19.5 166.448 19.4667 168.714 19.4C171.048 19.3333 172.981 19.2667 174.514 19.2ZM231.004 37.1C235.27 37.1 239.104 38.0333 242.504 39.9C245.904 41.7667 248.604 44.7 250.604 48.7C252.67 52.7 253.704 57.9 253.704 64.3C253.704 70.7 252.67 75.9 250.604 79.9C248.604 83.8333 245.904 86.7333 242.504 88.6C239.104 90.4667 235.27 91.4 231.004 91.4C226.804 91.4 222.97 90.4667 219.504 88.6C216.104 86.7333 213.37 83.8333 211.304 79.9C209.304 75.9 208.304 70.7 208.304 64.3C208.304 57.9 209.304 52.7 211.304 48.7C213.37 44.7 216.104 41.7667 219.504 39.9C222.97 38.0333 226.804 37.1 231.004 37.1ZM231.004 39.1C227.204 39.1 224.07 41.0667 221.604 45C219.204 48.9333 218.004 55.3667 218.004 64.3C218.004 73.2333 219.204 79.6667 221.604 83.6C224.07 87.4667 227.204 89.4 231.004 89.4C234.804 89.4 237.904 87.4667 240.304 83.6C242.77 79.6667 244.004 73.2333 244.004 64.3C244.004 55.3667 242.77 48.9333 240.304 45C237.904 41.0667 234.804 39.1 231.004 39.1ZM279.689 108.8C276.155 108.8 272.822 108.433 269.689 107.7C266.555 106.967 264.022 105.8 262.089 104.2C260.222 102.667 259.289 100.7 259.289 98.3C259.289 95.9667 260.222 93.9667 262.089 92.3C263.955 90.6333 266.489 89.3667 269.689 88.5L270.289 90.1C268.822 90.5667 267.655 91.5 266.789 92.9C265.922 94.3 265.489 95.8667 265.489 97.6C265.489 100.667 266.889 103 269.689 104.6C272.555 106.267 276.255 107.1 280.789 107.1C283.789 107.1 286.722 106.7 289.589 105.9C292.455 105.167 294.822 103.9 296.689 102.1C298.555 100.3 299.489 97.9333 299.489 95C299.489 92.8 298.689 91 297.089 89.6C295.555 88.1333 292.489 87.4 287.889 87.4H280.489C278.355 87.4 276.289 87.2333 274.289 86.9C272.289 86.5667 270.655 85.8667 269.389 84.8C268.122 83.7333 267.489 82.1 267.489 79.9C267.489 77.6333 268.422 75.4667 270.289 73.4C272.155 71.2667 275.589 69.1 280.589 66.9L281.789 67.8C279.522 69 277.555 70.2333 275.889 71.5C274.222 72.7 273.389 74.1333 273.389 75.8C273.389 77.9333 274.989 79 278.189 79H290.689C293.489 79 296.055 79.4 298.389 80.2C300.789 81 302.722 82.2667 304.189 84C305.655 85.7333 306.389 88 306.389 90.8C306.389 93.9333 305.389 96.8667 303.389 99.6C301.389 102.333 298.389 104.533 294.389 106.2C290.455 107.933 285.555 108.8 279.689 108.8ZM280.189 68.7C276.922 68.7 273.955 68.1667 271.289 67.1C268.622 65.9667 266.522 64.2333 264.989 61.9C263.455 59.5667 262.689 56.5667 262.689 52.9C262.689 49.2333 263.455 46.2333 264.989 43.9C266.522 41.5667 268.622 39.8667 271.289 38.8C273.955 37.6667 276.922 37.1 280.189 37.1C283.522 37.1 286.489 37.6667 289.089 38.8C291.755 39.8667 293.855 41.5667 295.389 43.9C296.922 46.2333 297.689 49.2333 297.689 52.9C297.689 56.5667 296.922 59.5667 295.389 61.9C293.855 64.2333 291.755 65.9667 289.089 67.1C286.489 68.1667 283.522 68.7 280.189 68.7ZM280.189 66.9C282.722 66.9 284.689 65.9 286.089 63.9C287.555 61.9 288.289 58.2333 288.289 52.9C288.289 47.5667 287.555 43.9 286.089 41.9C284.689 39.9 282.722 38.9 280.189 38.9C277.722 38.9 275.755 39.9 274.289 41.9C272.822 43.9 272.089 47.5667 272.089 52.9C272.089 58.2333 272.822 61.9 274.289 63.9C275.755 65.9 277.722 66.9 280.189 66.9ZM294.589 45.4L292.789 44.7C293.722 42.4333 295.322 40.4333 297.589 38.7C299.855 36.9667 302.222 36.1 304.689 36.1C306.422 36.1 307.822 36.6 308.889 37.6C309.955 38.5333 310.489 39.9667 310.489 41.9C310.489 43.9667 309.922 45.4333 308.789 46.3C307.722 47.1 306.622 47.5 305.489 47.5C304.489 47.5 303.555 47.1667 302.689 46.5C301.822 45.7667 301.322 44.6333 301.189 43.1C301.055 41.5667 301.522 39.6 302.589 37.2L303.889 37.5C301.089 38.5667 299.089 39.7 297.889 40.9C296.689 42.0333 295.589 43.5333 294.589 45.4ZM325.521 13.5C327.254 13.5 328.754 14.1333 330.021 15.4C331.287 16.6667 331.921 18.1667 331.921 19.9C331.921 21.6333 331.287 23.1333 330.021 24.4C328.754 25.6667 327.254 26.3 325.521 26.3C323.787 26.3 322.287 25.6667 321.021 24.4C319.754 23.1333 319.121 21.6333 319.121 19.9C319.121 18.1667 319.754 16.6667 321.021 15.4C322.287 14.1333 323.787 13.5 325.521 13.5ZM330.721 37.4V80.7C330.721 83.5 331.287 85.4 332.421 86.4C333.621 87.4 335.587 87.9 338.321 87.9V90C337.187 89.9333 335.454 89.8667 333.121 89.8C330.854 89.6667 328.554 89.6 326.221 89.6C323.954 89.6 321.654 89.6667 319.321 89.8C316.987 89.8667 315.254 89.9333 314.121 90V87.9C316.854 87.9 318.787 87.4 319.921 86.4C321.121 85.4 321.721 83.5 321.721 80.7V49.4C321.721 46.4 321.187 44.2 320.121 42.8C319.054 41.3333 317.054 40.6 314.121 40.6V38.5C316.254 38.7 318.321 38.8 320.321 38.8C322.254 38.8 324.087 38.7 325.821 38.5C327.621 38.2333 329.254 37.8667 330.721 37.4ZM377.018 37.1C379.551 37.1 381.651 37.4333 383.318 38.1C385.051 38.7667 386.484 39.7 387.618 40.9C388.884 42.2333 389.784 43.9 390.318 45.9C390.851 47.9 391.118 50.6 391.118 54V80.7C391.118 83.5 391.684 85.4 392.818 86.4C394.018 87.4 395.984 87.9 398.718 87.9V90C397.584 89.9333 395.851 89.8667 393.518 89.8C391.184 89.6667 388.918 89.6 386.718 89.6C384.518 89.6 382.351 89.6667 380.218 89.8C378.151 89.8667 376.584 89.9333 375.518 90V87.9C377.918 87.9 379.618 87.4 380.618 86.4C381.618 85.4 382.118 83.5 382.118 80.7V51.8C382.118 49.7333 381.951 47.8333 381.618 46.1C381.284 44.3667 380.518 42.9667 379.318 41.9C378.184 40.8333 376.418 40.3 374.018 40.3C371.218 40.3 368.751 41.1 366.618 42.7C364.551 44.3 362.918 46.5 361.718 49.3C360.584 52.0333 360.018 55.1 360.018 58.5V80.7C360.018 83.5 360.518 85.4 361.518 86.4C362.518 87.4 364.218 87.9 366.618 87.9V90C365.551 89.9333 363.951 89.8667 361.818 89.8C359.751 89.6667 357.618 89.6 355.418 89.6C353.218 89.6 350.951 89.6667 348.618 89.8C346.284 89.8667 344.551 89.9333 343.418 90V87.9C346.151 87.9 348.084 87.4 349.218 86.4C350.418 85.4 351.018 83.5 351.018 80.7V49.4C351.018 46.4 350.484 44.2 349.418 42.8C348.351 41.3333 346.351 40.6 343.418 40.6V38.5C345.551 38.7 347.618 38.8 349.618 38.8C351.551 38.8 353.384 38.7 355.118 38.5C356.918 38.2333 358.551 37.8667 360.018 37.4V49.2C361.751 44.6667 364.151 41.5333 367.218 39.8C370.351 38 373.618 37.1 377.018 37.1Z" fill="#2C2F24"/>
<path d="M9.79021 140L6.33421 127.4H7.95421L10.6722 138.2L13.7682 127.4H15.4422L18.4482 138.236L21.2022 127.4H22.8222L19.2942 140H17.5662L14.5602 129.578L11.4822 140H9.79021ZM27.6105 140.216C26.7585 140.216 26.0025 140.024 25.3425 139.64C24.6825 139.244 24.1605 138.692 23.7765 137.984C23.4045 137.264 23.2185 136.436 23.2185 135.5C23.2185 134.54 23.4045 133.712 23.7765 133.016C24.1485 132.308 24.6645 131.756 25.3245 131.36C25.9965 130.964 26.7705 130.766 27.6465 130.766C28.5225 130.766 29.2725 130.964 29.8965 131.36C30.5205 131.756 30.9945 132.272 31.3185 132.908C31.6545 133.544 31.8225 134.24 31.8225 134.996C31.8225 135.116 31.8225 135.248 31.8225 135.392C31.8225 135.524 31.8165 135.674 31.8045 135.842H24.3525V134.672H30.3285C30.2925 133.844 30.0165 133.202 29.5005 132.746C28.9965 132.278 28.3665 132.044 27.6105 132.044C27.0945 132.044 26.6145 132.164 26.1705 132.404C25.7265 132.632 25.3665 132.968 25.0905 133.412C24.8265 133.856 24.6945 134.414 24.6945 135.086V135.59C24.6945 136.322 24.8325 136.94 25.1085 137.444C25.3845 137.948 25.7445 138.326 26.1885 138.578C26.6325 138.818 27.1065 138.938 27.6105 138.938C28.2345 138.938 28.7505 138.8 29.1585 138.524C29.5785 138.236 29.8845 137.846 30.0765 137.354H31.5705C31.4145 137.906 31.1565 138.398 30.7965 138.83C30.4365 139.25 29.9865 139.586 29.4465 139.838C28.9185 140.09 28.3065 140.216 27.6105 140.216ZM42.7298 140.216C41.8778 140.216 41.1098 140.018 40.4258 139.622C39.7538 139.226 39.2198 138.674 38.8238 137.966C38.4398 137.258 38.2478 136.436 38.2478 135.5C38.2478 134.552 38.4398 133.724 38.8238 133.016C39.2198 132.308 39.7538 131.756 40.4258 131.36C41.1098 130.964 41.8778 130.766 42.7298 130.766C43.8098 130.766 44.7038 131.048 45.4118 131.612C46.1318 132.164 46.5938 132.908 46.7978 133.844H45.2498C45.1178 133.28 44.8178 132.842 44.3498 132.53C43.8818 132.218 43.3358 132.062 42.7118 132.062C42.2078 132.062 41.7338 132.194 41.2898 132.458C40.8458 132.71 40.4858 133.094 40.2098 133.61C39.9338 134.114 39.7958 134.744 39.7958 135.5C39.7958 136.052 39.8738 136.544 40.0298 136.976C40.1978 137.408 40.4138 137.774 40.6778 138.074C40.9538 138.362 41.2658 138.578 41.6138 138.722C41.9738 138.866 42.3398 138.938 42.7118 138.938C43.1318 138.938 43.5158 138.872 43.8638 138.74C44.2118 138.596 44.5058 138.392 44.7458 138.128C44.9978 137.852 45.1658 137.528 45.2498 137.156H46.7978C46.6058 138.068 46.1438 138.806 45.4118 139.37C44.6918 139.934 43.7978 140.216 42.7298 140.216ZM52.977 140.216C52.137 140.216 51.381 140.024 50.709 139.64C50.037 139.244 49.503 138.692 49.107 137.984C48.723 137.276 48.531 136.448 48.531 135.5C48.531 134.54 48.729 133.706 49.125 132.998C49.521 132.29 50.055 131.744 50.727 131.36C51.411 130.964 52.173 130.766 53.013 130.766C53.865 130.766 54.627 130.964 55.299 131.36C55.971 131.744 56.499 132.29 56.883 132.998C57.267 133.706 57.459 134.54 57.459 135.5C57.459 136.448 57.261 137.276 56.865 137.984C56.481 138.692 55.947 139.244 55.263 139.64C54.591 140.024 53.829 140.216 52.977 140.216ZM52.977 138.92C53.505 138.92 53.991 138.794 54.435 138.542C54.879 138.29 55.233 137.906 55.497 137.39C55.773 136.874 55.911 136.244 55.911 135.5C55.911 134.732 55.779 134.096 55.515 133.592C55.251 133.088 54.897 132.71 54.453 132.458C54.009 132.194 53.529 132.062 53.013 132.062C52.509 132.062 52.029 132.194 51.573 132.458C51.129 132.71 50.769 133.088 50.493 133.592C50.217 134.096 50.079 134.732 50.079 135.5C50.079 136.244 50.217 136.874 50.493 137.39C50.769 137.906 51.123 138.29 51.555 138.542C51.999 138.794 52.473 138.92 52.977 138.92ZM59.5789 140V130.982H60.9469L61.0369 132.584C61.3249 132.02 61.7389 131.576 62.2789 131.252C62.8189 130.928 63.4309 130.766 64.1149 130.766C64.8109 130.766 65.4169 130.91 65.9329 131.198C66.4489 131.474 66.8509 131.9 67.1389 132.476C67.4269 133.052 67.5709 133.778 67.5709 134.654V140H66.0589V134.816C66.0589 133.904 65.8609 133.22 65.4649 132.764C65.0689 132.296 64.5049 132.062 63.7729 132.062C63.2569 132.062 62.7949 132.188 62.3869 132.44C61.9909 132.692 61.6729 133.052 61.4329 133.52C61.2049 133.988 61.0909 134.564 61.0909 135.248V140H59.5789ZM73.3173 140.216C72.5853 140.216 71.9373 140.096 71.3733 139.856C70.8213 139.604 70.3773 139.25 70.0413 138.794C69.7053 138.338 69.4953 137.804 69.4113 137.192H70.9593C71.0313 137.516 71.1633 137.81 71.3553 138.074C71.5473 138.338 71.8113 138.548 72.1473 138.704C72.4833 138.86 72.8793 138.938 73.3353 138.938C73.7673 138.938 74.1153 138.878 74.3793 138.758C74.6553 138.626 74.8593 138.458 74.9913 138.254C75.1353 138.038 75.2073 137.804 75.2073 137.552C75.2073 137.18 75.1173 136.898 74.9373 136.706C74.7693 136.514 74.5173 136.364 74.1813 136.256C73.8453 136.148 73.4433 136.052 72.9753 135.968C72.5913 135.896 72.2073 135.8 71.8233 135.68C71.4513 135.548 71.1093 135.392 70.7973 135.212C70.4973 135.02 70.2573 134.78 70.0773 134.492C69.8973 134.204 69.8073 133.85 69.8073 133.43C69.8073 132.914 69.9393 132.458 70.2033 132.062C70.4793 131.654 70.8573 131.336 71.3373 131.108C71.8293 130.88 72.4113 130.766 73.0833 130.766C74.0433 130.766 74.8233 131 75.4233 131.468C76.0233 131.936 76.3773 132.614 76.4853 133.502H74.9913C74.9313 133.046 74.7333 132.692 74.3973 132.44C74.0733 132.176 73.6293 132.044 73.0653 132.044C72.5013 132.044 72.0693 132.158 71.7693 132.386C71.4813 132.614 71.3373 132.914 71.3373 133.286C71.3373 133.526 71.4213 133.736 71.5893 133.916C71.7573 134.096 71.9973 134.252 72.3093 134.384C72.6333 134.504 73.0233 134.612 73.4793 134.708C74.0673 134.816 74.6073 134.96 75.0993 135.14C75.5913 135.32 75.9873 135.584 76.2873 135.932C76.5993 136.28 76.7553 136.778 76.7553 137.426C76.7673 137.978 76.6293 138.464 76.3413 138.884C76.0533 139.304 75.6513 139.634 75.1353 139.874C74.6313 140.102 74.0253 140.216 73.3173 140.216ZM79.0769 140V130.982H80.5889V140H79.0769ZM79.8329 129.038C79.5329 129.038 79.2809 128.942 79.0769 128.75C78.8849 128.546 78.7889 128.294 78.7889 127.994C78.7889 127.694 78.8849 127.454 79.0769 127.274C79.2809 127.082 79.5329 126.986 79.8329 126.986C80.1209 126.986 80.3669 127.082 80.5709 127.274C80.7749 127.454 80.8769 127.694 80.8769 127.994C80.8769 128.294 80.7749 128.546 80.5709 128.75C80.3669 128.942 80.1209 129.038 79.8329 129.038ZM87.2535 140.216C86.3775 140.216 85.6035 140.012 84.9315 139.604C84.2715 139.184 83.7555 138.62 83.3835 137.912C83.0235 137.192 82.8435 136.382 82.8435 135.482C82.8435 134.57 83.0235 133.76 83.3835 133.052C83.7555 132.344 84.2775 131.786 84.9495 131.378C85.6215 130.97 86.3955 130.766 87.2715 130.766C88.0035 130.766 88.6515 130.916 89.2155 131.216C89.7795 131.516 90.2115 131.936 90.5115 132.476V127.04H92.0235V140H90.6555L90.5295 138.524C90.3375 138.812 90.0915 139.088 89.7915 139.352C89.4915 139.604 89.1315 139.814 88.7115 139.982C88.2915 140.138 87.8055 140.216 87.2535 140.216ZM87.4155 138.902C88.0155 138.902 88.5435 138.764 88.9995 138.488C89.4675 138.2 89.8275 137.804 90.0795 137.3C90.3315 136.784 90.4575 136.184 90.4575 135.5C90.4575 134.816 90.3315 134.222 90.0795 133.718C89.8275 133.202 89.4675 132.8 88.9995 132.512C88.5435 132.224 88.0155 132.08 87.4155 132.08C86.8395 132.08 86.3175 132.224 85.8495 132.512C85.3935 132.8 85.0335 133.202 84.7695 133.718C84.5175 134.222 84.3915 134.816 84.3915 135.5C84.3915 136.184 84.5175 136.784 84.7695 137.3C85.0335 137.804 85.3935 138.2 85.8495 138.488C86.3175 138.764 86.8395 138.902 87.4155 138.902ZM98.5382 140.216C97.6862 140.216 96.9302 140.024 96.2702 139.64C95.6102 139.244 95.0882 138.692 94.7042 137.984C94.3322 137.264 94.1462 136.436 94.1462 135.5C94.1462 134.54 94.3322 133.712 94.7042 133.016C95.0762 132.308 95.5922 131.756 96.2522 131.36C96.9242 130.964 97.6982 130.766 98.5742 130.766C99.4502 130.766 100.2 130.964 100.824 131.36C101.448 131.756 101.922 132.272 102.246 132.908C102.582 133.544 102.75 134.24 102.75 134.996C102.75 135.116 102.75 135.248 102.75 135.392C102.75 135.524 102.744 135.674 102.732 135.842H95.2802V134.672H101.256C101.22 133.844 100.944 133.202 100.428 132.746C99.9242 132.278 99.2942 132.044 98.5382 132.044C98.0222 132.044 97.5422 132.164 97.0982 132.404C96.6542 132.632 96.2942 132.968 96.0182 133.412C95.7542 133.856 95.6222 134.414 95.6222 135.086V135.59C95.6222 136.322 95.7602 136.94 96.0362 137.444C96.3122 137.948 96.6722 138.326 97.1162 138.578C97.5602 138.818 98.0342 138.938 98.5382 138.938C99.1622 138.938 99.6782 138.8 100.086 138.524C100.506 138.236 100.812 137.846 101.004 137.354H102.498C102.342 137.906 102.084 138.398 101.724 138.83C101.364 139.25 100.914 139.586 100.374 139.838C99.8462 140.09 99.2342 140.216 98.5382 140.216ZM104.772 140V130.982H106.14L106.266 132.71C106.458 132.302 106.71 131.954 107.022 131.666C107.346 131.378 107.73 131.156 108.174 131C108.618 130.844 109.122 130.766 109.686 130.766V132.35H109.2C108.804 132.35 108.426 132.404 108.066 132.512C107.718 132.608 107.406 132.77 107.13 132.998C106.866 133.226 106.656 133.538 106.5 133.934C106.356 134.318 106.284 134.804 106.284 135.392V140H104.772ZM119.133 140.216C118.389 140.216 117.771 140.09 117.279 139.838C116.799 139.586 116.439 139.25 116.199 138.83C115.959 138.398 115.839 137.93 115.839 137.426C115.839 136.814 115.995 136.298 116.307 135.878C116.631 135.458 117.081 135.14 117.657 134.924C118.245 134.696 118.929 134.582 119.709 134.582H122.121C122.121 134.018 122.031 133.55 121.851 133.178C121.683 132.806 121.431 132.524 121.095 132.332C120.759 132.14 120.351 132.044 119.871 132.044C119.295 132.044 118.791 132.194 118.359 132.494C117.939 132.782 117.681 133.202 117.585 133.754H116.037C116.109 133.118 116.325 132.578 116.685 132.134C117.057 131.69 117.525 131.354 118.089 131.126C118.653 130.886 119.247 130.766 119.871 130.766C120.699 130.766 121.389 130.922 121.941 131.234C122.505 131.534 122.925 131.96 123.201 132.512C123.489 133.052 123.633 133.694 123.633 134.438V140H122.283L122.193 138.398C122.073 138.65 121.917 138.89 121.725 139.118C121.545 139.334 121.329 139.526 121.077 139.694C120.837 139.85 120.555 139.976 120.231 140.072C119.907 140.168 119.541 140.216 119.133 140.216ZM119.367 138.938C119.799 138.938 120.183 138.854 120.519 138.686C120.855 138.506 121.143 138.266 121.383 137.966C121.635 137.666 121.821 137.33 121.941 136.958C122.061 136.574 122.121 136.184 122.121 135.788V135.752H119.835C119.259 135.752 118.791 135.824 118.431 135.968C118.071 136.1 117.813 136.286 117.657 136.526C117.501 136.766 117.423 137.042 117.423 137.354C117.423 137.678 117.495 137.96 117.639 138.2C117.795 138.44 118.017 138.626 118.305 138.758C118.593 138.878 118.947 138.938 119.367 138.938ZM125.936 140V127.04H127.448V140H125.936ZM129.944 140V127.04H131.456V140H129.944ZM142.297 140C141.757 140 141.289 139.916 140.893 139.748C140.497 139.58 140.191 139.298 139.975 138.902C139.771 138.494 139.669 137.948 139.669 137.264V132.26H138.103V130.982H139.669L139.867 128.822H141.181V130.982H143.809V132.26H141.181V137.264C141.181 137.828 141.295 138.212 141.523 138.416C141.751 138.608 142.153 138.704 142.729 138.704H143.683V140H142.297ZM145.747 140V127.04H147.259V132.512C147.559 131.972 147.979 131.546 148.519 131.234C149.071 130.922 149.677 130.766 150.337 130.766C151.021 130.766 151.621 130.91 152.137 131.198C152.653 131.474 153.049 131.9 153.325 132.476C153.613 133.052 153.757 133.784 153.757 134.672V140H152.263V134.834C152.263 133.922 152.071 133.232 151.687 132.764C151.303 132.296 150.745 132.062 150.013 132.062C149.497 132.062 149.029 132.188 148.609 132.44C148.189 132.692 147.859 133.058 147.619 133.538C147.379 134.006 147.259 134.582 147.259 135.266V140H145.747ZM160.097 140.216C159.245 140.216 158.489 140.024 157.829 139.64C157.169 139.244 156.647 138.692 156.263 137.984C155.891 137.264 155.705 136.436 155.705 135.5C155.705 134.54 155.891 133.712 156.263 133.016C156.635 132.308 157.151 131.756 157.811 131.36C158.483 130.964 159.257 130.766 160.133 130.766C161.009 130.766 161.759 130.964 162.383 131.36C163.007 131.756 163.481 132.272 163.805 132.908C164.141 133.544 164.309 134.24 164.309 134.996C164.309 135.116 164.309 135.248 164.309 135.392C164.309 135.524 164.303 135.674 164.291 135.842H156.839V134.672H162.815C162.779 133.844 162.503 133.202 161.987 132.746C161.483 132.278 160.853 132.044 160.097 132.044C159.581 132.044 159.101 132.164 158.657 132.404C158.213 132.632 157.853 132.968 157.577 133.412C157.313 133.856 157.181 134.414 157.181 135.086V135.59C157.181 136.322 157.319 136.94 157.595 137.444C157.871 137.948 158.231 138.326 158.675 138.578C159.119 138.818 159.593 138.938 160.097 138.938C160.721 138.938 161.237 138.8 161.645 138.524C162.065 138.236 162.371 137.846 162.563 137.354H164.057C163.901 137.906 163.643 138.398 163.283 138.83C162.923 139.25 162.473 139.586 161.933 139.838C161.405 140.09 160.793 140.216 160.097 140.216ZM175.144 140.216C174.268 140.216 173.494 140.012 172.822 139.604C172.162 139.184 171.646 138.62 171.274 137.912C170.914 137.192 170.734 136.382 170.734 135.482C170.734 134.57 170.914 133.76 171.274 133.052C171.646 132.344 172.168 131.786 172.84 131.378C173.512 130.97 174.286 130.766 175.162 130.766C175.894 130.766 176.542 130.916 177.106 131.216C177.67 131.516 178.102 131.936 178.402 132.476V127.04H179.914V140H178.546L178.42 138.524C178.228 138.812 177.982 139.088 177.682 139.352C177.382 139.604 177.022 139.814 176.602 139.982C176.182 140.138 175.696 140.216 175.144 140.216ZM175.306 138.902C175.906 138.902 176.434 138.764 176.89 138.488C177.358 138.2 177.718 137.804 177.97 137.3C178.222 136.784 178.348 136.184 178.348 135.5C178.348 134.816 178.222 134.222 177.97 133.718C177.718 133.202 177.358 132.8 176.89 132.512C176.434 132.224 175.906 132.08 175.306 132.08C174.73 132.08 174.208 132.224 173.74 132.512C173.284 132.8 172.924 133.202 172.66 133.718C172.408 134.222 172.282 134.816 172.282 135.5C172.282 136.184 172.408 136.784 172.66 137.3C172.924 137.804 173.284 138.2 173.74 138.488C174.208 138.764 174.73 138.902 175.306 138.902ZM182.415 140V130.982H183.783L183.909 132.71C184.101 132.302 184.353 131.954 184.665 131.666C184.989 131.378 185.373 131.156 185.817 131C186.261 130.844 186.765 130.766 187.329 130.766V132.35H186.843C186.447 132.35 186.069 132.404 185.709 132.512C185.361 132.608 185.049 132.77 184.773 132.998C184.509 133.226 184.299 133.538 184.143 133.934C183.999 134.318 183.927 134.804 183.927 135.392V140H182.415ZM189.186 140V130.982H190.698V140H189.186ZM189.942 129.038C189.642 129.038 189.39 128.942 189.186 128.75C188.994 128.546 188.898 128.294 188.898 127.994C188.898 127.694 188.994 127.454 189.186 127.274C189.39 127.082 189.642 126.986 189.942 126.986C190.23 126.986 190.476 127.082 190.68 127.274C190.884 127.454 190.986 127.694 190.986 127.994C190.986 128.294 190.884 128.546 190.68 128.75C190.476 128.942 190.23 129.038 189.942 129.038ZM195.941 140L192.521 130.982H194.105L196.823 138.542L199.541 130.982H201.089L197.687 140H195.941ZM206.327 140.216C205.475 140.216 204.719 140.024 204.059 139.64C203.399 139.244 202.877 138.692 202.493 137.984C202.121 137.264 201.935 136.436 201.935 135.5C201.935 134.54 202.121 133.712 202.493 133.016C202.865 132.308 203.381 131.756 204.041 131.36C204.713 130.964 205.487 130.766 206.363 130.766C207.239 130.766 207.989 130.964 208.613 131.36C209.237 131.756 209.711 132.272 210.035 132.908C210.371 133.544 210.539 134.24 210.539 134.996C210.539 135.116 210.539 135.248 210.539 135.392C210.539 135.524 210.533 135.674 210.521 135.842H203.069V134.672H209.045C209.009 133.844 208.733 133.202 208.217 132.746C207.713 132.278 207.083 132.044 206.327 132.044C205.811 132.044 205.331 132.164 204.887 132.404C204.443 132.632 204.083 132.968 203.807 133.412C203.543 133.856 203.411 134.414 203.411 135.086V135.59C203.411 136.322 203.549 136.94 203.825 137.444C204.101 137.948 204.461 138.326 204.905 138.578C205.349 138.818 205.823 138.938 206.327 138.938C206.951 138.938 207.467 138.8 207.875 138.524C208.295 138.236 208.601 137.846 208.793 137.354H210.287C210.131 137.906 209.873 138.398 209.513 138.83C209.153 139.25 208.703 139.586 208.163 139.838C207.635 140.09 207.023 140.216 206.327 140.216ZM212.561 140V130.982H213.929L214.055 132.71C214.247 132.302 214.499 131.954 214.811 131.666C215.135 131.378 215.519 131.156 215.963 131C216.407 130.844 216.911 130.766 217.475 130.766V132.35H216.989C216.593 132.35 216.215 132.404 215.855 132.512C215.507 132.608 215.195 132.77 214.919 132.998C214.655 133.226 214.445 133.538 214.289 133.934C214.145 134.318 214.073 134.804 214.073 135.392V140H212.561ZM222.591 140.216C221.859 140.216 221.211 140.096 220.647 139.856C220.095 139.604 219.651 139.25 219.315 138.794C218.979 138.338 218.769 137.804 218.685 137.192H220.233C220.305 137.516 220.437 137.81 220.629 138.074C220.821 138.338 221.085 138.548 221.421 138.704C221.757 138.86 222.153 138.938 222.609 138.938C223.041 138.938 223.389 138.878 223.653 138.758C223.929 138.626 224.133 138.458 224.265 138.254C224.409 138.038 224.481 137.804 224.481 137.552C224.481 137.18 224.391 136.898 224.211 136.706C224.043 136.514 223.791 136.364 223.455 136.256C223.119 136.148 222.717 136.052 222.249 135.968C221.865 135.896 221.481 135.8 221.097 135.68C220.725 135.548 220.383 135.392 220.071 135.212C219.771 135.02 219.531 134.78 219.351 134.492C219.171 134.204 219.081 133.85 219.081 133.43C219.081 132.914 219.213 132.458 219.477 132.062C219.753 131.654 220.131 131.336 220.611 131.108C221.103 130.88 221.685 130.766 222.357 130.766C223.317 130.766 224.097 131 224.697 131.468C225.297 131.936 225.651 132.614 225.759 133.502H224.265C224.205 133.046 224.007 132.692 223.671 132.44C223.347 132.176 222.903 132.044 222.339 132.044C221.775 132.044 221.343 132.158 221.043 132.386C220.755 132.614 220.611 132.914 220.611 133.286C220.611 133.526 220.695 133.736 220.863 133.916C221.031 134.096 221.271 134.252 221.583 134.384C221.907 134.504 222.297 134.612 222.753 134.708C223.341 134.816 223.881 134.96 224.373 135.14C224.865 135.32 225.261 135.584 225.561 135.932C225.873 136.28 226.029 136.778 226.029 137.426C226.041 137.978 225.903 138.464 225.615 138.884C225.327 139.304 224.925 139.634 224.409 139.874C223.905 140.102 223.299 140.216 222.591 140.216ZM237.038 140.216C236.198 140.216 235.442 140.024 234.77 139.64C234.098 139.244 233.564 138.692 233.168 137.984C232.784 137.276 232.592 136.448 232.592 135.5C232.592 134.54 232.79 133.706 233.186 132.998C233.582 132.29 234.116 131.744 234.788 131.36C235.472 130.964 236.234 130.766 237.074 130.766C237.926 130.766 238.688 130.964 239.36 131.36C240.032 131.744 240.56 132.29 240.944 132.998C241.328 133.706 241.52 134.54 241.52 135.5C241.52 136.448 241.322 137.276 240.926 137.984C240.542 138.692 240.008 139.244 239.324 139.64C238.652 140.024 237.89 140.216 237.038 140.216ZM237.038 138.92C237.566 138.92 238.052 138.794 238.496 138.542C238.94 138.29 239.294 137.906 239.558 137.39C239.834 136.874 239.972 136.244 239.972 135.5C239.972 134.732 239.84 134.096 239.576 133.592C239.312 133.088 238.958 132.71 238.514 132.458C238.07 132.194 237.59 132.062 237.074 132.062C236.57 132.062 236.09 132.194 235.634 132.458C235.19 132.71 234.83 133.088 234.554 133.592C234.278 134.096 234.14 134.732 234.14 135.5C234.14 136.244 234.278 136.874 234.554 137.39C234.83 137.906 235.184 138.29 235.616 138.542C236.06 138.794 236.534 138.92 237.038 138.92ZM244.143 140V129.524C244.143 128.948 244.239 128.48 244.431 128.12C244.623 127.748 244.905 127.478 245.277 127.31C245.661 127.13 246.129 127.04 246.681 127.04H247.653V128.336H246.915C246.471 128.336 246.147 128.426 245.943 128.606C245.751 128.786 245.655 129.104 245.655 129.56V140H244.143ZM242.775 132.26V130.982H247.905V132.26H242.775ZM258.589 140.216C257.737 140.216 256.969 140.018 256.285 139.622C255.613 139.226 255.079 138.674 254.683 137.966C254.299 137.258 254.107 136.436 254.107 135.5C254.107 134.552 254.299 133.724 254.683 133.016C255.079 132.308 255.613 131.756 256.285 131.36C256.969 130.964 257.737 130.766 258.589 130.766C259.669 130.766 260.563 131.048 261.271 131.612C261.991 132.164 262.453 132.908 262.657 133.844H261.109C260.977 133.28 260.677 132.842 260.209 132.53C259.741 132.218 259.195 132.062 258.571 132.062C258.067 132.062 257.593 132.194 257.149 132.458C256.705 132.71 256.345 133.094 256.069 133.61C255.793 134.114 255.655 134.744 255.655 135.5C255.655 136.052 255.733 136.544 255.889 136.976C256.057 137.408 256.273 137.774 256.537 138.074C256.813 138.362 257.125 138.578 257.473 138.722C257.833 138.866 258.199 138.938 258.571 138.938C258.991 138.938 259.375 138.872 259.723 138.74C260.071 138.596 260.365 138.392 260.605 138.128C260.857 137.852 261.025 137.528 261.109 137.156H262.657C262.465 138.068 262.003 138.806 261.271 139.37C260.551 139.934 259.657 140.216 258.589 140.216ZM264.768 140V127.04H266.28V132.512C266.58 131.972 267 131.546 267.54 131.234C268.092 130.922 268.698 130.766 269.358 130.766C270.042 130.766 270.642 130.91 271.158 131.198C271.674 131.474 272.07 131.9 272.346 132.476C272.634 133.052 272.778 133.784 272.778 134.672V140H271.284V134.834C271.284 133.922 271.092 133.232 270.708 132.764C270.324 132.296 269.766 132.062 269.034 132.062C268.518 132.062 268.05 132.188 267.63 132.44C267.21 132.692 266.88 133.058 266.64 133.538C266.4 134.006 266.28 134.582 266.28 135.266V140H264.768ZM278.074 140.216C277.33 140.216 276.712 140.09 276.22 139.838C275.74 139.586 275.38 139.25 275.14 138.83C274.9 138.398 274.78 137.93 274.78 137.426C274.78 136.814 274.936 136.298 275.248 135.878C275.572 135.458 276.022 135.14 276.598 134.924C277.186 134.696 277.87 134.582 278.65 134.582H281.062C281.062 134.018 280.972 133.55 280.792 133.178C280.624 132.806 280.372 132.524 280.036 132.332C279.7 132.14 279.292 132.044 278.812 132.044C278.236 132.044 277.732 132.194 277.3 132.494C276.88 132.782 276.622 133.202 276.526 133.754H274.978C275.05 133.118 275.266 132.578 275.626 132.134C275.998 131.69 276.466 131.354 277.03 131.126C277.594 130.886 278.188 130.766 278.812 130.766C279.64 130.766 280.33 130.922 280.882 131.234C281.446 131.534 281.866 131.96 282.142 132.512C282.43 133.052 282.574 133.694 282.574 134.438V140H281.224L281.134 138.398C281.014 138.65 280.858 138.89 280.666 139.118C280.486 139.334 280.27 139.526 280.018 139.694C279.778 139.85 279.496 139.976 279.172 140.072C278.848 140.168 278.482 140.216 278.074 140.216ZM278.308 138.938C278.74 138.938 279.124 138.854 279.46 138.686C279.796 138.506 280.084 138.266 280.324 137.966C280.576 137.666 280.762 137.33 280.882 136.958C281.002 136.574 281.062 136.184 281.062 135.788V135.752H278.776C278.2 135.752 277.732 135.824 277.372 135.968C277.012 136.1 276.754 136.286 276.598 136.526C276.442 136.766 276.364 137.042 276.364 137.354C276.364 137.678 276.436 137.96 276.58 138.2C276.736 138.44 276.958 138.626 277.246 138.758C277.534 138.878 277.888 138.938 278.308 138.938ZM284.878 140V130.982H286.246L286.336 132.584C286.624 132.02 287.038 131.576 287.578 131.252C288.118 130.928 288.73 130.766 289.414 130.766C290.11 130.766 290.716 130.91 291.232 131.198C291.748 131.474 292.15 131.9 292.438 132.476C292.726 133.052 292.87 133.778 292.87 134.654V140H291.358V134.816C291.358 133.904 291.16 133.22 290.764 132.764C290.368 132.296 289.804 132.062 289.072 132.062C288.556 132.062 288.094 132.188 287.686 132.44C287.29 132.692 286.972 133.052 286.732 133.52C286.504 133.988 286.39 134.564 286.39 135.248V140H284.878ZM298.778 144.176C297.962 144.176 297.242 144.068 296.618 143.852C295.994 143.648 295.502 143.33 295.142 142.898C294.794 142.466 294.62 141.932 294.62 141.296C294.62 141.032 294.674 140.744 294.782 140.432C294.902 140.12 295.1 139.814 295.376 139.514C295.664 139.214 296.066 138.944 296.582 138.704L297.626 139.316C297.002 139.58 296.588 139.88 296.384 140.216C296.192 140.552 296.096 140.864 296.096 141.152C296.096 141.548 296.21 141.878 296.438 142.142C296.678 142.406 296.996 142.604 297.392 142.736C297.8 142.868 298.262 142.934 298.778 142.934C299.282 142.934 299.72 142.856 300.092 142.7C300.464 142.556 300.752 142.352 300.956 142.088C301.16 141.824 301.262 141.518 301.262 141.17C301.262 140.762 301.106 140.414 300.794 140.126C300.482 139.85 299.894 139.688 299.03 139.64C298.322 139.592 297.728 139.526 297.248 139.442C296.78 139.358 296.384 139.262 296.06 139.154C295.748 139.034 295.484 138.902 295.268 138.758C295.064 138.614 294.878 138.464 294.71 138.308V137.894L296.474 136.148L297.77 136.616L295.97 138.254L296.204 137.624C296.336 137.72 296.462 137.81 296.582 137.894C296.702 137.978 296.864 138.05 297.068 138.11C297.284 138.17 297.572 138.224 297.932 138.272C298.292 138.32 298.772 138.368 299.372 138.416C300.188 138.476 300.842 138.62 301.334 138.848C301.838 139.076 302.198 139.382 302.414 139.766C302.642 140.15 302.756 140.6 302.756 141.116C302.756 141.62 302.612 142.106 302.324 142.574C302.048 143.042 301.616 143.426 301.028 143.726C300.44 144.026 299.69 144.176 298.778 144.176ZM298.76 137.174C298.004 137.174 297.356 137.03 296.816 136.742C296.288 136.454 295.886 136.07 295.61 135.59C295.334 135.11 295.196 134.57 295.196 133.97C295.196 133.382 295.334 132.848 295.61 132.368C295.898 131.888 296.306 131.504 296.834 131.216C297.362 130.916 298.004 130.766 298.76 130.766C299.516 130.766 300.158 130.916 300.686 131.216C301.214 131.504 301.616 131.888 301.892 132.368C302.168 132.848 302.306 133.382 302.306 133.97C302.306 134.57 302.168 135.11 301.892 135.59C301.616 136.07 301.214 136.454 300.686 136.742C300.158 137.03 299.516 137.174 298.76 137.174ZM298.76 135.932C299.396 135.932 299.9 135.764 300.272 135.428C300.656 135.092 300.848 134.606 300.848 133.97C300.848 133.346 300.656 132.866 300.272 132.53C299.9 132.194 299.396 132.026 298.76 132.026C298.124 132.026 297.608 132.194 297.212 132.53C296.828 132.866 296.636 133.346 296.636 133.97C296.636 134.606 296.828 135.092 297.212 135.428C297.596 135.764 298.112 135.932 298.76 135.932ZM300.218 132.26L299.768 130.982H303.476V132.116L300.218 132.26ZM308.843 140.216C307.991 140.216 307.235 140.024 306.575 139.64C305.915 139.244 305.393 138.692 305.009 137.984C304.637 137.264 304.451 136.436 304.451 135.5C304.451 134.54 304.637 133.712 305.009 133.016C305.381 132.308 305.897 131.756 306.557 131.36C307.229 130.964 308.003 130.766 308.879 130.766C309.755 130.766 310.505 130.964 311.129 131.36C311.753 131.756 312.227 132.272 312.551 132.908C312.887 133.544 313.055 134.24 313.055 134.996C313.055 135.116 313.055 135.248 313.055 135.392C313.055 135.524 313.049 135.674 313.037 135.842H305.585V134.672H311.561C311.525 133.844 311.249 133.202 310.733 132.746C310.229 132.278 309.599 132.044 308.843 132.044C308.327 132.044 307.847 132.164 307.403 132.404C306.959 132.632 306.599 132.968 306.323 133.412C306.059 133.856 305.927 134.414 305.927 135.086V135.59C305.927 136.322 306.065 136.94 306.341 137.444C306.617 137.948 306.977 138.326 307.421 138.578C307.865 138.818 308.339 138.938 308.843 138.938C309.467 138.938 309.983 138.8 310.391 138.524C310.811 138.236 311.117 137.846 311.309 137.354H312.803C312.647 137.906 312.389 138.398 312.029 138.83C311.669 139.25 311.219 139.586 310.679 139.838C310.151 140.09 309.539 140.216 308.843 140.216ZM323.44 144.176C322.624 144.176 321.904 144.068 321.28 143.852C320.656 143.648 320.164 143.33 319.804 142.898C319.456 142.466 319.282 141.932 319.282 141.296C319.282 141.032 319.336 140.744 319.444 140.432C319.564 140.12 319.762 139.814 320.038 139.514C320.326 139.214 320.728 138.944 321.244 138.704L322.288 139.316C321.664 139.58 321.25 139.88 321.046 140.216C320.854 140.552 320.758 140.864 320.758 141.152C320.758 141.548 320.872 141.878 321.1 142.142C321.34 142.406 321.658 142.604 322.054 142.736C322.462 142.868 322.924 142.934 323.44 142.934C323.944 142.934 324.382 142.856 324.754 142.7C325.126 142.556 325.414 142.352 325.618 142.088C325.822 141.824 325.924 141.518 325.924 141.17C325.924 140.762 325.768 140.414 325.456 140.126C325.144 139.85 324.556 139.688 323.692 139.64C322.984 139.592 322.39 139.526 321.91 139.442C321.442 139.358 321.046 139.262 320.722 139.154C320.41 139.034 320.146 138.902 319.93 138.758C319.726 138.614 319.54 138.464 319.372 138.308V137.894L321.136 136.148L322.432 136.616L320.632 138.254L320.866 137.624C320.998 137.72 321.124 137.81 321.244 137.894C321.364 137.978 321.526 138.05 321.73 138.11C321.946 138.17 322.234 138.224 322.594 138.272C322.954 138.32 323.434 138.368 324.034 138.416C324.85 138.476 325.504 138.62 325.996 138.848C326.5 139.076 326.86 139.382 327.076 139.766C327.304 140.15 327.418 140.6 327.418 141.116C327.418 141.62 327.274 142.106 326.986 142.574C326.71 143.042 326.278 143.426 325.69 143.726C325.102 144.026 324.352 144.176 323.44 144.176ZM323.422 137.174C322.666 137.174 322.018 137.03 321.478 136.742C320.95 136.454 320.548 136.07 320.272 135.59C319.996 135.11 319.858 134.57 319.858 133.97C319.858 133.382 319.996 132.848 320.272 132.368C320.56 131.888 320.968 131.504 321.496 131.216C322.024 130.916 322.666 130.766 323.422 130.766C324.178 130.766 324.82 130.916 325.348 131.216C325.876 131.504 326.278 131.888 326.554 132.368C326.83 132.848 326.968 133.382 326.968 133.97C326.968 134.57 326.83 135.11 326.554 135.59C326.278 136.07 325.876 136.454 325.348 136.742C324.82 137.03 324.178 137.174 323.422 137.174ZM323.422 135.932C324.058 135.932 324.562 135.764 324.934 135.428C325.318 135.092 325.51 134.606 325.51 133.97C325.51 133.346 325.318 132.866 324.934 132.53C324.562 132.194 324.058 132.026 323.422 132.026C322.786 132.026 322.27 132.194 321.874 132.53C321.49 132.866 321.298 133.346 321.298 133.97C321.298 134.606 321.49 135.092 321.874 135.428C322.258 135.764 322.774 135.932 323.422 135.932ZM324.88 132.26L324.43 130.982H328.138V132.116L324.88 132.26ZM330.005 140V130.982H331.517V140H330.005ZM330.761 129.038C330.461 129.038 330.209 128.942 330.005 128.75C329.813 128.546 329.717 128.294 329.717 127.994C329.717 127.694 329.813 127.454 330.005 127.274C330.209 127.082 330.461 126.986 330.761 126.986C331.049 126.986 331.295 127.082 331.499 127.274C331.703 127.454 331.805 127.694 331.805 127.994C331.805 128.294 331.703 128.546 331.499 128.75C331.295 128.942 331.049 129.038 330.761 129.038ZM336.759 140L333.339 130.982H334.923L337.641 138.542L340.359 130.982H341.907L338.505 140H336.759ZM347.146 140.216C346.294 140.216 345.538 140.024 344.878 139.64C344.218 139.244 343.696 138.692 343.312 137.984C342.94 137.264 342.754 136.436 342.754 135.5C342.754 134.54 342.94 133.712 343.312 133.016C343.684 132.308 344.2 131.756 344.86 131.36C345.532 130.964 346.306 130.766 347.182 130.766C348.058 130.766 348.808 130.964 349.432 131.36C350.056 131.756 350.53 132.272 350.854 132.908C351.19 133.544 351.358 134.24 351.358 134.996C351.358 135.116 351.358 135.248 351.358 135.392C351.358 135.524 351.352 135.674 351.34 135.842H343.888V134.672H349.864C349.828 133.844 349.552 133.202 349.036 132.746C348.532 132.278 347.902 132.044 347.146 132.044C346.63 132.044 346.15 132.164 345.706 132.404C345.262 132.632 344.902 132.968 344.626 133.412C344.362 133.856 344.23 134.414 344.23 135.086V135.59C344.23 136.322 344.368 136.94 344.644 137.444C344.92 137.948 345.28 138.326 345.724 138.578C346.168 138.818 346.642 138.938 347.146 138.938C347.77 138.938 348.286 138.8 348.694 138.524C349.114 138.236 349.42 137.846 349.612 137.354H351.106C350.95 137.906 350.692 138.398 350.332 138.83C349.972 139.25 349.522 139.586 348.982 139.838C348.454 140.09 347.842 140.216 347.146 140.216ZM356.8 140.216C356.068 140.216 355.42 140.096 354.856 139.856C354.304 139.604 353.86 139.25 353.524 138.794C353.188 138.338 352.978 137.804 352.894 137.192H354.442C354.514 137.516 354.646 137.81 354.838 138.074C355.03 138.338 355.294 138.548 355.63 138.704C355.966 138.86 356.362 138.938 356.818 138.938C357.25 138.938 357.598 138.878 357.862 138.758C358.138 138.626 358.342 138.458 358.474 138.254C358.618 138.038 358.69 137.804 358.69 137.552C358.69 137.18 358.6 136.898 358.42 136.706C358.252 136.514 358 136.364 357.664 136.256C357.328 136.148 356.926 136.052 356.458 135.968C356.074 135.896 355.69 135.8 355.306 135.68C354.934 135.548 354.592 135.392 354.28 135.212C353.98 135.02 353.74 134.78 353.56 134.492C353.38 134.204 353.29 133.85 353.29 133.43C353.29 132.914 353.422 132.458 353.686 132.062C353.962 131.654 354.34 131.336 354.82 131.108C355.312 130.88 355.894 130.766 356.566 130.766C357.526 130.766 358.306 131 358.906 131.468C359.506 131.936 359.86 132.614 359.968 133.502H358.474C358.414 133.046 358.216 132.692 357.88 132.44C357.556 132.176 357.112 132.044 356.548 132.044C355.984 132.044 355.552 132.158 355.252 132.386C354.964 132.614 354.82 132.914 354.82 133.286C354.82 133.526 354.904 133.736 355.072 133.916C355.24 134.096 355.48 134.252 355.792 134.384C356.116 134.504 356.506 134.612 356.962 134.708C357.55 134.816 358.09 134.96 358.582 135.14C359.074 135.32 359.47 135.584 359.77 135.932C360.082 136.28 360.238 136.778 360.238 137.426C360.25 137.978 360.112 138.464 359.824 138.884C359.536 139.304 359.134 139.634 358.618 139.874C358.114 140.102 357.508 140.216 356.8 140.216ZM368.169 143.96L370.383 138.992H369.861L366.297 130.982H367.935L370.905 137.876L374.019 130.982H375.585L369.753 143.96H368.169ZM380.405 140.216C379.565 140.216 378.809 140.024 378.137 139.64C377.465 139.244 376.931 138.692 376.535 137.984C376.151 137.276 375.959 136.448 375.959 135.5C375.959 134.54 376.157 133.706 376.553 132.998C376.949 132.29 377.483 131.744 378.155 131.36C378.839 130.964 379.601 130.766 380.441 130.766C381.293 130.766 382.055 130.964 382.727 131.36C383.399 131.744 383.927 132.29 384.311 132.998C384.695 133.706 384.887 134.54 384.887 135.5C384.887 136.448 384.689 137.276 384.293 137.984C383.909 138.692 383.375 139.244 382.691 139.64C382.019 140.024 381.257 140.216 380.405 140.216ZM380.405 138.92C380.933 138.92 381.419 138.794 381.863 138.542C382.307 138.29 382.661 137.906 382.925 137.39C383.201 136.874 383.339 136.244 383.339 135.5C383.339 134.732 383.207 134.096 382.943 133.592C382.679 133.088 382.325 132.71 381.881 132.458C381.437 132.194 380.957 132.062 380.441 132.062C379.937 132.062 379.457 132.194 379.001 132.458C378.557 132.71 378.197 133.088 377.921 133.592C377.645 134.096 377.507 134.732 377.507 135.5C377.507 136.244 377.645 136.874 377.921 137.39C378.197 137.906 378.551 138.29 378.983 138.542C379.427 138.794 379.901 138.92 380.405 138.92ZM390.301 140.216C389.605 140.216 388.993 140.078 388.465 139.802C387.949 139.514 387.547 139.082 387.259 138.506C386.983 137.93 386.845 137.204 386.845 136.328V130.982H388.357V136.166C388.357 137.09 388.549 137.78 388.933 138.236C389.329 138.692 389.893 138.92 390.625 138.92C391.141 138.92 391.597 138.8 391.993 138.56C392.401 138.308 392.719 137.948 392.947 137.48C393.187 137 393.307 136.424 393.307 135.752V130.982H394.819V140H393.451L393.361 138.416C393.085 138.98 392.677 139.424 392.137 139.748C391.597 140.06 390.985 140.216 390.301 140.216ZM405.67 140C405.13 140 404.662 139.916 404.266 139.748C403.87 139.58 403.564 139.298 403.348 138.902C403.144 138.494 403.042 137.948 403.042 137.264V132.26H401.476V130.982H403.042L403.24 128.822H404.554V130.982H407.182V132.26H404.554V137.264C404.554 137.828 404.668 138.212 404.896 138.416C405.124 138.608 405.526 138.704 406.102 138.704H407.056V140H405.67ZM409.12 140V127.04H410.632V132.512C410.932 131.972 411.352 131.546 411.892 131.234C412.444 130.922 413.05 130.766 413.71 130.766C414.394 130.766 414.994 130.91 415.51 131.198C416.026 131.474 416.422 131.9 416.698 132.476C416.986 133.052 417.13 133.784 417.13 134.672V140H415.636V134.834C415.636 133.922 415.444 133.232 415.06 132.764C414.676 132.296 414.118 132.062 413.386 132.062C412.87 132.062 412.402 132.188 411.982 132.44C411.562 132.692 411.232 133.058 410.992 133.538C410.752 134.006 410.632 134.582 410.632 135.266V140H409.12ZM423.47 140.216C422.618 140.216 421.862 140.024 421.202 139.64C420.542 139.244 420.02 138.692 419.636 137.984C419.264 137.264 419.078 136.436 419.078 135.5C419.078 134.54 419.264 133.712 419.636 133.016C420.008 132.308 420.524 131.756 421.184 131.36C421.856 130.964 422.63 130.766 423.506 130.766C424.382 130.766 425.132 130.964 425.756 131.36C426.38 131.756 426.854 132.272 427.178 132.908C427.514 133.544 427.682 134.24 427.682 134.996C427.682 135.116 427.682 135.248 427.682 135.392C427.682 135.524 427.676 135.674 427.664 135.842H420.212V134.672H426.188C426.152 133.844 425.876 133.202 425.36 132.746C424.856 132.278 424.226 132.044 423.47 132.044C422.954 132.044 422.474 132.164 422.03 132.404C421.586 132.632 421.226 132.968 420.95 133.412C420.686 133.856 420.554 134.414 420.554 135.086V135.59C420.554 136.322 420.692 136.94 420.968 137.444C421.244 137.948 421.604 138.326 422.048 138.578C422.492 138.818 422.966 138.938 423.47 138.938C424.094 138.938 424.61 138.8 425.018 138.524C425.438 138.236 425.744 137.846 425.936 137.354H427.43C427.274 137.906 427.016 138.398 426.656 138.83C426.296 139.25 425.846 139.586 425.306 139.838C424.778 140.09 424.166 140.216 423.47 140.216ZM438.589 140.216C437.737 140.216 436.969 140.018 436.285 139.622C435.613 139.226 435.079 138.674 434.683 137.966C434.299 137.258 434.107 136.436 434.107 135.5C434.107 134.552 434.299 133.724 434.683 133.016C435.079 132.308 435.613 131.756 436.285 131.36C436.969 130.964 437.737 130.766 438.589 130.766C439.669 130.766 440.563 131.048 441.271 131.612C441.991 132.164 442.453 132.908 442.657 133.844H441.109C440.977 133.28 440.677 132.842 440.209 132.53C439.741 132.218 439.195 132.062 438.571 132.062C438.067 132.062 437.593 132.194 437.149 132.458C436.705 132.71 436.345 133.094 436.069 133.61C435.793 134.114 435.655 134.744 435.655 135.5C435.655 136.052 435.733 136.544 435.889 136.976C436.057 137.408 436.273 137.774 436.537 138.074C436.813 138.362 437.125 138.578 437.473 138.722C437.833 138.866 438.199 138.938 438.571 138.938C438.991 138.938 439.375 138.872 439.723 138.74C440.071 138.596 440.365 138.392 440.605 138.128C440.857 137.852 441.025 137.528 441.109 137.156H442.657C442.465 138.068 442.003 138.806 441.271 139.37C440.551 139.934 439.657 140.216 438.589 140.216ZM448.836 140.216C447.996 140.216 447.24 140.024 446.568 139.64C445.896 139.244 445.362 138.692 444.966 137.984C444.582 137.276 444.39 136.448 444.39 135.5C444.39 134.54 444.588 133.706 444.984 132.998C445.38 132.29 445.914 131.744 446.586 131.36C447.27 130.964 448.032 130.766 448.872 130.766C449.724 130.766 450.486 130.964 451.158 131.36C451.83 131.744 452.358 132.29 452.742 132.998C453.126 133.706 453.318 134.54 453.318 135.5C453.318 136.448 453.12 137.276 452.724 137.984C452.34 138.692 451.806 139.244 451.122 139.64C450.45 140.024 449.688 140.216 448.836 140.216ZM448.836 138.92C449.364 138.92 449.85 138.794 450.294 138.542C450.738 138.29 451.092 137.906 451.356 137.39C451.632 136.874 451.77 136.244 451.77 135.5C451.77 134.732 451.638 134.096 451.374 133.592C451.11 133.088 450.756 132.71 450.312 132.458C449.868 132.194 449.388 132.062 448.872 132.062C448.368 132.062 447.888 132.194 447.432 132.458C446.988 132.71 446.628 133.088 446.352 133.592C446.076 134.096 445.938 134.732 445.938 135.5C445.938 136.244 446.076 136.874 446.352 137.39C446.628 137.906 446.982 138.29 447.414 138.542C447.858 138.794 448.332 138.92 448.836 138.92ZM455.438 140V130.982H456.806L456.914 132.278C457.202 131.81 457.586 131.444 458.066 131.18C458.546 130.904 459.086 130.766 459.686 130.766C460.142 130.766 460.562 130.832 460.946 130.964C461.33 131.084 461.666 131.276 461.954 131.54C462.242 131.792 462.476 132.116 462.656 132.512C462.968 131.96 463.4 131.534 463.952 131.234C464.504 130.922 465.086 130.766 465.698 130.766C466.406 130.766 467.024 130.91 467.552 131.198C468.08 131.474 468.482 131.9 468.758 132.476C469.046 133.052 469.19 133.778 469.19 134.654V140H467.696V134.816C467.696 133.904 467.51 133.22 467.138 132.764C466.766 132.296 466.238 132.062 465.554 132.062C465.074 132.062 464.648 132.188 464.276 132.44C463.904 132.692 463.61 133.052 463.394 133.52C463.178 133.988 463.07 134.564 463.07 135.248V140H461.558V134.816C461.558 133.904 461.372 133.22 461 132.764C460.628 132.296 460.1 132.062 459.416 132.062C458.96 132.062 458.54 132.188 458.156 132.44C457.784 132.692 457.49 133.052 457.274 133.52C457.058 133.988 456.95 134.564 456.95 135.248V140H455.438ZM471.505 143.96V130.982H472.873L473.017 132.458C473.209 132.17 473.455 131.9 473.755 131.648C474.055 131.384 474.415 131.174 474.835 131.018C475.255 130.85 475.741 130.766 476.293 130.766C477.169 130.766 477.931 130.976 478.579 131.396C479.239 131.804 479.755 132.368 480.127 133.088C480.499 133.796 480.685 134.606 480.685 135.518C480.685 136.418 480.499 137.222 480.127 137.93C479.755 138.638 479.239 139.196 478.579 139.604C477.919 140.012 477.151 140.216 476.275 140.216C475.543 140.216 474.895 140.066 474.331 139.766C473.767 139.466 473.329 139.046 473.017 138.506V143.96H471.505ZM476.113 138.902C476.701 138.902 477.223 138.764 477.679 138.488C478.135 138.2 478.489 137.804 478.741 137.3C479.005 136.784 479.137 136.184 479.137 135.5C479.137 134.816 479.005 134.222 478.741 133.718C478.489 133.202 478.135 132.8 477.679 132.512C477.223 132.224 476.701 132.08 476.113 132.08C475.513 132.08 474.979 132.224 474.511 132.512C474.055 132.8 473.695 133.202 473.431 133.718C473.179 134.222 473.053 134.816 473.053 135.5C473.053 136.184 473.179 136.784 473.431 137.3C473.695 137.804 474.055 138.2 474.511 138.488C474.979 138.764 475.513 138.902 476.113 138.902ZM486.858 140.216C486.018 140.216 485.262 140.024 484.59 139.64C483.918 139.244 483.384 138.692 482.988 137.984C482.604 137.276 482.412 136.448 482.412 135.5C482.412 134.54 482.61 133.706 483.006 132.998C483.402 132.29 483.936 131.744 484.608 131.36C485.292 130.964 486.054 130.766 486.894 130.766C487.746 130.766 488.508 130.964 489.18 131.36C489.852 131.744 490.38 132.29 490.764 132.998C491.148 133.706 491.34 134.54 491.34 135.5C491.34 136.448 491.142 137.276 490.746 137.984C490.362 138.692 489.828 139.244 489.144 139.64C488.472 140.024 487.71 140.216 486.858 140.216ZM486.858 138.92C487.386 138.92 487.872 138.794 488.316 138.542C488.76 138.29 489.114 137.906 489.378 137.39C489.654 136.874 489.792 136.244 489.792 135.5C489.792 134.732 489.66 134.096 489.396 133.592C489.132 133.088 488.778 132.71 488.334 132.458C487.89 132.194 487.41 132.062 486.894 132.062C486.39 132.062 485.91 132.194 485.454 132.458C485.01 132.71 484.65 133.088 484.374 133.592C484.098 134.096 483.96 134.732 483.96 135.5C483.96 136.244 484.098 136.874 484.374 137.39C484.65 137.906 485.004 138.29 485.436 138.542C485.88 138.794 486.354 138.92 486.858 138.92ZM493.46 140V130.982H494.828L494.918 132.584C495.206 132.02 495.62 131.576 496.16 131.252C496.7 130.928 497.312 130.766 497.996 130.766C498.692 130.766 499.298 130.91 499.814 131.198C500.33 131.474 500.732 131.9 501.02 132.476C501.308 133.052 501.452 133.778 501.452 134.654V140H499.94V134.816C499.94 133.904 499.742 133.22 499.346 132.764C498.95 132.296 498.386 132.062 497.654 132.062C497.138 132.062 496.676 132.188 496.268 132.44C495.872 132.692 495.554 133.052 495.314 133.52C495.086 133.988 494.972 134.564 494.972 135.248V140H493.46ZM507.792 140.216C506.94 140.216 506.184 140.024 505.524 139.64C504.864 139.244 504.342 138.692 503.958 137.984C503.586 137.264 503.4 136.436 503.4 135.5C503.4 134.54 503.586 133.712 503.958 133.016C504.33 132.308 504.846 131.756 505.506 131.36C506.178 130.964 506.952 130.766 507.828 130.766C508.704 130.766 509.454 130.964 510.078 131.36C510.702 131.756 511.176 132.272 511.5 132.908C511.836 133.544 512.004 134.24 512.004 134.996C512.004 135.116 512.004 135.248 512.004 135.392C512.004 135.524 511.998 135.674 511.986 135.842H504.534V134.672H510.51C510.474 133.844 510.198 133.202 509.682 132.746C509.178 132.278 508.548 132.044 507.792 132.044C507.276 132.044 506.796 132.164 506.352 132.404C505.908 132.632 505.548 132.968 505.272 133.412C505.008 133.856 504.876 134.414 504.876 135.086V135.59C504.876 136.322 505.014 136.94 505.29 137.444C505.566 137.948 505.926 138.326 506.37 138.578C506.814 138.818 507.288 138.938 507.792 138.938C508.416 138.938 508.932 138.8 509.34 138.524C509.76 138.236 510.066 137.846 510.258 137.354H511.752C511.596 137.906 511.338 138.398 510.978 138.83C510.618 139.25 510.168 139.586 509.628 139.838C509.1 140.09 508.488 140.216 507.792 140.216ZM514.026 140V130.982H515.394L515.484 132.584C515.772 132.02 516.186 131.576 516.726 131.252C517.266 130.928 517.878 130.766 518.562 130.766C519.258 130.766 519.864 130.91 520.38 131.198C520.896 131.474 521.298 131.9 521.586 132.476C521.874 133.052 522.018 133.778 522.018 134.654V140H520.506V134.816C520.506 133.904 520.308 133.22 519.912 132.764C519.516 132.296 518.952 132.062 518.22 132.062C517.704 132.062 517.242 132.188 516.834 132.44C516.438 132.692 516.12 133.052 515.88 133.52C515.652 133.988 515.538 134.564 515.538 135.248V140H514.026ZM527.909 140C527.369 140 526.901 139.916 526.505 139.748C526.109 139.58 525.803 139.298 525.587 138.902C525.383 138.494 525.281 137.948 525.281 137.264V132.26H523.715V130.982H525.281L525.479 128.822H526.793V130.982H529.421V132.26H526.793V137.264C526.793 137.828 526.907 138.212 527.135 138.416C527.363 138.608 527.765 138.704 528.341 138.704H529.295V140H527.909ZM534.778 140.216C534.046 140.216 533.398 140.096 532.834 139.856C532.282 139.604 531.838 139.25 531.502 138.794C531.166 138.338 530.956 137.804 530.872 137.192H532.42C532.492 137.516 532.624 137.81 532.816 138.074C533.008 138.338 533.272 138.548 533.608 138.704C533.944 138.86 534.34 138.938 534.796 138.938C535.228 138.938 535.576 138.878 535.84 138.758C536.116 138.626 536.32 138.458 536.452 138.254C536.596 138.038 536.668 137.804 536.668 137.552C536.668 137.18 536.578 136.898 536.398 136.706C536.23 136.514 535.978 136.364 535.642 136.256C535.306 136.148 534.904 136.052 534.436 135.968C534.052 135.896 533.668 135.8 533.284 135.68C532.912 135.548 532.57 135.392 532.258 135.212C531.958 135.02 531.718 134.78 531.538 134.492C531.358 134.204 531.268 133.85 531.268 133.43C531.268 132.914 531.4 132.458 531.664 132.062C531.94 131.654 532.318 131.336 532.798 131.108C533.29 130.88 533.872 130.766 534.544 130.766C535.504 130.766 536.284 131 536.884 131.468C537.484 131.936 537.838 132.614 537.946 133.502H536.452C536.392 133.046 536.194 132.692 535.858 132.44C535.534 132.176 535.09 132.044 534.526 132.044C533.962 132.044 533.53 132.158 533.23 132.386C532.942 132.614 532.798 132.914 532.798 133.286C532.798 133.526 532.882 133.736 533.05 133.916C533.218 134.096 533.458 134.252 533.77 134.384C534.094 134.504 534.484 134.612 534.94 134.708C535.528 134.816 536.068 134.96 536.56 135.14C537.052 135.32 537.448 135.584 537.748 135.932C538.06 136.28 538.216 136.778 538.216 137.426C538.228 137.978 538.09 138.464 537.802 138.884C537.514 139.304 537.112 139.634 536.596 139.874C536.092 140.102 535.486 140.216 534.778 140.216ZM83.2974 171.96L85.5114 166.992H84.9894L81.4254 158.982H83.0634L86.0334 165.876L89.1474 158.982H90.7134L84.8814 171.96H83.2974ZM95.5336 168.216C94.6936 168.216 93.9376 168.024 93.2656 167.64C92.5936 167.244 92.0596 166.692 91.6636 165.984C91.2796 165.276 91.0876 164.448 91.0876 163.5C91.0876 162.54 91.2856 161.706 91.6816 160.998C92.0776 160.29 92.6116 159.744 93.2836 159.36C93.9676 158.964 94.7296 158.766 95.5696 158.766C96.4216 158.766 97.1836 158.964 97.8556 159.36C98.5276 159.744 99.0556 160.29 99.4396 160.998C99.8236 161.706 100.016 162.54 100.016 163.5C100.016 164.448 99.8176 165.276 99.4216 165.984C99.0376 166.692 98.5036 167.244 97.8196 167.64C97.1476 168.024 96.3856 168.216 95.5336 168.216ZM95.5336 166.92C96.0616 166.92 96.5476 166.794 96.9916 166.542C97.4356 166.29 97.7896 165.906 98.0536 165.39C98.3296 164.874 98.4676 164.244 98.4676 163.5C98.4676 162.732 98.3356 162.096 98.0716 161.592C97.8076 161.088 97.4536 160.71 97.0096 160.458C96.5656 160.194 96.0856 160.062 95.5696 160.062C95.0656 160.062 94.5856 160.194 94.1296 160.458C93.6856 160.71 93.3256 161.088 93.0496 161.592C92.7736 162.096 92.6356 162.732 92.6356 163.5C92.6356 164.244 92.7736 164.874 93.0496 165.39C93.3256 165.906 93.6796 166.29 94.1116 166.542C94.5556 166.794 95.0296 166.92 95.5336 166.92ZM105.43 168.216C104.734 168.216 104.122 168.078 103.594 167.802C103.078 167.514 102.676 167.082 102.388 166.506C102.112 165.93 101.974 165.204 101.974 164.328V158.982H103.486V164.166C103.486 165.09 103.678 165.78 104.062 166.236C104.458 166.692 105.022 166.92 105.754 166.92C106.27 166.92 106.726 166.8 107.122 166.56C107.53 166.308 107.848 165.948 108.076 165.48C108.316 165 108.436 164.424 108.436 163.752V158.982H109.948V168H108.58L108.49 166.416C108.214 166.98 107.806 167.424 107.266 167.748C106.726 168.06 106.114 168.216 105.43 168.216ZM117.235 168V158.982H118.603L118.693 160.584C118.981 160.02 119.395 159.576 119.935 159.252C120.475 158.928 121.087 158.766 121.771 158.766C122.467 158.766 123.073 158.91 123.589 159.198C124.105 159.474 124.507 159.9 124.795 160.476C125.083 161.052 125.227 161.778 125.227 162.654V168H123.715V162.816C123.715 161.904 123.517 161.22 123.121 160.764C122.725 160.296 122.161 160.062 121.429 160.062C120.913 160.062 120.451 160.188 120.043 160.44C119.647 160.692 119.329 161.052 119.089 161.52C118.861 161.988 118.747 162.564 118.747 163.248V168H117.235ZM131.568 168.216C130.716 168.216 129.96 168.024 129.3 167.64C128.64 167.244 128.118 166.692 127.734 165.984C127.362 165.264 127.176 164.436 127.176 163.5C127.176 162.54 127.362 161.712 127.734 161.016C128.106 160.308 128.622 159.756 129.282 159.36C129.954 158.964 130.728 158.766 131.604 158.766C132.48 158.766 133.23 158.964 133.854 159.36C134.478 159.756 134.952 160.272 135.276 160.908C135.612 161.544 135.78 162.24 135.78 162.996C135.78 163.116 135.78 163.248 135.78 163.392C135.78 163.524 135.774 163.674 135.762 163.842H128.31V162.672H134.286C134.25 161.844 133.974 161.202 133.458 160.746C132.954 160.278 132.324 160.044 131.568 160.044C131.052 160.044 130.572 160.164 130.128 160.404C129.684 160.632 129.324 160.968 129.048 161.412C128.784 161.856 128.652 162.414 128.652 163.086V163.59C128.652 164.322 128.79 164.94 129.066 165.444C129.342 165.948 129.702 166.326 130.146 166.578C130.59 166.818 131.064 166.938 131.568 166.938C132.192 166.938 132.708 166.8 133.116 166.524C133.536 166.236 133.842 165.846 134.034 165.354H135.528C135.372 165.906 135.114 166.398 134.754 166.83C134.394 167.25 133.944 167.586 133.404 167.838C132.876 168.09 132.264 168.216 131.568 168.216ZM141.816 168.216C140.964 168.216 140.208 168.024 139.548 167.64C138.888 167.244 138.366 166.692 137.982 165.984C137.61 165.264 137.424 164.436 137.424 163.5C137.424 162.54 137.61 161.712 137.982 161.016C138.354 160.308 138.87 159.756 139.53 159.36C140.202 158.964 140.976 158.766 141.852 158.766C142.728 158.766 143.478 158.964 144.102 159.36C144.726 159.756 145.2 160.272 145.524 160.908C145.86 161.544 146.028 162.24 146.028 162.996C146.028 163.116 146.028 163.248 146.028 163.392C146.028 163.524 146.022 163.674 146.01 163.842H138.558V162.672H144.534C144.498 161.844 144.222 161.202 143.706 160.746C143.202 160.278 142.572 160.044 141.816 160.044C141.3 160.044 140.82 160.164 140.376 160.404C139.932 160.632 139.572 160.968 139.296 161.412C139.032 161.856 138.9 162.414 138.9 163.086V163.59C138.9 164.322 139.038 164.94 139.314 165.444C139.59 165.948 139.95 166.326 140.394 166.578C140.838 166.818 141.312 166.938 141.816 166.938C142.44 166.938 142.956 166.8 143.364 166.524C143.784 166.236 144.09 165.846 144.282 165.354H145.776C145.62 165.906 145.362 166.398 145.002 166.83C144.642 167.25 144.192 167.586 143.652 167.838C143.124 168.09 142.512 168.216 141.816 168.216ZM152.082 168.216C151.206 168.216 150.432 168.012 149.76 167.604C149.1 167.184 148.584 166.62 148.212 165.912C147.852 165.192 147.672 164.382 147.672 163.482C147.672 162.57 147.852 161.76 148.212 161.052C148.584 160.344 149.106 159.786 149.778 159.378C150.45 158.97 151.224 158.766 152.1 158.766C152.832 158.766 153.48 158.916 154.044 159.216C154.608 159.516 155.04 159.936 155.34 160.476V155.04H156.852V168H155.484L155.358 166.524C155.166 166.812 154.92 167.088 154.62 167.352C154.32 167.604 153.96 167.814 153.54 167.982C153.12 168.138 152.634 168.216 152.082 168.216ZM152.244 166.902C152.844 166.902 153.372 166.764 153.828 166.488C154.296 166.2 154.656 165.804 154.908 165.3C155.16 164.784 155.286 164.184 155.286 163.5C155.286 162.816 155.16 162.222 154.908 161.718C154.656 161.202 154.296 160.8 153.828 160.512C153.372 160.224 152.844 160.08 152.244 160.08C151.668 160.08 151.146 160.224 150.678 160.512C150.222 160.8 149.862 161.202 149.598 161.718C149.346 162.222 149.22 162.816 149.22 163.5C149.22 164.184 149.346 164.784 149.598 165.3C149.862 165.804 150.222 166.2 150.678 166.488C151.146 166.764 151.668 166.902 152.244 166.902ZM167.698 168C167.158 168 166.69 167.916 166.294 167.748C165.898 167.58 165.592 167.298 165.376 166.902C165.172 166.494 165.07 165.948 165.07 165.264V160.26H163.504V158.982H165.07L165.268 156.822H166.582V158.982H169.21V160.26H166.582V165.264C166.582 165.828 166.696 166.212 166.924 166.416C167.152 166.608 167.554 166.704 168.13 166.704H169.084V168H167.698ZM174.969 168.216C174.129 168.216 173.373 168.024 172.701 167.64C172.029 167.244 171.495 166.692 171.099 165.984C170.715 165.276 170.523 164.448 170.523 163.5C170.523 162.54 170.721 161.706 171.117 160.998C171.513 160.29 172.047 159.744 172.719 159.36C173.403 158.964 174.165 158.766 175.005 158.766C175.857 158.766 176.619 158.964 177.291 159.36C177.963 159.744 178.491 160.29 178.875 160.998C179.259 161.706 179.451 162.54 179.451 163.5C179.451 164.448 179.253 165.276 178.857 165.984C178.473 166.692 177.939 167.244 177.255 167.64C176.583 168.024 175.821 168.216 174.969 168.216ZM174.969 166.92C175.497 166.92 175.983 166.794 176.427 166.542C176.871 166.29 177.225 165.906 177.489 165.39C177.765 164.874 177.903 164.244 177.903 163.5C177.903 162.732 177.771 162.096 177.507 161.592C177.243 161.088 176.889 160.71 176.445 160.458C176.001 160.194 175.521 160.062 175.005 160.062C174.501 160.062 174.021 160.194 173.565 160.458C173.121 160.71 172.761 161.088 172.485 161.592C172.209 162.096 172.071 162.732 172.071 163.5C172.071 164.244 172.209 164.874 172.485 165.39C172.761 165.906 173.115 166.29 173.547 166.542C173.991 166.794 174.465 166.92 174.969 166.92ZM190.456 168.216C189.604 168.216 188.836 168.018 188.152 167.622C187.48 167.226 186.946 166.674 186.55 165.966C186.166 165.258 185.974 164.436 185.974 163.5C185.974 162.552 186.166 161.724 186.55 161.016C186.946 160.308 187.48 159.756 188.152 159.36C188.836 158.964 189.604 158.766 190.456 158.766C191.536 158.766 192.43 159.048 193.138 159.612C193.858 160.164 194.32 160.908 194.524 161.844H192.976C192.844 161.28 192.544 160.842 192.076 160.53C191.608 160.218 191.062 160.062 190.438 160.062C189.934 160.062 189.46 160.194 189.016 160.458C188.572 160.71 188.212 161.094 187.936 161.61C187.66 162.114 187.522 162.744 187.522 163.5C187.522 164.052 187.6 164.544 187.756 164.976C187.924 165.408 188.14 165.774 188.404 166.074C188.68 166.362 188.992 166.578 189.34 166.722C189.7 166.866 190.066 166.938 190.438 166.938C190.858 166.938 191.242 166.872 191.59 166.74C191.938 166.596 192.232 166.392 192.472 166.128C192.724 165.852 192.892 165.528 192.976 165.156H194.524C194.332 166.068 193.87 166.806 193.138 167.37C192.418 167.934 191.524 168.216 190.456 168.216ZM196.636 168V155.04H198.148V160.512C198.448 159.972 198.868 159.546 199.408 159.234C199.96 158.922 200.566 158.766 201.226 158.766C201.91 158.766 202.51 158.91 203.026 159.198C203.542 159.474 203.938 159.9 204.214 160.476C204.502 161.052 204.646 161.784 204.646 162.672V168H203.152V162.834C203.152 161.922 202.96 161.232 202.576 160.764C202.192 160.296 201.634 160.062 200.902 160.062C200.386 160.062 199.918 160.188 199.498 160.44C199.078 160.692 198.748 161.058 198.508 161.538C198.268 162.006 198.148 162.582 198.148 163.266V168H196.636ZM209.941 168.216C209.197 168.216 208.579 168.09 208.087 167.838C207.607 167.586 207.247 167.25 207.007 166.83C206.767 166.398 206.647 165.93 206.647 165.426C206.647 164.814 206.803 164.298 207.115 163.878C207.439 163.458 207.889 163.14 208.465 162.924C209.053 162.696 209.737 162.582 210.517 162.582H212.929C212.929 162.018 212.839 161.55 212.659 161.178C212.491 160.806 212.239 160.524 211.903 160.332C211.567 160.14 211.159 160.044 210.679 160.044C210.103 160.044 209.599 160.194 209.167 160.494C208.747 160.782 208.489 161.202 208.393 161.754H206.845C206.917 161.118 207.133 160.578 207.493 160.134C207.865 159.69 208.333 159.354 208.897 159.126C209.461 158.886 210.055 158.766 210.679 158.766C211.507 158.766 212.197 158.922 212.749 159.234C213.313 159.534 213.733 159.96 214.009 160.512C214.297 161.052 214.441 161.694 214.441 162.438V168H213.091L213.001 166.398C212.881 166.65 212.725 166.89 212.533 167.118C212.353 167.334 212.137 167.526 211.885 167.694C211.645 167.85 211.363 167.976 211.039 168.072C210.715 168.168 210.349 168.216 209.941 168.216ZM210.175 166.938C210.607 166.938 210.991 166.854 211.327 166.686C211.663 166.506 211.951 166.266 212.191 165.966C212.443 165.666 212.629 165.33 212.749 164.958C212.869 164.574 212.929 164.184 212.929 163.788V163.752H210.643C210.067 163.752 209.599 163.824 209.239 163.968C208.879 164.1 208.621 164.286 208.465 164.526C208.309 164.766 208.231 165.042 208.231 165.354C208.231 165.678 208.303 165.96 208.447 166.2C208.603 166.44 208.825 166.626 209.113 166.758C209.401 166.878 209.755 166.938 210.175 166.938ZM216.745 168V158.982H218.113L218.203 160.584C218.491 160.02 218.905 159.576 219.445 159.252C219.985 158.928 220.597 158.766 221.281 158.766C221.977 158.766 222.583 158.91 223.099 159.198C223.615 159.474 224.017 159.9 224.305 160.476C224.593 161.052 224.737 161.778 224.737 162.654V168H223.225V162.816C223.225 161.904 223.027 161.22 222.631 160.764C222.235 160.296 221.671 160.062 220.939 160.062C220.423 160.062 219.961 160.188 219.553 160.44C219.157 160.692 218.839 161.052 218.599 161.52C218.371 161.988 218.257 162.564 218.257 163.248V168H216.745ZM230.645 172.176C229.829 172.176 229.109 172.068 228.485 171.852C227.861 171.648 227.369 171.33 227.009 170.898C226.661 170.466 226.487 169.932 226.487 169.296C226.487 169.032 226.541 168.744 226.649 168.432C226.769 168.12 226.967 167.814 227.243 167.514C227.531 167.214 227.933 166.944 228.449 166.704L229.493 167.316C228.869 167.58 228.455 167.88 228.251 168.216C228.059 168.552 227.963 168.864 227.963 169.152C227.963 169.548 228.077 169.878 228.305 170.142C228.545 170.406 228.863 170.604 229.259 170.736C229.667 170.868 230.129 170.934 230.645 170.934C231.149 170.934 231.587 170.856 231.959 170.7C232.331 170.556 232.619 170.352 232.823 170.088C233.027 169.824 233.129 169.518 233.129 169.17C233.129 168.762 232.973 168.414 232.661 168.126C232.349 167.85 231.761 167.688 230.897 167.64C230.189 167.592 229.595 167.526 229.115 167.442C228.647 167.358 228.251 167.262 227.927 167.154C227.615 167.034 227.351 166.902 227.135 166.758C226.931 166.614 226.745 166.464 226.577 166.308V165.894L228.341 164.148L229.637 164.616L227.837 166.254L228.071 165.624C228.203 165.72 228.329 165.81 228.449 165.894C228.569 165.978 228.731 166.05 228.935 166.11C229.151 166.17 229.439 166.224 229.799 166.272C230.159 166.32 230.639 166.368 231.239 166.416C232.055 166.476 232.709 166.62 233.201 166.848C233.705 167.076 234.065 167.382 234.281 167.766C234.509 168.15 234.623 168.6 234.623 169.116C234.623 169.62 234.479 170.106 234.191 170.574C233.915 171.042 233.483 171.426 232.895 171.726C232.307 172.026 231.557 172.176 230.645 172.176ZM230.627 165.174C229.871 165.174 229.223 165.03 228.683 164.742C228.155 164.454 227.753 164.07 227.477 163.59C227.201 163.11 227.063 162.57 227.063 161.97C227.063 161.382 227.201 160.848 227.477 160.368C227.765 159.888 228.173 159.504 228.701 159.216C229.229 158.916 229.871 158.766 230.627 158.766C231.383 158.766 232.025 158.916 232.553 159.216C233.081 159.504 233.483 159.888 233.759 160.368C234.035 160.848 234.173 161.382 234.173 161.97C234.173 162.57 234.035 163.11 233.759 163.59C233.483 164.07 233.081 164.454 232.553 164.742C232.025 165.03 231.383 165.174 230.627 165.174ZM230.627 163.932C231.263 163.932 231.767 163.764 232.139 163.428C232.523 163.092 232.715 162.606 232.715 161.97C232.715 161.346 232.523 160.866 232.139 160.53C231.767 160.194 231.263 160.026 230.627 160.026C229.991 160.026 229.475 160.194 229.079 160.53C228.695 160.866 228.503 161.346 228.503 161.97C228.503 162.606 228.695 163.092 229.079 163.428C229.463 163.764 229.979 163.932 230.627 163.932ZM232.085 160.26L231.635 158.982H235.343V160.116L232.085 160.26ZM240.71 168.216C239.858 168.216 239.102 168.024 238.442 167.64C237.782 167.244 237.26 166.692 236.876 165.984C236.504 165.264 236.318 164.436 236.318 163.5C236.318 162.54 236.504 161.712 236.876 161.016C237.248 160.308 237.764 159.756 238.424 159.36C239.096 158.964 239.87 158.766 240.746 158.766C241.622 158.766 242.372 158.964 242.996 159.36C243.62 159.756 244.094 160.272 244.418 160.908C244.754 161.544 244.922 162.24 244.922 162.996C244.922 163.116 244.922 163.248 244.922 163.392C244.922 163.524 244.916 163.674 244.904 163.842H237.452V162.672H243.428C243.392 161.844 243.116 161.202 242.6 160.746C242.096 160.278 241.466 160.044 240.71 160.044C240.194 160.044 239.714 160.164 239.27 160.404C238.826 160.632 238.466 160.968 238.19 161.412C237.926 161.856 237.794 162.414 237.794 163.086V163.59C237.794 164.322 237.932 164.94 238.208 165.444C238.484 165.948 238.844 166.326 239.288 166.578C239.732 166.818 240.206 166.938 240.71 166.938C241.334 166.938 241.85 166.8 242.258 166.524C242.678 166.236 242.984 165.846 243.176 165.354H244.67C244.514 165.906 244.256 166.398 243.896 166.83C243.536 167.25 243.086 167.586 242.546 167.838C242.018 168.09 241.406 168.216 240.71 168.216ZM255.289 168C254.749 168 254.281 167.916 253.885 167.748C253.489 167.58 253.183 167.298 252.967 166.902C252.763 166.494 252.661 165.948 252.661 165.264V160.26H251.095V158.982H252.661L252.859 156.822H254.173V158.982H256.801V160.26H254.173V165.264C254.173 165.828 254.287 166.212 254.515 166.416C254.743 166.608 255.145 166.704 255.721 166.704H256.675V168H255.289ZM262.561 168.216C261.721 168.216 260.965 168.024 260.293 167.64C259.621 167.244 259.087 166.692 258.691 165.984C258.307 165.276 258.115 164.448 258.115 163.5C258.115 162.54 258.313 161.706 258.709 160.998C259.105 160.29 259.639 159.744 260.311 159.36C260.995 158.964 261.757 158.766 262.597 158.766C263.449 158.766 264.211 158.964 264.883 159.36C265.555 159.744 266.083 160.29 266.467 160.998C266.851 161.706 267.043 162.54 267.043 163.5C267.043 164.448 266.845 165.276 266.449 165.984C266.065 166.692 265.531 167.244 264.847 167.64C264.175 168.024 263.413 168.216 262.561 168.216ZM262.561 166.92C263.089 166.92 263.575 166.794 264.019 166.542C264.463 166.29 264.817 165.906 265.081 165.39C265.357 164.874 265.495 164.244 265.495 163.5C265.495 162.732 265.363 162.096 265.099 161.592C264.835 161.088 264.481 160.71 264.037 160.458C263.593 160.194 263.113 160.062 262.597 160.062C262.093 160.062 261.613 160.194 261.157 160.458C260.713 160.71 260.353 161.088 260.077 161.592C259.801 162.096 259.663 162.732 259.663 163.5C259.663 164.244 259.801 164.874 260.077 165.39C260.353 165.906 260.707 166.29 261.139 166.542C261.583 166.794 262.057 166.92 262.561 166.92ZM278.048 168.216C277.196 168.216 276.428 168.018 275.744 167.622C275.072 167.226 274.538 166.674 274.142 165.966C273.758 165.258 273.566 164.436 273.566 163.5C273.566 162.552 273.758 161.724 274.142 161.016C274.538 160.308 275.072 159.756 275.744 159.36C276.428 158.964 277.196 158.766 278.048 158.766C279.128 158.766 280.022 159.048 280.73 159.612C281.45 160.164 281.912 160.908 282.116 161.844H280.568C280.436 161.28 280.136 160.842 279.668 160.53C279.2 160.218 278.654 160.062 278.03 160.062C277.526 160.062 277.052 160.194 276.608 160.458C276.164 160.71 275.804 161.094 275.528 161.61C275.252 162.114 275.114 162.744 275.114 163.5C275.114 164.052 275.192 164.544 275.348 164.976C275.516 165.408 275.732 165.774 275.996 166.074C276.272 166.362 276.584 166.578 276.932 166.722C277.292 166.866 277.658 166.938 278.03 166.938C278.45 166.938 278.834 166.872 279.182 166.74C279.53 166.596 279.824 166.392 280.064 166.128C280.316 165.852 280.484 165.528 280.568 165.156H282.116C281.924 166.068 281.462 166.806 280.73 167.37C280.01 167.934 279.116 168.216 278.048 168.216ZM284.227 168V158.982H285.595L285.721 160.71C285.913 160.302 286.165 159.954 286.477 159.666C286.801 159.378 287.185 159.156 287.629 159C288.073 158.844 288.577 158.766 289.141 158.766V160.35H288.655C288.259 160.35 287.881 160.404 287.521 160.512C287.173 160.608 286.861 160.77 286.585 160.998C286.321 161.226 286.111 161.538 285.955 161.934C285.811 162.318 285.739 162.804 285.739 163.392V168H284.227ZM294.517 168.216C293.665 168.216 292.909 168.024 292.249 167.64C291.589 167.244 291.067 166.692 290.683 165.984C290.311 165.264 290.125 164.436 290.125 163.5C290.125 162.54 290.311 161.712 290.683 161.016C291.055 160.308 291.571 159.756 292.231 159.36C292.903 158.964 293.677 158.766 294.553 158.766C295.429 158.766 296.179 158.964 296.803 159.36C297.427 159.756 297.901 160.272 298.225 160.908C298.561 161.544 298.729 162.24 298.729 162.996C298.729 163.116 298.729 163.248 298.729 163.392C298.729 163.524 298.723 163.674 298.711 163.842H291.259V162.672H297.235C297.199 161.844 296.923 161.202 296.407 160.746C295.903 160.278 295.273 160.044 294.517 160.044C294.001 160.044 293.521 160.164 293.077 160.404C292.633 160.632 292.273 160.968 291.997 161.412C291.733 161.856 291.601 162.414 291.601 163.086V163.59C291.601 164.322 291.739 164.94 292.015 165.444C292.291 165.948 292.651 166.326 293.095 166.578C293.539 166.818 294.013 166.938 294.517 166.938C295.141 166.938 295.657 166.8 296.065 166.524C296.485 166.236 296.791 165.846 296.983 165.354H298.477C298.321 165.906 298.063 166.398 297.703 166.83C297.343 167.25 296.893 167.586 296.353 167.838C295.825 168.09 295.213 168.216 294.517 168.216ZM303.721 168.216C302.977 168.216 302.359 168.09 301.867 167.838C301.387 167.586 301.027 167.25 300.787 166.83C300.547 166.398 300.427 165.93 300.427 165.426C300.427 164.814 300.583 164.298 300.895 163.878C301.219 163.458 301.669 163.14 302.245 162.924C302.833 162.696 303.517 162.582 304.297 162.582H306.709C306.709 162.018 306.619 161.55 306.439 161.178C306.271 160.806 306.019 160.524 305.683 160.332C305.347 160.14 304.939 160.044 304.459 160.044C303.883 160.044 303.379 160.194 302.947 160.494C302.527 160.782 302.269 161.202 302.173 161.754H300.625C300.697 161.118 300.913 160.578 301.273 160.134C301.645 159.69 302.113 159.354 302.677 159.126C303.241 158.886 303.835 158.766 304.459 158.766C305.287 158.766 305.977 158.922 306.529 159.234C307.093 159.534 307.513 159.96 307.789 160.512C308.077 161.052 308.221 161.694 308.221 162.438V168H306.871L306.781 166.398C306.661 166.65 306.505 166.89 306.313 167.118C306.133 167.334 305.917 167.526 305.665 167.694C305.425 167.85 305.143 167.976 304.819 168.072C304.495 168.168 304.129 168.216 303.721 168.216ZM303.955 166.938C304.387 166.938 304.771 166.854 305.107 166.686C305.443 166.506 305.731 166.266 305.971 165.966C306.223 165.666 306.409 165.33 306.529 164.958C306.649 164.574 306.709 164.184 306.709 163.788V163.752H304.423C303.847 163.752 303.379 163.824 303.019 163.968C302.659 164.1 302.401 164.286 302.245 164.526C302.089 164.766 302.011 165.042 302.011 165.354C302.011 165.678 302.083 165.96 302.227 166.2C302.383 166.44 302.605 166.626 302.893 166.758C303.181 166.878 303.535 166.938 303.955 166.938ZM313.842 168C313.302 168 312.834 167.916 312.438 167.748C312.042 167.58 311.736 167.298 311.52 166.902C311.316 166.494 311.214 165.948 311.214 165.264V160.26H309.648V158.982H311.214L311.412 156.822H312.726V158.982H315.354V160.26H312.726V165.264C312.726 165.828 312.84 166.212 313.068 166.416C313.296 166.608 313.698 166.704 314.274 166.704H315.228V168H313.842ZM321.06 168.216C320.208 168.216 319.452 168.024 318.792 167.64C318.132 167.244 317.61 166.692 317.226 165.984C316.854 165.264 316.668 164.436 316.668 163.5C316.668 162.54 316.854 161.712 317.226 161.016C317.598 160.308 318.114 159.756 318.774 159.36C319.446 158.964 320.22 158.766 321.096 158.766C321.972 158.766 322.722 158.964 323.346 159.36C323.97 159.756 324.444 160.272 324.768 160.908C325.104 161.544 325.272 162.24 325.272 162.996C325.272 163.116 325.272 163.248 325.272 163.392C325.272 163.524 325.266 163.674 325.254 163.842H317.802V162.672H323.778C323.742 161.844 323.466 161.202 322.95 160.746C322.446 160.278 321.816 160.044 321.06 160.044C320.544 160.044 320.064 160.164 319.62 160.404C319.176 160.632 318.816 160.968 318.54 161.412C318.276 161.856 318.144 162.414 318.144 163.086V163.59C318.144 164.322 318.282 164.94 318.558 165.444C318.834 165.948 319.194 166.326 319.638 166.578C320.082 166.818 320.556 166.938 321.06 166.938C321.684 166.938 322.2 166.8 322.608 166.524C323.028 166.236 323.334 165.846 323.526 165.354H325.02C324.864 165.906 324.606 166.398 324.246 166.83C323.886 167.25 323.436 167.586 322.896 167.838C322.368 168.09 321.756 168.216 321.06 168.216ZM335.045 168.216C334.301 168.216 333.683 168.09 333.191 167.838C332.711 167.586 332.351 167.25 332.111 166.83C331.871 166.398 331.751 165.93 331.751 165.426C331.751 164.814 331.907 164.298 332.219 163.878C332.543 163.458 332.993 163.14 333.569 162.924C334.157 162.696 334.841 162.582 335.621 162.582H338.033C338.033 162.018 337.943 161.55 337.763 161.178C337.595 160.806 337.343 160.524 337.007 160.332C336.671 160.14 336.263 160.044 335.783 160.044C335.207 160.044 334.703 160.194 334.271 160.494C333.851 160.782 333.593 161.202 333.497 161.754H331.949C332.021 161.118 332.237 160.578 332.597 160.134C332.969 159.69 333.437 159.354 334.001 159.126C334.565 158.886 335.159 158.766 335.783 158.766C336.611 158.766 337.301 158.922 337.853 159.234C338.417 159.534 338.837 159.96 339.113 160.512C339.401 161.052 339.545 161.694 339.545 162.438V168H338.195L338.105 166.398C337.985 166.65 337.829 166.89 337.637 167.118C337.457 167.334 337.241 167.526 336.989 167.694C336.749 167.85 336.467 167.976 336.143 168.072C335.819 168.168 335.453 168.216 335.045 168.216ZM335.279 166.938C335.711 166.938 336.095 166.854 336.431 166.686C336.767 166.506 337.055 166.266 337.295 165.966C337.547 165.666 337.733 165.33 337.853 164.958C337.973 164.574 338.033 164.184 338.033 163.788V163.752H335.747C335.171 163.752 334.703 163.824 334.343 163.968C333.983 164.1 333.725 164.286 333.569 164.526C333.413 164.766 333.335 165.042 333.335 165.354C333.335 165.678 333.407 165.96 333.551 166.2C333.707 166.44 333.929 166.626 334.217 166.758C334.505 166.878 334.859 166.938 335.279 166.938ZM350.194 168C349.654 168 349.186 167.916 348.79 167.748C348.394 167.58 348.088 167.298 347.872 166.902C347.668 166.494 347.566 165.948 347.566 165.264V160.26H346V158.982H347.566L347.764 156.822H349.078V158.982H351.706V160.26H349.078V165.264C349.078 165.828 349.192 166.212 349.42 166.416C349.648 166.608 350.05 166.704 350.626 166.704H351.58V168H350.194ZM353.643 168V158.982H355.011L355.137 160.71C355.329 160.302 355.581 159.954 355.893 159.666C356.217 159.378 356.601 159.156 357.045 159C357.489 158.844 357.993 158.766 358.557 158.766V160.35H358.071C357.675 160.35 357.297 160.404 356.937 160.512C356.589 160.608 356.277 160.77 356.001 160.998C355.737 161.226 355.527 161.538 355.371 161.934C355.227 162.318 355.155 162.804 355.155 163.392V168H353.643ZM363.547 168.216C362.851 168.216 362.239 168.078 361.711 167.802C361.195 167.514 360.793 167.082 360.505 166.506C360.229 165.93 360.091 165.204 360.091 164.328V158.982H361.603V164.166C361.603 165.09 361.795 165.78 362.179 166.236C362.575 166.692 363.139 166.92 363.871 166.92C364.387 166.92 364.843 166.8 365.239 166.56C365.647 166.308 365.965 165.948 366.193 165.48C366.433 165 366.553 164.424 366.553 163.752V158.982H368.065V168H366.697L366.607 166.416C366.331 166.98 365.923 167.424 365.383 167.748C364.843 168.06 364.231 168.216 363.547 168.216ZM370.571 168V155.04H372.083V168H370.571ZM375.569 171.96L377.783 166.992H377.261L373.697 158.982H375.335L378.305 165.876L381.419 158.982H382.985L377.153 171.96H375.569ZM389.362 168V155.04H390.874V160.512C391.174 159.972 391.594 159.546 392.134 159.234C392.686 158.922 393.292 158.766 393.952 158.766C394.636 158.766 395.236 158.91 395.752 159.198C396.268 159.474 396.664 159.9 396.94 160.476C397.228 161.052 397.372 161.784 397.372 162.672V168H395.878V162.834C395.878 161.922 395.686 161.232 395.302 160.764C394.918 160.296 394.36 160.062 393.628 160.062C393.112 160.062 392.644 160.188 392.224 160.44C391.804 160.692 391.474 161.058 391.234 161.538C390.994 162.006 390.874 162.582 390.874 163.266V168H389.362ZM402.668 168.216C401.924 168.216 401.306 168.09 400.814 167.838C400.334 167.586 399.974 167.25 399.734 166.83C399.494 166.398 399.374 165.93 399.374 165.426C399.374 164.814 399.53 164.298 399.842 163.878C400.166 163.458 400.616 163.14 401.192 162.924C401.78 162.696 402.464 162.582 403.244 162.582H405.656C405.656 162.018 405.566 161.55 405.386 161.178C405.218 160.806 404.966 160.524 404.63 160.332C404.294 160.14 403.886 160.044 403.406 160.044C402.83 160.044 402.326 160.194 401.894 160.494C401.474 160.782 401.216 161.202 401.12 161.754H399.572C399.644 161.118 399.86 160.578 400.22 160.134C400.592 159.69 401.06 159.354 401.624 159.126C402.188 158.886 402.782 158.766 403.406 158.766C404.234 158.766 404.924 158.922 405.476 159.234C406.04 159.534 406.46 159.96 406.736 160.512C407.024 161.052 407.168 161.694 407.168 162.438V168H405.818L405.728 166.398C405.608 166.65 405.452 166.89 405.26 167.118C405.08 167.334 404.864 167.526 404.612 167.694C404.372 167.85 404.09 167.976 403.766 168.072C403.442 168.168 403.076 168.216 402.668 168.216ZM402.902 166.938C403.334 166.938 403.718 166.854 404.054 166.686C404.39 166.506 404.678 166.266 404.918 165.966C405.17 165.666 405.356 165.33 405.476 164.958C405.596 164.574 405.656 164.184 405.656 163.788V163.752H403.37C402.794 163.752 402.326 163.824 401.966 163.968C401.606 164.1 401.348 164.286 401.192 164.526C401.036 164.766 400.958 165.042 400.958 165.354C400.958 165.678 401.03 165.96 401.174 166.2C401.33 166.44 401.552 166.626 401.84 166.758C402.128 166.878 402.482 166.938 402.902 166.938ZM409.471 171.96V158.982H410.839L410.983 160.458C411.175 160.17 411.421 159.9 411.721 159.648C412.021 159.384 412.381 159.174 412.801 159.018C413.221 158.85 413.707 158.766 414.259 158.766C415.135 158.766 415.897 158.976 416.545 159.396C417.205 159.804 417.721 160.368 418.093 161.088C418.465 161.796 418.651 162.606 418.651 163.518C418.651 164.418 418.465 165.222 418.093 165.93C417.721 166.638 417.205 167.196 416.545 167.604C415.885 168.012 415.117 168.216 414.241 168.216C413.509 168.216 412.861 168.066 412.297 167.766C411.733 167.466 411.295 167.046 410.983 166.506V171.96H409.471ZM414.079 166.902C414.667 166.902 415.189 166.764 415.645 166.488C416.101 166.2 416.455 165.804 416.707 165.3C416.971 164.784 417.103 164.184 417.103 163.5C417.103 162.816 416.971 162.222 416.707 161.718C416.455 161.202 416.101 160.8 415.645 160.512C415.189 160.224 414.667 160.08 414.079 160.08C413.479 160.08 412.945 160.224 412.477 160.512C412.021 160.8 411.661 161.202 411.397 161.718C411.145 162.222 411.019 162.816 411.019 163.5C411.019 164.184 411.145 164.784 411.397 165.3C411.661 165.804 412.021 166.2 412.477 166.488C412.945 166.764 413.479 166.902 414.079 166.902ZM420.757 171.96V158.982H422.125L422.269 160.458C422.461 160.17 422.707 159.9 423.007 159.648C423.307 159.384 423.667 159.174 424.087 159.018C424.507 158.85 424.993 158.766 425.545 158.766C426.421 158.766 427.183 158.976 427.831 159.396C428.491 159.804 429.007 160.368 429.379 161.088C429.751 161.796 429.937 162.606 429.937 163.518C429.937 164.418 429.751 165.222 429.379 165.93C429.007 166.638 428.491 167.196 427.831 167.604C427.171 168.012 426.403 168.216 425.527 168.216C424.795 168.216 424.147 168.066 423.583 167.766C423.019 167.466 422.581 167.046 422.269 166.506V171.96H420.757ZM425.365 166.902C425.953 166.902 426.475 166.764 426.931 166.488C427.387 166.2 427.741 165.804 427.993 165.3C428.257 164.784 428.389 164.184 428.389 163.5C428.389 162.816 428.257 162.222 427.993 161.718C427.741 161.202 427.387 160.8 426.931 160.512C426.475 160.224 425.953 160.08 425.365 160.08C424.765 160.08 424.231 160.224 423.763 160.512C423.307 160.8 422.947 161.202 422.683 161.718C422.431 162.222 422.305 162.816 422.305 163.5C422.305 164.184 422.431 164.784 422.683 165.3C422.947 165.804 423.307 166.2 423.763 166.488C424.231 166.764 424.765 166.902 425.365 166.902ZM436.056 168.216C435.204 168.216 434.448 168.024 433.788 167.64C433.128 167.244 432.606 166.692 432.222 165.984C431.85 165.264 431.664 164.436 431.664 163.5C431.664 162.54 431.85 161.712 432.222 161.016C432.594 160.308 433.11 159.756 433.77 159.36C434.442 158.964 435.216 158.766 436.092 158.766C436.968 158.766 437.718 158.964 438.342 159.36C438.966 159.756 439.44 160.272 439.764 160.908C440.1 161.544 440.268 162.24 440.268 162.996C440.268 163.116 440.268 163.248 440.268 163.392C440.268 163.524 440.262 163.674 440.25 163.842H432.798V162.672H438.774C438.738 161.844 438.462 161.202 437.946 160.746C437.442 160.278 436.812 160.044 436.056 160.044C435.54 160.044 435.06 160.164 434.616 160.404C434.172 160.632 433.812 160.968 433.536 161.412C433.272 161.856 433.14 162.414 433.14 163.086V163.59C433.14 164.322 433.278 164.94 433.554 165.444C433.83 165.948 434.19 166.326 434.634 166.578C435.078 166.818 435.552 166.938 436.056 166.938C436.68 166.938 437.196 166.8 437.604 166.524C438.024 166.236 438.33 165.846 438.522 165.354H440.016C439.86 165.906 439.602 166.398 439.242 166.83C438.882 167.25 438.432 167.586 437.892 167.838C437.364 168.09 436.752 168.216 436.056 168.216ZM442.29 168V158.982H443.658L443.748 160.584C444.036 160.02 444.45 159.576 444.99 159.252C445.53 158.928 446.142 158.766 446.826 158.766C447.522 158.766 448.128 158.91 448.644 159.198C449.16 159.474 449.562 159.9 449.85 160.476C450.138 161.052 450.282 161.778 450.282 162.654V168H448.77V162.816C448.77 161.904 448.572 161.22 448.176 160.764C447.78 160.296 447.216 160.062 446.484 160.062C445.968 160.062 445.506 160.188 445.098 160.44C444.702 160.692 444.384 161.052 444.144 161.52C443.916 161.988 443.802 162.564 443.802 163.248V168H442.29ZM456.028 168.216C455.296 168.216 454.648 168.096 454.084 167.856C453.532 167.604 453.088 167.25 452.752 166.794C452.416 166.338 452.206 165.804 452.122 165.192H453.67C453.742 165.516 453.874 165.81 454.066 166.074C454.258 166.338 454.522 166.548 454.858 166.704C455.194 166.86 455.59 166.938 456.046 166.938C456.478 166.938 456.826 166.878 457.09 166.758C457.366 166.626 457.57 166.458 457.702 166.254C457.846 166.038 457.918 165.804 457.918 165.552C457.918 165.18 457.828 164.898 457.648 164.706C457.48 164.514 457.228 164.364 456.892 164.256C456.556 164.148 456.154 164.052 455.686 163.968C455.302 163.896 454.918 163.8 454.534 163.68C454.162 163.548 453.82 163.392 453.508 163.212C453.208 163.02 452.968 162.78 452.788 162.492C452.608 162.204 452.518 161.85 452.518 161.43C452.518 160.914 452.65 160.458 452.914 160.062C453.19 159.654 453.568 159.336 454.048 159.108C454.54 158.88 455.122 158.766 455.794 158.766C456.754 158.766 457.534 159 458.134 159.468C458.734 159.936 459.088 160.614 459.196 161.502H457.702C457.642 161.046 457.444 160.692 457.108 160.44C456.784 160.176 456.34 160.044 455.776 160.044C455.212 160.044 454.78 160.158 454.48 160.386C454.192 160.614 454.048 160.914 454.048 161.286C454.048 161.526 454.132 161.736 454.3 161.916C454.468 162.096 454.708 162.252 455.02 162.384C455.344 162.504 455.734 162.612 456.19 162.708C456.778 162.816 457.318 162.96 457.81 163.14C458.302 163.32 458.698 163.584 458.998 163.932C459.31 164.28 459.466 164.778 459.466 165.426C459.478 165.978 459.34 166.464 459.052 166.884C458.764 167.304 458.362 167.634 457.846 167.874C457.342 168.102 456.736 168.216 456.028 168.216ZM462.166 168.09C461.866 168.09 461.614 167.994 461.41 167.802C461.218 167.598 461.122 167.352 461.122 167.064C461.122 166.776 461.218 166.536 461.41 166.344C461.614 166.14 461.866 166.038 462.166 166.038C462.466 166.038 462.712 166.14 462.904 166.344C463.096 166.536 463.192 166.776 463.192 167.064C463.192 167.352 463.096 167.598 462.904 167.802C462.712 167.994 462.466 168.09 462.166 168.09Z" fill="#495460"/>
</svg>
