<svg width="576" height="176" viewBox="0 0 576 176" fill="none" xmlns="http://www.w3.org/2000/svg">
<path d="M37.5605 52.5977C44.9173 53.5742 50.1582 55.6901 53.2832 58.9453C56.4082 62.168 57.9707 66.0579 57.9707 70.6152C57.9707 74.3913 56.9941 77.7441 55.041 80.6738C53.1204 83.6035 50.3535 85.8984 46.7402 87.5586C43.127 89.1862 38.8626 90 33.9473 90C32.6126 90 30.2689 89.9512 26.916 89.8535C23.5632 89.7559 20.1777 89.707 16.7598 89.707C11.291 89.707 7.1569 89.8047 4.35742 90V87.998C6.76628 87.9004 8.50781 87.64 9.58203 87.2168C10.6888 86.7936 11.4375 86.0124 11.8281 84.873C12.2513 83.7337 12.4629 81.9108 12.4629 79.4043V29.7949C12.4629 27.2884 12.2513 25.4655 11.8281 24.3262C11.4375 23.1868 10.6888 22.4056 9.58203 21.9824C8.50781 21.5592 6.76628 21.2988 4.35742 21.2012V19.1992C7.12435 19.3945 11.1934 19.4922 16.5645 19.4922C19.1686 19.4922 22.0332 19.4596 25.1582 19.3945C28.3158 19.3294 30.4805 19.2969 31.6523 19.2969C36.2096 19.2969 40.0671 19.9642 43.2246 21.2988C46.3822 22.6009 48.7585 24.4401 50.3535 26.8164C51.9486 29.1602 52.7461 31.8945 52.7461 35.0195C52.7461 38.8607 51.5254 42.3112 49.084 45.3711C46.6751 48.431 42.834 50.7747 37.5605 52.4023V52.5977ZM28.4785 52.4023C33.9147 52.4023 37.7233 50.9212 39.9043 47.959C42.0853 44.9967 43.1758 41.0417 43.1758 36.0938C43.1758 31.0807 42.069 27.3535 39.8555 24.9121C37.6419 22.4382 34.0775 21.2012 29.1621 21.2012C27.0788 21.2012 25.5163 21.4453 24.4746 21.9336C23.4329 22.3893 22.7168 23.2194 22.3262 24.4238C21.9355 25.6283 21.7402 27.4186 21.7402 29.7949V52.4023H28.4785ZM21.7402 79.4043C21.7402 81.8132 21.9355 83.5872 22.3262 84.7266C22.7168 85.8659 23.4329 86.6471 24.4746 87.0703C25.5163 87.4935 27.1113 87.7051 29.2598 87.7051C41.7272 87.7051 47.9609 81.862 47.9609 70.1758C47.9609 64.9349 46.5286 60.9473 43.6641 58.2129C40.832 55.4785 36.3236 54.1113 30.1387 54.1113H21.7402V79.4043ZM89.8555 37.1191C94.25 37.1191 98.14 38.0794 101.525 40C104.943 41.9206 107.629 44.9154 109.582 48.9844C111.568 53.0208 112.561 58.1315 112.561 64.3164C112.561 70.5013 111.568 75.612 109.582 79.6484C107.629 83.6849 104.943 86.6634 101.525 88.584C98.14 90.472 94.25 91.416 89.8555 91.416C85.4609 91.416 81.5547 90.472 78.1367 88.584C74.7513 86.6634 72.0658 83.6849 70.0801 79.6484C68.127 75.612 67.1504 70.5013 67.1504 64.3164C67.1504 58.1315 68.127 53.0208 70.0801 48.9844C72.0658 44.9154 74.7513 41.9206 78.1367 40C81.5547 38.0794 85.4609 37.1191 89.8555 37.1191ZM89.8555 39.1211C85.8516 39.1211 82.6777 41.1719 80.334 45.2734C78.0228 49.375 76.8672 55.7227 76.8672 64.3164C76.8672 72.8776 78.0228 79.209 80.334 83.3105C82.6777 87.3796 85.8516 89.4141 89.8555 89.4141C93.8594 89.4141 97.0169 87.3796 99.3281 83.3105C101.672 79.209 102.844 72.8776 102.844 64.3164C102.844 55.7227 101.672 49.375 99.3281 45.2734C97.0169 41.1719 93.8594 39.1211 89.8555 39.1211ZM144.641 37.1191C149.035 37.1191 152.925 38.0794 156.311 40C159.729 41.9206 162.414 44.9154 164.367 48.9844C166.353 53.0208 167.346 58.1315 167.346 64.3164C167.346 70.5013 166.353 75.612 164.367 79.6484C162.414 83.6849 159.729 86.6634 156.311 88.584C152.925 90.472 149.035 91.416 144.641 91.416C140.246 91.416 136.34 90.472 132.922 88.584C129.536 86.6634 126.851 83.6849 124.865 79.6484C122.912 75.612 121.936 70.5013 121.936 64.3164C121.936 58.1315 122.912 53.0208 124.865 48.9844C126.851 44.9154 129.536 41.9206 132.922 40C136.34 38.0794 140.246 37.1191 144.641 37.1191ZM144.641 39.1211C140.637 39.1211 137.463 41.1719 135.119 45.2734C132.808 49.375 131.652 55.7227 131.652 64.3164C131.652 72.8776 132.808 79.209 135.119 83.3105C137.463 87.3796 140.637 89.4141 144.641 89.4141C148.645 89.4141 151.802 87.3796 154.113 83.3105C156.457 79.209 157.629 72.8776 157.629 64.3164C157.629 55.7227 156.457 49.375 154.113 45.2734C151.802 41.1719 148.645 39.1211 144.641 39.1211ZM218.371 82.6758C219.608 84.3685 220.731 85.6217 221.74 86.4355C222.749 87.2168 223.954 87.7051 225.354 87.9004V90C221.317 89.7396 218.615 89.6094 217.248 89.6094C215.458 89.6094 211.763 89.7396 206.164 90V87.9004C207.108 87.9004 207.857 87.7214 208.41 87.3633C208.964 87.0052 209.24 86.5495 209.24 85.9961C209.24 85.5404 209.045 85.0358 208.654 84.4824L197.18 67.6855C195.975 65.9928 194.868 64.8535 193.859 64.2676C192.85 63.6816 191.451 63.3561 189.66 63.291V80.7227C189.66 82.5781 189.872 84.0267 190.295 85.0684C190.751 86.11 191.434 86.8424 192.346 87.2656C193.29 87.6888 194.592 87.9004 196.252 87.9004V90C190.653 89.7396 186.958 89.6094 185.168 89.6094C183.215 89.6094 179.178 89.7396 173.059 90V87.9004C174.947 87.9004 176.428 87.6888 177.502 87.2656C178.609 86.8424 179.406 86.11 179.895 85.0684C180.415 84.0267 180.676 82.5781 180.676 80.7227V23.5938C180.676 20.5013 180.106 18.2715 178.967 16.9043C177.86 15.5046 175.891 14.8047 173.059 14.8047V12.7051C175.174 12.9004 177.242 12.998 179.26 12.998C183.557 12.998 187.023 12.526 189.66 11.582V61.2402C191.613 60.9798 193.241 60.5404 194.543 59.9219C195.845 59.2708 197.082 58.3268 198.254 57.0898L205.676 49.4238C207.792 47.2103 208.85 45.3711 208.85 43.9062C208.85 42.7344 208.182 41.8717 206.848 41.3184C205.513 40.765 203.723 40.4883 201.477 40.4883V38.4863C206.099 38.7467 209.859 38.877 212.756 38.877C215.881 38.877 218.778 38.7467 221.447 38.4863V40.4883C218.192 40.7812 215.197 42.3438 212.463 45.1758L200.305 57.9688L218.371 82.6758ZM302.99 81.6016C304.618 85.7357 306.929 87.8678 309.924 87.998V90C307.189 89.8047 303.609 89.707 299.182 89.707C293.485 89.707 289.221 89.8047 286.389 90V87.998C288.928 87.9004 290.734 87.5911 291.809 87.0703C292.915 86.5495 293.469 85.6217 293.469 84.2871C293.469 83.1478 293.078 81.5853 292.297 79.5996L286.145 63.1934H262.023L257.922 73.7891C256.587 77.1745 255.92 79.9089 255.92 81.9922C255.92 84.1081 256.62 85.6217 258.02 86.5332C259.452 87.4447 261.649 87.9329 264.611 87.998V90C260.803 89.8047 256.962 89.707 253.088 89.707C250.093 89.707 247.603 89.8047 245.617 90V87.998C248.938 87.2493 251.558 84.3522 253.479 79.3066L277.014 18.7109H278.625L302.99 81.6016ZM274.23 31.3574L262.756 61.1914H285.412L274.23 31.3574ZM335.021 40.1953C335.217 38.0794 335.314 35.3451 335.314 31.9922C335.314 28.0859 335.07 23.8216 334.582 19.1992C340.116 19.3945 349.523 19.4922 362.805 19.4922C375.988 19.4922 385.347 19.3945 390.881 19.1992C390.425 23.9518 390.197 28.2161 390.197 31.9922C390.197 35.3451 390.295 38.0794 390.49 40.1953H388.195C387.674 35.0195 387.007 31.1947 386.193 28.7207C385.412 26.2142 384.012 24.3913 381.994 23.252C380.008 22.0801 376.949 21.4941 372.814 21.4941H367.395V78.3789C367.395 81.1458 367.655 83.1803 368.176 84.4824C368.697 85.752 369.641 86.6309 371.008 87.1191C372.375 87.6074 374.54 87.9004 377.502 87.998V90C373.986 89.8047 369.087 89.707 362.805 89.707C356.132 89.707 351.2 89.8047 348.01 90V87.998C350.972 87.9004 353.137 87.6074 354.504 87.1191C355.871 86.6309 356.815 85.752 357.336 84.4824C357.857 83.1803 358.117 81.1458 358.117 78.3789V21.4941H352.697C348.563 21.4941 345.487 22.0801 343.469 23.252C341.483 24.3913 340.083 26.2142 339.27 28.7207C338.488 31.1947 337.837 35.0195 337.316 40.1953H335.021ZM424.328 49.1797C424.328 45.306 423.514 42.6693 421.887 41.2695C420.292 39.8372 418.013 39.1211 415.051 39.1211C410.331 39.1211 407.027 40.3092 405.139 42.6855C406.473 43.0111 407.58 43.7272 408.459 44.834C409.37 45.9082 409.826 47.2266 409.826 48.7891C409.826 50.4818 409.289 51.8164 408.215 52.793C407.173 53.737 405.757 54.209 403.967 54.209C402.274 54.209 400.939 53.6393 399.963 52.5C399.019 51.3607 398.547 49.8633 398.547 48.0078C398.547 45.4036 400.109 43.0273 403.234 40.8789C404.862 39.8047 406.864 38.9095 409.24 38.1934C411.649 37.4772 414.318 37.1191 417.248 37.1191C419.982 37.1191 422.391 37.4609 424.475 38.1445C426.558 38.7956 428.186 39.707 429.357 40.8789C430.887 42.4414 431.929 44.2643 432.482 46.3477C433.068 48.3984 433.361 51.2467 433.361 54.8926V82.6758C433.361 84.3359 433.589 85.5404 434.045 86.2891C434.533 87.0378 435.331 87.4121 436.438 87.4121C437.251 87.4121 438 87.2331 438.684 86.875C439.367 86.5169 440.116 85.9961 440.93 85.3125L442.053 87.0215C440.881 87.9004 439.904 88.584 439.123 89.0723C438.342 89.5605 437.447 89.9512 436.438 90.2441C435.428 90.5371 434.257 90.6836 432.922 90.6836C429.699 90.6836 427.453 89.8861 426.184 88.291C424.947 86.6634 424.328 84.4987 424.328 81.7969C422.375 85.0195 420.031 87.3145 417.297 88.6816C414.562 90.0163 411.779 90.6836 408.947 90.6836C406.636 90.6836 404.52 90.293 402.6 89.5117C400.679 88.6979 399.133 87.4609 397.961 85.8008C396.822 84.1081 396.252 82.0085 396.252 79.502C396.252 76.9629 396.87 74.7982 398.107 73.0078C399.344 71.2174 401.086 69.6549 403.332 68.3203C405.578 66.9531 408.589 65.472 412.365 63.877C413.016 63.6165 414.611 62.9655 417.15 61.9238C419.689 60.8822 421.512 59.8405 422.619 58.7988C423.758 57.7572 424.328 56.6178 424.328 55.3809V49.1797ZM424.328 59.4824C423.84 60.2311 423.026 60.931 421.887 61.582C420.747 62.2331 418.371 63.4375 414.758 65.1953C412.837 66.1068 411.21 67.0508 409.875 68.0273C408.54 68.9714 407.401 70.2572 406.457 71.8848C405.513 73.5124 405.041 75.5143 405.041 77.8906C405.041 80.7878 405.773 82.985 407.238 84.4824C408.703 85.9473 410.64 86.6797 413.049 86.6797C417.476 86.6797 421.236 84.1569 424.328 79.1113V59.4824ZM459.191 47.8125C460.689 44.4271 462.805 41.8066 465.539 39.9512C468.273 38.0632 471.366 37.1191 474.816 37.1191C478.527 37.1191 481.799 38.1445 484.631 40.1953C487.495 42.2135 489.742 45.2734 491.369 49.375C492.997 53.444 493.811 58.4245 493.811 64.3164C493.811 70.0781 492.801 75.0098 490.783 79.1113C488.798 83.1803 486.112 86.2565 482.727 88.3398C479.341 90.3906 475.598 91.416 471.496 91.416C469.055 91.416 466.678 90.9277 464.367 89.9512C462.056 88.9421 460.038 87.4772 458.312 85.5566L451.184 91.6113L449.523 90.8789C449.979 89.2513 450.207 87.3307 450.207 85.1172V23.6914C450.207 20.599 449.637 18.3691 448.498 17.002C447.391 15.6022 445.422 14.9023 442.59 14.9023V12.8027C444.706 12.998 446.773 13.0957 448.791 13.0957C453.088 13.0957 456.555 12.6237 459.191 11.6797V47.8125ZM459.191 84.1406C460.754 85.7682 462.528 87.0052 464.514 87.8516C466.532 88.6979 468.599 89.1211 470.715 89.1211C475.207 89.1211 478.56 87.1029 480.773 83.0664C482.987 78.9974 484.094 72.7474 484.094 64.3164C484.094 56.1784 483.085 50.1074 481.066 46.1035C479.081 42.0996 476.021 40.0977 471.887 40.0977C470.096 40.0977 468.355 40.5859 466.662 41.5625C464.969 42.5065 463.456 43.9225 462.121 45.8105C460.819 47.666 459.842 49.9121 459.191 52.5488V84.1406ZM516.32 80.7227C516.32 82.5781 516.564 84.0267 517.053 85.0684C517.574 86.11 518.371 86.8424 519.445 87.2656C520.552 87.6888 522.049 87.9004 523.938 87.9004V90C517.818 89.7396 513.781 89.6094 511.828 89.6094C509.875 89.6094 505.839 89.7396 499.719 90V87.9004C501.607 87.9004 503.088 87.6888 504.162 87.2656C505.269 86.8424 506.066 86.11 506.555 85.0684C507.076 84.0267 507.336 82.5781 507.336 80.7227V23.5938C507.336 20.5013 506.766 18.2715 505.627 16.9043C504.52 15.5046 502.551 14.8047 499.719 14.8047V12.7051C501.802 12.9004 503.869 12.998 505.92 12.998C510.217 12.998 513.684 12.526 516.32 11.582V80.7227ZM571.447 77.9883C570.666 80.332 569.413 82.5293 567.688 84.5801C565.995 86.5983 563.863 88.2422 561.291 89.5117C558.752 90.7812 555.904 91.416 552.746 91.416C547.993 91.416 543.876 90.3418 540.393 88.1934C536.942 86.0124 534.305 82.9688 532.482 79.0625C530.66 75.1237 529.748 70.599 529.748 65.4883C529.748 59.694 530.676 54.6647 532.531 50.4004C534.387 46.1361 537.007 42.8646 540.393 40.5859C543.811 38.2747 547.798 37.1191 552.355 37.1191C558.345 37.1191 562.951 38.9421 566.174 42.5879C569.429 46.2012 571.057 51.7025 571.057 59.0918H539.807C539.579 60.8171 539.465 62.9492 539.465 65.4883C539.465 69.8828 540.181 73.724 541.613 77.0117C543.078 80.2995 544.982 82.8223 547.326 84.5801C549.67 86.3379 552.144 87.2168 554.748 87.2168C561.454 87.2168 566.353 83.8802 569.445 77.207L571.447 77.9883ZM561.438 57.1875C561.568 53.8672 561.291 50.8236 560.607 48.0566C559.924 45.2897 558.85 43.0924 557.385 41.4648C555.92 39.8372 554.113 39.0234 551.965 39.0234C549.914 39.0234 548.026 39.6908 546.301 41.0254C544.576 42.3275 543.111 44.3457 541.906 47.0801C540.734 49.7819 539.986 53.151 539.66 57.1875H561.438Z" fill="#2C2F24"/>
<path d="M25.9318 140.018L22.4758 127.4H24.0958L26.8138 138.218L29.9098 127.4H31.5838L34.5898 138.218L37.3438 127.4H38.9638L35.4358 140H33.7078L30.7018 129.596L27.6238 140L25.9318 140.018ZM43.7521 140.216C42.9001 140.216 42.1441 140.024 41.4841 139.64C40.8241 139.244 40.3021 138.698 39.9181 138.002C39.5461 137.306 39.3601 136.484 39.3601 135.536C39.3601 134.6 39.5461 133.784 39.9181 133.088C40.2901 132.38 40.8061 131.834 41.4661 131.45C42.1381 131.054 42.9121 130.856 43.7881 130.856C44.6521 130.856 45.3961 131.054 46.0201 131.45C46.6561 131.834 47.1421 132.344 47.4781 132.98C47.8141 133.616 47.9821 134.3 47.9821 135.032C47.9821 135.164 47.9761 135.296 47.9641 135.428C47.9641 135.56 47.9641 135.71 47.9641 135.878H40.8541C40.8901 136.562 41.0461 137.132 41.3221 137.588C41.6101 138.032 41.9641 138.368 42.3841 138.596C42.8161 138.824 43.2721 138.938 43.7521 138.938C44.3761 138.938 44.8981 138.794 45.3181 138.506C45.7381 138.218 46.0441 137.828 46.2361 137.336H47.7301C47.4901 138.164 47.0281 138.854 46.3441 139.406C45.6721 139.946 44.8081 140.216 43.7521 140.216ZM43.7521 132.134C43.0321 132.134 42.3901 132.356 41.8261 132.8C41.2741 133.232 40.9561 133.868 40.8721 134.708H46.4881C46.4521 133.904 46.1761 133.274 45.6601 132.818C45.1441 132.362 44.5081 132.134 43.7521 132.134ZM58.8538 140.216C58.0018 140.216 57.2338 140.024 56.5498 139.64C55.8778 139.244 55.3438 138.698 54.9478 138.002C54.5638 137.294 54.3718 136.472 54.3718 135.536C54.3718 134.6 54.5638 133.784 54.9478 133.088C55.3438 132.38 55.8778 131.834 56.5498 131.45C57.2338 131.054 58.0018 130.856 58.8538 130.856C59.9098 130.856 60.7978 131.132 61.5178 131.684C62.2498 132.236 62.7118 132.974 62.9038 133.898H61.3558C61.2358 133.346 60.9418 132.92 60.4738 132.62C60.0058 132.308 59.4598 132.152 58.8358 132.152C58.3318 132.152 57.8578 132.278 57.4138 132.53C56.9698 132.782 56.6098 133.16 56.3338 133.664C56.0578 134.168 55.9198 134.792 55.9198 135.536C55.9198 136.28 56.0578 136.904 56.3338 137.408C56.6098 137.912 56.9698 138.296 57.4138 138.56C57.8578 138.812 58.3318 138.938 58.8358 138.938C59.4598 138.938 60.0058 138.788 60.4738 138.488C60.9418 138.176 61.2358 137.738 61.3558 137.174H62.9038C62.7238 138.074 62.2678 138.806 61.5358 139.37C60.8038 139.934 59.9098 140.216 58.8538 140.216ZM69.0834 140.216C68.2434 140.216 67.4874 140.024 66.8154 139.64C66.1434 139.256 65.6094 138.716 65.2134 138.02C64.8294 137.312 64.6374 136.484 64.6374 135.536C64.6374 134.588 64.8354 133.766 65.2314 133.07C65.6274 132.362 66.1614 131.816 66.8334 131.432C67.5174 131.048 68.2794 130.856 69.1194 130.856C69.9594 130.856 70.7154 131.048 71.3874 131.432C72.0594 131.816 72.5874 132.362 72.9714 133.07C73.3674 133.766 73.5654 134.588 73.5654 135.536C73.5654 136.484 73.3674 137.312 72.9714 138.02C72.5754 138.716 72.0354 139.256 71.3514 139.64C70.6794 140.024 69.9234 140.216 69.0834 140.216ZM69.0834 138.92C69.5994 138.92 70.0794 138.794 70.5234 138.542C70.9674 138.29 71.3274 137.912 71.6034 137.408C71.8794 136.904 72.0174 136.28 72.0174 135.536C72.0174 134.792 71.8794 134.168 71.6034 133.664C71.3394 133.16 70.9854 132.782 70.5414 132.53C70.0974 132.278 69.6234 132.152 69.1194 132.152C68.6034 132.152 68.1234 132.278 67.6794 132.53C67.2354 132.782 66.8754 133.16 66.5994 133.664C66.3234 134.168 66.1854 134.792 66.1854 135.536C66.1854 136.28 66.3234 136.904 66.5994 137.408C66.8754 137.912 67.2294 138.29 67.6614 138.542C68.1054 138.794 68.5794 138.92 69.0834 138.92ZM75.6678 140V131.072H77.0358L77.1258 132.674C77.4138 132.11 77.8278 131.666 78.3678 131.342C78.9078 131.018 79.5198 130.856 80.2038 130.856C81.2598 130.856 82.0998 131.18 82.7238 131.828C83.3598 132.464 83.6778 133.448 83.6778 134.78V140H82.1658V134.942C82.1658 133.082 81.3978 132.152 79.8618 132.152C79.0938 132.152 78.4518 132.434 77.9358 132.998C77.4318 133.55 77.1798 134.342 77.1798 135.374V140H75.6678ZM89.3886 140.216C88.3206 140.216 87.4326 139.946 86.7246 139.406C86.0166 138.866 85.6026 138.134 85.4826 137.21H87.0306C87.1266 137.678 87.3726 138.086 87.7686 138.434C88.1766 138.77 88.7226 138.938 89.4066 138.938C90.0426 138.938 90.5106 138.806 90.8106 138.542C91.1106 138.266 91.2606 137.942 91.2606 137.57C91.2606 137.03 91.0626 136.67 90.6666 136.49C90.2826 136.31 89.7366 136.148 89.0286 136.004C88.5486 135.908 88.0686 135.77 87.5886 135.59C87.1086 135.41 86.7066 135.158 86.3826 134.834C86.0586 134.498 85.8966 134.06 85.8966 133.52C85.8966 132.74 86.1846 132.104 86.7606 131.612C87.3486 131.108 88.1406 130.856 89.1366 130.856C90.0846 130.856 90.8586 131.096 91.4586 131.576C92.0706 132.044 92.4246 132.716 92.5206 133.592H91.0266C90.9666 133.136 90.7686 132.782 90.4326 132.53C90.1086 132.266 89.6706 132.134 89.1186 132.134C88.5786 132.134 88.1586 132.248 87.8586 132.476C87.5706 132.704 87.4266 133.004 87.4266 133.376C87.4266 133.736 87.6126 134.018 87.9846 134.222C88.3686 134.426 88.8846 134.6 89.5326 134.744C90.0846 134.864 90.6066 135.014 91.0986 135.194C91.6026 135.362 92.0106 135.62 92.3226 135.968C92.6466 136.304 92.8086 136.796 92.8086 137.444C92.8206 138.248 92.5146 138.914 91.8906 139.442C91.2786 139.958 90.4446 140.216 89.3886 140.216ZM95.8866 129.092C95.5866 129.092 95.3346 128.996 95.1306 128.804C94.9386 128.6 94.8426 128.348 94.8426 128.048C94.8426 127.76 94.9386 127.52 95.1306 127.328C95.3346 127.136 95.5866 127.04 95.8866 127.04C96.1746 127.04 96.4206 127.136 96.6246 127.328C96.8286 127.52 96.9306 127.76 96.9306 128.048C96.9306 128.348 96.8286 128.6 96.6246 128.804C96.4206 128.996 96.1746 129.092 95.8866 129.092ZM95.1306 140V131.072H96.6426V140H95.1306ZM103.325 140.216C102.437 140.216 101.657 140.012 100.985 139.604C100.325 139.196 99.8092 138.638 99.4372 137.93C99.0772 137.222 98.8972 136.418 98.8972 135.518C98.8972 134.618 99.0832 133.82 99.4552 133.124C99.8272 132.416 100.343 131.864 101.003 131.468C101.663 131.06 102.443 130.856 103.343 130.856C104.075 130.856 104.723 131.006 105.287 131.306C105.851 131.606 106.289 132.026 106.601 132.566V127.04H108.113V140H106.745L106.601 138.524C106.313 138.956 105.899 139.346 105.359 139.694C104.819 140.042 104.141 140.216 103.325 140.216ZM103.487 138.902C104.087 138.902 104.615 138.764 105.071 138.488C105.539 138.2 105.899 137.804 106.151 137.3C106.415 136.796 106.547 136.208 106.547 135.536C106.547 134.864 106.415 134.276 106.151 133.772C105.899 133.268 105.539 132.878 105.071 132.602C104.615 132.314 104.087 132.17 103.487 132.17C102.899 132.17 102.371 132.314 101.903 132.602C101.447 132.878 101.087 133.268 100.823 133.772C100.571 134.276 100.445 134.864 100.445 135.536C100.445 136.208 100.571 136.796 100.823 137.3C101.087 137.804 101.447 138.2 101.903 138.488C102.371 138.764 102.899 138.902 103.487 138.902ZM114.592 140.216C113.74 140.216 112.984 140.024 112.324 139.64C111.664 139.244 111.142 138.698 110.758 138.002C110.386 137.306 110.2 136.484 110.2 135.536C110.2 134.6 110.386 133.784 110.758 133.088C111.13 132.38 111.646 131.834 112.306 131.45C112.978 131.054 113.752 130.856 114.628 130.856C115.492 130.856 116.236 131.054 116.86 131.45C117.496 131.834 117.982 132.344 118.318 132.98C118.654 133.616 118.822 134.3 118.822 135.032C118.822 135.164 118.816 135.296 118.804 135.428C118.804 135.56 118.804 135.71 118.804 135.878H111.694C111.73 136.562 111.886 137.132 112.162 137.588C112.45 138.032 112.804 138.368 113.224 138.596C113.656 138.824 114.112 138.938 114.592 138.938C115.216 138.938 115.738 138.794 116.158 138.506C116.578 138.218 116.884 137.828 117.076 137.336H118.57C118.33 138.164 117.868 138.854 117.184 139.406C116.512 139.946 115.648 140.216 114.592 140.216ZM114.592 132.134C113.872 132.134 113.23 132.356 112.666 132.8C112.114 133.232 111.796 133.868 111.712 134.708H117.328C117.292 133.904 117.016 133.274 116.5 132.818C115.984 132.362 115.348 132.134 114.592 132.134ZM120.826 140V131.072H122.194L122.32 132.782C122.596 132.194 123.016 131.726 123.58 131.378C124.144 131.03 124.84 130.856 125.668 130.856V132.44H125.254C124.726 132.44 124.24 132.536 123.796 132.728C123.352 132.908 122.998 133.22 122.734 133.664C122.47 134.108 122.338 134.72 122.338 135.5V140H120.826ZM135.099 140.216C134.355 140.216 133.737 140.09 133.245 139.838C132.753 139.586 132.387 139.25 132.147 138.83C131.907 138.41 131.787 137.954 131.787 137.462C131.787 136.55 132.135 135.848 132.831 135.356C133.527 134.864 134.475 134.618 135.675 134.618H138.087V134.51C138.087 133.73 137.883 133.142 137.475 132.746C137.067 132.338 136.521 132.134 135.837 132.134C135.249 132.134 134.739 132.284 134.307 132.584C133.887 132.872 133.623 133.298 133.515 133.862H131.967C132.027 133.214 132.243 132.668 132.615 132.224C132.999 131.78 133.473 131.444 134.037 131.216C134.601 130.976 135.201 130.856 135.837 130.856C137.085 130.856 138.021 131.192 138.645 131.864C139.281 132.524 139.599 133.406 139.599 134.51V140H138.249L138.159 138.398C137.907 138.902 137.535 139.334 137.043 139.694C136.563 140.042 135.915 140.216 135.099 140.216ZM135.333 138.938C135.909 138.938 136.401 138.788 136.809 138.488C137.229 138.188 137.547 137.798 137.763 137.318C137.979 136.838 138.087 136.334 138.087 135.806V135.788H135.801C134.913 135.788 134.283 135.944 133.911 136.256C133.551 136.556 133.371 136.934 133.371 137.39C133.371 137.858 133.539 138.236 133.875 138.524C134.223 138.8 134.709 138.938 135.333 138.938ZM141.867 140V127.04H143.379V140H141.867ZM145.857 140V127.04H147.369V140H145.857ZM158.139 140C157.323 140 156.681 139.802 156.213 139.406C155.745 139.01 155.511 138.296 155.511 137.264V132.35H153.963V131.072H155.511L155.709 128.93H157.023V131.072H159.651V132.35H157.023V137.264C157.023 137.828 157.137 138.212 157.365 138.416C157.593 138.608 157.995 138.704 158.571 138.704H159.507V140H158.139ZM161.572 140V127.04H163.084V132.602C163.384 132.05 163.81 131.624 164.362 131.324C164.914 131.012 165.514 130.856 166.162 130.856C167.194 130.856 168.022 131.18 168.646 131.828C169.27 132.464 169.582 133.448 169.582 134.78V140H168.088V134.942C168.088 133.082 167.338 132.152 165.838 132.152C165.058 132.152 164.404 132.434 163.876 132.998C163.348 133.55 163.084 134.342 163.084 135.374V140H161.572ZM175.887 140.216C175.035 140.216 174.279 140.024 173.619 139.64C172.959 139.244 172.437 138.698 172.053 138.002C171.681 137.306 171.495 136.484 171.495 135.536C171.495 134.6 171.681 133.784 172.053 133.088C172.425 132.38 172.941 131.834 173.601 131.45C174.273 131.054 175.047 130.856 175.923 130.856C176.787 130.856 177.531 131.054 178.155 131.45C178.791 131.834 179.277 132.344 179.613 132.98C179.949 133.616 180.117 134.3 180.117 135.032C180.117 135.164 180.111 135.296 180.099 135.428C180.099 135.56 180.099 135.71 180.099 135.878H172.989C173.025 136.562 173.181 137.132 173.457 137.588C173.745 138.032 174.099 138.368 174.519 138.596C174.951 138.824 175.407 138.938 175.887 138.938C176.511 138.938 177.033 138.794 177.453 138.506C177.873 138.218 178.179 137.828 178.371 137.336H179.865C179.625 138.164 179.163 138.854 178.479 139.406C177.807 139.946 176.943 140.216 175.887 140.216ZM175.887 132.134C175.167 132.134 174.525 132.356 173.961 132.8C173.409 133.232 173.091 133.868 173.007 134.708H178.623C178.587 133.904 178.311 133.274 177.795 132.818C177.279 132.362 176.643 132.134 175.887 132.134ZM190.935 140.216C190.047 140.216 189.267 140.012 188.595 139.604C187.935 139.196 187.419 138.638 187.047 137.93C186.687 137.222 186.507 136.418 186.507 135.518C186.507 134.618 186.693 133.82 187.065 133.124C187.437 132.416 187.953 131.864 188.613 131.468C189.273 131.06 190.053 130.856 190.953 130.856C191.685 130.856 192.333 131.006 192.897 131.306C193.461 131.606 193.899 132.026 194.211 132.566V127.04H195.723V140H194.355L194.211 138.524C193.923 138.956 193.509 139.346 192.969 139.694C192.429 140.042 191.751 140.216 190.935 140.216ZM191.097 138.902C191.697 138.902 192.225 138.764 192.681 138.488C193.149 138.2 193.509 137.804 193.761 137.3C194.025 136.796 194.157 136.208 194.157 135.536C194.157 134.864 194.025 134.276 193.761 133.772C193.509 133.268 193.149 132.878 192.681 132.602C192.225 132.314 191.697 132.17 191.097 132.17C190.509 132.17 189.981 132.314 189.513 132.602C189.057 132.878 188.697 133.268 188.433 133.772C188.181 134.276 188.055 134.864 188.055 135.536C188.055 136.208 188.181 136.796 188.433 137.3C188.697 137.804 189.057 138.2 189.513 138.488C189.981 138.764 190.509 138.902 191.097 138.902ZM198.187 140V131.072H199.555L199.681 132.782C199.957 132.194 200.377 131.726 200.941 131.378C201.505 131.03 202.201 130.856 203.029 130.856V132.44H202.615C202.087 132.44 201.601 132.536 201.157 132.728C200.713 132.908 200.359 133.22 200.095 133.664C199.831 134.108 199.699 134.72 199.699 135.5V140H198.187ZM205.644 129.092C205.344 129.092 205.092 128.996 204.888 128.804C204.696 128.6 204.6 128.348 204.6 128.048C204.6 127.76 204.696 127.52 204.888 127.328C205.092 127.136 205.344 127.04 205.644 127.04C205.932 127.04 206.178 127.136 206.382 127.328C206.586 127.52 206.688 127.76 206.688 128.048C206.688 128.348 206.586 128.6 206.382 128.804C206.178 128.996 205.932 129.092 205.644 129.092ZM204.888 140V131.072H206.4V140H204.888ZM211.607 140L208.223 131.072H209.807L212.489 138.542L215.189 131.072H216.737L213.353 140H211.607ZM221.977 140.216C221.125 140.216 220.369 140.024 219.709 139.64C219.049 139.244 218.527 138.698 218.143 138.002C217.771 137.306 217.585 136.484 217.585 135.536C217.585 134.6 217.771 133.784 218.143 133.088C218.515 132.38 219.031 131.834 219.691 131.45C220.363 131.054 221.137 130.856 222.013 130.856C222.877 130.856 223.621 131.054 224.245 131.45C224.881 131.834 225.367 132.344 225.703 132.98C226.039 133.616 226.207 134.3 226.207 135.032C226.207 135.164 226.201 135.296 226.189 135.428C226.189 135.56 226.189 135.71 226.189 135.878H219.079C219.115 136.562 219.271 137.132 219.547 137.588C219.835 138.032 220.189 138.368 220.609 138.596C221.041 138.824 221.497 138.938 221.977 138.938C222.601 138.938 223.123 138.794 223.543 138.506C223.963 138.218 224.269 137.828 224.461 137.336H225.955C225.715 138.164 225.253 138.854 224.569 139.406C223.897 139.946 223.033 140.216 221.977 140.216ZM221.977 132.134C221.257 132.134 220.615 132.356 220.051 132.8C219.499 133.232 219.181 133.868 219.097 134.708H224.713C224.677 133.904 224.401 133.274 223.885 132.818C223.369 132.362 222.733 132.134 221.977 132.134ZM228.211 140V131.072H229.579L229.705 132.782C229.981 132.194 230.401 131.726 230.965 131.378C231.529 131.03 232.225 130.856 233.053 130.856V132.44H232.639C232.111 132.44 231.625 132.536 231.181 132.728C230.737 132.908 230.383 133.22 230.119 133.664C229.855 134.108 229.723 134.72 229.723 135.5V140H228.211ZM238.17 140.216C237.102 140.216 236.214 139.946 235.506 139.406C234.798 138.866 234.384 138.134 234.264 137.21H235.812C235.908 137.678 236.154 138.086 236.55 138.434C236.958 138.77 237.504 138.938 238.188 138.938C238.824 138.938 239.292 138.806 239.592 138.542C239.892 138.266 240.042 137.942 240.042 137.57C240.042 137.03 239.844 136.67 239.448 136.49C239.064 136.31 238.518 136.148 237.81 136.004C237.33 135.908 236.85 135.77 236.37 135.59C235.89 135.41 235.488 135.158 235.164 134.834C234.84 134.498 234.678 134.06 234.678 133.52C234.678 132.74 234.966 132.104 235.542 131.612C236.13 131.108 236.922 130.856 237.918 130.856C238.866 130.856 239.64 131.096 240.24 131.576C240.852 132.044 241.206 132.716 241.302 133.592H239.808C239.748 133.136 239.55 132.782 239.214 132.53C238.89 132.266 238.452 132.134 237.9 132.134C237.36 132.134 236.94 132.248 236.64 132.476C236.352 132.704 236.208 133.004 236.208 133.376C236.208 133.736 236.394 134.018 236.766 134.222C237.15 134.426 237.666 134.6 238.314 134.744C238.866 134.864 239.388 135.014 239.88 135.194C240.384 135.362 240.792 135.62 241.104 135.968C241.428 136.304 241.59 136.796 241.59 137.444C241.602 138.248 241.296 138.914 240.672 139.442C240.06 139.958 239.226 140.216 238.17 140.216ZM252.581 140.216C251.741 140.216 250.985 140.024 250.313 139.64C249.641 139.256 249.107 138.716 248.711 138.02C248.327 137.312 248.135 136.484 248.135 135.536C248.135 134.588 248.333 133.766 248.729 133.07C249.125 132.362 249.659 131.816 250.331 131.432C251.015 131.048 251.777 130.856 252.617 130.856C253.457 130.856 254.213 131.048 254.885 131.432C255.557 131.816 256.085 132.362 256.469 133.07C256.865 133.766 257.063 134.588 257.063 135.536C257.063 136.484 256.865 137.312 256.469 138.02C256.073 138.716 255.533 139.256 254.849 139.64C254.177 140.024 253.421 140.216 252.581 140.216ZM252.581 138.92C253.097 138.92 253.577 138.794 254.021 138.542C254.465 138.29 254.825 137.912 255.101 137.408C255.377 136.904 255.515 136.28 255.515 135.536C255.515 134.792 255.377 134.168 255.101 133.664C254.837 133.16 254.483 132.782 254.039 132.53C253.595 132.278 253.121 132.152 252.617 132.152C252.101 132.152 251.621 132.278 251.177 132.53C250.733 132.782 250.373 133.16 250.097 133.664C249.821 134.168 249.683 134.792 249.683 135.536C249.683 136.28 249.821 136.904 250.097 137.408C250.373 137.912 250.727 138.29 251.159 138.542C251.603 138.794 252.077 138.92 252.581 138.92ZM259.652 140V132.35H258.302V131.072H259.652V129.524C259.652 128.66 259.868 128.03 260.3 127.634C260.732 127.238 261.362 127.04 262.19 127.04H263.09V128.336H262.424C261.968 128.336 261.644 128.432 261.452 128.624C261.26 128.804 261.164 129.116 261.164 129.56V131.072H263.36V132.35H261.164V140H259.652ZM274.028 140.216C273.176 140.216 272.408 140.024 271.724 139.64C271.052 139.244 270.518 138.698 270.122 138.002C269.738 137.294 269.546 136.472 269.546 135.536C269.546 134.6 269.738 133.784 270.122 133.088C270.518 132.38 271.052 131.834 271.724 131.45C272.408 131.054 273.176 130.856 274.028 130.856C275.084 130.856 275.972 131.132 276.692 131.684C277.424 132.236 277.886 132.974 278.078 133.898H276.53C276.41 133.346 276.116 132.92 275.648 132.62C275.18 132.308 274.634 132.152 274.01 132.152C273.506 132.152 273.032 132.278 272.588 132.53C272.144 132.782 271.784 133.16 271.508 133.664C271.232 134.168 271.094 134.792 271.094 135.536C271.094 136.28 271.232 136.904 271.508 137.408C271.784 137.912 272.144 138.296 272.588 138.56C273.032 138.812 273.506 138.938 274.01 138.938C274.634 138.938 275.18 138.788 275.648 138.488C276.116 138.176 276.41 137.738 276.53 137.174H278.078C277.898 138.074 277.442 138.806 276.71 139.37C275.978 139.934 275.084 140.216 274.028 140.216ZM280.189 140V127.04H281.701V132.602C282.001 132.05 282.427 131.624 282.979 131.324C283.531 131.012 284.131 130.856 284.779 130.856C285.811 130.856 286.639 131.18 287.263 131.828C287.887 132.464 288.199 133.448 288.199 134.78V140H286.705V134.942C286.705 133.082 285.955 132.152 284.455 132.152C283.675 132.152 283.021 132.434 282.493 132.998C281.965 133.55 281.701 134.342 281.701 135.374V140H280.189ZM293.46 140.216C292.716 140.216 292.098 140.09 291.606 139.838C291.114 139.586 290.748 139.25 290.508 138.83C290.268 138.41 290.148 137.954 290.148 137.462C290.148 136.55 290.496 135.848 291.192 135.356C291.888 134.864 292.836 134.618 294.036 134.618H296.448V134.51C296.448 133.73 296.244 133.142 295.836 132.746C295.428 132.338 294.882 132.134 294.198 132.134C293.61 132.134 293.1 132.284 292.668 132.584C292.248 132.872 291.984 133.298 291.876 133.862H290.328C290.388 133.214 290.604 132.668 290.976 132.224C291.36 131.78 291.834 131.444 292.398 131.216C292.962 130.976 293.562 130.856 294.198 130.856C295.446 130.856 296.382 131.192 297.006 131.864C297.642 132.524 297.96 133.406 297.96 134.51V140H296.61L296.52 138.398C296.268 138.902 295.896 139.334 295.404 139.694C294.924 140.042 294.276 140.216 293.46 140.216ZM293.694 138.938C294.27 138.938 294.762 138.788 295.17 138.488C295.59 138.188 295.908 137.798 296.124 137.318C296.34 136.838 296.448 136.334 296.448 135.806V135.788H294.162C293.274 135.788 292.644 135.944 292.272 136.256C291.912 136.556 291.732 136.934 291.732 137.39C291.732 137.858 291.9 138.236 292.236 138.524C292.584 138.8 293.07 138.938 293.694 138.938ZM300.228 140V131.072H301.596L301.686 132.674C301.974 132.11 302.388 131.666 302.928 131.342C303.468 131.018 304.08 130.856 304.764 130.856C305.82 130.856 306.66 131.18 307.284 131.828C307.92 132.464 308.238 133.448 308.238 134.78V140H306.726V134.942C306.726 133.082 305.958 132.152 304.422 132.152C303.654 132.152 303.012 132.434 302.496 132.998C301.992 133.55 301.74 134.342 301.74 135.374V140H300.228ZM314.057 137.192C313.553 137.192 313.091 137.126 312.671 136.994L311.771 137.84C311.903 137.936 312.065 138.02 312.257 138.092C312.461 138.152 312.749 138.212 313.121 138.272C313.493 138.32 314.015 138.374 314.687 138.434C315.887 138.518 316.745 138.794 317.261 139.262C317.777 139.73 318.035 140.342 318.035 141.098C318.035 141.614 317.891 142.106 317.603 142.574C317.327 143.042 316.895 143.426 316.307 143.726C315.731 144.026 314.987 144.176 314.075 144.176C313.271 144.176 312.557 144.068 311.933 143.852C311.309 143.648 310.823 143.33 310.475 142.898C310.127 142.478 309.953 141.944 309.953 141.296C309.953 140.96 310.043 140.594 310.223 140.198C310.403 139.814 310.739 139.448 311.231 139.1C310.967 138.992 310.739 138.878 310.547 138.758C310.367 138.626 310.199 138.482 310.043 138.326V137.912L311.573 136.4C310.865 135.8 310.511 135.008 310.511 134.024C310.511 133.436 310.649 132.902 310.925 132.422C311.201 131.942 311.603 131.564 312.131 131.288C312.659 131 313.301 130.856 314.057 130.856C314.573 130.856 315.041 130.928 315.461 131.072H318.755V132.206L317.081 132.278C317.429 132.782 317.603 133.364 317.603 134.024C317.603 134.612 317.459 135.146 317.171 135.626C316.895 136.106 316.493 136.49 315.965 136.778C315.449 137.054 314.813 137.192 314.057 137.192ZM314.057 135.95C314.693 135.95 315.197 135.788 315.569 135.464C315.953 135.128 316.145 134.648 316.145 134.024C316.145 133.412 315.953 132.944 315.569 132.62C315.197 132.284 314.693 132.116 314.057 132.116C313.409 132.116 312.893 132.284 312.509 132.62C312.137 132.944 311.951 133.412 311.951 134.024C311.951 134.648 312.137 135.128 312.509 135.464C312.893 135.788 313.409 135.95 314.057 135.95ZM311.429 141.152C311.429 141.752 311.681 142.196 312.185 142.484C312.689 142.784 313.319 142.934 314.075 142.934C314.819 142.934 315.413 142.772 315.857 142.448C316.313 142.124 316.541 141.692 316.541 141.152C316.541 140.768 316.385 140.432 316.073 140.144C315.761 139.868 315.185 139.706 314.345 139.658C313.685 139.61 313.115 139.55 312.635 139.478C312.143 139.742 311.819 140.024 311.663 140.324C311.507 140.636 311.429 140.912 311.429 141.152ZM324.123 140.216C323.271 140.216 322.515 140.024 321.855 139.64C321.195 139.244 320.673 138.698 320.289 138.002C319.917 137.306 319.731 136.484 319.731 135.536C319.731 134.6 319.917 133.784 320.289 133.088C320.661 132.38 321.177 131.834 321.837 131.45C322.509 131.054 323.283 130.856 324.159 130.856C325.023 130.856 325.767 131.054 326.391 131.45C327.027 131.834 327.513 132.344 327.849 132.98C328.185 133.616 328.353 134.3 328.353 135.032C328.353 135.164 328.347 135.296 328.335 135.428C328.335 135.56 328.335 135.71 328.335 135.878H321.225C321.261 136.562 321.417 137.132 321.693 137.588C321.981 138.032 322.335 138.368 322.755 138.596C323.187 138.824 323.643 138.938 324.123 138.938C324.747 138.938 325.269 138.794 325.689 138.506C326.109 138.218 326.415 137.828 326.607 137.336H328.101C327.861 138.164 327.399 138.854 326.715 139.406C326.043 139.946 325.179 140.216 324.123 140.216ZM324.123 132.134C323.403 132.134 322.761 132.356 322.197 132.8C321.645 133.232 321.327 133.868 321.243 134.708H326.859C326.823 133.904 326.547 133.274 326.031 132.818C325.515 132.362 324.879 132.134 324.123 132.134ZM338.649 137.192C338.145 137.192 337.683 137.126 337.263 136.994L336.363 137.84C336.495 137.936 336.657 138.02 336.849 138.092C337.053 138.152 337.341 138.212 337.713 138.272C338.085 138.32 338.607 138.374 339.279 138.434C340.479 138.518 341.337 138.794 341.853 139.262C342.369 139.73 342.627 140.342 342.627 141.098C342.627 141.614 342.483 142.106 342.195 142.574C341.919 143.042 341.487 143.426 340.899 143.726C340.323 144.026 339.579 144.176 338.667 144.176C337.863 144.176 337.149 144.068 336.525 143.852C335.901 143.648 335.415 143.33 335.067 142.898C334.719 142.478 334.545 141.944 334.545 141.296C334.545 140.96 334.635 140.594 334.815 140.198C334.995 139.814 335.331 139.448 335.823 139.1C335.559 138.992 335.331 138.878 335.139 138.758C334.959 138.626 334.791 138.482 334.635 138.326V137.912L336.165 136.4C335.457 135.8 335.103 135.008 335.103 134.024C335.103 133.436 335.241 132.902 335.517 132.422C335.793 131.942 336.195 131.564 336.723 131.288C337.251 131 337.893 130.856 338.649 130.856C339.165 130.856 339.633 130.928 340.053 131.072H343.347V132.206L341.673 132.278C342.021 132.782 342.195 133.364 342.195 134.024C342.195 134.612 342.051 135.146 341.763 135.626C341.487 136.106 341.085 136.49 340.557 136.778C340.041 137.054 339.405 137.192 338.649 137.192ZM338.649 135.95C339.285 135.95 339.789 135.788 340.161 135.464C340.545 135.128 340.737 134.648 340.737 134.024C340.737 133.412 340.545 132.944 340.161 132.62C339.789 132.284 339.285 132.116 338.649 132.116C338.001 132.116 337.485 132.284 337.101 132.62C336.729 132.944 336.543 133.412 336.543 134.024C336.543 134.648 336.729 135.128 337.101 135.464C337.485 135.788 338.001 135.95 338.649 135.95ZM336.021 141.152C336.021 141.752 336.273 142.196 336.777 142.484C337.281 142.784 337.911 142.934 338.667 142.934C339.411 142.934 340.005 142.772 340.449 142.448C340.905 142.124 341.133 141.692 341.133 141.152C341.133 140.768 340.977 140.432 340.665 140.144C340.353 139.868 339.777 139.706 338.937 139.658C338.277 139.61 337.707 139.55 337.227 139.478C336.735 139.742 336.411 140.024 336.255 140.324C336.099 140.636 336.021 140.912 336.021 141.152ZM345.971 129.092C345.671 129.092 345.419 128.996 345.215 128.804C345.023 128.6 344.927 128.348 344.927 128.048C344.927 127.76 345.023 127.52 345.215 127.328C345.419 127.136 345.671 127.04 345.971 127.04C346.259 127.04 346.505 127.136 346.709 127.328C346.913 127.52 347.015 127.76 347.015 128.048C347.015 128.348 346.913 128.6 346.709 128.804C346.505 128.996 346.259 129.092 345.971 129.092ZM345.215 140V131.072H346.727V140H345.215ZM351.933 140L348.549 131.072H350.133L352.815 138.542L355.515 131.072H357.063L353.679 140H351.933ZM362.303 140.216C361.451 140.216 360.695 140.024 360.035 139.64C359.375 139.244 358.853 138.698 358.469 138.002C358.097 137.306 357.911 136.484 357.911 135.536C357.911 134.6 358.097 133.784 358.469 133.088C358.841 132.38 359.357 131.834 360.017 131.45C360.689 131.054 361.463 130.856 362.339 130.856C363.203 130.856 363.947 131.054 364.571 131.45C365.207 131.834 365.693 132.344 366.029 132.98C366.365 133.616 366.533 134.3 366.533 135.032C366.533 135.164 366.527 135.296 366.515 135.428C366.515 135.56 366.515 135.71 366.515 135.878H359.405C359.441 136.562 359.597 137.132 359.873 137.588C360.161 138.032 360.515 138.368 360.935 138.596C361.367 138.824 361.823 138.938 362.303 138.938C362.927 138.938 363.449 138.794 363.869 138.506C364.289 138.218 364.595 137.828 364.787 137.336H366.281C366.041 138.164 365.579 138.854 364.895 139.406C364.223 139.946 363.359 140.216 362.303 140.216ZM362.303 132.134C361.583 132.134 360.941 132.356 360.377 132.8C359.825 133.232 359.507 133.868 359.423 134.708H365.039C365.003 133.904 364.727 133.274 364.211 132.818C363.695 132.362 363.059 132.134 362.303 132.134ZM371.957 140.216C370.889 140.216 370.001 139.946 369.293 139.406C368.585 138.866 368.171 138.134 368.051 137.21H369.599C369.695 137.678 369.941 138.086 370.337 138.434C370.745 138.77 371.291 138.938 371.975 138.938C372.611 138.938 373.079 138.806 373.379 138.542C373.679 138.266 373.829 137.942 373.829 137.57C373.829 137.03 373.631 136.67 373.235 136.49C372.851 136.31 372.305 136.148 371.597 136.004C371.117 135.908 370.637 135.77 370.157 135.59C369.677 135.41 369.275 135.158 368.951 134.834C368.627 134.498 368.465 134.06 368.465 133.52C368.465 132.74 368.753 132.104 369.329 131.612C369.917 131.108 370.709 130.856 371.705 130.856C372.653 130.856 373.427 131.096 374.027 131.576C374.639 132.044 374.993 132.716 375.089 133.592H373.595C373.535 133.136 373.337 132.782 373.001 132.53C372.677 132.266 372.239 132.134 371.687 132.134C371.147 132.134 370.727 132.248 370.427 132.476C370.139 132.704 369.995 133.004 369.995 133.376C369.995 133.736 370.181 134.018 370.553 134.222C370.937 134.426 371.453 134.6 372.101 134.744C372.653 134.864 373.175 135.014 373.667 135.194C374.171 135.362 374.579 135.62 374.891 135.968C375.215 136.304 375.377 136.796 375.377 137.444C375.389 138.248 375.083 138.914 374.459 139.442C373.847 139.958 373.013 140.216 371.957 140.216ZM383.273 143.96L385.487 139.136H384.965L381.419 131.072H383.057L386.009 138.02L389.141 131.072H390.707L384.857 143.96H383.273ZM395.527 140.216C394.687 140.216 393.931 140.024 393.259 139.64C392.587 139.256 392.053 138.716 391.657 138.02C391.273 137.312 391.081 136.484 391.081 135.536C391.081 134.588 391.279 133.766 391.675 133.07C392.071 132.362 392.605 131.816 393.277 131.432C393.961 131.048 394.723 130.856 395.563 130.856C396.403 130.856 397.159 131.048 397.831 131.432C398.503 131.816 399.031 132.362 399.415 133.07C399.811 133.766 400.009 134.588 400.009 135.536C400.009 136.484 399.811 137.312 399.415 138.02C399.019 138.716 398.479 139.256 397.795 139.64C397.123 140.024 396.367 140.216 395.527 140.216ZM395.527 138.92C396.043 138.92 396.523 138.794 396.967 138.542C397.411 138.29 397.771 137.912 398.047 137.408C398.323 136.904 398.461 136.28 398.461 135.536C398.461 134.792 398.323 134.168 398.047 133.664C397.783 133.16 397.429 132.782 396.985 132.53C396.541 132.278 396.067 132.152 395.563 132.152C395.047 132.152 394.567 132.278 394.123 132.53C393.679 132.782 393.319 133.16 393.043 133.664C392.767 134.168 392.629 134.792 392.629 135.536C392.629 136.28 392.767 136.904 393.043 137.408C393.319 137.912 393.673 138.29 394.105 138.542C394.549 138.794 395.023 138.92 395.527 138.92ZM405.369 140.216C404.313 140.216 403.473 139.898 402.849 139.262C402.225 138.614 401.913 137.624 401.913 136.292V131.072H403.425V136.13C403.425 137.99 404.187 138.92 405.711 138.92C406.491 138.92 407.133 138.644 407.637 138.092C408.153 137.528 408.411 136.73 408.411 135.698V131.072H409.923V140H408.555L408.447 138.398C408.171 138.962 407.757 139.406 407.205 139.73C406.665 140.054 406.053 140.216 405.369 140.216ZM420.704 140C419.888 140 419.246 139.802 418.778 139.406C418.31 139.01 418.076 138.296 418.076 137.264V132.35H416.528V131.072H418.076L418.274 128.93H419.588V131.072H422.216V132.35H419.588V137.264C419.588 137.828 419.702 138.212 419.93 138.416C420.158 138.608 420.56 138.704 421.136 138.704H422.072V140H420.704ZM424.137 140V127.04H425.649V132.602C425.949 132.05 426.375 131.624 426.927 131.324C427.479 131.012 428.079 130.856 428.727 130.856C429.759 130.856 430.587 131.18 431.211 131.828C431.835 132.464 432.147 133.448 432.147 134.78V140H430.653V134.942C430.653 133.082 429.903 132.152 428.403 132.152C427.623 132.152 426.969 132.434 426.441 132.998C425.913 133.55 425.649 134.342 425.649 135.374V140H424.137ZM438.451 140.216C437.599 140.216 436.843 140.024 436.183 139.64C435.523 139.244 435.001 138.698 434.617 138.002C434.245 137.306 434.059 136.484 434.059 135.536C434.059 134.6 434.245 133.784 434.617 133.088C434.989 132.38 435.505 131.834 436.165 131.45C436.837 131.054 437.611 130.856 438.487 130.856C439.351 130.856 440.095 131.054 440.719 131.45C441.355 131.834 441.841 132.344 442.177 132.98C442.513 133.616 442.681 134.3 442.681 135.032C442.681 135.164 442.675 135.296 442.663 135.428C442.663 135.56 442.663 135.71 442.663 135.878H435.553C435.589 136.562 435.745 137.132 436.021 137.588C436.309 138.032 436.663 138.368 437.083 138.596C437.515 138.824 437.971 138.938 438.451 138.938C439.075 138.938 439.597 138.794 440.017 138.506C440.437 138.218 440.743 137.828 440.935 137.336H442.429C442.189 138.164 441.727 138.854 441.043 139.406C440.371 139.946 439.507 140.216 438.451 140.216ZM438.451 132.134C437.731 132.134 437.089 132.356 436.525 132.8C435.973 133.232 435.655 133.868 435.571 134.708H441.187C441.151 133.904 440.875 133.274 440.359 132.818C439.843 132.362 439.207 132.134 438.451 132.134ZM453.553 140.216C452.701 140.216 451.933 140.024 451.249 139.64C450.577 139.244 450.043 138.698 449.647 138.002C449.263 137.294 449.071 136.472 449.071 135.536C449.071 134.6 449.263 133.784 449.647 133.088C450.043 132.38 450.577 131.834 451.249 131.45C451.933 131.054 452.701 130.856 453.553 130.856C454.609 130.856 455.497 131.132 456.217 131.684C456.949 132.236 457.411 132.974 457.603 133.898H456.055C455.935 133.346 455.641 132.92 455.173 132.62C454.705 132.308 454.159 132.152 453.535 132.152C453.031 132.152 452.557 132.278 452.113 132.53C451.669 132.782 451.309 133.16 451.033 133.664C450.757 134.168 450.619 134.792 450.619 135.536C450.619 136.28 450.757 136.904 451.033 137.408C451.309 137.912 451.669 138.296 452.113 138.56C452.557 138.812 453.031 138.938 453.535 138.938C454.159 138.938 454.705 138.788 455.173 138.488C455.641 138.176 455.935 137.738 456.055 137.174H457.603C457.423 138.074 456.967 138.806 456.235 139.37C455.503 139.934 454.609 140.216 453.553 140.216ZM463.783 140.216C462.943 140.216 462.187 140.024 461.515 139.64C460.843 139.256 460.309 138.716 459.913 138.02C459.529 137.312 459.337 136.484 459.337 135.536C459.337 134.588 459.535 133.766 459.931 133.07C460.327 132.362 460.861 131.816 461.533 131.432C462.217 131.048 462.979 130.856 463.819 130.856C464.659 130.856 465.415 131.048 466.087 131.432C466.759 131.816 467.287 132.362 467.671 133.07C468.067 133.766 468.265 134.588 468.265 135.536C468.265 136.484 468.067 137.312 467.671 138.02C467.275 138.716 466.735 139.256 466.051 139.64C465.379 140.024 464.623 140.216 463.783 140.216ZM463.783 138.92C464.299 138.92 464.779 138.794 465.223 138.542C465.667 138.29 466.027 137.912 466.303 137.408C466.579 136.904 466.717 136.28 466.717 135.536C466.717 134.792 466.579 134.168 466.303 133.664C466.039 133.16 465.685 132.782 465.241 132.53C464.797 132.278 464.323 132.152 463.819 132.152C463.303 132.152 462.823 132.278 462.379 132.53C461.935 132.782 461.575 133.16 461.299 133.664C461.023 134.168 460.885 134.792 460.885 135.536C460.885 136.28 461.023 136.904 461.299 137.408C461.575 137.912 461.929 138.29 462.361 138.542C462.805 138.794 463.279 138.92 463.783 138.92ZM470.367 140V131.072H471.735L471.843 132.368C472.131 131.888 472.515 131.516 472.995 131.252C473.475 130.988 474.015 130.856 474.615 130.856C475.323 130.856 475.929 131 476.433 131.288C476.949 131.576 477.345 132.014 477.621 132.602C477.933 132.062 478.359 131.636 478.899 131.324C479.451 131.012 480.045 130.856 480.681 130.856C481.749 130.856 482.601 131.18 483.237 131.828C483.873 132.464 484.191 133.448 484.191 134.78V140H482.697V134.942C482.697 134.018 482.511 133.322 482.139 132.854C481.767 132.386 481.233 132.152 480.537 132.152C479.817 132.152 479.217 132.434 478.737 132.998C478.269 133.55 478.035 134.342 478.035 135.374V140H476.523V134.942C476.523 134.018 476.337 133.322 475.965 132.854C475.593 132.386 475.059 132.152 474.363 132.152C473.655 132.152 473.061 132.434 472.581 132.998C472.113 133.55 471.879 134.342 471.879 135.374V140H470.367ZM486.469 143.96V131.072H487.837L487.981 132.548C488.269 132.116 488.677 131.726 489.205 131.378C489.745 131.03 490.429 130.856 491.257 130.856C492.145 130.856 492.919 131.06 493.579 131.468C494.239 131.876 494.749 132.434 495.109 133.142C495.481 133.85 495.667 134.654 495.667 135.554C495.667 136.454 495.481 137.258 495.109 137.966C494.749 138.662 494.233 139.214 493.561 139.622C492.901 140.018 492.127 140.216 491.239 140.216C490.507 140.216 489.853 140.066 489.277 139.766C488.713 139.466 488.281 139.046 487.981 138.506V143.96H486.469ZM491.077 138.902C491.677 138.902 492.205 138.764 492.661 138.488C493.117 138.2 493.477 137.804 493.741 137.3C494.005 136.796 494.137 136.208 494.137 135.536C494.137 134.864 494.005 134.276 493.741 133.772C493.477 133.268 493.117 132.878 492.661 132.602C492.205 132.314 491.677 132.17 491.077 132.17C490.477 132.17 489.949 132.314 489.493 132.602C489.037 132.878 488.677 133.268 488.413 133.772C488.149 134.276 488.017 134.864 488.017 135.536C488.017 136.208 488.149 136.796 488.413 137.3C488.677 137.804 489.037 138.2 489.493 138.488C489.949 138.764 490.477 138.902 491.077 138.902ZM501.839 140.216C500.999 140.216 500.243 140.024 499.571 139.64C498.899 139.256 498.365 138.716 497.969 138.02C497.585 137.312 497.393 136.484 497.393 135.536C497.393 134.588 497.591 133.766 497.987 133.07C498.383 132.362 498.917 131.816 499.589 131.432C500.273 131.048 501.035 130.856 501.875 130.856C502.715 130.856 503.471 131.048 504.143 131.432C504.815 131.816 505.343 132.362 505.727 133.07C506.123 133.766 506.321 134.588 506.321 135.536C506.321 136.484 506.123 137.312 505.727 138.02C505.331 138.716 504.791 139.256 504.107 139.64C503.435 140.024 502.679 140.216 501.839 140.216ZM501.839 138.92C502.355 138.92 502.835 138.794 503.279 138.542C503.723 138.29 504.083 137.912 504.359 137.408C504.635 136.904 504.773 136.28 504.773 135.536C504.773 134.792 504.635 134.168 504.359 133.664C504.095 133.16 503.741 132.782 503.297 132.53C502.853 132.278 502.379 132.152 501.875 132.152C501.359 132.152 500.879 132.278 500.435 132.53C499.991 132.782 499.631 133.16 499.355 133.664C499.079 134.168 498.941 134.792 498.941 135.536C498.941 136.28 499.079 136.904 499.355 137.408C499.631 137.912 499.985 138.29 500.417 138.542C500.861 138.794 501.335 138.92 501.839 138.92ZM508.424 140V131.072H509.792L509.882 132.674C510.17 132.11 510.584 131.666 511.124 131.342C511.664 131.018 512.276 130.856 512.96 130.856C514.016 130.856 514.856 131.18 515.48 131.828C516.116 132.464 516.434 133.448 516.434 134.78V140H514.922V134.942C514.922 133.082 514.154 132.152 512.618 132.152C511.85 132.152 511.208 132.434 510.692 132.998C510.188 133.55 509.936 134.342 509.936 135.374V140H508.424ZM522.738 140.216C521.886 140.216 521.13 140.024 520.47 139.64C519.81 139.244 519.288 138.698 518.904 138.002C518.532 137.306 518.346 136.484 518.346 135.536C518.346 134.6 518.532 133.784 518.904 133.088C519.276 132.38 519.792 131.834 520.452 131.45C521.124 131.054 521.898 130.856 522.774 130.856C523.638 130.856 524.382 131.054 525.006 131.45C525.642 131.834 526.128 132.344 526.464 132.98C526.8 133.616 526.968 134.3 526.968 135.032C526.968 135.164 526.962 135.296 526.95 135.428C526.95 135.56 526.95 135.71 526.95 135.878H519.84C519.876 136.562 520.032 137.132 520.308 137.588C520.596 138.032 520.95 138.368 521.37 138.596C521.802 138.824 522.258 138.938 522.738 138.938C523.362 138.938 523.884 138.794 524.304 138.506C524.724 138.218 525.03 137.828 525.222 137.336H526.716C526.476 138.164 526.014 138.854 525.33 139.406C524.658 139.946 523.794 140.216 522.738 140.216ZM522.738 132.134C522.018 132.134 521.376 132.356 520.812 132.8C520.26 133.232 519.942 133.868 519.858 134.708H525.474C525.438 133.904 525.162 133.274 524.646 132.818C524.13 132.362 523.494 132.134 522.738 132.134ZM528.972 140V131.072H530.34L530.43 132.674C530.718 132.11 531.132 131.666 531.672 131.342C532.212 131.018 532.824 130.856 533.508 130.856C534.564 130.856 535.404 131.18 536.028 131.828C536.664 132.464 536.982 133.448 536.982 134.78V140H535.47V134.942C535.47 133.082 534.702 132.152 533.166 132.152C532.398 132.152 531.756 132.434 531.24 132.998C530.736 133.55 530.484 134.342 530.484 135.374V140H528.972ZM542.801 140C541.985 140 541.343 139.802 540.875 139.406C540.407 139.01 540.173 138.296 540.173 137.264V132.35H538.625V131.072H540.173L540.371 128.93H541.685V131.072H544.313V132.35H541.685V137.264C541.685 137.828 541.799 138.212 542.027 138.416C542.255 138.608 542.657 138.704 543.233 138.704H544.169V140H542.801ZM549.654 140.216C548.586 140.216 547.698 139.946 546.99 139.406C546.282 138.866 545.868 138.134 545.748 137.21H547.296C547.392 137.678 547.638 138.086 548.034 138.434C548.442 138.77 548.988 138.938 549.672 138.938C550.308 138.938 550.776 138.806 551.076 138.542C551.376 138.266 551.526 137.942 551.526 137.57C551.526 137.03 551.328 136.67 550.932 136.49C550.548 136.31 550.002 136.148 549.294 136.004C548.814 135.908 548.334 135.77 547.854 135.59C547.374 135.41 546.972 135.158 546.648 134.834C546.324 134.498 546.162 134.06 546.162 133.52C546.162 132.74 546.45 132.104 547.026 131.612C547.614 131.108 548.406 130.856 549.402 130.856C550.35 130.856 551.124 131.096 551.724 131.576C552.336 132.044 552.69 132.716 552.786 133.592H551.292C551.232 133.136 551.034 132.782 550.698 132.53C550.374 132.266 549.936 132.134 549.384 132.134C548.844 132.134 548.424 132.248 548.124 132.476C547.836 132.704 547.692 133.004 547.692 133.376C547.692 133.736 547.878 134.018 548.25 134.222C548.634 134.426 549.15 134.6 549.798 134.744C550.35 134.864 550.872 135.014 551.364 135.194C551.868 135.362 552.276 135.62 552.588 135.968C552.912 136.304 553.074 136.796 553.074 137.444C553.086 138.248 552.78 138.914 552.156 139.442C551.544 139.958 550.71 140.216 549.654 140.216ZM99.2628 171.96L101.477 167.136H100.955L97.4088 159.072H99.0468L101.999 166.02L105.131 159.072H106.697L100.847 171.96H99.2628ZM111.517 168.216C110.677 168.216 109.921 168.024 109.249 167.64C108.577 167.256 108.043 166.716 107.647 166.02C107.263 165.312 107.071 164.484 107.071 163.536C107.071 162.588 107.269 161.766 107.665 161.07C108.061 160.362 108.595 159.816 109.267 159.432C109.951 159.048 110.713 158.856 111.553 158.856C112.393 158.856 113.149 159.048 113.821 159.432C114.493 159.816 115.021 160.362 115.405 161.07C115.801 161.766 115.999 162.588 115.999 163.536C115.999 164.484 115.801 165.312 115.405 166.02C115.009 166.716 114.469 167.256 113.785 167.64C113.113 168.024 112.357 168.216 111.517 168.216ZM111.517 166.92C112.033 166.92 112.513 166.794 112.957 166.542C113.401 166.29 113.761 165.912 114.037 165.408C114.313 164.904 114.451 164.28 114.451 163.536C114.451 162.792 114.313 162.168 114.037 161.664C113.773 161.16 113.419 160.782 112.975 160.53C112.531 160.278 112.057 160.152 111.553 160.152C111.037 160.152 110.557 160.278 110.113 160.53C109.669 160.782 109.309 161.16 109.033 161.664C108.757 162.168 108.619 162.792 108.619 163.536C108.619 164.28 108.757 164.904 109.033 165.408C109.309 165.912 109.663 166.29 110.095 166.542C110.539 166.794 111.013 166.92 111.517 166.92ZM121.359 168.216C120.303 168.216 119.463 167.898 118.839 167.262C118.215 166.614 117.903 165.624 117.903 164.292V159.072H119.415V164.13C119.415 165.99 120.177 166.92 121.701 166.92C122.481 166.92 123.123 166.644 123.627 166.092C124.143 165.528 124.401 164.73 124.401 163.698V159.072H125.913V168H124.545L124.437 166.398C124.161 166.962 123.747 167.406 123.195 167.73C122.655 168.054 122.043 168.216 121.359 168.216ZM133.166 168V159.072H134.534L134.624 160.674C134.912 160.11 135.326 159.666 135.866 159.342C136.406 159.018 137.018 158.856 137.702 158.856C138.758 158.856 139.598 159.18 140.222 159.828C140.858 160.464 141.176 161.448 141.176 162.78V168H139.664V162.942C139.664 161.082 138.896 160.152 137.36 160.152C136.592 160.152 135.95 160.434 135.434 160.998C134.93 161.55 134.678 162.342 134.678 163.374V168H133.166ZM147.481 168.216C146.629 168.216 145.873 168.024 145.213 167.64C144.553 167.244 144.031 166.698 143.647 166.002C143.275 165.306 143.089 164.484 143.089 163.536C143.089 162.6 143.275 161.784 143.647 161.088C144.019 160.38 144.535 159.834 145.195 159.45C145.867 159.054 146.641 158.856 147.517 158.856C148.381 158.856 149.125 159.054 149.749 159.45C150.385 159.834 150.871 160.344 151.207 160.98C151.543 161.616 151.711 162.3 151.711 163.032C151.711 163.164 151.705 163.296 151.693 163.428C151.693 163.56 151.693 163.71 151.693 163.878H144.583C144.619 164.562 144.775 165.132 145.051 165.588C145.339 166.032 145.693 166.368 146.113 166.596C146.545 166.824 147.001 166.938 147.481 166.938C148.105 166.938 148.627 166.794 149.047 166.506C149.467 166.218 149.773 165.828 149.965 165.336H151.459C151.219 166.164 150.757 166.854 150.073 167.406C149.401 167.946 148.537 168.216 147.481 168.216ZM147.481 160.134C146.761 160.134 146.119 160.356 145.555 160.8C145.003 161.232 144.685 161.868 144.601 162.708H150.217C150.181 161.904 149.905 161.274 149.389 160.818C148.873 160.362 148.237 160.134 147.481 160.134ZM157.729 168.216C156.877 168.216 156.121 168.024 155.461 167.64C154.801 167.244 154.279 166.698 153.895 166.002C153.523 165.306 153.337 164.484 153.337 163.536C153.337 162.6 153.523 161.784 153.895 161.088C154.267 160.38 154.783 159.834 155.443 159.45C156.115 159.054 156.889 158.856 157.765 158.856C158.629 158.856 159.373 159.054 159.997 159.45C160.633 159.834 161.119 160.344 161.455 160.98C161.791 161.616 161.959 162.3 161.959 163.032C161.959 163.164 161.953 163.296 161.941 163.428C161.941 163.56 161.941 163.71 161.941 163.878H154.831C154.867 164.562 155.023 165.132 155.299 165.588C155.587 166.032 155.941 166.368 156.361 166.596C156.793 166.824 157.249 166.938 157.729 166.938C158.353 166.938 158.875 166.794 159.295 166.506C159.715 166.218 160.021 165.828 160.213 165.336H161.707C161.467 166.164 161.005 166.854 160.321 167.406C159.649 167.946 158.785 168.216 157.729 168.216ZM157.729 160.134C157.009 160.134 156.367 160.356 155.803 160.8C155.251 161.232 154.933 161.868 154.849 162.708H160.465C160.429 161.904 160.153 161.274 159.637 160.818C159.121 160.362 158.485 160.134 157.729 160.134ZM168.013 168.216C167.125 168.216 166.345 168.012 165.673 167.604C165.013 167.196 164.497 166.638 164.125 165.93C163.765 165.222 163.585 164.418 163.585 163.518C163.585 162.618 163.771 161.82 164.143 161.124C164.515 160.416 165.031 159.864 165.691 159.468C166.351 159.06 167.131 158.856 168.031 158.856C168.763 158.856 169.411 159.006 169.975 159.306C170.539 159.606 170.977 160.026 171.289 160.566V155.04H172.801V168H171.433L171.289 166.524C171.001 166.956 170.587 167.346 170.047 167.694C169.507 168.042 168.829 168.216 168.013 168.216ZM168.175 166.902C168.775 166.902 169.303 166.764 169.759 166.488C170.227 166.2 170.587 165.804 170.839 165.3C171.103 164.796 171.235 164.208 171.235 163.536C171.235 162.864 171.103 162.276 170.839 161.772C170.587 161.268 170.227 160.878 169.759 160.602C169.303 160.314 168.775 160.17 168.175 160.17C167.587 160.17 167.059 160.314 166.591 160.602C166.135 160.878 165.775 161.268 165.511 161.772C165.259 162.276 165.133 162.864 165.133 163.536C165.133 164.208 165.259 164.796 165.511 165.3C165.775 165.804 166.135 166.2 166.591 166.488C167.059 166.764 167.587 166.902 168.175 166.902ZM183.557 168C182.741 168 182.099 167.802 181.631 167.406C181.163 167.01 180.929 166.296 180.929 165.264V160.35H179.381V159.072H180.929L181.127 156.93H182.441V159.072H185.069V160.35H182.441V165.264C182.441 165.828 182.555 166.212 182.783 166.416C183.011 166.608 183.413 166.704 183.989 166.704H184.925V168H183.557ZM190.812 168.216C189.972 168.216 189.216 168.024 188.544 167.64C187.872 167.256 187.338 166.716 186.942 166.02C186.558 165.312 186.366 164.484 186.366 163.536C186.366 162.588 186.564 161.766 186.96 161.07C187.356 160.362 187.89 159.816 188.562 159.432C189.246 159.048 190.008 158.856 190.848 158.856C191.688 158.856 192.444 159.048 193.116 159.432C193.788 159.816 194.316 160.362 194.7 161.07C195.096 161.766 195.294 162.588 195.294 163.536C195.294 164.484 195.096 165.312 194.7 166.02C194.304 166.716 193.764 167.256 193.08 167.64C192.408 168.024 191.652 168.216 190.812 168.216ZM190.812 166.92C191.328 166.92 191.808 166.794 192.252 166.542C192.696 166.29 193.056 165.912 193.332 165.408C193.608 164.904 193.746 164.28 193.746 163.536C193.746 162.792 193.608 162.168 193.332 161.664C193.068 161.16 192.714 160.782 192.27 160.53C191.826 160.278 191.352 160.152 190.848 160.152C190.332 160.152 189.852 160.278 189.408 160.53C188.964 160.782 188.604 161.16 188.328 161.664C188.052 162.168 187.914 162.792 187.914 163.536C187.914 164.28 188.052 164.904 188.328 165.408C188.604 165.912 188.958 166.29 189.39 166.542C189.834 166.794 190.308 166.92 190.812 166.92ZM206.264 168.216C205.412 168.216 204.644 168.024 203.96 167.64C203.288 167.244 202.754 166.698 202.358 166.002C201.974 165.294 201.782 164.472 201.782 163.536C201.782 162.6 201.974 161.784 202.358 161.088C202.754 160.38 203.288 159.834 203.96 159.45C204.644 159.054 205.412 158.856 206.264 158.856C207.32 158.856 208.208 159.132 208.928 159.684C209.66 160.236 210.122 160.974 210.314 161.898H208.766C208.646 161.346 208.352 160.92 207.884 160.62C207.416 160.308 206.87 160.152 206.246 160.152C205.742 160.152 205.268 160.278 204.824 160.53C204.38 160.782 204.02 161.16 203.744 161.664C203.468 162.168 203.33 162.792 203.33 163.536C203.33 164.28 203.468 164.904 203.744 165.408C204.02 165.912 204.38 166.296 204.824 166.56C205.268 166.812 205.742 166.938 206.246 166.938C206.87 166.938 207.416 166.788 207.884 166.488C208.352 166.176 208.646 165.738 208.766 165.174H210.314C210.134 166.074 209.678 166.806 208.946 167.37C208.214 167.934 207.32 168.216 206.264 168.216ZM212.426 168V155.04H213.938V160.602C214.238 160.05 214.664 159.624 215.216 159.324C215.768 159.012 216.368 158.856 217.016 158.856C218.048 158.856 218.876 159.18 219.5 159.828C220.124 160.464 220.436 161.448 220.436 162.78V168H218.942V162.942C218.942 161.082 218.192 160.152 216.692 160.152C215.912 160.152 215.258 160.434 214.73 160.998C214.202 161.55 213.938 162.342 213.938 163.374V168H212.426ZM225.696 168.216C224.952 168.216 224.334 168.09 223.842 167.838C223.35 167.586 222.984 167.25 222.744 166.83C222.504 166.41 222.384 165.954 222.384 165.462C222.384 164.55 222.732 163.848 223.428 163.356C224.124 162.864 225.072 162.618 226.272 162.618H228.684V162.51C228.684 161.73 228.48 161.142 228.072 160.746C227.664 160.338 227.118 160.134 226.434 160.134C225.846 160.134 225.336 160.284 224.904 160.584C224.484 160.872 224.22 161.298 224.112 161.862H222.564C222.624 161.214 222.84 160.668 223.212 160.224C223.596 159.78 224.07 159.444 224.634 159.216C225.198 158.976 225.798 158.856 226.434 158.856C227.682 158.856 228.618 159.192 229.242 159.864C229.878 160.524 230.196 161.406 230.196 162.51V168H228.846L228.756 166.398C228.504 166.902 228.132 167.334 227.64 167.694C227.16 168.042 226.512 168.216 225.696 168.216ZM225.93 166.938C226.506 166.938 226.998 166.788 227.406 166.488C227.826 166.188 228.144 165.798 228.36 165.318C228.576 164.838 228.684 164.334 228.684 163.806V163.788H226.398C225.51 163.788 224.88 163.944 224.508 164.256C224.148 164.556 223.968 164.934 223.968 165.39C223.968 165.858 224.136 166.236 224.472 166.524C224.82 166.8 225.306 166.938 225.93 166.938ZM232.465 168V159.072H233.833L233.923 160.674C234.211 160.11 234.625 159.666 235.165 159.342C235.705 159.018 236.317 158.856 237.001 158.856C238.057 158.856 238.897 159.18 239.521 159.828C240.157 160.464 240.475 161.448 240.475 162.78V168H238.963V162.942C238.963 161.082 238.195 160.152 236.659 160.152C235.891 160.152 235.249 160.434 234.733 160.998C234.229 161.55 233.977 162.342 233.977 163.374V168H232.465ZM246.293 165.192C245.789 165.192 245.327 165.126 244.907 164.994L244.007 165.84C244.139 165.936 244.301 166.02 244.493 166.092C244.697 166.152 244.985 166.212 245.357 166.272C245.729 166.32 246.251 166.374 246.923 166.434C248.123 166.518 248.981 166.794 249.497 167.262C250.013 167.73 250.271 168.342 250.271 169.098C250.271 169.614 250.127 170.106 249.839 170.574C249.563 171.042 249.131 171.426 248.543 171.726C247.967 172.026 247.223 172.176 246.311 172.176C245.507 172.176 244.793 172.068 244.169 171.852C243.545 171.648 243.059 171.33 242.711 170.898C242.363 170.478 242.189 169.944 242.189 169.296C242.189 168.96 242.279 168.594 242.459 168.198C242.639 167.814 242.975 167.448 243.467 167.1C243.203 166.992 242.975 166.878 242.783 166.758C242.603 166.626 242.435 166.482 242.279 166.326V165.912L243.809 164.4C243.101 163.8 242.747 163.008 242.747 162.024C242.747 161.436 242.885 160.902 243.161 160.422C243.437 159.942 243.839 159.564 244.367 159.288C244.895 159 245.537 158.856 246.293 158.856C246.809 158.856 247.277 158.928 247.697 159.072H250.991V160.206L249.317 160.278C249.665 160.782 249.839 161.364 249.839 162.024C249.839 162.612 249.695 163.146 249.407 163.626C249.131 164.106 248.729 164.49 248.201 164.778C247.685 165.054 247.049 165.192 246.293 165.192ZM246.293 163.95C246.929 163.95 247.433 163.788 247.805 163.464C248.189 163.128 248.381 162.648 248.381 162.024C248.381 161.412 248.189 160.944 247.805 160.62C247.433 160.284 246.929 160.116 246.293 160.116C245.645 160.116 245.129 160.284 244.745 160.62C244.373 160.944 244.187 161.412 244.187 162.024C244.187 162.648 244.373 163.128 244.745 163.464C245.129 163.788 245.645 163.95 246.293 163.95ZM243.665 169.152C243.665 169.752 243.917 170.196 244.421 170.484C244.925 170.784 245.555 170.934 246.311 170.934C247.055 170.934 247.649 170.772 248.093 170.448C248.549 170.124 248.777 169.692 248.777 169.152C248.777 168.768 248.621 168.432 248.309 168.144C247.997 167.868 247.421 167.706 246.581 167.658C245.921 167.61 245.351 167.55 244.871 167.478C244.379 167.742 244.055 168.024 243.899 168.324C243.743 168.636 243.665 168.912 243.665 169.152ZM256.36 168.216C255.508 168.216 254.752 168.024 254.092 167.64C253.432 167.244 252.91 166.698 252.526 166.002C252.154 165.306 251.968 164.484 251.968 163.536C251.968 162.6 252.154 161.784 252.526 161.088C252.898 160.38 253.414 159.834 254.074 159.45C254.746 159.054 255.52 158.856 256.396 158.856C257.26 158.856 258.004 159.054 258.628 159.45C259.264 159.834 259.75 160.344 260.086 160.98C260.422 161.616 260.59 162.3 260.59 163.032C260.59 163.164 260.584 163.296 260.572 163.428C260.572 163.56 260.572 163.71 260.572 163.878H253.462C253.498 164.562 253.654 165.132 253.93 165.588C254.218 166.032 254.572 166.368 254.992 166.596C255.424 166.824 255.88 166.938 256.36 166.938C256.984 166.938 257.506 166.794 257.926 166.506C258.346 166.218 258.652 165.828 258.844 165.336H260.338C260.098 166.164 259.636 166.854 258.952 167.406C258.28 167.946 257.416 168.216 256.36 168.216ZM256.36 160.134C255.64 160.134 254.998 160.356 254.434 160.8C253.882 161.232 253.564 161.868 253.48 162.708H259.096C259.06 161.904 258.784 161.274 258.268 160.818C257.752 160.362 257.116 160.134 256.36 160.134ZM270.885 168C270.069 168 269.427 167.802 268.959 167.406C268.491 167.01 268.257 166.296 268.257 165.264V160.35H266.709V159.072H268.257L268.455 156.93H269.769V159.072H272.397V160.35H269.769V165.264C269.769 165.828 269.883 166.212 270.111 166.416C270.339 166.608 270.741 166.704 271.317 166.704H272.253V168H270.885ZM278.14 168.216C277.3 168.216 276.544 168.024 275.872 167.64C275.2 167.256 274.666 166.716 274.27 166.02C273.886 165.312 273.694 164.484 273.694 163.536C273.694 162.588 273.892 161.766 274.288 161.07C274.684 160.362 275.218 159.816 275.89 159.432C276.574 159.048 277.336 158.856 278.176 158.856C279.016 158.856 279.772 159.048 280.444 159.432C281.116 159.816 281.644 160.362 282.028 161.07C282.424 161.766 282.622 162.588 282.622 163.536C282.622 164.484 282.424 165.312 282.028 166.02C281.632 166.716 281.092 167.256 280.408 167.64C279.736 168.024 278.98 168.216 278.14 168.216ZM278.14 166.92C278.656 166.92 279.136 166.794 279.58 166.542C280.024 166.29 280.384 165.912 280.66 165.408C280.936 164.904 281.074 164.28 281.074 163.536C281.074 162.792 280.936 162.168 280.66 161.664C280.396 161.16 280.042 160.782 279.598 160.53C279.154 160.278 278.68 160.152 278.176 160.152C277.66 160.152 277.18 160.278 276.736 160.53C276.292 160.782 275.932 161.16 275.656 161.664C275.38 162.168 275.242 162.792 275.242 163.536C275.242 164.28 275.38 164.904 275.656 165.408C275.932 165.912 276.286 166.29 276.718 166.542C277.162 166.794 277.636 166.92 278.14 166.92ZM293.592 168.216C292.74 168.216 291.972 168.024 291.288 167.64C290.616 167.244 290.082 166.698 289.686 166.002C289.302 165.294 289.11 164.472 289.11 163.536C289.11 162.6 289.302 161.784 289.686 161.088C290.082 160.38 290.616 159.834 291.288 159.45C291.972 159.054 292.74 158.856 293.592 158.856C294.648 158.856 295.536 159.132 296.256 159.684C296.988 160.236 297.45 160.974 297.642 161.898H296.094C295.974 161.346 295.68 160.92 295.212 160.62C294.744 160.308 294.198 160.152 293.574 160.152C293.07 160.152 292.596 160.278 292.152 160.53C291.708 160.782 291.348 161.16 291.072 161.664C290.796 162.168 290.658 162.792 290.658 163.536C290.658 164.28 290.796 164.904 291.072 165.408C291.348 165.912 291.708 166.296 292.152 166.56C292.596 166.812 293.07 166.938 293.574 166.938C294.198 166.938 294.744 166.788 295.212 166.488C295.68 166.176 295.974 165.738 296.094 165.174H297.642C297.462 166.074 297.006 166.806 296.274 167.37C295.542 167.934 294.648 168.216 293.592 168.216ZM299.754 168V159.072H301.122L301.248 160.782C301.524 160.194 301.944 159.726 302.508 159.378C303.072 159.03 303.768 158.856 304.596 158.856V160.44H304.182C303.654 160.44 303.168 160.536 302.724 160.728C302.28 160.908 301.926 161.22 301.662 161.664C301.398 162.108 301.266 162.72 301.266 163.5V168H299.754ZM309.973 168.216C309.121 168.216 308.365 168.024 307.705 167.64C307.045 167.244 306.523 166.698 306.139 166.002C305.767 165.306 305.581 164.484 305.581 163.536C305.581 162.6 305.767 161.784 306.139 161.088C306.511 160.38 307.027 159.834 307.687 159.45C308.359 159.054 309.133 158.856 310.009 158.856C310.873 158.856 311.617 159.054 312.241 159.45C312.877 159.834 313.363 160.344 313.699 160.98C314.035 161.616 314.203 162.3 314.203 163.032C314.203 163.164 314.197 163.296 314.185 163.428C314.185 163.56 314.185 163.71 314.185 163.878H307.075C307.111 164.562 307.267 165.132 307.543 165.588C307.831 166.032 308.185 166.368 308.605 166.596C309.037 166.824 309.493 166.938 309.973 166.938C310.597 166.938 311.119 166.794 311.539 166.506C311.959 166.218 312.265 165.828 312.457 165.336H313.951C313.711 166.164 313.249 166.854 312.565 167.406C311.893 167.946 311.029 168.216 309.973 168.216ZM309.973 160.134C309.253 160.134 308.611 160.356 308.047 160.8C307.495 161.232 307.177 161.868 307.093 162.708H312.709C312.673 161.904 312.397 161.274 311.881 160.818C311.365 160.362 310.729 160.134 309.973 160.134ZM319.177 168.216C318.433 168.216 317.815 168.09 317.323 167.838C316.831 167.586 316.465 167.25 316.225 166.83C315.985 166.41 315.865 165.954 315.865 165.462C315.865 164.55 316.213 163.848 316.909 163.356C317.605 162.864 318.553 162.618 319.753 162.618H322.165V162.51C322.165 161.73 321.961 161.142 321.553 160.746C321.145 160.338 320.599 160.134 319.915 160.134C319.327 160.134 318.817 160.284 318.385 160.584C317.965 160.872 317.701 161.298 317.593 161.862H316.045C316.105 161.214 316.321 160.668 316.693 160.224C317.077 159.78 317.551 159.444 318.115 159.216C318.679 158.976 319.279 158.856 319.915 158.856C321.163 158.856 322.099 159.192 322.723 159.864C323.359 160.524 323.677 161.406 323.677 162.51V168H322.327L322.237 166.398C321.985 166.902 321.613 167.334 321.121 167.694C320.641 168.042 319.993 168.216 319.177 168.216ZM319.411 166.938C319.987 166.938 320.479 166.788 320.887 166.488C321.307 166.188 321.625 165.798 321.841 165.318C322.057 164.838 322.165 164.334 322.165 163.806V163.788H319.879C318.991 163.788 318.361 163.944 317.989 164.256C317.629 164.556 317.449 164.934 317.449 165.39C317.449 165.858 317.617 166.236 317.953 166.524C318.301 166.8 318.787 166.938 319.411 166.938ZM329.227 168C328.411 168 327.769 167.802 327.301 167.406C326.833 167.01 326.599 166.296 326.599 165.264V160.35H325.051V159.072H326.599L326.797 156.93H328.111V159.072H330.739V160.35H328.111V165.264C328.111 165.828 328.225 166.212 328.453 166.416C328.681 166.608 329.083 166.704 329.659 166.704H330.595V168H329.227ZM336.428 168.216C335.576 168.216 334.82 168.024 334.16 167.64C333.5 167.244 332.978 166.698 332.594 166.002C332.222 165.306 332.036 164.484 332.036 163.536C332.036 162.6 332.222 161.784 332.594 161.088C332.966 160.38 333.482 159.834 334.142 159.45C334.814 159.054 335.588 158.856 336.464 158.856C337.328 158.856 338.072 159.054 338.696 159.45C339.332 159.834 339.818 160.344 340.154 160.98C340.49 161.616 340.658 162.3 340.658 163.032C340.658 163.164 340.652 163.296 340.64 163.428C340.64 163.56 340.64 163.71 340.64 163.878H333.53C333.566 164.562 333.722 165.132 333.998 165.588C334.286 166.032 334.64 166.368 335.06 166.596C335.492 166.824 335.948 166.938 336.428 166.938C337.052 166.938 337.574 166.794 337.994 166.506C338.414 166.218 338.72 165.828 338.912 165.336H340.406C340.166 166.164 339.704 166.854 339.02 167.406C338.348 167.946 337.484 168.216 336.428 168.216ZM336.428 160.134C335.708 160.134 335.066 160.356 334.502 160.8C333.95 161.232 333.632 161.868 333.548 162.708H339.164C339.128 161.904 338.852 161.274 338.336 160.818C337.82 160.362 337.184 160.134 336.428 160.134ZM350.396 168.216C349.652 168.216 349.034 168.09 348.542 167.838C348.05 167.586 347.684 167.25 347.444 166.83C347.204 166.41 347.084 165.954 347.084 165.462C347.084 164.55 347.432 163.848 348.128 163.356C348.824 162.864 349.772 162.618 350.972 162.618H353.384V162.51C353.384 161.73 353.18 161.142 352.772 160.746C352.364 160.338 351.818 160.134 351.134 160.134C350.546 160.134 350.036 160.284 349.604 160.584C349.184 160.872 348.92 161.298 348.812 161.862H347.264C347.324 161.214 347.54 160.668 347.912 160.224C348.296 159.78 348.77 159.444 349.334 159.216C349.898 158.976 350.498 158.856 351.134 158.856C352.382 158.856 353.318 159.192 353.942 159.864C354.578 160.524 354.896 161.406 354.896 162.51V168H353.546L353.456 166.398C353.204 166.902 352.832 167.334 352.34 167.694C351.86 168.042 351.212 168.216 350.396 168.216ZM350.63 166.938C351.206 166.938 351.698 166.788 352.106 166.488C352.526 166.188 352.844 165.798 353.06 165.318C353.276 164.838 353.384 164.334 353.384 163.806V163.788H351.098C350.21 163.788 349.58 163.944 349.208 164.256C348.848 164.556 348.668 164.934 348.668 165.39C348.668 165.858 348.836 166.236 349.172 166.524C349.52 166.8 350.006 166.938 350.63 166.938ZM365.456 168C364.64 168 363.998 167.802 363.53 167.406C363.062 167.01 362.828 166.296 362.828 165.264V160.35H361.28V159.072H362.828L363.026 156.93H364.34V159.072H366.968V160.35H364.34V165.264C364.34 165.828 364.454 166.212 364.682 166.416C364.91 166.608 365.312 166.704 365.888 166.704H366.824V168H365.456ZM368.888 168V159.072H370.256L370.382 160.782C370.658 160.194 371.078 159.726 371.642 159.378C372.206 159.03 372.902 158.856 373.73 158.856V160.44H373.316C372.788 160.44 372.302 160.536 371.858 160.728C371.414 160.908 371.06 161.22 370.796 161.664C370.532 162.108 370.4 162.72 370.4 163.5V168H368.888ZM378.686 168.216C377.63 168.216 376.79 167.898 376.166 167.262C375.542 166.614 375.23 165.624 375.23 164.292V159.072H376.742V164.13C376.742 165.99 377.504 166.92 379.028 166.92C379.808 166.92 380.45 166.644 380.954 166.092C381.47 165.528 381.728 164.73 381.728 163.698V159.072H383.24V168H381.872L381.764 166.398C381.488 166.962 381.074 167.406 380.522 167.73C379.982 168.054 379.37 168.216 378.686 168.216ZM385.728 168V155.04H387.24V168H385.728ZM390.691 171.96L392.905 167.136H392.383L388.837 159.072H390.475L393.427 166.02L396.559 159.072H398.125L392.275 171.96H390.691ZM404.484 168V155.04H405.996V160.602C406.296 160.05 406.722 159.624 407.274 159.324C407.826 159.012 408.426 158.856 409.074 158.856C410.106 158.856 410.934 159.18 411.558 159.828C412.182 160.464 412.494 161.448 412.494 162.78V168H411V162.942C411 161.082 410.25 160.152 408.75 160.152C407.97 160.152 407.316 160.434 406.788 160.998C406.26 161.55 405.996 162.342 405.996 163.374V168H404.484ZM417.755 168.216C417.011 168.216 416.393 168.09 415.901 167.838C415.409 167.586 415.043 167.25 414.803 166.83C414.563 166.41 414.443 165.954 414.443 165.462C414.443 164.55 414.791 163.848 415.487 163.356C416.183 162.864 417.131 162.618 418.331 162.618H420.743V162.51C420.743 161.73 420.539 161.142 420.131 160.746C419.723 160.338 419.177 160.134 418.493 160.134C417.905 160.134 417.395 160.284 416.963 160.584C416.543 160.872 416.279 161.298 416.171 161.862H414.623C414.683 161.214 414.899 160.668 415.271 160.224C415.655 159.78 416.129 159.444 416.693 159.216C417.257 158.976 417.857 158.856 418.493 158.856C419.741 158.856 420.677 159.192 421.301 159.864C421.937 160.524 422.255 161.406 422.255 162.51V168H420.905L420.815 166.398C420.563 166.902 420.191 167.334 419.699 167.694C419.219 168.042 418.571 168.216 417.755 168.216ZM417.989 166.938C418.565 166.938 419.057 166.788 419.465 166.488C419.885 166.188 420.203 165.798 420.419 165.318C420.635 164.838 420.743 164.334 420.743 163.806V163.788H418.457C417.569 163.788 416.939 163.944 416.567 164.256C416.207 164.556 416.027 164.934 416.027 165.39C416.027 165.858 416.195 166.236 416.531 166.524C416.879 166.8 417.365 166.938 417.989 166.938ZM424.523 171.96V159.072H425.891L426.035 160.548C426.323 160.116 426.731 159.726 427.259 159.378C427.799 159.03 428.483 158.856 429.311 158.856C430.199 158.856 430.973 159.06 431.633 159.468C432.293 159.876 432.803 160.434 433.163 161.142C433.535 161.85 433.721 162.654 433.721 163.554C433.721 164.454 433.535 165.258 433.163 165.966C432.803 166.662 432.287 167.214 431.615 167.622C430.955 168.018 430.181 168.216 429.293 168.216C428.561 168.216 427.907 168.066 427.331 167.766C426.767 167.466 426.335 167.046 426.035 166.506V171.96H424.523ZM429.131 166.902C429.731 166.902 430.259 166.764 430.715 166.488C431.171 166.2 431.531 165.804 431.795 165.3C432.059 164.796 432.191 164.208 432.191 163.536C432.191 162.864 432.059 162.276 431.795 161.772C431.531 161.268 431.171 160.878 430.715 160.602C430.259 160.314 429.731 160.17 429.131 160.17C428.531 160.17 428.003 160.314 427.547 160.602C427.091 160.878 426.731 161.268 426.467 161.772C426.203 162.276 426.071 162.864 426.071 163.536C426.071 164.208 426.203 164.796 426.467 165.3C426.731 165.804 427.091 166.2 427.547 166.488C428.003 166.764 428.531 166.902 429.131 166.902ZM435.826 171.96V159.072H437.194L437.338 160.548C437.626 160.116 438.034 159.726 438.562 159.378C439.102 159.03 439.786 158.856 440.614 158.856C441.502 158.856 442.276 159.06 442.936 159.468C443.596 159.876 444.106 160.434 444.466 161.142C444.838 161.85 445.024 162.654 445.024 163.554C445.024 164.454 444.838 165.258 444.466 165.966C444.106 166.662 443.59 167.214 442.918 167.622C442.258 168.018 441.484 168.216 440.596 168.216C439.864 168.216 439.21 168.066 438.634 167.766C438.07 167.466 437.638 167.046 437.338 166.506V171.96H435.826ZM440.434 166.902C441.034 166.902 441.562 166.764 442.018 166.488C442.474 166.2 442.834 165.804 443.098 165.3C443.362 164.796 443.494 164.208 443.494 163.536C443.494 162.864 443.362 162.276 443.098 161.772C442.834 161.268 442.474 160.878 442.018 160.602C441.562 160.314 441.034 160.17 440.434 160.17C439.834 160.17 439.306 160.314 438.85 160.602C438.394 160.878 438.034 161.268 437.77 161.772C437.506 162.276 437.374 162.864 437.374 163.536C437.374 164.208 437.506 164.796 437.77 165.3C438.034 165.804 438.394 166.2 438.85 166.488C439.306 166.764 439.834 166.902 440.434 166.902ZM451.143 168.216C450.291 168.216 449.535 168.024 448.875 167.64C448.215 167.244 447.693 166.698 447.309 166.002C446.937 165.306 446.751 164.484 446.751 163.536C446.751 162.6 446.937 161.784 447.309 161.088C447.681 160.38 448.197 159.834 448.857 159.45C449.529 159.054 450.303 158.856 451.179 158.856C452.043 158.856 452.787 159.054 453.411 159.45C454.047 159.834 454.533 160.344 454.869 160.98C455.205 161.616 455.373 162.3 455.373 163.032C455.373 163.164 455.367 163.296 455.355 163.428C455.355 163.56 455.355 163.71 455.355 163.878H448.245C448.281 164.562 448.437 165.132 448.713 165.588C449.001 166.032 449.355 166.368 449.775 166.596C450.207 166.824 450.663 166.938 451.143 166.938C451.767 166.938 452.289 166.794 452.709 166.506C453.129 166.218 453.435 165.828 453.627 165.336H455.121C454.881 166.164 454.419 166.854 453.735 167.406C453.063 167.946 452.199 168.216 451.143 168.216ZM451.143 160.134C450.423 160.134 449.781 160.356 449.217 160.8C448.665 161.232 448.347 161.868 448.263 162.708H453.879C453.843 161.904 453.567 161.274 453.051 160.818C452.535 160.362 451.899 160.134 451.143 160.134ZM457.377 168V159.072H458.745L458.835 160.674C459.123 160.11 459.537 159.666 460.077 159.342C460.617 159.018 461.229 158.856 461.913 158.856C462.969 158.856 463.809 159.18 464.433 159.828C465.069 160.464 465.387 161.448 465.387 162.78V168H463.875V162.942C463.875 161.082 463.107 160.152 461.571 160.152C460.803 160.152 460.161 160.434 459.645 160.998C459.141 161.55 458.889 162.342 458.889 163.374V168H457.377ZM471.098 168.216C470.03 168.216 469.142 167.946 468.434 167.406C467.726 166.866 467.312 166.134 467.192 165.21H468.74C468.836 165.678 469.082 166.086 469.478 166.434C469.886 166.77 470.432 166.938 471.116 166.938C471.752 166.938 472.22 166.806 472.52 166.542C472.82 166.266 472.97 165.942 472.97 165.57C472.97 165.03 472.772 164.67 472.376 164.49C471.992 164.31 471.446 164.148 470.738 164.004C470.258 163.908 469.778 163.77 469.298 163.59C468.818 163.41 468.416 163.158 468.092 162.834C467.768 162.498 467.606 162.06 467.606 161.52C467.606 160.74 467.894 160.104 468.47 159.612C469.058 159.108 469.85 158.856 470.846 158.856C471.794 158.856 472.568 159.096 473.168 159.576C473.78 160.044 474.134 160.716 474.23 161.592H472.736C472.676 161.136 472.478 160.782 472.142 160.53C471.818 160.266 471.38 160.134 470.828 160.134C470.288 160.134 469.868 160.248 469.568 160.476C469.28 160.704 469.136 161.004 469.136 161.376C469.136 161.736 469.322 162.018 469.694 162.222C470.078 162.426 470.594 162.6 471.242 162.744C471.794 162.864 472.316 163.014 472.808 163.194C473.312 163.362 473.72 163.62 474.032 163.968C474.356 164.304 474.518 164.796 474.518 165.444C474.53 166.248 474.224 166.914 473.6 167.442C472.988 167.958 472.154 168.216 471.098 168.216ZM477.2 168.09C476.9 168.09 476.648 167.994 476.444 167.802C476.252 167.598 476.156 167.352 476.156 167.064C476.156 166.776 476.252 166.536 476.444 166.344C476.648 166.14 476.9 166.038 477.2 166.038C477.488 166.038 477.728 166.14 477.92 166.344C478.124 166.536 478.226 166.776 478.226 167.064C478.226 167.352 478.124 167.598 477.92 167.802C477.728 167.994 477.488 168.09 477.2 168.09Z" fill="#495460"/>
</svg>
